<?xml version="1.0" standalone="no"?>
<!DOCTYPE svg PUBLIC "-//W3C//DTD SVG 20010904//EN"
 "http://www.w3.org/TR/2001/REC-SVG-20010904/DTD/svg10.dtd">
<svg version="1.0" xmlns="http://www.w3.org/2000/svg"
 width="42.000000pt" height="42.000000pt" viewBox="0 0 42.000000 42.000000"
 preserveAspectRatio="xMidYMid meet">

<g transform="translate(0.000000,42.000000) scale(0.100000,-0.100000)"
fill="#000000" stroke="none">
<path d="M375 370 c-19 -18 -22 -18 -68 -3 -39 13 -56 14 -86 4 -60 -17 -88
-46 -127 -129 -20 -42 -48 -92 -62 -111 -24 -32 -24 -35 -8 -47 44 -32 204
-45 278 -22 22 6 52 27 70 46 27 32 30 40 25 86 -3 40 -11 55 -36 78 -77 69
-203 1 -162 -88 25 -57 116 -49 116 10 0 16 -5 31 -12 33 -8 3 -11 -6 -10 -24
2 -25 -2 -28 -30 -31 -27 -3 -35 1 -45 23 -10 22 -8 30 9 53 46 62 139 28 150
-54 5 -36 1 -46 -24 -74 -27 -30 -37 -34 -91 -38 -59 -4 -63 -3 -96 30 -45 45
-55 100 -28 162 13 28 31 50 51 60 37 20 107 20 141 1 23 -12 27 -11 53 13 27
25 34 42 19 42 -4 0 -16 -9 -27 -20z m-227 -274 l27 -28 -45 7 c-25 4 -55 11
-67 16 l-23 8 25 37 c14 20 25 42 26 48 0 6 7 -5 16 -24 8 -19 27 -48 41 -64z"/>
</g>
</svg>
