<?xml version="1.0" standalone="no"?>
<!DOCTYPE svg PUBLIC "-//W3C//DTD SVG 20010904//EN"
 "http://www.w3.org/TR/2001/REC-SVG-20010904/DTD/svg10.dtd">
<svg version="1.0" xmlns="http://www.w3.org/2000/svg"
 width="320.000000pt" height="320.000000pt" viewBox="0 0 320.000000 320.000000"
 preserveAspectRatio="xMidYMid meet">

<g transform="translate(0.000000,320.000000) scale(0.100000,-0.100000)"
fill="#000000" stroke="none">
<path d="M3045 2931 c-11 -5 -89 -76 -174 -158 l-154 -148 -102 50 c-200 99
-379 144 -611 152 -362 13 -644 -96 -895 -346 -159 -158 -291 -383 -492 -842
-123 -279 -232 -496 -295 -584 -27 -38 -102 -130 -166 -202 -123 -140 -138
-169 -116 -224 25 -60 330 -191 600 -259 275 -69 508 -95 855 -94 463 0 780
54 1031 173 348 166 534 420 574 781 42 383 -166 778 -500 945 -297 149 -659
124 -888 -63 -202 -165 -290 -364 -262 -597 32 -266 151 -400 420 -476 122
-34 286 -22 385 28 141 72 245 227 245 367 0 121 -46 208 -133 249 -65 31
-115 19 -143 -34 -21 -41 -10 -82 29 -114 18 -14 38 -30 45 -36 23 -19 14
-100 -18 -156 -67 -118 -207 -165 -358 -123 -209 58 -284 155 -285 369 -1 114
19 177 88 270 89 121 230 202 388 223 142 19 316 -21 453 -103 221 -134 371
-438 350 -707 -32 -391 -302 -653 -771 -751 -260 -53 -448 -30 -675 84 -303
152 -477 412 -531 794 -15 106 -6 363 15 450 56 223 214 457 406 603 82 63
221 131 325 159 100 27 322 37 448 20 163 -22 327 -80 492 -175 44 -25 92 -46
108 -46 31 0 57 22 256 215 192 186 181 173 181 216 0 66 -68 115 -125 90z
m-2291 -1566 c10 -96 59 -278 101 -375 81 -185 239 -374 399 -479 l78 -51 -78
6 c-250 17 -491 59 -689 119 -116 36 -285 103 -285 114 0 3 28 38 61 76 138
158 240 323 350 567 24 53 46 95 50 92 3 -2 9 -33 13 -69z"/>
</g>
</svg>
