<svg xmlns="http://www.w3.org/2000/svg" xmlns:xlink="http://www.w3.org/1999/xlink" width="1366" height="483" viewBox="0 0 1366 483">
    <defs>
        <path id="prefix__a" d="M0 0L1366 0 1366 333 0 483z"/>
        <path id="prefix__c" d="M0.207 0.495L204.721 0.495 204.721 283.342 0.207 283.342z"/>
        <path id="prefix__e" d="M0.505 0.495L205.019 0.495 205.019 283.342 0.505 283.342z"/>
        <path id="prefix__g" d="M0 347L500 347 500 0.495 0 0.495z"/>
        <path id="prefix__i" d="M0.587 0.451L5.124 0.451 5.124 1.401 0.587 1.401z"/>
    </defs>
    <g fill="none" fill-rule="evenodd">
        <mask id="prefix__b" fill="#fff">
            <use xlink:href="#prefix__a"/>
        </mask>
        <use fill="#3F50B5" xlink:href="#prefix__a"/>
        <g mask="url(#prefix__b)">
            <g>
                <g opacity=".093">
                    <path fill="#ECECEC" d="M416.779 344.791L449.901 344.791 449.901 344.541 416.779 344.541zM322.527 347.505L331.221 347.505 331.221 347.255 322.527 347.255zM396.586 335.505L415.778 335.505 415.778 335.255 396.586 335.255zM52.459 337.186L95.653 337.186 95.653 336.936 52.459 336.936zM104.556 337.186L110.889 337.186 110.889 336.936 104.556 336.936zM131.471 341.407L225.147 341.407 225.147 341.157 131.471 341.157z" transform="translate(808 11)"/>
                    <g transform="translate(808 11) translate(0 .505)">
                        <g transform="translate(38)">
                            <mask id="prefix__d" fill="#fff">
                                <use xlink:href="#prefix__c"/>
                            </mask>
                            <path fill="#ECECEC" d="M5.915.745C2.905.745.457 3.193.457 6.203v271.43c0 3.01 2.448 5.459 5.458 5.459h193.1c3.007 0 5.456-2.448 5.456-5.458V6.203c0-3.01-2.449-5.458-5.457-5.458H5.915zm193.1 282.597H5.914c-3.147 0-5.708-2.56-5.708-5.708V6.203C.207 3.056 2.768.495 5.915.495h193.1c3.145 0 5.706 2.56 5.706 5.708v271.43c0 3.149-2.56 5.709-5.707 5.709z" mask="url(#prefix__d)"/>
                        </g>
                        <g transform="translate(254)">
                            <mask id="prefix__f" fill="#fff">
                                <use xlink:href="#prefix__e"/>
                            </mask>
                            <path fill="#ECECEC" d="M6.212.745C3.203.745.755 3.193.755 6.203v271.43c0 3.01 2.448 5.459 5.457 5.459h193.1c3.008 0 5.457-2.448 5.457-5.458V6.203c0-3.01-2.449-5.458-5.458-5.458H6.212zm193.1 282.597H6.211c-3.146 0-5.707-2.56-5.707-5.708V6.203C.505 3.056 3.066.495 6.212.495h193.1c3.146 0 5.707 2.56 5.707 5.708v271.43c0 3.149-2.56 5.709-5.708 5.709z" mask="url(#prefix__f)"/>
                        </g>
                        <mask id="prefix__h" fill="#fff">
                            <use xlink:href="#prefix__g"/>
                        </mask>
                        <path fill="#F5F5F5" d="M412.849 238.3c-11.35 8.752-14.631 27.907-15.201 41.41-.052 1.233-1.972 1.238-1.92 0 .603-14.301 3.859-33.59 16.152-43.067.977-.754 1.934.913.969 1.657" mask="url(#prefix__h)"/>
                        <path fill="#E7E7E7" d="M386.503 228.506c2.894-.334 5.331 2.625 6.588 4.799 6.53 11.287 4.003 28.32 2.767 40.432-.125 1.218-2.046 1.23-1.92 0 1.203-11.787 3.391-27.142-1.934-38.345-.914-1.923-2.867-5.27-5.5-4.966-1.226.142-1.216-1.78 0-1.92" mask="url(#prefix__h)"/>
                        <path fill="#E7E7E7" d="M379.469 244.012c12.14-2.997 13.656 23.92 14.015 29.726.076 1.234-1.844 1.229-1.92 0-.486-7.854-.873-19.106-6.554-25.41-1.15-1.272-3.144-2.93-5.031-2.464-1.2.295-1.711-1.555-.51-1.852M415.449 257.073c-10.036-7.435-13.303 12.101-13.858 17.731-.121 1.218-2.041 1.231-1.92 0 .63-6.388 1.6-17.96 8.98-20.645 2.53-.92 5.61-.342 7.767 1.256.982.727.026 2.395-.97 1.658" mask="url(#prefix__h)"/>
                        <path fill="#F5F5F5" d="M375.526 260.599c1.507-1.524 3.824-2.537 5.974-2.177 6.122 1.029 7.82 10.266 8.75 15.06.234 1.208-1.616 1.725-1.851.512-.801-4.138-4.66-18.972-11.516-12.037-.87.88-2.227-.477-1.357-1.358" mask="url(#prefix__h)"/>
                        <path fill="#ECECEC" d="M411.678 323.555h-29.034c-5.093-4.325-8.336-10.76-8.336-17.968 0-8.234 4.628-32.935 4.628-32.935h36.45s4.628 24.7 4.628 32.935c0 7.209-3.242 13.643-8.336 17.968" mask="url(#prefix__h)"/>
                        <path fill="#F5F5F5" d="M416.298 266.546c-8.755 0-17.324-3.55-19.137-7.927-1.814-4.378 3.815-7.927 12.57-7.927 2.891 0 5.756.393 8.37 1.069 2.054-.676 4.593-1.07 7.484-1.07 8.756 0 17.324 3.55 19.137 7.928 1.814 4.378-3.814 7.927-12.57 7.927h-15.854z" mask="url(#prefix__h)" opacity=".658"/>
                        <path fill="#F0F0F0" d="M359.169 249.576c-7.162 0-10.064-2.903-6.484-6.484 3.58-3.58 12.29-6.484 19.452-6.484 2.365 0 4.253.322 5.609.874 2.462-.552 4.993-.874 7.359-.874 7.16 0 10.064 2.903 6.483 6.484-3.581 3.581-12.29 6.484-19.451 6.484h-12.968z" mask="url(#prefix__h)" opacity=".638"/>
                        <path fill="#ECECEC" d="M425.035 243.092c-9.01 0-19.967-3.652-24.473-8.157-4.505-4.506-.853-8.158 8.158-8.158 2.975 0 6.161.405 9.258 1.1 1.706-.695 4.081-1.1 7.057-1.1 9.011 0 19.967 3.652 24.473 8.158 4.505 4.505.853 8.157-8.158 8.157h-16.315z" mask="url(#prefix__h)" opacity=".638"/>
                        <path fill="#F0F0F0" d="M374.942 232.559c-4.505 0-7.4-1.826-6.468-4.08.933-2.252 5.342-4.077 9.847-4.077 1.488 0 2.794.202 3.851.55 1.345-.348 2.82-.55 4.307-.55 4.505 0 7.401 1.825 6.468 4.078-.933 2.253-5.342 4.079-9.847 4.079h-8.158z" mask="url(#prefix__h)" opacity=".638"/>
                        <path fill="#ECECEC" d="M369.747 265.192c-4.505 0-8.914-1.826-9.847-4.079-.933-2.252 1.963-4.078 6.468-4.078 1.487 0 2.962.202 4.307.55 1.056-.348 2.363-.55 3.85-.55 4.506 0 8.914 1.826 9.847 4.078.934 2.253-1.962 4.08-6.468 4.08h-8.157z" mask="url(#prefix__h)" opacity=".638"/>
                        <path fill="#F5F5F5" d="M378.11 277.226c.49-2.775.826-4.574.826-4.574h36.45s.337 1.799.827 4.574H378.11z" mask="url(#prefix__h)"/>
                        <path fill="#FAFAFA" d="M376.525 239.059s-10 3.334-13.167 8.834c0 0 .5-8 13.167-8.834M381.228 225.98s-2.604 1.449-4.186 3.615c0 0 .79-3.148 4.186-3.615M420.014 229.595s10.835 3.964 17.502 11.464c0 0-5.17-10.428-17.502-11.464" mask="url(#prefix__h)"/>
                        <path fill="#E7E7E7" d="M420.014 253.72s6.502 2.339 11.335 8.839c0 0-2.003-7.51-11.335-8.838" mask="url(#prefix__h)"/>
                        <path fill="#FAFAFA" d="M370.85 259.22s2.5 1.089 2.832 4.339c0 0-2.333-2.01-2.833-4.338" mask="url(#prefix__h)"/>
                        <path fill="#F5F5F5" d="M308.254 117.637L440.551 117.637 440.551 113.017 308.254 113.017z" mask="url(#prefix__h)"/>
                        <path fill="#E1E1E1" d="M343.511 117.637h-22.13V128.007h11.065c0-2.623 2.126-4.75 4.75-4.75h6.315v-5.62z" mask="url(#prefix__h)"/>
                        <path fill="#F5F5F5" d="M333.511 117.637h-16.13v10.37h5.065c0-2.623 2.126-4.75 4.75-4.75h6.315v-5.62z" mask="url(#prefix__h)"/>
                        <path fill="#ECECEC" d="M405.295 117.637h22.13V128.007H416.36c0-2.623-2.127-4.75-4.75-4.75h-6.315v-5.62z" mask="url(#prefix__h)"/>
                        <path fill="#F5F5F5" d="M415.295 117.637h16.13v10.37h-5.065c0-2.623-2.127-4.75-4.75-4.75h-6.315v-5.62z" mask="url(#prefix__h)"/>
                        <path fill="#ECECEC" d="M390.23 113.466h11.52c2.021-1.716 3.307-4.27 3.307-7.13 0-3.266-1.836-22.672-1.836-22.672H388.76s-1.836 19.406-1.836 22.673c0 2.86 1.286 5.413 3.307 7.129" mask="url(#prefix__h)" opacity=".674"/>
                        <path fill="#F5F5F5" d="M397.556 100.658c-.05.928-.078 1.668-.078 2.161 0 4.272 1.92 8.084 4.939 10.647h17.205c3.018-2.563 4.939-6.375 4.939-10.647 0-.493-.028-1.233-.078-2.16h-26.927z" mask="url(#prefix__h)" opacity=".674"/>
                        <path fill="#E1E1E1" d="M371.912 107.855c-1.564 0-3.453-1.273-3.453-2.854 0-.669.162-2.854 2.256-2.854.482 0 .996.121 1.475.335-.028 1.774-.045 3.171-.045 3.855 0 .51.055 1.006.133 1.494-.115.015-.237.024-.366.024m18.295-7.065c-.021-1.233-1.026-2.225-2.258-2.225h-13.473c-1.232 0-2.238.992-2.258 2.225l-.003.166c-.494-.158-1.003-.248-1.5-.248-2.21 0-3.694 1.725-3.694 4.293 0 2.457 2.582 4.292 4.89 4.292.244 0 .474-.029.698-.069.543 1.668 1.536 3.131 2.844 4.242h11.519c2.02-1.716 3.308-4.269 3.308-7.129 0-.89-.03-2.98-.073-5.547" mask="url(#prefix__h)" opacity=".421"/>
                        <path fill="#ECECEC" d="M152.603 220.727L218.752 220.727 218.752 75.761 152.603 75.761zM86.455 220.727L152.603 220.727 152.603 75.761 86.455 75.761z" mask="url(#prefix__h)" opacity=".421"/>
                        <path fill="#E1E1E1" d="M188.931 313.185h22.131V323.555h-11.066c0-2.623-2.126-4.75-4.75-4.75h-6.315v-5.62zM116.275 313.185h-22.13V323.555h11.065c0-2.623 2.127-4.75 4.75-4.75h6.315v-5.62z" mask="url(#prefix__h)" opacity=".421"/>
                        <path fill="#ECECEC" d="M86.455 266.393L218.752 266.393 218.752 220.727 86.455 220.727zM86.455 312.06L218.752 312.06 218.752 266.393 86.455 266.393z" mask="url(#prefix__h)" opacity=".421"/>
                        <path fill="#E1E1E1" d="M86.455 227.75L218.752 227.75 218.752 223.129 86.455 223.129zM86.455 82.381L152.603 82.381 152.603 77.761 86.455 77.761zM152.603 82.381L218.752 82.381 218.752 77.761 152.603 77.761zM86.455 273.059L218.752 273.059 218.752 268.439 86.455 268.439z" mask="url(#prefix__h)" opacity=".421"/>
                        <path fill="#F5F5F5" d="M88.765 309.435h127.677v-40.627H88.765v40.627zm0-90.496h61.528V78.07H88.765v140.869zm66.148.001h61.529V78.071h-61.529V218.94zm-66.148 45.247h127.677v-40.628H88.765v40.628zM218.752 73.451H84.145v240.604h136.917V73.451h-2.31z" mask="url(#prefix__h)" opacity=".259"/>
                        <path fill="#F5F5F5" d="M106.275 313.185h-22.13V323.555H95.21c0-2.623 2.127-4.75 4.75-4.75h6.315v-5.62zM198.931 313.185h22.131V323.555h-11.066c0-2.623-2.126-4.75-4.75-4.75h-6.315v-5.62z" mask="url(#prefix__h)"/>
                        <path fill="#E1E1E1" d="M158.273 247.56c0 3.13-2.538 5.669-5.67 5.669-3.13 0-5.668-2.538-5.668-5.67 0-3.13 2.538-5.668 5.669-5.668 3.13 0 5.669 2.538 5.669 5.669" mask="url(#prefix__h)"/>
                        <path fill="#F5F5F5" d="M158.273 243.56c0 3.13-2.538 5.669-5.67 5.669-3.13 0-5.668-2.538-5.668-5.67 0-3.13 2.538-5.668 5.669-5.668 3.13 0 5.669 2.538 5.669 5.669" mask="url(#prefix__h)"/>
                        <path fill="#E1E1E1" d="M158.273 293.227c0 3.13-2.538 5.669-5.67 5.669-3.13 0-5.668-2.538-5.668-5.67 0-3.13 2.538-5.67 5.669-5.67 3.13 0 5.669 2.54 5.669 5.67" mask="url(#prefix__h)"/>
                        <path fill="#F5F5F5" d="M158.273 289.227c0 3.13-2.538 5.669-5.67 5.669-3.13 0-5.668-2.538-5.668-5.67 0-3.13 2.538-5.67 5.669-5.67 3.13 0 5.669 2.54 5.669 5.67" mask="url(#prefix__h)"/>
                        <path fill="#E1E1E1" d="M145.111 145.41c0-1.567-1.269-2.836-2.834-2.836-1.566 0-2.835 1.27-2.835 2.835v9.67c0 1.564 1.269 2.834 2.835 2.834 1.565 0 2.834-1.27 2.834-2.835v-9.669z" mask="url(#prefix__h)"/>
                        <path fill="#F5F5F5" d="M145.111 141.41c0-1.567-1.269-2.836-2.834-2.836-1.566 0-2.835 1.27-2.835 2.835v9.67c0 1.564 1.269 2.834 2.835 2.834 1.565 0 2.834-1.27 2.834-2.835v-9.669z" mask="url(#prefix__h)"/>
                        <path fill="#E1E1E1" d="M165.942 145.41c0-1.567-1.269-2.836-2.835-2.836-1.565 0-2.834 1.27-2.834 2.835v9.67c0 1.564 1.27 2.834 2.834 2.834 1.566 0 2.835-1.27 2.835-2.835v-9.669z" mask="url(#prefix__h)"/>
                        <path fill="#F5F5F5" d="M165.942 141.41c0-1.567-1.269-2.836-2.835-2.836-1.565 0-2.834 1.27-2.834 2.835v9.67c0 1.564 1.27 2.834 2.834 2.834 1.566 0 2.835-1.27 2.835-2.835v-9.669zM308.254 160.819L440.551 160.819 440.551 156.199 308.254 156.199z" mask="url(#prefix__h)"/>
                        <path fill="#E1E1E1" d="M343.511 160.82h-22.13V171.19h11.065c0-2.624 2.126-4.75 4.75-4.75h6.315v-5.62z" mask="url(#prefix__h)"/>
                        <path fill="#F5F5F5" d="M333.511 160.82h-16.13v10.37h5.065c0-2.624 2.126-4.75 4.75-4.75h6.315v-5.62z" mask="url(#prefix__h)"/>
                        <path fill="#ECECEC" d="M405.295 160.82h22.13V171.19H416.36c0-2.624-2.127-4.75-4.75-4.75h-6.315v-5.62z" mask="url(#prefix__h)"/>
                        <path fill="#F5F5F5" d="M415.295 160.82h16.13v10.37h-5.065c0-2.624-2.127-4.75-4.75-4.75h-6.315v-5.62z" mask="url(#prefix__h)"/>
                        <path fill="#F0F0F0" d="M379.255 142.009c0-7.683 6.229-13.912 13.912-13.912 7.683 0 13.912 6.229 13.912 13.912v14.396h-27.824v-14.396z" mask="url(#prefix__h)"/>
                        <path fill="#FAFAFA" d="M404.035 142.009c0 6.003-4.866 10.869-10.869 10.869s-10.868-4.866-10.868-10.87c0-6.001 4.865-10.868 10.868-10.868s10.87 4.867 10.87 10.869" mask="url(#prefix__h)"/>
                        <path fill="#E1E1E1" d="M393.167 132.857c5.713 0 10.387 4.41 10.825 10.01.023-.284.044-.569.044-.858 0-6.002-4.867-10.868-10.87-10.868-6.002 0-10.868 4.865-10.868 10.868 0 .29.02.575.043.859.439-5.601 5.113-10.011 10.826-10.011" mask="url(#prefix__h)"/>
                        <path fill="#E1E1E1" d="M400.03 142.003h-5.713v-5.714c0-.636-.515-1.15-1.15-1.15-.636 0-1.15.514-1.15 1.15v6.864c0 .635.514 1.15 1.15 1.15h6.864c.635 0 1.15-.515 1.15-1.15 0-.635-.515-1.15-1.15-1.15" mask="url(#prefix__h)"/>
                        <path fill="#F5F5F5" d="M400.03 143.159c.636 0 1.15-.515 1.15-1.15 0-.635-.514-1.15-1.15-1.15h-6.863c-.636 0-1.15.515-1.15 1.15 0 .635.514 1.15 1.15 1.15h6.864z" mask="url(#prefix__h)"/>
                        <path fill="#ECECEC" d="M394.317 135.144c0-.635-.515-1.15-1.15-1.15-.635 0-1.15.516-1.15 1.15v6.864c0 .636.515 1.15 1.15 1.15.635 0 1.15-.513 1.15-1.15v-6.864z" mask="url(#prefix__h)"/>
                    </g>
                </g>
                <g>
                    <g>
                        <path fill="#007CFF" d="M119.749 296.601H15.063c-8.607 0-15.216-6.977-14.766-15.582L13.899 21.483c.453-8.606 7.794-15.582 16.4-15.582h104.685c8.606 0 15.218 6.976 14.766 15.582L136.148 281.02c-.452 8.605-7.793 15.582-16.4 15.582" transform="translate(808 11) translate(146 31) translate(84 .549)"/>
                        <path fill="#007CFF" d="M134.435 16.351H29.751c-5.45 0-10.116 4.433-10.4 9.882L6.247 276.27c-.287 5.45 3.915 9.882 9.364 9.882h104.685c5.45 0 10.115-4.433 10.4-9.882l13.105-250.036c.285-5.449-3.916-9.882-9.365-9.882" transform="translate(808 11) translate(146 31) translate(84 .549)"/>
                        <path fill="#FFF" d="M134.435 16.351H29.751c-5.45 0-10.116 4.433-10.4 9.882L6.247 276.27c-.287 5.45 3.915 9.882 9.364 9.882h104.685c5.45 0 10.115-4.433 10.4-9.882l13.105-250.036c.285-5.449-3.916-9.882-9.365-9.882" opacity=".178" transform="translate(808 11) translate(146 31) translate(84 .549)"/>
                        <path fill="#007CFF" d="M143.533 5.901h-8.55c8.606 0 15.217 6.977 14.766 15.583L136.147 281.02c-.45 8.606-7.793 15.582-16.399 15.582h8.55c8.606 0 15.948-6.976 16.4-15.582l13.601-259.535c.451-8.606-6.16-15.583-14.766-15.583" transform="translate(808 11) translate(146 31) translate(84 .549)"/>
                        <path fill="#FFF" d="M143.533 5.901h-8.55c8.606 0 15.217 6.977 14.766 15.583L136.147 281.02c-.45 8.606-7.793 15.582-16.399 15.582h8.55c8.606 0 15.948-6.976 16.4-15.582l13.601-259.535c.451-8.606-6.16-15.583-14.766-15.583" opacity=".293" transform="translate(808 11) translate(146 31) translate(84 .549)"/>
                        <path fill="#FFF" d="M29.737 16.352L43.954 286.15h37.051L66.787 16.35h-37.05M87.655 286.151L95.989 286.151 81.772 16.351 73.438 16.351z" opacity=".183" transform="translate(808 11) translate(146 31) translate(84 .549)"/>
                        <g transform="translate(808 11) translate(146 31) translate(84 .549) translate(34)">
                            <mask id="prefix__j" fill="#fff">
                                <use xlink:href="#prefix__i"/>
                            </mask>
                            <path fill="#007CFF" d="M1.022 1.351h3.667c.58 0 .58-.9 0-.9H1.022c-.58 0-.58.9 0 .9" mask="url(#prefix__j)"/>
                        </g>
                        <path fill="#007CFF" d="M8.342 30.974c.225-4.28.048-8.854.974-13.055 2.126-9.642 10.783-16.24 20.48-16.568.577-.02.58-.92 0-.9C21.133.745 13.295 5.68 9.758 13.71c-2.354 5.347-2.016 11.54-2.316 17.264-.03.579.87.577.9 0" transform="translate(808 11) translate(146 31) translate(84 .549)"/>
                        <path fill="#FFF" d="M90.341 69.906H66.336c-4.51 0-7.974-3.656-7.738-8.165l1.26-24.005c.235-4.51 4.082-8.165 8.592-8.165h24.005c4.51 0 7.973 3.655 7.737 8.165L98.934 61.74c-.236 4.509-4.084 8.165-8.593 8.165" transform="translate(808 11) translate(146 31) translate(84 .549)"/>
                        <path fill="#007CFF" d="M75.019 53.36c-1.54-1.559-2.578-3.939-2.807-6.696-.034.003-.068.007-.103.007-.971 0-1.703-1.067-1.633-2.382.068-1.316.911-2.383 1.883-2.383.085 0 .169.012.25.028.056-.217.117-.428.181-.639 5.786-.315 9.048-2.228 10.769-3.783.762 1.404 1.964 2.816 3.801 3.265.092.376.17.761.229 1.157.084-.016.168-.028.254-.028.971 0 1.702 1.067 1.633 2.383-.069 1.315-.912 2.382-1.883 2.382-.034 0-.068-.004-.102-.007-.485 2.58-1.645 4.831-3.188 6.387.862.33 2.189.545 4.238.426 5.846-.34 2.761-12.365-.387-16.675-1.929-2.643-2.987-3.875-4.098-3.379-1.214-.669-8.542-3.696-13.284 5.194-4.923 9.232-6.382 17.631 4.247 14.743M91.125 59.83l-6.05-1.928s-5.23 2.009-6.472 6.97c-.723-4.961-5.742-6.97-5.742-6.97l-6.253 1.928c-3.745.522-5.571 3.735-6.454 7.052 1.4 1.844 3.622 3.024 6.182 3.024H90.34c2.56 0 4.905-1.18 6.499-3.024-.535-3.317-2.024-6.53-5.715-7.052" transform="translate(808 11) translate(146 31) translate(84 .549)"/>
                        <path fill="#007CFF" d="M97.289 69.581c-1.775 0-3.14-1.439-3.046-3.215.092-1.776 1.608-3.215 3.383-3.215 1.776 0 3.14 1.44 3.046 3.215-.092 1.776-1.607 3.215-3.383 3.215m10.42-3.215c.026-.48.015-.954-.025-1.418l2.383-2.054c-.228-1.009-.578-1.968-1.035-2.86l-3.069.156c-.533-.758-1.173-1.433-1.901-2.006l.317-3.06c-.866-.504-1.804-.904-2.798-1.186l-2.173 2.276c-.461-.064-.932-.1-1.413-.1s-.956.036-1.423.1l-1.935-2.276c-1.024.282-2.003.682-2.923 1.185l-.004 3.061c-.787.573-1.498 1.248-2.111 2.006l-3.052-.156c-.55.892-1.001 1.851-1.335 2.86l2.168 2.054c-.089.464-.149.937-.174 1.418-.025.481-.015.954.025 1.418l-2.383 2.054c.228 1.01.578 1.968 1.035 2.86l3.069-.156c.533.758 1.173 1.433 1.9 2.006l-.316 3.06c.866.504 1.804.905 2.798 1.185l2.174-2.275c.46.064.931.1 1.412.1.482 0 .956-.036 1.423-.1l1.936 2.275c1.023-.28 2.003-.68 2.922-1.185l.004-3.06c.788-.573 1.499-1.248 2.111-2.006l3.052.156c.551-.892 1.001-1.85 1.336-2.86l-2.169-2.054c.088-.464.15-.937.174-1.418" transform="translate(808 11) translate(146 31) translate(84 .549)"/>
                        <path fill="#FFF" d="M97.289 69.581c-1.775 0-3.14-1.439-3.046-3.215.092-1.776 1.608-3.215 3.383-3.215 1.776 0 3.14 1.44 3.046 3.215-.092 1.776-1.607 3.215-3.383 3.215m10.42-3.215c.026-.48.015-.954-.025-1.418l2.383-2.054c-.228-1.009-.578-1.968-1.035-2.86l-3.069.156c-.533-.758-1.173-1.433-1.901-2.006l.317-3.06c-.866-.504-1.804-.904-2.798-1.186l-2.173 2.276c-.461-.064-.932-.1-1.413-.1s-.956.036-1.423.1l-1.935-2.276c-1.024.282-2.003.682-2.923 1.185l-.004 3.061c-.787.573-1.498 1.248-2.111 2.006l-3.052-.156c-.55.892-1.001 1.851-1.335 2.86l2.168 2.054c-.089.464-.149.937-.174 1.418-.025.481-.015.954.025 1.418l-2.383 2.054c.228 1.01.578 1.968 1.035 2.86l3.069-.156c.533.758 1.173 1.433 1.9 2.006l-.316 3.06c.866.504 1.804.905 2.798 1.185l2.174-2.275c.46.064.931.1 1.412.1.482 0 .956-.036 1.423-.1l1.936 2.275c1.023-.28 2.003-.68 2.922-1.185l.004-3.06c.788-.573 1.499-1.248 2.111-2.006l3.052.156c.551-.892 1.001-1.85 1.336-2.86l-2.169-2.054c.088-.464.15-.937.174-1.418" transform="translate(808 11) translate(146 31) translate(84 .549)"/>
                        <path fill="#FFF" d="M97.289 69.581c-1.775 0-3.14-1.439-3.046-3.215.092-1.776 1.608-3.215 3.383-3.215 1.776 0 3.14 1.44 3.046 3.215-.092 1.776-1.607 3.215-3.383 3.215" transform="translate(808 11) translate(146 31) translate(84 .549)"/>
                        <path fill="#007CFF" d="M76.666 180.575L73.262 180.575 73.569 174.717 76.973 174.717zM92.183 180.575L88.779 180.575 89.285 170.917 92.689 170.917zM107.7 180.575L104.296 180.575 105.001 167.116 108.405 167.116z" transform="translate(808 11) translate(146 31) translate(84 .549)"/>
                        <path fill="#FFF" d="M123.216 180.575L119.812 180.575 120.716 163.316 124.12 163.316zM29.638 180.575h17.305c4.778 0 8.856-3.874 9.106-8.652.251-4.78-3.42-8.654-8.199-8.654H30.545c-4.779 0-8.856 3.874-9.106 8.654-.25 4.778 3.42 8.652 8.2 8.652" transform="translate(808 11) translate(146 31) translate(84 .549)"/>
                        <path fill="#007CFF" d="M30.445 165.17H47.75c4.458 0 7.948 3.37 8.195 7.702.05-.311.087-.628.104-.95.25-4.778-3.42-8.652-8.199-8.652H30.545c-4.779 0-8.856 3.874-9.106 8.653-.017.32-.013.638.005.949.7-4.331 4.544-7.702 9.001-7.702" transform="translate(808 11) translate(146 31) translate(84 .549)"/>
                        <path fill="#FFF" d="M30.445 165.17H47.75c4.458 0 7.948 3.37 8.195 7.702.05-.311.087-.628.104-.95.25-4.778-3.42-8.652-8.199-8.652H30.545c-4.779 0-8.856 3.874-9.106 8.653-.017.32-.013.638.005.949.7-4.331 4.544-7.702 9.001-7.702" transform="translate(808 11) translate(146 31) translate(84 .549)"/>
                        <path fill="#007CFF" d="M21.439 171.923c.25-4.78 4.328-8.653 9.106-8.653 4.779 0 8.45 3.874 8.199 8.653-.25 4.778-4.327 8.652-9.106 8.652-4.78 0-8.45-3.874-8.2-8.652M19.893 255.141L16.489 255.141 16.895 247.382 20.3 247.382zM32.511 253.241L29.107 253.241 29.264 250.233 32.668 250.233zM44.979 254.191L41.575 254.191 41.832 249.283 45.236 249.283zM57.547 253.241L54.143 253.241 54.3 250.233 57.705 250.233zM69.966 255.141L66.562 255.141 66.968 247.382 70.372 247.382zM82.584 253.241L79.18 253.241 79.337 250.233 82.742 250.233zM95.052 254.191L91.648 254.191 91.905 249.283 95.309 249.283zM107.621 253.241L104.216 253.241 104.374 250.233 107.778 250.233zM120.039 255.141L116.635 255.141 117.041 247.382 120.446 247.382z" transform="translate(808 11) translate(146 31) translate(84 .549)"/>
                        <g fill="#000">
                            <path d="M3.893 8.141L.489 8.141.895.382 4.3.382zM16.511 6.241L13.107 6.241 13.264 3.233 16.668 3.233zM28.979 7.191L25.575 7.191 25.832 2.283 29.236 2.283zM41.547 6.241L38.143 6.241 38.3 3.233 41.705 3.233zM53.966 8.141L50.562 8.141 50.968.382 54.372.382zM66.584 6.241L63.18 6.241 63.337 3.233 66.742 3.233zM79.052 7.191L75.648 7.191 75.905 2.283 79.309 2.283zM91.621 6.241L88.216 6.241 88.374 3.233 91.778 3.233zM104.039 8.141L100.635 8.141 101.041.382 104.446.382z" transform="translate(808 11) translate(146 31) translate(84 .549) translate(16 247)"/>
                        </g>
                        <path fill="#007CFF" d="M60.36 256.419c.045-.854.2-3.828.246-4.682l.245-4.68c.135-2.586-1.851-4.682-4.436-4.682s-4.791 2.096-4.926 4.682l-.246 4.68-.245 4.682c-.136 2.585 1.85 4.68 4.436 4.68 2.585 0 4.79-2.095 4.926-4.68" transform="translate(808 11) translate(146 31) translate(84 .549)"/>
                        <path fill="#FFF" d="M27.453 222.275h17.305c4.779 0 8.856-3.874 9.106-8.652.25-4.78-3.42-8.653-8.2-8.653H28.36c-4.78 0-8.856 3.873-9.106 8.653-.25 4.778 3.42 8.652 8.199 8.652" transform="translate(808 11) translate(146 31) translate(84 .549)"/>
                        <path fill="#007CFF" d="M28.26 206.87h17.305c4.457 0 7.947 3.37 8.194 7.703.05-.312.087-.63.105-.95.25-4.78-3.42-8.652-8.2-8.652H28.36c-4.779 0-8.856 3.873-9.106 8.652-.017.32-.014.638.004.95.701-4.332 4.544-7.703 9.002-7.703" transform="translate(808 11) translate(146 31) translate(84 .549)"/>
                        <path fill="#FFF" d="M28.26 206.87h17.305c4.457 0 7.947 3.37 8.194 7.703.05-.312.087-.63.105-.95.25-4.78-3.42-8.652-8.2-8.652H28.36c-4.779 0-8.856 3.873-9.106 8.652-.017.32-.014.638.004.95.701-4.332 4.544-7.703 9.002-7.703" transform="translate(808 11) translate(146 31) translate(84 .549)"/>
                        <path fill="#007CFF" d="M36.559 213.623c.25-4.78 4.327-8.652 9.105-8.652 4.78 0 8.45 3.873 8.2 8.652-.25 4.778-4.328 8.652-9.106 8.652-4.78 0-8.45-3.874-8.2-8.652" transform="translate(808 11) translate(146 31) translate(84 .549)"/>
                        <path fill="#FFF" d="M29.146 101.235h94.367c2.536 0 4.7-2.056 4.832-4.592.133-2.536-1.815-4.592-4.35-4.592H29.626c-2.536 0-4.699 2.056-4.832 4.592-.133 2.536 1.815 4.592 4.351 4.592" transform="translate(808 11) translate(146 31) translate(84 .549)"/>
                        <path fill="#007CFF" d="M29.628 94.051h94.367c2.112 0 3.797 1.434 4.23 3.375.058-.256.107-.515.12-.783.134-2.536-1.814-4.592-4.35-4.592H29.628c-2.536 0-4.7 2.056-4.833 4.592-.021.424.034.827.12 1.217.487-2.162 2.445-3.809 4.713-3.809" transform="translate(808 11) translate(146 31) translate(84 .549)"/>
                        <path fill="#FFF" d="M29.628 94.051h94.367c2.112 0 3.797 1.434 4.23 3.375.058-.256.107-.515.12-.783.134-2.536-1.814-4.592-4.35-4.592H29.628c-2.536 0-4.7 2.056-4.833 4.592-.021.424.034.827.12 1.217.487-2.162 2.445-3.809 4.713-3.809" transform="translate(808 11) translate(146 31) translate(84 .549)"/>
                        <path fill="#007CFF" d="M37.753 96.643c.25-4.78 4.328-8.652 9.106-8.652 4.78 0 8.45 3.873 8.2 8.652-.25 4.779-4.328 8.652-9.107 8.652-4.779 0-8.449-3.873-8.199-8.652M121.905 208.304c.097-1.841-1.318-3.334-3.16-3.334H90.89c-1.842 0-3.413 1.493-3.51 3.334l-.557 10.636c-.096 1.843 1.318 3.335 3.16 3.335H117.839c1.84 0 3.412-1.493 3.509-3.335l.557-10.636z" transform="translate(808 11) translate(146 31) translate(84 .549)"/>
                        <path fill="#007CFF" d="M90.79 206.87h27.855c1.842 0 3.257 1.493 3.16 3.335l.1-1.9c.096-1.842-1.318-3.334-3.16-3.334H90.89c-1.842 0-3.413 1.492-3.51 3.334l-.1 1.9c.097-1.842 1.668-3.335 3.51-3.335" transform="translate(808 11) translate(146 31) translate(84 .549)"/>
                        <path fill="#000" d="M90.79 206.87h27.855c1.842 0 3.257 1.493 3.16 3.335l.1-1.9c.096-1.842-1.318-3.334-3.16-3.334H90.89c-1.842 0-3.413 1.492-3.51 3.334l-.1 1.9c.097-1.842 1.668-3.335 3.51-3.335" transform="translate(808 11) translate(146 31) translate(84 .549)"/>
                        <path fill="#FFF" d="M104.686 208.304c.097-1.841-1.318-3.334-3.16-3.334H90.891c-1.842 0-3.413 1.493-3.51 3.334l-.557 10.636c-.096 1.843 1.318 3.335 3.159 3.335h10.637c1.841 0 3.412-1.493 3.509-3.335l.557-10.636z" transform="translate(808 11) translate(146 31) translate(84 .549)"/>
                        <path fill="#007CFF" d="M97.304 216.552L93.9 216.552 94.207 210.694 97.611 210.694zM122.022 129.69H27.655c-2.536 0-4.7 2.057-4.832 4.593-.133 2.536 1.815 4.592 4.35 4.592h94.368c2.536 0 4.699-2.056 4.832-4.592.133-2.536-1.815-4.592-4.351-4.592" transform="translate(808 11) translate(146 31) translate(84 .549)"/>
                        <path fill="#000" d="M27.655 131.69h94.367c2.112 0 3.797 1.435 4.231 3.376.057-.256.106-.515.12-.783.133-2.536-1.815-4.592-4.35-4.592H27.654c-2.536 0-4.7 2.056-4.833 4.592-.02.424.033.827.121 1.217.486-2.162 2.444-3.81 4.712-3.81" transform="translate(808 11) translate(146 31) translate(84 .549)"/>
                        <path fill="#FFF" d="M107.378 142.935h-7.23c-2.782 0-4.92-2.255-4.773-5.038l.378-7.23c.146-2.781 2.52-5.037 5.302-5.037h7.23c2.782 0 4.919 2.256 4.773 5.038l-.38 7.229c-.144 2.783-2.518 5.038-5.3 5.038" transform="translate(808 11) translate(146 31) translate(84 .549)"/>
                        <path fill="#007CFF" d="M106.144 137.212L102.74 137.212 103.047 131.354 106.451 131.354z" transform="translate(808 11) translate(146 31) translate(84 .549)"/>
                    </g>
                    <g>
                        <path fill="#007CFF" d="M41.37 65.76L28.59 80.264c1.035 6.914 3.087 26.954 3.087 26.954-1.918 2.54-6.611 1.82-6.611 1.82s-6.148-13.852-4.58-30.073c.905-9.375 12.927-27.8 21.479-33.02 1.352-.827 2.827-1.457 4.497-1.899l1.69-.194-5.99 22.285-.791-.377z" transform="translate(808 11) translate(146 31) translate(0 38.549)"/>
                        <path fill="#000" d="M41.37 65.76L28.59 80.264c1.035 6.914 3.087 26.954 3.087 26.954-1.918 2.54-6.611 1.82-6.611 1.82s-6.148-13.852-4.58-30.073c.905-9.375 12.927-27.8 21.479-33.02 1.352-.827 2.827-1.457 4.497-1.899l1.69-.194-5.99 22.285-.791-.377z" opacity=".26" transform="translate(808 11) translate(146 31) translate(0 38.549)"/>
                        <path fill="#FFB379" d="M30.95 108.843l3.096 3.313c.102.109.18.238.23.378l1.82 5.12c.097.276.08.579-.048.84l-.88 1.809c-.149.304-.429.52-.76.589l-6.278 1.287c-.597.123-1.179-.271-1.288-.87l-1.225-6.741c-.024-.133-.023-.27.002-.402l.841-4.325c.086-.442.436-.785.88-.863l2.627-.463c.362-.064.732.059.983.328" transform="translate(808 11) translate(146 31) translate(0 38.549)"/>
                        <path fill="#007CFF" d="M33.622 108.078L23.76 112.554 23.634 107.78 32.727 104.285z" transform="translate(808 11) translate(146 31) translate(0 38.549)"/>
                        <path fill="#FFF" d="M33.622 108.078L23.76 112.554 23.634 107.78 32.727 104.285z" transform="translate(808 11) translate(146 31) translate(0 38.549)"/>
                        <path fill="#007CFF" d="M29.804 125.72c-5.883 21.03-3.391 52.008-6.62 72.792-2.226 14.32-17.405 61.445-17.405 61.445l13.4 4.062s16.725-41.504 19.964-53.88C44.396 190.069 52.3 151.99 52.3 151.99s2.945-10.804 1.61-11.97c-1.332-1.166-24.106-14.301-24.106-14.301" transform="translate(808 11) translate(146 31) translate(0 38.549)"/>
                        <path fill="#000" d="M44.548 140.141l9.688 3.143-3.626 17.032s1.793-16.297-6.062-20.175" transform="translate(808 11) translate(146 31) translate(0 38.549)"/>
                        <path fill="#FFB379" d="M8.471 259.353L6.073 266.96 12.565 269.881 15.788 261.795z" transform="translate(808 11) translate(146 31) translate(0 38.549)"/>
                        <path fill="#000" d="M7.049 263.865L13.908 266.51 14.822 264.217 7.608 262.09z" transform="translate(808 11) translate(146 31) translate(0 38.549)"/>
                        <path fill="#007CFF" d="M5.921 255.793L22.308 260.275 19.342 265.549 5.003 261.322z" transform="translate(808 11) translate(146 31) translate(0 38.549)"/>
                        <path fill="#FFF" d="M5.921 255.793L22.308 260.275 19.342 265.549 5.003 261.322z" transform="translate(808 11) translate(146 31) translate(0 38.549)"/>
                        <path fill="#007CFF" d="M14.642 270.903c1.354.734 3.29 1.48 3.838 1.12.076-.042.166-.132.12-.41-.02-.164-.115-.309-.256-.394-.1-.075-.21-.136-.329-.18-1.105-.257-2.25-.304-3.373-.136m-.683.014c-.067-.045-.102-.126-.088-.206.015-.08.08-.143.162-.155.144-.02 3.41-.5 4.55.352.215.155.36.388.405.648.08.3-.038.618-.294.793-.476.286-1.528.075-2.48-.298-.782-.31-1.537-.69-2.255-1.134" transform="translate(808 11) translate(146 31) translate(0 38.549)"/>
                        <path fill="#007CFF" d="M17.074 268.56c-.23-.093-.482-.1-.715-.019-.83.437-1.505 1.117-1.936 1.95 1.169-.19 2.882-1.016 3.039-1.553.005-.052.035-.192-.281-.347l-.107-.032zm-3.207 2.31c-.041-.059-.047-.134-.017-.198.048-.092 1.06-2.075 2.35-2.495.373-.126.78-.096 1.13.086.48.246.537.56.474.775-.174.923-2.663 1.862-3.737 1.91-.028.002-.056-.006-.078-.024-.046-.002-.09-.022-.122-.055z" transform="translate(808 11) translate(146 31) translate(0 38.549)"/>
                        <path fill="#1A2E35" d="M13.598 269.539l-8.353-3.272c-.314-.124-.673-.013-.862.267L.21 272.737c-.374.548-.234 1.295.314 1.67.07.048.145.088.224.12 3.032 1.128 5.774 2.012 9.52 3.487 4.424 1.734 3.094 1.824 8.266 3.936 3.117 1.27 5.087-2.068 3.827-2.764-5.782-3.15-5.693-5.232-7.186-8.33-.347-.616-.908-1.086-1.577-1.317" transform="translate(808 11) translate(146 31) translate(0 38.549)"/>
                        <path fill="#FFB379" d="M68.041 265.549L68.194 272.876 75.279 273.563 75.706 265.549z" transform="translate(808 11) translate(146 31) translate(0 38.549)"/>
                        <path fill="#000" d="M75.525 268.951L75.627 267.028 68.079 267.343 68.126 269.579z" transform="translate(808 11) translate(146 31) translate(0 38.549)"/>
                        <path fill="#007CFF" d="M29.804 125.72c2.217-10.576 11.073-19.963 11.073-19.963l33.977 2.185s2.14 21.84 2.64 29.141c1.01 14.743 5.136 37.624 5.246 52.41.149 19.987-4.433 73.067-4.433 73.067l-12.835 1.52s.19-49.086-1.912-67.602c-1.593-14.026-11.17-52.453-11.17-52.453s-26.305-.567-22.586-18.306" transform="translate(808 11) translate(146 31) translate(0 38.549)"/>
                        <path fill="#007CFF" d="M63.279 261.974L80.237 260.934 79.129 266.882 64.193 267.503z" transform="translate(808 11) translate(146 31) translate(0 38.549)"/>
                        <path fill="#FFF" d="M63.279 261.974L80.237 260.934 79.129 266.882 64.193 267.503z" transform="translate(808 11) translate(146 31) translate(0 38.549)"/>
                        <path fill="#007CFF" d="M77.456 273.835c1.521.249 3.593.318 3.995-.201.058-.065.113-.18-.022-.428-.073-.146-.21-.253-.371-.286-.12-.04-.244-.061-.37-.064-1.129.12-2.226.452-3.232.979m-.64.235c-.079-.02-.138-.085-.151-.165-.011-.081.029-.161.102-.2.129-.066 3.059-1.59 4.415-1.158.253.076.466.248.595.479.174.257.166.597-.019.847-.355.425-1.418.57-2.439.53-.842-.038-1.68-.15-2.503-.333" transform="translate(808 11) translate(146 31) translate(0 38.549)"/>
                        <path fill="#007CFF" d="M78.986 270.823c-.246-.013-.488.064-.682.218-.64.683-1.056 1.547-1.19 2.474 1.042-.56 2.39-1.903 2.363-2.463-.013-.049-.031-.19-.38-.235l-.111.006zm-2.272 3.232c-.058-.04-.088-.109-.081-.179.016-.103.322-2.309 1.402-3.127.31-.242.706-.347 1.096-.29.533.075.69.352.7.576.14.931-1.904 2.633-2.903 3.03-.025.011-.055.013-.081.004-.045.012-.092.008-.133-.014z" transform="translate(808 11) translate(146 31) translate(0 38.549)"/>
                        <path fill="#1A2E35" d="M76.023 272.887l-8.964-.353c-.338-.013-.64.209-.727.536l-1.91 7.228c-.172.642.205 1.3.846 1.476.082.02.166.034.25.04 3.234.07 6.115.007 10.138.171 4.747.188 3.52.71 9.099 1.008 3.36.178 4.128-3.62 2.709-3.865-6.494-1.08-7.094-3.077-9.52-5.512-.53-.47-1.213-.73-1.921-.728" transform="translate(808 11) translate(146 31) translate(0 38.549)"/>
                        <path fill="#FFB379" d="M65.394 35.478c-.594 1.892-2.079 5.085.024 7.933l-10.213-.99s1.094-7.53 1.727-9.984c.41-1.588.938-3.312 6.305-1.812 3.051.853 2.554 3.586 2.157 4.853" transform="translate(808 11) translate(146 31) translate(0 38.549)"/>
                        <path fill="#FFB379" d="M56.182 32.688c-5.619-4.333-17.503-16.095-6.104-26.363C59.574-2.23 68.286 2.77 71.263 8.55c3.33 6.469 10.878 23.757-5.869 26.928-3.087.584-6.294-.541-9.212-2.791" transform="translate(808 11) translate(146 31) translate(0 38.549)"/>
                        <path fill="#007CFF" d="M48.152 42.753s7.876-6.92 22.844 2.212l-.207 2.138-22.495-2.178-.142-2.172z" transform="translate(808 11) translate(146 31) translate(0 38.549)"/>
                        <path fill="#FFF" d="M48.152 42.753s7.876-6.92 22.844 2.212l-.207 2.138-22.495-2.178-.142-2.172z" transform="translate(808 11) translate(146 31) translate(0 38.549)"/>
                        <path fill="#000" d="M63.237 33.441c.056 2.311.708 3.511 1.54 4.106.268-1.206.616-2.069.616-2.069-2.01-.88-2.156-2.037-2.156-2.037" transform="translate(808 11) translate(146 31) translate(0 38.549)"/>
                        <path fill="#007CFF" d="M69.242 44.694c-3.267-.741-6.537-1.172-9.81-1.56-5.805-.685-10.23-1.134-13.435.277-5.103 2.245-5.753 3.692-5.753 3.692l1.012 16.525s1.211 9.533.432 24.003c-.004.069-.4 15.752-8.867 24.167 0 0 5.118 4.46 12.14 5.67l4.78-11.433 1.504 12.04s17.216 5.105 31.417.4c0 0-7.776-12.422-5.274-25.121 1.207-6.118 2.09-8.977 2.771-13.803.647-4.59.03-7.813.03-7.813l-3.195-21.8s-5.672-4.772-7.752-5.244" transform="translate(808 11) translate(146 31) translate(0 38.549)"/>
                        <path fill="#000" d="M69.242 44.694c-3.267-.741-6.537-1.172-9.81-1.56-5.805-.685-10.23-1.134-13.435.277-5.103 2.245-5.753 3.692-5.753 3.692l1.012 16.525s1.211 9.533.432 24.003c-.004.069-.4 15.752-8.867 24.167 0 0 5.118 4.46 12.14 5.67l4.78-11.433 1.504 12.04s17.216 5.105 31.417.4c0 0-7.776-12.422-5.274-25.121 1.207-6.118 2.09-8.977 2.771-13.803.647-4.59.03-7.813.03-7.813l-3.195-21.8s-5.672-4.772-7.752-5.244" opacity=".26" transform="translate(808 11) translate(146 31) translate(0 38.549)"/>
                        <path fill="#000" d="M79.133 85.691c.408-2.208.765-4.29 1.026-6.14.647-4.589.029-7.814.029-7.814l-4.563-5.133s4.336 6.177 3.508 19.087" transform="translate(808 11) translate(146 31) translate(0 38.549)"/>
                        <path fill="#FFB379" d="M119.944 62.154l3.151-8.985c.063-.18.193-.328.363-.415l4.954-2.53c.271-.137.6-.096.828.105l3.531 3.107c.292.257.336.697.1 1.007l-3.649 4.795c-.042.056-.076.117-.1.183-.278.713-2.16 5.198-6.168 6.319-.049.014-.096.033-.14.057l-1.349.719c-.329.176-.737.08-.954-.223l-1.713-2.394c-.272-.381-.128-.916.298-1.11l.453-.204c.185-.084.328-.24.395-.431" transform="translate(808 11) translate(146 31) translate(0 38.549)"/>
                        <path fill="#007CFF" d="M69.152 44.685c5.155 1.336 10.18 3.957 14.792 10.117C89.969 62.85 98.92 70.13 98.92 70.13s11.557-2.455 18.854-8.765l4.279 6.389s-17.566 13.242-24.714 12.55c-6.1-.591-17.223-8.531-17.223-8.531l-4.571-5.142-6.393-21.946z" transform="translate(808 11) translate(146 31) translate(0 38.549)"/>
                        <path fill="#000" d="M69.152 44.685c5.155 1.336 10.18 3.957 14.792 10.117C89.969 62.85 98.92 70.13 98.92 70.13s11.557-2.455 18.854-8.765l4.279 6.389s-17.566 13.242-24.714 12.55c-6.1-.591-17.223-8.531-17.223-8.531l-4.571-5.142-6.393-21.946z" opacity=".26" transform="translate(808 11) translate(146 31) translate(0 38.549)"/>
                        <path fill="#007CFF" d="M118.186 60.56L124.605 68.527 120.307 69.667 115.186 62.181z" transform="translate(808 11) translate(146 31) translate(0 38.549)"/>
                        <path fill="#FFF" d="M118.186 60.56L124.605 68.527 120.307 69.667 115.186 62.181z" transform="translate(808 11) translate(146 31) translate(0 38.549)"/>
                        <path fill="#FB804C" d="M75.428 22.371L75.428 25.475 77.523 25.178z" transform="translate(808 11) translate(146 31) translate(0 38.549)"/>
                        <path fill="#000" d="M59.04 40.927c-4.813.495-19.027.77-17.315-9.638 1.712-10.407-.608-15.567 3.803-22.893C49.938 1.07 59.133-1.08 67.4 1.086c6.885 1.804 7.447 6.625 5.58 9.528-1.867 2.903-2.712 3.438-2.383 5.497.33 2.058-.92 3.211-1.46 4.175-.484.863-2.194 1.59-2.194 1.59s-.636 2.262.364 6.075c1 3.812 3.04 11.812-8.268 12.976" transform="translate(808 11) translate(146 31) translate(0 38.549)"/>
                        <path fill="#000" d="M65.44 1.165c2.268.251 4.62.867 6.652 1.908 1.632.835 3.26 2.092 3.627 3.996.532 2.755-1.598 5.364-3.287 7.265-.27.304.244.671.511.37 2.99-3.363 5.321-8.083.912-11.302C71.513 1.692 68.357.853 65.5.537c-.404-.045-.465.584-.06.628M45.59 8.332c-3.175 4.108-3.322 9.481-3.958 14.378-.45 3.462-4.35 10.206-1.59 13.471.262.31.757-.08.495-.392-1.883-2.229-.004-5.51.644-7.818.643-2.292.98-4.564 1.225-6.927.435-4.193 1.015-8.87 3.69-12.333.249-.322-.256-.7-.505-.379M73.276 16.468c-.054.132.05-.094.069-.127.066-.117.14-.227.23-.327.314-.351.709-.465 1.166-.347.374.096.534-.483.159-.58-.983-.252-1.833.315-2.203 1.222-.145.357.435.513.579.159" transform="translate(808 11) translate(146 31) translate(0 38.549)"/>
                        <path fill="#FFB379" d="M70.817 21.03c.644 1.926.033 3.866-1.365 4.333-1.398.468-3.054-.714-3.698-2.64-.644-1.925-.033-3.866 1.365-4.333 1.398-.468 3.054.714 3.698 2.64" transform="translate(808 11) translate(146 31) translate(0 38.549)"/>
                        <path fill="#000" d="M75.515 16.154c-.083.718-.783.865-1.146.924-.244.04-.389.476-.32.992.067.515.32.907.565.875.245-.033.388-.477.32-.992-.02-.159-.063-.299-.114-.425 1.165-.632.695-1.374.695-1.374" transform="translate(808 11) translate(146 31) translate(0 38.549)"/>
                    </g>
                </g>
            </g>
        </g>
    </g>
</svg>
