<svg width="723" height="569" viewBox="0 0 723 569" fill="none" xmlns="http://www.w3.org/2000/svg">
<path opacity="0.906" fill-rule="evenodd" clip-rule="evenodd" d="M1004.18 132.799C1095.3 290.487 936.301 513.573 795.766 609.326C780.43 693.093 733.907 766.422 660.153 808.965C514.682 892.875 318.369 825.252 221.675 657.923C190.727 604.37 173.735 547.094 169.703 491.214C137.958 460.588 74.2995 362.912 52.9155 325.907C-43.7799 158.578 -4.24132 -45.0903 141.229 -129.001C166.161 -143.383 192.588 -153.314 219.751 -159.053C238.303 -179.684 260.124 -197.583 285.056 -211.965C422.659 -291.338 605.754 -235.123 706.996 -87.1868L706.986 -87.1848C812.641 -41.6408 958.968 54.5609 1004.18 132.799V132.799Z" fill="#F3F4FA"/>
<path fill-rule="evenodd" clip-rule="evenodd" d="M622.381 399.435C622.381 419.36 525.629 435.513 406.279 435.513C286.929 435.513 190.178 419.36 190.178 399.435C190.178 379.509 286.929 363.355 406.279 363.355C525.629 363.355 622.381 379.508 622.381 399.435Z" fill="#E3E8FA"/>
<path fill-rule="evenodd" clip-rule="evenodd" d="M483.939 394.655C483.939 396.367 448.287 397.754 404.308 397.754C360.33 397.754 324.677 396.367 324.677 394.655C324.677 392.944 360.33 391.556 404.308 391.556C448.287 391.556 483.939 392.944 483.939 394.655ZM314.765 388.697C314.765 390.815 292.132 392.531 264.213 392.531C236.296 392.531 213.662 390.815 213.662 388.697C213.662 386.579 236.296 384.863 264.213 384.863C292.132 384.863 314.765 386.579 314.765 388.697ZM581.918 397.762C581.918 399.051 564.706 400.097 543.476 400.097C522.245 400.097 505.034 399.051 505.034 397.762C505.034 396.471 522.245 395.427 543.476 395.427C564.706 395.427 581.918 396.471 581.918 397.762Z" fill="#FFCDC5"/>
<path fill-rule="evenodd" clip-rule="evenodd" d="M534.904 89.4836H538.442L536.673 86.4219L534.904 89.4836ZM536.673 92.0324L534.904 95.0941H538.443L536.673 92.0324ZM540.346 88.7209L538.706 92.0314H541.984L540.346 88.7209ZM488.759 212.239L486.989 215.3H490.529L488.759 212.239ZM488.759 217.849L486.989 220.911H490.529L488.759 217.849ZM492.431 214.539L490.793 217.849H494.07L492.431 214.539ZM221.984 230.49L220.215 233.551H223.752L221.984 230.49ZM221.984 236.1L220.215 239.162H223.752L221.984 236.1ZM225.655 232.79L224.017 236.1H227.294L225.655 232.79ZM485.219 347.733L483.449 350.795H486.989L485.219 347.733ZM485.219 353.344L483.449 356.404H486.989L485.219 353.344ZM488.891 350.032L487.252 353.343H490.531L488.891 350.032Z" fill="#FFBEB4"/>
<path fill-rule="evenodd" clip-rule="evenodd" d="M583.967 356.388H503.124C501.929 356.388 500.961 355.421 500.961 354.227C500.961 353.034 501.929 352.066 503.124 352.066H583.967C585.161 352.066 586.128 353.034 586.128 354.227C586.128 355.421 585.161 356.388 583.967 356.388Z" fill="#FFBEB4"/>
<path fill-rule="evenodd" clip-rule="evenodd" d="M514.281 394.653C513.067 394.653 512.068 393.912 512.017 392.971L509.916 355.059H518.647L516.546 392.971C516.494 393.911 515.496 394.653 514.281 394.653V394.653ZM573.578 394.653C572.364 394.653 571.365 393.912 571.313 392.971L569.212 355.059H577.943L575.842 392.971C575.791 393.911 574.791 394.653 573.578 394.653V394.653ZM543.545 394.653C542.331 394.653 541.332 393.912 541.281 392.971L539.18 355.059H547.911L545.81 392.971C545.758 393.911 544.759 394.653 543.545 394.653" fill="#FFBEB4"/>
<path fill-rule="evenodd" clip-rule="evenodd" d="M542.662 342.401C542.662 337.088 546.974 332.781 552.292 332.781C557.609 332.781 561.921 337.089 561.921 342.401C561.921 347.715 557.609 352.022 552.292 352.022C546.974 352.022 542.662 347.714 542.662 342.401" fill="#FFA49A"/>
<path fill-rule="evenodd" clip-rule="evenodd" d="M557.134 334.479H547.207C546.653 334.479 546.205 334.031 546.205 333.479C546.205 332.926 546.653 332.478 547.207 332.478H557.134C557.688 332.478 558.137 332.926 558.137 333.479C558.137 334.031 557.688 334.479 557.134 334.479ZM547.895 316.496C548.241 316.662 548.658 317.28 548.797 318.133C548.937 318.987 548.753 319.718 548.467 319.973C548.122 319.822 547.705 319.19 547.564 318.336C547.424 317.484 547.626 316.76 547.895 316.496Z" fill="#FFA49A"/>
<path fill-rule="evenodd" clip-rule="evenodd" d="M549.461 325.388L548.559 319.902L548.355 319.935L549.258 325.421L549.461 325.388Z" fill="#FFA49A"/>
<path fill-rule="evenodd" clip-rule="evenodd" d="M550.788 319.739C550.413 319.715 549.797 320.061 549.337 320.756C548.877 321.452 548.757 322.2 548.914 322.571C549.282 322.608 549.905 322.251 550.365 321.556C550.825 320.86 550.925 320.11 550.788 319.739Z" fill="#FFA49A"/>
<path fill-rule="evenodd" clip-rule="evenodd" d="M546.192 320.496C546.54 320.353 547.232 320.484 547.892 320.995C548.551 321.507 548.903 322.177 548.875 322.581C548.537 322.732 547.832 322.593 547.174 322.081C546.516 321.569 546.18 320.891 546.192 320.496ZM546.634 323.184C546.982 323.041 547.675 323.172 548.335 323.684C548.993 324.196 549.345 324.866 549.317 325.268C548.98 325.42 548.275 325.28 547.616 324.769C546.958 324.259 546.622 323.579 546.634 323.184Z" fill="#FFA49A"/>
<path fill-rule="evenodd" clip-rule="evenodd" d="M551.23 322.431C550.855 322.406 550.24 322.753 549.779 323.448C549.319 324.142 549.201 324.891 549.357 325.263C549.725 325.3 550.348 324.942 550.808 324.246C551.267 323.551 551.368 322.802 551.23 322.431Z" fill="#FFA49A"/>
<path fill-rule="evenodd" clip-rule="evenodd" d="M550.344 330.75L549.441 325.266L549.237 325.299L550.141 330.783L550.344 330.75Z" fill="#FFA49A"/>
<path fill-rule="evenodd" clip-rule="evenodd" d="M551.671 325.103C551.296 325.078 550.68 325.424 550.22 326.119C549.76 326.814 549.642 327.563 549.797 327.935C550.167 327.971 550.789 327.614 551.248 326.918C551.708 326.223 551.808 325.474 551.671 325.103Z" fill="#FFA49A"/>
<path fill-rule="evenodd" clip-rule="evenodd" d="M547.076 325.859C547.423 325.716 548.116 325.846 548.776 326.359C549.434 326.871 549.787 327.54 549.757 327.943C549.421 328.095 548.716 327.955 548.057 327.443C547.4 326.934 547.063 326.254 547.076 325.859ZM547.518 328.548C547.866 328.405 548.558 328.535 549.219 329.047C549.877 329.558 550.229 330.229 550.201 330.631V330.632C549.863 330.784 549.159 330.644 548.5 330.132C547.841 329.62 547.506 328.943 547.518 328.548Z" fill="#FFA49A"/>
<path fill-rule="evenodd" clip-rule="evenodd" d="M552.114 327.794C551.738 327.77 551.124 328.116 550.663 328.812C550.203 329.506 550.083 330.255 550.24 330.626V330.627C550.608 330.663 551.231 330.306 551.691 329.61C552.151 328.916 552.251 328.165 552.113 327.794" fill="#FFA49A"/>
<path fill-rule="evenodd" clip-rule="evenodd" d="M551.227 336.115L550.324 330.63L550.121 330.664L551.024 336.149L551.227 336.115ZM556.506 320.465C556.782 320.71 556.98 321.344 556.843 322.084C556.708 322.824 556.303 323.362 555.953 323.479C555.675 323.246 555.478 322.599 555.613 321.859C555.75 321.12 556.17 320.594 556.506 320.465Z" fill="#FFA49A"/>
<path fill-rule="evenodd" clip-rule="evenodd" d="M555.185 328.201L556.06 323.446L555.858 323.41L554.982 328.164L555.185 328.201Z" fill="#FFA49A"/>
<path fill-rule="evenodd" clip-rule="evenodd" d="M558.219 324.023C557.871 323.883 557.182 323.971 556.528 324.391C555.874 324.812 555.525 325.384 555.556 325.736C555.893 325.883 556.594 325.789 557.246 325.367C557.9 324.947 558.233 324.367 558.219 324.023Z" fill="#FFA49A"/>
<path fill-rule="evenodd" clip-rule="evenodd" d="M553.638 323.18C554.012 323.175 554.626 323.501 555.086 324.126C555.547 324.752 555.669 325.41 555.516 325.729C555.148 325.746 554.527 325.409 554.066 324.784C553.605 324.158 553.501 323.499 553.638 323.18V323.18ZM553.208 325.512C553.582 325.505 554.196 325.832 554.658 326.456C555.118 327.082 555.241 327.741 555.087 328.059C554.72 328.076 554.099 327.739 553.636 327.114C553.176 326.488 553.073 325.831 553.208 325.512Z" fill="#FFA49A"/>
<path fill-rule="evenodd" clip-rule="evenodd" d="M557.789 326.354C557.442 326.215 556.752 326.303 556.098 326.723C555.444 327.145 555.095 327.715 555.126 328.068C555.464 328.214 556.164 328.12 556.818 327.698C557.47 327.279 557.803 326.7 557.788 326.354" fill="#FFA49A"/>
<path fill-rule="evenodd" clip-rule="evenodd" d="M554.329 332.851L555.203 328.097L555.001 328.059L554.126 332.814L554.329 332.851Z" fill="#FFA49A"/>
<path fill-rule="evenodd" clip-rule="evenodd" d="M557.362 328.675C557.015 328.536 556.326 328.623 555.672 329.042C555.017 329.464 554.669 330.036 554.699 330.388C555.037 330.534 555.738 330.441 556.392 330.019C557.044 329.599 557.376 329.02 557.362 328.675" fill="#FFA49A"/>
<path fill-rule="evenodd" clip-rule="evenodd" d="M552.781 327.832C553.156 327.825 553.77 328.152 554.231 328.778C554.691 329.403 554.814 330.061 554.66 330.38C554.293 330.396 553.672 330.06 553.211 329.434C552.75 328.809 552.646 328.151 552.781 327.832ZM553.473 337.503L554.348 332.748L554.145 332.711L553.271 337.466L553.473 337.503Z" fill="#FFA49A"/>
<path fill-rule="evenodd" clip-rule="evenodd" d="M563.336 274.363C563.759 274.629 564.204 275.49 564.259 276.615C564.312 277.738 563.964 278.656 563.557 278.944C563.134 278.695 562.686 277.817 562.633 276.693C562.578 275.569 562.948 274.664 563.336 274.364" fill="#FFBEB4"/>
<path fill-rule="evenodd" clip-rule="evenodd" d="M564.033 286.089L563.684 278.863L563.417 278.876L563.766 286.102L564.033 286.089Z" fill="#FFBEB4"/>
<path fill-rule="evenodd" clip-rule="evenodd" d="M566.592 278.989C566.11 278.902 565.264 279.257 564.566 280.089C563.867 280.918 563.601 281.868 563.748 282.372C564.218 282.474 565.078 282.104 565.775 281.274C566.473 280.445 566.715 279.489 566.592 278.989" fill="#FFBEB4"/>
<path fill-rule="evenodd" clip-rule="evenodd" d="M560.537 279.278C561.008 279.145 561.885 279.418 562.661 280.177C563.437 280.937 563.792 281.856 563.695 282.372C563.235 282.518 562.346 282.234 561.572 281.473C560.797 280.716 560.463 279.788 560.537 279.277V279.278ZM560.709 282.82C561.18 282.687 562.057 282.96 562.833 283.719C563.608 284.478 563.963 285.399 563.867 285.913C563.407 286.06 562.516 285.775 561.743 285.015C560.969 284.257 560.634 283.33 560.709 282.82Z" fill="#FFBEB4"/>
<path fill-rule="evenodd" clip-rule="evenodd" d="M566.763 282.528C566.282 282.442 565.435 282.798 564.736 283.629C564.038 284.458 563.772 285.409 563.919 285.912C564.389 286.015 565.249 285.644 565.946 284.814C566.644 283.985 566.887 283.029 566.763 282.529" fill="#FFBEB4"/>
<path fill-rule="evenodd" clip-rule="evenodd" d="M564.375 293.159L564.026 285.934L563.758 285.947L564.108 293.172L564.375 293.159Z" fill="#FFBEB4"/>
<path fill-rule="evenodd" clip-rule="evenodd" d="M566.935 286.056C566.453 285.969 565.605 286.324 564.907 287.155C564.209 287.986 563.944 288.935 564.09 289.439C564.562 289.541 565.42 289.171 566.116 288.341C566.815 287.511 567.057 286.556 566.935 286.056Z" fill="#FFBEB4"/>
<path fill-rule="evenodd" clip-rule="evenodd" d="M560.88 286.345C561.35 286.211 562.228 286.485 563.003 287.244C563.778 288.003 564.135 288.923 564.038 289.439C563.577 289.585 562.689 289.3 561.914 288.54C561.139 287.782 560.806 286.854 560.88 286.344V286.345ZM561.051 289.887C561.521 289.753 562.399 290.026 563.174 290.784C563.951 291.544 564.306 292.464 564.209 292.979V292.98C563.748 293.127 562.86 292.841 562.085 292.081C561.31 291.323 560.977 290.396 561.051 289.887Z" fill="#FFBEB4"/>
<path fill-rule="evenodd" clip-rule="evenodd" d="M567.105 289.595C566.624 289.509 565.778 289.863 565.078 290.694C564.381 291.524 564.115 292.473 564.262 292.978C564.732 293.08 565.59 292.71 566.289 291.881C566.987 291.051 567.229 290.095 567.105 289.595" fill="#FFBEB4"/>
<path fill-rule="evenodd" clip-rule="evenodd" d="M564.718 300.225L564.368 293L564.101 293.013L564.45 300.238L564.718 300.225Z" fill="#FFBEB4"/>
<path fill-rule="evenodd" clip-rule="evenodd" d="M569.409 351.968H561.834C558.809 351.968 556.429 349.387 556.674 346.376L560.605 298.086H570.636L574.57 346.376C574.815 349.387 572.434 351.968 569.409 351.968Z" fill="#FFBEB4"/>
<path fill-rule="evenodd" clip-rule="evenodd" d="M571.665 298.231H559.579C558.872 298.231 558.299 297.658 558.299 296.952C558.299 296.246 558.872 295.672 559.579 295.672H571.665C572.372 295.672 572.946 296.246 572.946 296.952C572.946 297.658 572.372 298.232 571.665 298.232" fill="#FFBEB4"/>
<path fill-rule="evenodd" clip-rule="evenodd" d="M567.136 307.808C567.25 303.754 567.451 299.706 567.666 295.659C567.88 291.613 568.166 287.569 568.412 283.524C568.725 279.485 569.003 275.442 569.347 271.404L569.881 265.348C570.089 263.331 570.269 261.313 570.501 259.297C570.453 261.326 570.352 263.349 570.28 265.375L569.972 271.447C569.757 275.494 569.472 279.536 569.225 283.582C568.91 287.621 568.635 291.664 568.288 295.703C567.942 299.741 567.584 303.777 567.136 307.808" fill="#FFBEB4"/>
<path fill-rule="evenodd" clip-rule="evenodd" d="M567.518 303.175C566.91 295.079 566.672 286.977 566.525 278.874C566.415 270.771 566.397 262.665 566.753 254.555C567.365 262.649 567.602 270.751 567.746 278.854C567.853 286.958 567.871 295.064 567.518 303.175V303.175ZM566.488 310.775C566.991 306.75 567.583 302.74 568.187 298.732C568.79 294.724 569.465 290.729 570.101 286.728C570.8 282.735 571.466 278.738 572.199 274.753L573.314 268.775C573.715 266.788 574.089 264.795 574.514 262.813C574.271 264.826 573.976 266.831 573.708 268.84L572.817 274.856C572.211 278.862 571.54 282.858 570.902 286.86C570.201 290.853 569.537 294.85 568.802 298.835C568.069 302.822 567.323 306.806 566.488 310.774" fill="#FFBEB4"/>
<path fill-rule="evenodd" clip-rule="evenodd" d="M564.985 254.675C564.985 255.147 564.602 255.53 564.129 255.53C563.657 255.53 563.272 255.147 563.272 254.675C563.272 254.203 563.657 253.82 564.129 253.82C564.602 253.82 564.985 254.203 564.985 254.675ZM571.619 250.537C571.619 251.669 570.702 252.586 569.568 252.586C568.438 252.586 567.518 251.669 567.518 250.537C567.518 249.406 568.437 248.488 569.569 248.488C570.702 248.488 571.62 249.406 571.62 250.537H571.619ZM574.383 260.423C574.383 260.797 574.08 261.099 573.706 261.099C573.332 261.099 573.029 260.797 573.029 260.423C573.029 260.049 573.332 259.747 573.706 259.747C574.08 259.747 574.383 260.049 574.383 260.423ZM576.016 275.004C576.016 275.354 575.729 275.639 575.378 275.639C575.026 275.639 574.742 275.354 574.742 275.004C574.742 274.652 575.026 274.367 575.378 274.367C575.729 274.367 576.016 274.652 576.016 275.004ZM560.87 268.531C560.87 269.143 560.375 269.639 559.762 269.639C559.152 269.639 558.654 269.143 558.654 268.531C558.654 267.92 559.151 267.425 559.762 267.425C560.375 267.425 560.87 267.92 560.87 268.531Z" stroke="#FFBEB4"/>
<path fill-rule="evenodd" clip-rule="evenodd" d="M504.927 350.698H533.156V319.973H504.927V350.698Z" fill="#FFA49A"/>
<path fill-rule="evenodd" clip-rule="evenodd" d="M508.091 347.253H529.991V323.418H508.091V347.253Z" fill="#FFBEB4"/>
<path fill-rule="evenodd" clip-rule="evenodd" d="M244.27 380.543H248.813V179.797H244.27V380.543Z" fill="#FFA49A"/>
<path fill-rule="evenodd" clip-rule="evenodd" d="M269.721 387.866H223.36C223.36 382.912 233.742 378.897 246.544 378.897C259.347 378.897 269.722 382.912 269.722 387.866H269.721ZM278.431 182.55H214.648L215.83 178.418L216.066 177.604L218.207 170.119L218.443 169.305L230.122 128.504H264.587L275.035 169.305L275.247 170.119L277.161 177.604L277.373 178.418L278.431 182.55Z" fill="#FFA49A"/>
<path fill-rule="evenodd" clip-rule="evenodd" d="M218.833 171.95L216.662 175.707H221.005L218.833 171.95ZM223.754 175.707L221.583 171.95H225.926L223.754 175.707ZM228.096 171.95L225.925 175.707H230.267L228.096 171.95ZM233.017 175.707L230.846 171.95H235.188L233.017 175.707ZM237.359 171.95L235.188 175.707H239.53L237.359 171.95ZM242.281 175.707L240.109 171.95H244.452L242.281 175.707ZM246.623 171.95L244.452 175.707H248.794L246.623 171.95ZM251.544 175.707L249.372 171.95H253.715L251.544 175.707ZM255.886 171.95L253.715 175.707H258.057L255.886 171.95ZM260.806 175.707L258.635 171.95H262.978L260.806 175.707ZM265.149 171.95L262.978 175.707H267.32L265.149 171.95ZM270.07 175.707L267.899 171.95H272.241L270.07 175.707ZM274.413 171.95L272.241 175.707H276.584L274.413 171.95ZM275.247 170.118H218.207L218.443 169.305H275.035L275.247 170.118ZM277.373 178.417H215.83L216.066 177.604H277.161L277.373 178.417Z" fill="#FFFFFE"/>
<path fill-rule="evenodd" clip-rule="evenodd" d="M285.634 301.635C287.294 295.21 290.872 289.466 294.54 283.933C297.799 279.015 301.208 274.131 305.509 270.091C309.811 266.05 315.108 262.866 320.944 261.969L316.668 275.733C315.241 280.324 313.772 285.005 310.957 288.903C308.018 292.974 303.762 295.95 299.211 298.081C294.661 300.212 289.791 301.555 284.946 302.89" fill="#006837"/>
<path fill-rule="evenodd" clip-rule="evenodd" d="M285.928 301.715C287.799 294.64 291.861 288.437 295.908 282.433C299.911 276.494 304.346 270.618 310.373 266.588C313.596 264.433 317.186 262.882 321.026 262.261L320.65 261.886L316.969 273.738C315.839 277.372 314.791 281.067 313.16 284.514C310.014 291.159 304.336 295.574 297.684 298.432C293.549 300.207 289.195 301.401 284.866 302.594C284.486 302.698 284.648 303.287 285.028 303.182C292.386 301.156 299.973 299.032 306.102 294.282C308.839 292.161 311.134 289.569 312.81 286.537C314.616 283.272 315.755 279.696 316.859 276.148C318.321 271.45 319.779 266.748 321.239 262.048C321.315 261.805 321.079 261.638 320.864 261.672C313.944 262.79 307.972 266.89 303.254 271.917C300.763 274.572 298.571 277.49 296.502 280.48C294.338 283.609 292.22 286.787 290.307 290.076C288.203 293.694 286.412 297.497 285.339 301.553C285.239 301.933 285.827 302.095 285.928 301.715" fill="#006837"/>
<path fill-rule="evenodd" clip-rule="evenodd" d="M275.858 323.237L295.15 282.026C295.482 281.319 294.429 280.698 294.095 281.41L274.803 322.62C274.471 323.328 275.524 323.948 275.858 323.237V323.237ZM276.787 293.682C276.885 286.398 278.785 279.341 280.617 272.34L286.223 250.903C286.323 250.522 285.733 250.36 285.634 250.741L279.925 272.571C278.114 279.495 276.273 286.48 276.176 293.682C276.171 294.076 276.782 294.076 276.786 293.682" fill="#39B54A"/>
<path fill-rule="evenodd" clip-rule="evenodd" d="M267.078 296.691C260.937 291.242 254.745 285.733 249.938 279.08C245.131 272.427 241.756 264.44 242.018 256.238C245.938 262.446 254.211 264.763 258.289 270.869C259.632 272.882 260.44 275.197 261.23 277.485L267.885 296.699" fill="#006837"/>
<path fill-rule="evenodd" clip-rule="evenodd" d="M267.294 296.478C257.834 288.079 247.835 279.11 243.865 266.686C242.786 263.306 242.233 259.79 242.325 256.24C242.134 256.29 241.944 256.342 241.754 256.394C244.737 261.012 249.808 263.423 253.975 266.78C256.297 268.652 258.175 270.83 259.414 273.564C260.974 277.008 262.03 280.723 263.265 284.292L267.59 296.783C267.718 297.151 268.309 296.992 268.179 296.62L264.321 285.475C263.092 281.93 261.957 278.335 260.6 274.836C259.516 272.041 258.021 269.601 255.812 267.556C253.849 265.741 251.6 264.275 249.413 262.752C246.727 260.878 244.08 258.871 242.283 256.085C242.118 255.833 241.722 255.931 241.713 256.24C241.376 269.321 249.487 280.455 258.438 289.189C261.164 291.85 264.014 294.38 266.862 296.909C267.154 297.168 267.587 296.739 267.294 296.478" fill="#006837"/>
<path fill-rule="evenodd" clip-rule="evenodd" d="M255.138 266.771C262.965 282.589 268.727 299.411 272.231 316.709C273.235 321.663 274.052 326.654 274.684 331.669C274.781 332.439 276.004 332.448 275.905 331.669C273.67 313.927 269.146 296.498 262.399 279.932C260.498 275.264 258.427 270.67 256.192 266.154C255.844 265.45 254.79 266.068 255.138 266.771" fill="#39B54A"/>
<path fill-rule="evenodd" clip-rule="evenodd" d="M273.263 248.463C268.238 230.864 268.385 211.823 273.683 194.305C277.368 199.604 280.196 205.497 282.026 211.686C284.063 218.579 284.854 225.912 283.655 232.997C282.454 240.082 279.18 246.906 273.926 251.814" fill="#006837"/>
<path fill-rule="evenodd" clip-rule="evenodd" d="M273.557 248.384C269.672 234.676 268.872 220.146 271.236 206.094C271.902 202.138 272.824 198.23 273.977 194.386L273.419 194.46C282.541 207.663 287.574 225.981 280.883 241.296C279.191 245.169 276.787 248.694 273.71 251.601C273.424 251.871 273.857 252.301 274.143 252.031C286.561 240.292 286.465 221.445 280.568 206.524C278.843 202.16 276.614 198.013 273.947 194.152C273.799 193.939 273.467 193.962 273.388 194.225C269.295 207.861 268.262 222.345 270.353 236.426C270.961 240.518 271.84 244.565 272.968 248.546C273.075 248.923 273.664 248.763 273.557 248.384Z" fill="#006837"/>
<path fill-rule="evenodd" clip-rule="evenodd" d="M287.474 296.692C286.141 287.838 288.986 278.761 293.606 271.091C298.226 263.419 304.535 256.928 310.786 250.512C312.312 262.733 309.714 275.431 303.512 286.076C301.808 289.005 299.794 291.827 297.091 293.872C294.388 295.918 290.905 297.12 287.568 296.516" fill="#39B54A"/>
<path fill-rule="evenodd" clip-rule="evenodd" d="M287.769 296.611C285.719 282.406 293.83 269.475 302.88 259.318C305.501 256.376 308.251 253.551 311.002 250.727C310.827 250.657 310.654 250.584 310.48 250.513C311.362 257.774 310.843 265.164 308.942 272.229C307.974 275.827 306.658 279.332 305 282.67C303.421 285.851 301.588 289.033 299.132 291.624C296.187 294.729 292.029 296.935 287.649 296.222C287.265 296.159 287.099 296.748 287.486 296.811C295.174 298.061 300.732 291.627 304.127 285.62C307.908 278.933 310.286 271.477 311.151 263.848C311.655 259.416 311.628 254.94 311.091 250.513C311.061 250.266 310.771 250.089 310.571 250.296C300.779 260.347 290.401 271.181 287.539 285.431C286.786 289.172 286.634 292.994 287.18 296.773C287.236 297.161 287.824 296.996 287.769 296.611V296.611ZM277.979 280.868C277.218 270.043 279.403 259.174 282.972 248.925C286.54 238.677 291.474 228.964 296.391 219.289C299.655 230.359 300.698 242.269 297.944 253.476C295.189 264.684 288.387 275.117 278.444 280.995" fill="#39B54A"/>
<path fill-rule="evenodd" clip-rule="evenodd" d="M278.284 280.866C277.141 263.833 283.06 247.439 290.265 232.29C292.319 227.97 294.487 223.704 296.653 219.441L296.096 219.368C301.209 236.851 300.609 256.941 288.711 271.635C285.788 275.244 282.283 278.346 278.291 280.73C277.954 280.93 278.261 281.46 278.598 281.256C285.725 277.001 291.264 270.485 294.837 263.038C298.871 254.629 300.278 245.215 299.707 235.953C299.357 230.275 298.28 224.662 296.685 219.206C296.615 218.966 296.249 218.891 296.127 219.132C288.454 234.231 280.62 249.711 278.236 266.68C277.575 271.38 277.355 276.129 277.674 280.866C277.7 281.256 278.31 281.259 278.284 280.866ZM271.388 241.898C275.222 263.963 276.605 286.439 275.502 308.809C275.189 315.139 274.675 321.458 273.969 327.756C273.882 328.536 275.103 328.53 275.189 327.756C277.706 305.316 277.726 282.606 275.219 260.163C274.525 253.942 273.638 247.742 272.565 241.574C272.431 240.801 271.254 241.129 271.388 241.898" fill="#39B54A"/>
<path fill-rule="evenodd" clip-rule="evenodd" d="M273.423 251.155C268.745 247.249 264.662 240.624 263.565 234.632C262.466 228.639 262.786 222.487 263.166 216.408C263.546 210.328 263.979 204.196 263.099 198.168C267.667 204.312 271.514 210.992 274.537 218.024C276.826 223.353 278.66 228.974 278.864 234.769C279.069 240.563 277.503 246.584 273.668 250.937" fill="#39B54A"/>
<path fill-rule="evenodd" clip-rule="evenodd" d="M273.64 250.94C268.687 246.749 264.904 240.584 263.79 234.167C262.463 226.521 263.416 218.731 263.785 211.045C263.993 206.718 264.001 202.385 263.395 198.087L262.835 198.322C267.32 204.379 271.126 210.926 274.126 217.838C277.142 224.791 279.488 232.468 278.231 240.109C277.59 244.001 276.048 247.722 273.452 250.721C273.197 251.017 273.627 251.451 273.885 251.153C284.355 239.048 277.301 221.487 270.659 209.385C268.491 205.432 266.047 201.638 263.364 198.015C263.151 197.728 262.756 197.903 262.805 198.249C263.94 206.291 262.807 214.379 262.553 222.438C262.434 226.217 262.513 230.015 263.106 233.755C263.622 237.007 264.769 240.085 266.378 242.954C268.151 246.113 270.437 249.026 273.208 251.371C273.506 251.625 273.941 251.194 273.64 250.94V250.94ZM266.542 292.933C268.905 284.645 267.51 273.341 263.556 265.68C259.602 258.022 253.429 251.689 246.595 246.431C246.965 255.27 247.649 264.223 250.601 272.564C253.552 280.904 258.633 288.954 266.542 292.933" fill="#39B54A"/>
<path fill-rule="evenodd" clip-rule="evenodd" d="M266.836 293.014C268.661 286.473 268.269 279.29 266.55 272.769C264.744 265.915 260.897 259.886 256.143 254.687C253.302 251.58 250.14 248.786 246.81 246.215C246.619 246.067 246.275 246.139 246.289 246.43C246.885 260.438 248.569 275.622 258.148 286.663C260.466 289.333 263.233 291.584 266.388 293.197C266.737 293.375 267.046 292.848 266.696 292.669C254.511 286.441 249.488 271.822 247.862 259.119C247.322 254.909 247.08 250.668 246.9 246.43L246.378 246.647C252.097 251.062 257.363 256.185 261.259 262.304C264.976 268.142 266.96 274.774 267.329 281.674C267.531 285.426 267.259 289.223 266.248 292.852C266.142 293.232 266.731 293.393 266.836 293.015" fill="#39B54A"/>
<path fill-rule="evenodd" clip-rule="evenodd" d="M301.055 357.731C301.055 371.501 295.706 383.493 287.799 389.73H262.861C254.955 383.493 249.604 371.501 249.604 357.731C249.604 344.867 254.277 333.551 261.343 327.027H289.316C296.383 333.552 301.055 344.866 301.055 357.731Z" fill="#FFBEB4"/>
<path fill-rule="evenodd" clip-rule="evenodd" d="M263.735 340.316L257.035 351.911H270.435L263.735 340.316Z" stroke="white"/>
<path fill-rule="evenodd" clip-rule="evenodd" d="M263.735 343.145L259.484 350.5H267.986L263.735 343.145Z" stroke="white" stroke-width="0.5"/>
<path fill-rule="evenodd" clip-rule="evenodd" d="M273.406 378.386L265.314 383.054V373.719L273.406 378.386Z" stroke="white" stroke-width="0.75"/>
<path fill-rule="evenodd" clip-rule="evenodd" d="M270.719 378.385L266.658 380.728V376.043L270.719 378.385Z" stroke="white" stroke-width="0.5"/>
<path fill-rule="evenodd" clip-rule="evenodd" d="M284.761 330.434L278.276 341.656H291.247L284.761 330.434Z" stroke="white"/>
<path fill-rule="evenodd" clip-rule="evenodd" d="M284.761 334.691L281.966 339.528H287.557L284.761 334.691Z" stroke="white" stroke-width="0.5"/>
<path fill-rule="evenodd" clip-rule="evenodd" d="M284.761 379.71L277.312 362.613H292.21L284.761 379.71Z" stroke="white"/>
<path fill-rule="evenodd" clip-rule="evenodd" d="M284.761 375.546L280.035 364.699H289.489L284.761 375.546Z" stroke="white" stroke-width="0.5"/>
<path fill-rule="evenodd" clip-rule="evenodd" d="M260.073 365.256C260.073 364.114 261 363.188 262.144 363.188C263.286 363.188 264.213 364.114 264.213 365.256C264.213 366.397 263.286 367.323 262.143 367.323C261 367.323 260.072 366.397 260.072 365.256H260.073ZM281.436 351.529C281.436 349.696 282.926 348.209 284.762 348.209C286.597 348.209 288.085 349.696 288.085 351.529C288.085 353.363 286.597 354.849 284.762 354.849C282.926 354.849 281.437 353.363 281.437 351.529H281.436ZM270.077 334.124C270.077 333.412 270.657 332.832 271.371 332.832C272.086 332.832 272.666 333.412 272.666 334.125C272.666 334.839 272.086 335.419 271.371 335.419C270.656 335.419 270.077 334.839 270.077 334.125V334.124Z" stroke="white"/>
<path fill-rule="evenodd" clip-rule="evenodd" d="M289.274 327.031H261.386C260.539 327.031 259.853 326.343 259.853 325.498V325.183C259.853 324.337 260.539 323.652 261.386 323.652H289.274C290.121 323.652 290.807 324.337 290.807 325.183V325.498C290.807 326.343 290.121 327.03 289.274 327.03" fill="#FFBEB4"/>
<path fill-rule="evenodd" clip-rule="evenodd" d="M291.043 290.609C291.829 287.955 292.809 285.361 293.907 282.817C294.997 280.267 296.249 277.789 297.6 275.367C298.968 272.954 300.436 270.597 302.048 268.342C302.859 267.218 303.687 266.106 304.538 265.014C305.416 263.942 306.291 262.87 307.225 261.845C306.832 262.417 306.434 262.983 306.03 263.541L304.858 265.25C304.077 266.387 303.311 267.533 302.568 268.692C301.087 271.014 299.651 273.362 298.31 275.765C296.951 278.158 295.691 280.605 294.474 283.076C293.264 285.551 292.144 288.071 291.042 290.609H291.043ZM271.486 244.155C271.039 241.658 270.68 239.152 270.334 236.646C269.98 234.139 269.689 231.628 269.4 229.118C269.128 226.603 268.859 224.088 268.652 221.567L268.345 217.783C268.272 216.518 268.17 215.257 268.122 213.988C268.354 215.234 268.534 216.486 268.741 217.735L269.274 221.493C269.627 223.999 269.919 226.513 270.208 229.027C270.479 231.543 270.749 234.058 270.955 236.581C271.171 239.102 271.373 241.625 271.486 244.155V244.155ZM252.373 258.353C253.754 260.51 254.989 262.756 256.142 265.044C257.303 267.328 258.336 269.677 259.293 272.054C260.233 274.439 261.096 276.854 261.822 279.31C262.183 280.54 262.528 281.773 262.853 283.012C263.144 284.258 263.446 285.501 263.682 286.76L262.47 283.123C262.07 281.912 261.657 280.706 261.229 279.504C260.364 277.107 259.487 274.717 258.537 272.355C257.604 269.986 256.599 267.645 255.579 265.31C254.548 262.978 253.458 260.672 252.373 258.353V258.353ZM281.645 270.498C282.921 267.399 284.193 264.305 285.394 261.184C286.592 258.064 287.774 254.937 288.832 251.769C289.953 248.621 290.955 245.433 291.936 242.239C292.429 240.641 292.9 239.037 293.359 237.429L294.736 232.598C294.45 234.249 294.094 235.887 293.745 237.528C293.364 239.159 292.959 240.786 292.538 242.411C291.677 245.652 290.667 248.853 289.601 252.035C288.474 255.193 287.297 258.338 285.971 261.42C284.647 264.501 283.226 267.541 281.645 270.498" fill="#006837"/>
<path fill-rule="evenodd" clip-rule="evenodd" d="M475.552 198.808H580.397V145.219H475.552V198.808Z" stroke="#FFBEB4" stroke-width="3"/>
<path fill-rule="evenodd" clip-rule="evenodd" d="M486.99 190.624H568.961V153.406H486.99V190.624Z" fill="#FFBEB4"/>
<path fill-rule="evenodd" clip-rule="evenodd" d="M308.938 99.9883L305.33 106.23H312.545L308.938 99.9883Z" fill="white"/>
<path fill-rule="evenodd" clip-rule="evenodd" d="M275.818 136.929H335.372V87.1055H275.818V136.929Z" stroke="#FFBEB4" stroke-width="3"/>
<path fill-rule="evenodd" clip-rule="evenodd" d="M288.63 126.21H322.56V97.8242H288.63V126.21Z" fill="#FFBEB4"/>
<path fill-rule="evenodd" clip-rule="evenodd" d="M434.242 237.79H372.566C357.629 237.79 345.519 249.888 345.519 264.811V330.864H461.29V264.811C461.29 249.888 449.18 237.789 434.242 237.789" fill="#222256"/>
<path fill-rule="evenodd" clip-rule="evenodd" d="M359.22 330.864H447.589V316.324H359.22V330.864Z" fill="#00000C"/>
<path fill-rule="evenodd" clip-rule="evenodd" d="M352.37 367.82H447.589V330.863H352.37V367.82Z" fill="#3847DC"/>
<path fill-rule="evenodd" clip-rule="evenodd" d="M455.124 373.295H351.683C348.658 373.295 346.204 370.843 346.204 367.82H460.605C460.605 370.843 458.151 373.295 455.124 373.295ZM348.944 390.404H345.519L351.684 373.295H356.48L348.944 390.404ZM457.865 390.404H461.289L455.124 373.295H450.33L457.865 390.404Z" fill="#00000C"/>
<path fill-rule="evenodd" clip-rule="evenodd" d="M335.696 248.384C332.38 246.179 329.597 243.041 328.287 239.281C326.976 235.523 327.268 231.13 329.489 227.824C331.71 224.52 335.955 222.551 339.84 223.436C340.001 218.195 344.826 214.382 349.495 211.982C354.631 209.34 360.002 207.805 365.253 210.211C368.175 211.551 371.252 213.739 372.799 216.554C374.345 219.371 375.269 222.48 376.165 225.565C379.837 223.385 384.839 223.716 388.191 226.36C391.542 229.005 393.024 233.791 391.752 237.864C395.906 236.108 400.939 235.324 404.759 237.723C408.772 240.244 410.159 245.43 410.434 250.162C410.671 254.228 410.264 258.541 407.951 261.894C405.21 265.868 400.371 267.742 395.781 269.244C387.848 271.843 379.678 274.013 371.333 274.26C362.987 274.506 354.387 272.701 347.54 267.925C340.695 263.15 335.862 255.142 336.107 246.805" fill="#1A1A1A"/>
<path fill-rule="evenodd" clip-rule="evenodd" d="M331.324 254.308C327.169 254.532 323.231 257.158 321.429 260.906C319.626 264.653 320.036 269.367 322.458 272.747C319.008 272.795 315.658 274.844 314.049 277.893C312.44 280.941 312.638 284.861 314.545 287.732C316.156 290.158 318.79 291.735 321.519 292.76C329.086 295.598 337.684 294.637 345.196 291.652C349.51 289.939 353.658 287.504 356.566 283.889C359.476 280.275 360.989 275.34 359.733 270.875C358.857 267.763 356.731 265.116 354.216 263.083C351.701 261.049 348.795 259.562 345.899 258.12C340.917 255.636 335.693 253.183 330.126 253.082" fill="black"/>
<path fill-rule="evenodd" clip-rule="evenodd" d="M355.795 308.965H331.819C324.252 308.965 318.118 302.837 318.118 295.278C318.118 287.718 324.252 281.59 331.819 281.59H350.814C353.566 281.59 355.795 283.818 355.795 286.565V308.965Z" fill="#3847DC"/>
<path fill-rule="evenodd" clip-rule="evenodd" d="M359.221 367.818H343.263C337.7 367.818 333.188 363.312 333.188 357.752V281.586H349.146C354.709 281.586 359.221 286.094 359.221 291.652V367.818Z" fill="#3847DC"/>
<path fill-rule="evenodd" clip-rule="evenodd" d="M362.04 213.42C364.203 212.908 366.652 213.301 368.567 214.617C369.51 215.28 370.343 216.131 370.873 217.148C371.191 217.625 371.35 218.18 371.558 218.7C371.713 219.242 371.816 219.796 371.906 220.339C371.638 219.845 371.462 219.326 371.189 218.854C370.902 218.392 370.68 217.902 370.337 217.489C369.741 216.609 368.966 215.878 368.106 215.289C367.251 214.686 366.278 214.252 365.254 213.95C364.225 213.666 363.15 213.47 362.04 213.42V213.42ZM398.288 240.209C400.569 240.171 402.93 241.014 404.654 242.653C405.094 243.05 405.442 243.538 405.795 244.012C406.072 244.537 406.395 245.037 406.55 245.61C406.778 246.154 406.848 246.74 406.941 247.31C407.002 247.883 406.975 248.464 406.957 249.029C406.7 247.913 406.455 246.827 405.961 245.85C405.513 244.859 404.88 243.969 404.09 243.239C403.319 242.489 402.407 241.881 401.426 241.384C400.438 240.904 399.393 240.493 398.288 240.21V240.209ZM384.566 228.266C385.072 228.336 385.554 228.517 386.013 228.743C386.475 228.967 386.9 229.271 387.28 229.624C387.656 229.983 387.966 230.418 388.177 230.894C388.4 231.367 388.475 231.893 388.467 232.395C388.307 231.912 388.162 231.446 387.899 231.036C387.639 230.631 387.353 230.245 386.998 229.917C386.3 229.248 385.465 228.728 384.567 228.266" fill="white"/>
<path fill-rule="evenodd" clip-rule="evenodd" d="M396.965 263.569C397.995 259.841 397.661 255.626 395.495 252.42C393.33 249.214 389.177 247.281 385.432 248.259C386.582 245.561 384.915 242.35 382.493 240.697C380.069 239.042 377.076 238.532 374.214 237.883C365.792 235.972 357.724 232.515 350.53 227.739C346.893 225.324 346.288 225.871 344.567 221.969C343.544 223.475 341.531 225.92 341.473 227.789C338.225 224.823 331.71 224.519 329.489 227.824C327.268 231.13 326.976 235.521 328.287 239.281C329.597 243.039 332.379 246.179 335.697 248.385L336.107 246.806C335.861 255.142 340.694 263.149 347.541 267.926C354.386 272.7 362.986 274.506 371.332 274.26C379.024 274.032 386.566 272.164 393.912 269.84C395.259 267.917 396.343 265.825 396.965 263.569" fill="black"/>
<path fill-rule="evenodd" clip-rule="evenodd" d="M351.815 291.644V358.377H338.785V302.094H335.21C331.44 302.094 328.385 299.041 328.385 295.276C328.385 291.51 331.44 288.457 335.21 288.457H348.626C350.387 288.457 351.815 289.884 351.815 291.644V291.644Z" stroke="#3847DC"/>
<path fill-rule="evenodd" clip-rule="evenodd" d="M365.466 236.424C364.918 232.164 367.62 228.304 371.504 227.803C375.389 227.305 378.982 230.354 379.532 234.614C380.081 238.877 377.377 242.736 373.493 243.235C369.609 243.734 366.015 240.685 365.466 236.424Z" fill="#3847DC"/>
<path fill-rule="evenodd" clip-rule="evenodd" d="M365.466 236.426C366.015 240.687 369.609 243.737 373.493 243.237C375.104 243.03 376.507 242.24 377.563 241.088C372.746 237.991 371.892 230.325 371.742 227.789C371.663 227.797 371.584 227.797 371.504 227.806C367.62 228.307 364.918 232.166 365.466 236.426" fill="#3847DC"/>
<path fill-rule="evenodd" clip-rule="evenodd" d="M355.109 254.045L357.851 266.365L367.44 269.102C367.44 269.102 370.866 265.68 370.866 264.996C370.866 264.312 366.071 251.309 366.071 251.309L355.109 254.045V254.045Z" fill="#FFBDAF"/>
<path fill-rule="evenodd" clip-rule="evenodd" d="M366.071 251.309L355.109 254.045L356.045 258.252C358.009 259.099 360.222 259.725 362.747 260.032C364.126 260.2 365.544 259.942 366.745 259.244C367.363 258.885 367.942 258.451 368.499 257.983C367.29 254.616 366.071 251.309 366.071 251.309" fill="#FFBDAF"/>
<path fill-rule="evenodd" clip-rule="evenodd" d="M340.039 229.408C340.039 229.408 338.668 256.098 362.644 257.467C370.18 254.729 374.975 244.463 373.605 236.252C372.235 228.039 363.33 214.351 350.314 218.459C343.463 221.195 340.039 229.408 340.039 229.408V229.408ZM416.078 260.204L433.502 238.931C434.194 238.084 434.572 237.022 434.572 235.928V230.147C434.572 229.706 434.856 229.314 435.276 229.174C435.942 228.953 436.628 229.447 436.628 230.147V234.199L442.794 223.248L451.014 222.564L440.053 241.726L423.613 270.471L416.078 260.205V260.204ZM492.802 241.042L521.572 250.622L530.428 243.173C533.744 240.384 538.602 240.11 542.048 242.74C544.046 244.264 545.092 246.403 542.808 249.255C537.328 256.098 521.572 263.627 521.572 263.627L489.376 256.784L492.802 241.042V241.042Z" fill="#FFBDAF"/>
<path opacity="0.187" fill-rule="evenodd" clip-rule="evenodd" d="M489.376 256.784L505.366 260.183C506.391 254.431 505.598 248.623 504.848 245.055L492.802 241.043L489.376 256.784V256.784Z" fill="#FF8773"/>
<path fill-rule="evenodd" clip-rule="evenodd" d="M404.433 290.318C404.433 290.318 440.503 250.279 456.636 236.611C459.324 234.332 462.81 233.229 466.325 233.513C478.23 234.476 503.077 238.99 503.077 238.99C503.077 238.99 507.872 256.783 498.967 267.048C493.486 266.365 468.826 261.574 468.826 261.574L418.818 316.324L404.432 290.318H404.433Z" fill="#739BE0"/>
<path fill-rule="evenodd" clip-rule="evenodd" d="M500.337 275.945L523.628 301.951L543.049 305.278C546.659 305.896 548.917 309.706 547.485 313.072C546.56 315.246 544.334 318.171 539.383 317.007C527.738 314.269 516.778 310.848 516.778 310.848L489.376 288.948L500.337 275.945V275.945Z" fill="#FFBDAF"/>
<path opacity="0.187" fill-rule="evenodd" clip-rule="evenodd" d="M514.683 291.963L500.336 275.945L489.376 288.947L508.53 304.256C511.683 300.997 514.365 296.833 514.683 291.963Z" fill="#FF8773"/>
<path fill-rule="evenodd" clip-rule="evenodd" d="M456.476 244.53L406.12 293.369L418.818 316.324L468.825 261.574C468.825 261.574 493.486 266.365 498.967 267.049C499.534 266.394 500.046 265.709 500.507 265C491.548 257.683 480.858 249.287 472.888 243.423C467.879 239.736 460.94 240.2 456.476 244.53" fill="#739BE0"/>
<path fill-rule="evenodd" clip-rule="evenodd" d="M384.565 312.219C384.565 312.219 396.897 330.012 414.709 327.959C431.335 326.042 449.753 302.057 462.718 281.617C464.048 279.522 467.02 279.279 468.673 281.13C478.87 292.548 496.912 309.481 496.912 309.481C496.912 309.481 514.037 301.268 514.037 288.265C509.315 282.602 489.605 262.294 477.825 250.232C472.741 245.027 464.519 244.576 458.894 249.19L403.747 294.424L384.566 312.219H384.565Z" fill="#97B8FF"/>
<path fill-rule="evenodd" clip-rule="evenodd" d="M414.708 327.957C431.335 326.04 449.754 302.055 462.717 281.615C464.048 279.519 467.019 279.276 468.673 281.128C478.87 292.546 496.912 309.479 496.912 309.479C496.912 309.479 500.904 307.559 505.034 304.117C495.856 294.991 486.132 286.414 475.917 278.465C472.61 275.89 468.683 273.24 464.572 274.057C460.994 274.77 458.482 277.893 456.292 280.804L442.081 299.697C436.911 306.571 431.444 313.694 423.697 317.438C417.093 320.631 409.17 320.989 402.304 318.403C396.979 316.398 392.355 312.639 389.214 307.905L384.566 312.216C384.566 312.216 396.896 330.009 414.708 327.956" fill="#97B8FF"/>
<path fill-rule="evenodd" clip-rule="evenodd" d="M451.015 308.965H474.991C482.557 308.965 488.692 302.837 488.692 295.278C488.692 287.718 482.557 281.59 474.991 281.59H455.995C453.244 281.59 451.015 283.818 451.015 286.565V308.965V308.965Z" fill="#3847DC"/>
<path fill-rule="evenodd" clip-rule="evenodd" d="M447.589 367.818H463.546C469.111 367.818 473.621 363.312 473.621 357.752V281.586H457.664C452.101 281.586 447.589 286.094 447.589 291.652V367.818Z" fill="#3847DC"/>
<path fill-rule="evenodd" clip-rule="evenodd" d="M454.398 291.644V358.377H467.429V302.094H471.004C474.774 302.094 477.829 299.041 477.829 295.276C477.829 291.51 474.774 288.457 471.004 288.457H457.588C455.827 288.457 454.398 289.884 454.398 291.644V291.644Z" stroke="#3847DC"/>
<path fill-rule="evenodd" clip-rule="evenodd" d="M346.205 241.726L334.559 245.148C334.559 245.148 337.984 256.783 355.11 264.311L357.166 263.627C357.166 263.627 366.75 268.984 369.149 259.804C373.029 258.456 377.904 257.334 381.723 256.56C385.669 255.762 389.767 256.387 393.299 258.321L406.999 265.828C408.296 266.538 409.913 266.236 410.865 265.105L420.189 254.046L429.698 261.198L416.512 282.166C415.652 283.532 413.89 284.011 412.456 283.269L399.637 276.629L407.172 288.264C407.172 288.264 406.488 309.479 384.566 312.217C377.032 304.69 367.441 295.108 361.96 291.002C356.48 286.896 338.669 275.261 333.874 270.471C329.079 265.679 316.749 248.57 316.063 239.674C316.063 234.882 343.464 231.461 343.464 231.461L346.205 241.726V241.726Z" fill="#FFFFFE"/>
<path fill-rule="evenodd" clip-rule="evenodd" d="M341.826 268.427C327.507 258.619 321.441 245.814 318.873 237.004C317.149 237.83 316.063 238.723 316.063 239.673C316.749 248.569 329.08 265.678 333.874 270.469C338.669 275.259 356.48 286.893 361.96 291C362.937 291.733 364.051 292.644 365.254 293.682C362.326 287.485 355.891 278.063 341.826 268.427" fill="#F2F2F2"/>
<path fill-rule="evenodd" clip-rule="evenodd" d="M386.563 267.791C387.132 267.628 387.721 267.538 388.313 267.494C388.907 267.435 389.506 267.442 390.104 267.499C391.295 267.613 392.499 267.909 393.578 268.496C394.669 269.052 395.629 269.891 396.333 270.895C396.725 271.375 396.973 271.936 397.259 272.474C397.528 273.021 397.675 273.614 397.883 274.181L397.825 274.064C398.491 274.969 399.11 275.91 399.756 276.83C400.394 277.756 401.004 278.703 401.6 279.661C400.84 278.825 400.096 277.981 399.381 277.112C398.671 276.241 397.935 275.389 397.247 274.5L397.225 274.472L397.189 274.384C396.969 273.859 396.797 273.315 396.548 272.81C396.274 272.318 396.042 271.8 395.677 271.374C395.375 270.897 394.966 270.517 394.578 270.114C394.141 269.773 393.72 269.4 393.222 269.137C392.251 268.58 391.173 268.173 390.04 267.974C388.908 267.784 387.738 267.692 386.563 267.791" fill="#97B8FF"/>
<path fill-rule="evenodd" clip-rule="evenodd" d="M359.634 238.173C360.083 238.819 360.255 239.631 360.815 240.203C361.322 240.719 362.076 240.963 362.726 240.563C362.984 240.406 363.192 240.185 363.4 239.971C363.599 239.767 363.822 239.517 364.113 239.454C364.438 239.382 364.757 239.58 364.937 239.842C365.14 240.138 365.141 240.502 365.011 240.829C364.645 241.748 363.579 242.012 362.69 242.093C362.303 242.129 362.3 242.739 362.69 242.703C363.575 242.623 364.521 242.418 365.144 241.733C365.679 241.144 365.933 240.239 365.464 239.534C365.038 238.893 364.223 238.622 363.544 239.043C363.041 239.356 362.596 240.246 361.922 240.157C360.901 240.023 360.647 238.565 360.161 237.865C359.938 237.545 359.409 237.849 359.633 238.173H359.634ZM356.397 247.145C357.859 248.468 359.854 249.107 361.813 248.814C363.687 248.533 365.355 247.391 366.365 245.802C366.576 245.468 366.048 245.162 365.838 245.494C364.936 246.913 363.457 247.92 361.793 248.203C360.016 248.504 358.156 247.916 356.828 246.714C356.538 246.451 356.105 246.881 356.398 247.146L356.397 247.145ZM349.013 236.361C349.687 234.479 351.684 233.361 353.644 233.763C354.027 233.84 354.191 233.253 353.806 233.173C352.645 232.937 351.418 233.122 350.402 233.74C349.478 234.305 348.788 235.183 348.422 236.199C348.29 236.569 348.881 236.729 349.013 236.361V236.361ZM350.963 241.774L349.343 240.84L351.206 240.997L350.963 241.774Z" fill="black"/>
<path fill-rule="evenodd" clip-rule="evenodd" d="M351.347 242C351.694 240.974 352.426 240.104 353.379 239.589C354.473 238.999 355.78 238.954 356.936 239.384C357.304 239.522 357.463 238.932 357.098 238.796C355.792 238.31 354.3 238.401 353.071 239.062C351.977 239.652 351.155 240.666 350.759 241.838C350.632 242.211 351.222 242.371 351.347 242" fill="black"/>
<path fill-rule="evenodd" clip-rule="evenodd" d="M352.411 239.537L351.683 237.411L353.121 239.14L352.411 239.537ZM355.76 238.881L356.258 237.411L356.572 238.931L355.76 238.881ZM368.09 233.88L369.223 232.395L368.83 234.221L368.09 233.88Z" fill="black"/>
<path fill-rule="evenodd" clip-rule="evenodd" d="M369.03 234.122C367.727 233.561 366.255 233.548 364.96 234.147C363.816 234.677 362.942 235.665 362.482 236.826C362.337 237.191 362.927 237.351 363.071 236.989C363.943 234.784 366.539 233.707 368.723 234.649C369.079 234.803 369.39 234.278 369.03 234.122" fill="black"/>
<path fill-rule="evenodd" clip-rule="evenodd" d="M365.426 234.051L365.108 231.826L366.198 233.793L365.426 234.051ZM362.956 236.468L362.04 235.216L363.465 235.833L362.956 236.468ZM435.567 241.043L443.666 215.656C443.876 214.994 444.485 214.538 445.179 214.521L459.715 214.141C460.829 214.112 461.644 215.184 461.318 216.248L453.239 242.614C453.023 243.323 452.353 243.796 451.612 243.765L437.054 243.168C435.979 243.124 435.239 242.069 435.567 241.043" fill="black"/>
<path fill-rule="evenodd" clip-rule="evenodd" d="M434.195 241.043L442.295 215.656C442.507 214.994 443.113 214.538 443.808 214.521L458.343 214.141C459.458 214.112 460.272 215.184 459.947 216.248L451.869 242.614C451.652 243.323 450.983 243.796 450.241 243.765L435.684 243.168C434.607 243.124 433.869 242.069 434.195 241.043" fill="#2E3192"/>
<path fill-rule="evenodd" clip-rule="evenodd" d="M457.319 218.283L451.903 235.946L451.129 238.485L450.763 239.681C450.632 240.103 450.307 240.42 449.915 240.551C449.762 240.6 449.606 240.624 449.443 240.616L446.406 240.494L437.626 240.136C436.747 240.096 436.154 239.242 436.413 238.411L440.607 225.264L442.196 220.293L442.993 217.803C443.026 217.697 443.076 217.591 443.141 217.502C443.368 217.136 443.767 216.9 444.214 216.884L444.639 216.876L456.015 216.575C456.92 216.55 457.579 217.42 457.319 218.284" fill="#97B8FF"/>
<path fill-rule="evenodd" clip-rule="evenodd" d="M451.903 235.947L451.129 238.484L443.14 217.503C443.368 217.135 443.767 216.899 444.215 216.883L444.638 216.875L451.903 235.947ZM449.916 240.551C449.762 240.601 449.606 240.625 449.443 240.616L446.405 240.495L440.607 225.263L442.196 220.293L449.916 240.551V240.551Z" fill="white"/>
<path fill-rule="evenodd" clip-rule="evenodd" d="M343.218 245.659C346.039 239.245 346.793 231.94 345.339 225.085C346.354 228.352 349.919 230.19 353.314 230.624C356.71 231.057 360.154 230.45 363.574 230.624C366.993 230.798 370.687 232.001 372.417 234.953C372.733 235.493 373.083 236.156 373.707 236.209C374.481 236.275 374.934 235.364 375.103 234.605C376.368 228.933 374.037 222.713 369.6 218.953C365.165 215.194 358.873 213.885 353.198 215.163C347.524 216.44 342.523 220.165 339.31 225.009C337.299 228.04 335.938 231.552 335.733 235.184C335.528 238.814 336.536 242.561 338.811 245.4C339.375 246.102 340.065 246.777 340.945 246.969C341.826 247.161 342.901 246.664 343.038 245.775" fill="#1A1A1A"/>
<path fill-rule="evenodd" clip-rule="evenodd" d="M333.846 247.201C332.922 242.673 335.587 238.307 339.799 237.448C344.011 236.59 348.177 239.565 349.101 244.093C350.025 248.62 347.359 252.986 343.147 253.845C338.935 254.704 334.771 251.728 333.846 247.201" fill="#3847DC"/>
<path fill-rule="evenodd" clip-rule="evenodd" d="M338.386 242.285C333.759 228.193 339.555 222.883 339.812 222.539L339.983 222.521L340.025 222.518L340.194 222.508C339.995 222.78 337.671 229.165 341.474 240.744L338.386 242.286V242.285ZM348.152 250.158C336.176 253.331 334.209 246.923 334.232 242.305C333.662 243.792 333.495 245.484 333.846 247.199C334.77 251.727 338.935 254.702 343.147 253.843C345.325 253.399 347.084 252.014 348.152 250.158" fill="#3847DC"/>
</svg>
