<svg width="1366" height="895" viewBox="0 0 1366 895" fill="none" xmlns="http://www.w3.org/2000/svg">
<g filter="url(#filter0_d)">
<path d="M1324.86 21.9434H41.1445C35.0849 21.9434 30.1726 26.8556 30.1726 32.9152V842.092C30.1726 848.152 35.0849 853.064 41.1445 853.064H1324.86C1330.91 853.064 1335.83 848.152 1335.83 842.092V32.9152C1335.83 26.8556 1330.91 21.9434 1324.86 21.9434Z" fill="white"/>
</g>
<path d="M30.1726 32.9152C30.1726 26.8556 35.085 21.9434 41.1445 21.9434H1324.86C1330.91 21.9434 1335.83 26.8556 1335.83 32.9152V120.69H30.1726V32.9152Z" fill="#3F51B5"/>
<path d="M1270 175.551H438.875C432.816 175.551 427.904 180.463 427.904 186.523V787.234C427.904 793.293 432.816 798.205 438.875 798.205H1270C1276.06 798.205 1280.97 793.293 1280.97 787.234V186.523C1280.97 180.463 1276.06 175.551 1270 175.551Z" fill="#F4F4F7"/>
<path d="M370.301 175.551H96.0041C89.9445 175.551 85.0322 180.463 85.0322 186.523V787.234C85.0322 793.293 89.9445 798.205 96.0041 798.205H370.301C376.361 798.205 381.273 793.293 381.273 787.234V186.523C381.273 180.463 376.361 175.551 370.301 175.551Z" fill="#F0F0FD"/>
<path d="M288.012 342.871H156.349C154.835 342.871 153.606 344.099 153.606 345.614V362.072C153.606 363.587 154.835 364.815 156.349 364.815H288.012C289.527 364.815 290.755 363.587 290.755 362.072V345.614C290.755 344.099 289.527 342.871 288.012 342.871Z" fill="#C3C3D8"/>
<path d="M345.614 397.73H156.349C154.835 397.73 153.606 398.959 153.606 400.473V416.931C153.606 418.446 154.835 419.674 156.349 419.674H345.614C347.129 419.674 348.357 418.446 348.357 416.931V400.473C348.357 398.959 347.129 397.73 345.614 397.73Z" fill="#C3C3D8"/>
<path d="M329.157 452.59H156.349C154.835 452.59 153.606 453.818 153.606 455.333V471.791C153.606 473.306 154.835 474.534 156.349 474.534H329.157C330.672 474.534 331.9 473.306 331.9 471.791V455.333C331.9 453.818 330.672 452.59 329.157 452.59Z" fill="#3F51B5"/>
<path d="M304.47 507.449H156.349C154.835 507.449 153.606 508.677 153.606 510.192V526.65C153.606 528.165 154.835 529.393 156.349 529.393H304.47C305.985 529.393 307.213 528.165 307.213 526.65V510.192C307.213 508.677 305.985 507.449 304.47 507.449Z" fill="#C3C3D8"/>
<path d="M345.614 562.309H156.349C154.835 562.309 153.606 563.537 153.606 565.052V581.509C153.606 583.024 154.835 584.252 156.349 584.252H345.614C347.129 584.252 348.357 583.024 348.357 581.509V565.052C348.357 563.537 347.129 562.309 345.614 562.309Z" fill="#C3C3D8"/>
<path d="M137.149 342.871H120.691C119.176 342.871 117.948 344.099 117.948 345.614V362.072C117.948 363.587 119.176 364.815 120.691 364.815H137.149C138.663 364.815 139.892 363.587 139.892 362.072V345.614C139.892 344.099 138.663 342.871 137.149 342.871Z" fill="#9696B1"/>
<path d="M137.149 397.73H120.691C119.176 397.73 117.948 398.959 117.948 400.473V416.931C117.948 418.446 119.176 419.674 120.691 419.674H137.149C138.663 419.674 139.892 418.446 139.892 416.931V400.473C139.892 398.959 138.663 397.73 137.149 397.73Z" fill="#9696B1"/>
<path d="M137.149 452.59H120.691C119.176 452.59 117.948 453.818 117.948 455.333V471.791C117.948 473.306 119.176 474.534 120.691 474.534H137.149C138.663 474.534 139.892 473.306 139.892 471.791V455.333C139.892 453.818 138.663 452.59 137.149 452.59Z" fill="#3F51B5"/>
<path d="M137.149 507.449H120.691C119.176 507.449 117.948 508.677 117.948 510.192V526.65C117.948 528.165 119.176 529.393 120.691 529.393H137.149C138.663 529.393 139.892 528.165 139.892 526.65V510.192C139.892 508.677 138.663 507.449 137.149 507.449Z" fill="#9696B1"/>
<path d="M137.149 562.309H120.691C119.176 562.309 117.948 563.537 117.948 565.052V581.509C117.948 583.024 119.176 584.252 120.691 584.252H137.149C138.663 584.252 139.892 583.024 139.892 581.509V565.052C139.892 563.537 138.663 562.309 137.149 562.309Z" fill="#9696B1"/>
<path d="M343.5 216.695H124.062C121.032 216.695 118.576 219.151 118.576 222.181V290.756C118.576 293.785 121.032 296.242 124.062 296.242H343.5C346.529 296.242 348.986 293.785 348.986 290.756V222.181C348.986 219.151 346.529 216.695 343.5 216.695Z" fill="#3F51B5"/>
<path d="M1231.59 219.438H976.498C971.953 219.438 968.269 223.122 968.269 227.666V748.831C968.269 753.376 971.953 757.06 976.498 757.06H1231.59C1236.14 757.06 1239.82 753.376 1239.82 748.831V227.666C1239.82 223.122 1236.14 219.438 1231.59 219.438Z" fill="#B5C4FB"/>
<g filter="url(#filter1_d)">
<path d="M924.382 219.438H474.534C471.504 219.438 469.048 221.894 469.048 224.923V359.329C469.048 362.359 471.504 364.815 474.534 364.815H924.382C927.411 364.815 929.868 362.359 929.868 359.329V224.923C929.868 221.894 927.411 219.438 924.382 219.438Z" fill="white"/>
</g>
<path d="M597.968 235.896H504.707C500.162 235.896 496.478 239.581 496.478 244.125V337.386C496.478 341.931 500.162 345.615 504.707 345.615H597.968C602.513 345.615 606.197 341.931 606.197 337.386V244.125C606.197 239.581 602.513 235.896 597.968 235.896Z" fill="#D2EFFC"/>
<path d="M896.952 244.125H628.14C625.111 244.125 622.655 246.581 622.655 249.611V260.583C622.655 263.613 625.111 266.069 628.14 266.069H896.952C899.982 266.069 902.438 263.613 902.438 260.583V249.611C902.438 246.581 899.982 244.125 896.952 244.125Z" fill="#C3C3D8"/>
<path d="M896.952 282.525H625.398C623.883 282.525 622.655 283.753 622.655 285.268V290.754C622.655 292.269 623.883 293.497 625.398 293.497H896.952C898.467 293.497 899.695 292.269 899.695 290.754V285.268C899.695 283.753 898.467 282.525 896.952 282.525Z" fill="#D6D6EA"/>
<path d="M833.863 304.471H625.398C623.883 304.471 622.655 305.699 622.655 307.214V312.7C622.655 314.215 623.883 315.443 625.398 315.443H833.863C835.378 315.443 836.606 314.215 836.606 312.7V307.214C836.606 305.699 835.378 304.471 833.863 304.471Z" fill="#D6D6EA"/>
<path d="M861.293 326.414H625.398C623.883 326.414 622.655 327.642 622.655 329.157V334.643C622.655 336.158 623.883 337.386 625.398 337.386H861.293C862.808 337.386 864.036 336.158 864.036 334.643V329.157C864.036 327.642 862.808 326.414 861.293 326.414Z" fill="#D6D6EA"/>
<path d="M924.382 386.76H474.534C471.504 386.76 469.048 389.216 469.048 392.246V526.651C469.048 529.681 471.504 532.137 474.534 532.137H924.382C927.411 532.137 929.868 529.681 929.868 526.651V392.246C929.868 389.216 927.411 386.76 924.382 386.76Z" fill="white"/>
<path d="M597.968 403.217H504.707C500.162 403.217 496.478 406.901 496.478 411.446V504.707C496.478 509.251 500.162 512.936 504.707 512.936H597.968C602.513 512.936 606.197 509.251 606.197 504.707V411.446C606.197 406.901 602.513 403.217 597.968 403.217Z" fill="#FFF8B9"/>
<path d="M896.952 411.445H628.14C625.111 411.445 622.655 413.901 622.655 416.931V427.903C622.655 430.933 625.111 433.389 628.14 433.389H896.952C899.982 433.389 902.438 430.933 902.438 427.903V416.931C902.438 413.901 899.982 411.445 896.952 411.445Z" fill="#C3C3D8"/>
<path d="M896.952 449.848H625.398C623.883 449.848 622.655 451.076 622.655 452.591V458.077C622.655 459.591 623.883 460.82 625.398 460.82H896.952C898.467 460.82 899.695 459.591 899.695 458.077V452.591C899.695 451.076 898.467 449.848 896.952 449.848Z" fill="#D6D6EA"/>
<path d="M833.863 471.791H625.398C623.883 471.791 622.655 473.019 622.655 474.534V480.02C622.655 481.535 623.883 482.763 625.398 482.763H833.863C835.378 482.763 836.606 481.535 836.606 480.02V474.534C836.606 473.019 835.378 471.791 833.863 471.791Z" fill="#D6D6EA"/>
<path d="M861.293 493.734H625.398C623.883 493.734 622.655 494.962 622.655 496.477V501.963C622.655 503.478 623.883 504.706 625.398 504.706H861.293C862.808 504.706 864.036 503.478 864.036 501.963V496.477C864.036 494.962 862.808 493.734 861.293 493.734Z" fill="#D6D6EA"/>
<path d="M924.382 554.08H474.534C471.504 554.08 469.048 556.536 469.048 559.566V693.972C469.048 697.001 471.504 699.458 474.534 699.458H924.382C927.411 699.458 929.868 697.001 929.868 693.972V559.566C929.868 556.536 927.411 554.08 924.382 554.08Z" fill="white"/>
<path d="M597.968 570.539H504.707C500.162 570.539 496.478 574.223 496.478 578.768V672.029C496.478 676.574 500.162 680.258 504.707 680.258H597.968C602.513 680.258 606.197 676.574 606.197 672.029V578.768C606.197 574.223 602.513 570.539 597.968 570.539Z" fill="#D2EFFC"/>
<path d="M896.952 578.768H628.14C625.111 578.768 622.655 581.224 622.655 584.254V595.225C622.655 598.255 625.111 600.711 628.14 600.711H896.952C899.982 600.711 902.438 598.255 902.438 595.225V584.254C902.438 581.224 899.982 578.768 896.952 578.768Z" fill="#C3C3D8"/>
<path d="M896.952 617.168H625.398C623.883 617.168 622.655 618.396 622.655 619.911V625.397C622.655 626.912 623.883 628.14 625.398 628.14H896.952C898.467 628.14 899.695 626.912 899.695 625.397V619.911C899.695 618.396 898.467 617.168 896.952 617.168Z" fill="#D6D6EA"/>
<path d="M833.863 639.113H625.398C623.883 639.113 622.655 640.341 622.655 641.856V647.342C622.655 648.857 623.883 650.085 625.398 650.085H833.863C835.378 650.085 836.606 648.857 836.606 647.342V641.856C836.606 640.341 835.378 639.113 833.863 639.113Z" fill="#D6D6EA"/>
<path d="M861.293 661.057H625.398C623.883 661.057 622.655 662.285 622.655 663.8V669.286C622.655 670.8 623.883 672.029 625.398 672.029H861.293C862.808 672.029 864.036 670.8 864.036 669.286V663.8C864.036 662.285 862.808 661.057 861.293 661.057Z" fill="#D6D6EA"/>
<mask id="mask0" mask-type="alpha" maskUnits="userSpaceOnUse" x="469" y="721" width="461" height="78">
<path d="M929.868 721.402H469.048V798.206H929.868V721.402Z" fill="#C4C4C4"/>
</mask>
<g mask="url(#mask0)">
<path d="M924.382 721.402H474.534C471.504 721.402 469.048 723.858 469.048 726.888V861.294C469.048 864.324 471.504 866.78 474.534 866.78H924.382C927.411 866.78 929.868 864.324 929.868 861.294V726.888C929.868 723.858 927.411 721.402 924.382 721.402Z" fill="white"/>
<path d="M597.968 737.859H504.707C500.162 737.859 496.478 741.544 496.478 746.088V839.349C496.478 843.894 500.162 847.578 504.707 847.578H597.968C602.513 847.578 606.197 843.894 606.197 839.349V746.088C606.197 741.544 602.513 737.859 597.968 737.859Z" fill="#FFB9D2"/>
<path d="M896.952 746.09H628.141C625.111 746.09 622.655 748.546 622.655 751.576V762.548C622.655 765.577 625.111 768.034 628.141 768.034H896.952C899.982 768.034 902.438 765.577 902.438 762.548V751.576C902.438 748.546 899.982 746.09 896.952 746.09Z" fill="#C3C3D8"/>
<path d="M896.952 784.49H625.398C623.883 784.49 622.655 785.718 622.655 787.233V792.719C622.655 794.234 623.883 795.462 625.398 795.462H896.952C898.467 795.462 899.695 794.234 899.695 792.719V787.233C899.695 785.718 898.467 784.49 896.952 784.49Z" fill="#D6D6EA"/>
</g>
<defs>
<filter id="filter0_d" x="19.1726" y="14.4638" width="1327.65" height="853.12" filterUnits="userSpaceOnUse" color-interpolation-filters="sRGB">
<feFlood flood-opacity="0" result="BackgroundImageFix"/>
<feColorMatrix in="SourceAlpha" type="matrix" values="0 0 0 0 0 0 0 0 0 0 0 0 0 0 0 0 0 0 127 0"/>
<feOffset dy="3.52042"/>
<feGaussianBlur stdDeviation="5.5"/>
<feColorMatrix type="matrix" values="0 0 0 0 0.14788 0 0 0 0 0.376938 0 0 0 0 0.720524 0 0 0 0.16 0"/>
<feBlend mode="normal" in2="BackgroundImageFix" result="effect1_dropShadow"/>
<feBlend mode="normal" in="SourceGraphic" in2="effect1_dropShadow" result="shape"/>
</filter>
<filter id="filter1_d" x="464.048" y="216.438" width="470.819" height="155.378" filterUnits="userSpaceOnUse" color-interpolation-filters="sRGB">
<feFlood flood-opacity="0" result="BackgroundImageFix"/>
<feColorMatrix in="SourceAlpha" type="matrix" values="0 0 0 0 0 0 0 0 0 0 0 0 0 0 0 0 0 0 127 0"/>
<feOffset dy="2"/>
<feGaussianBlur stdDeviation="2.5"/>
<feColorMatrix type="matrix" values="0 0 0 0 0.251559 0 0 0 0 0.306331 0 0 0 0 0.593886 0 0 0 0.1 0"/>
<feBlend mode="normal" in2="BackgroundImageFix" result="effect1_dropShadow"/>
<feBlend mode="normal" in="SourceGraphic" in2="effect1_dropShadow" result="shape"/>
</filter>
</defs>
</svg>
