<svg xmlns="http://www.w3.org/2000/svg" xmlns:xlink="http://www.w3.org/1999/xlink" width="1366" height="483" viewBox="0 0 1366 483">
    <defs>
        <path id="prefix__a" d="M0 0L1366 0 1366 333 0 483z"/>
        <path id="prefix__c" d="M0.119 0.095L36.029 0.095 36.029 20.158 0.119 20.158z"/>
    </defs>
    <g fill="none" fill-rule="evenodd">
        <mask id="prefix__b" fill="#fff">
            <use xlink:href="#prefix__a"/>
        </mask>
        <use fill="#3F50B5" xlink:href="#prefix__a"/>
        <g mask="url(#prefix__b)">
            <g>
                <path fill="#91A8F6" d="M923.77 215.093c0-1.251-1.017-2.27-2.268-2.27-1.254 0-2.272 1.019-2.272 2.27 0 1.252 1.018 2.27 2.272 2.27 1.251 0 2.268-1.018 2.268-2.27m2.23 0c0 2.482-2.017 4.5-4.498 4.5-2.482 0-4.502-2.018-4.502-4.5 0-2.481 2.02-4.5 4.502-4.5 2.48 0 4.498 2.019 4.498 4.5M1030.77 290.093c0-1.251-1.017-2.27-2.268-2.27-1.254 0-2.272 1.019-2.272 2.27 0 1.252 1.018 2.27 2.272 2.27 1.251 0 2.268-1.018 2.268-2.27m2.23 0c0 2.482-2.017 4.5-4.498 4.5-2.482 0-4.502-2.018-4.502-4.5 0-2.481 2.02-4.5 4.502-4.5 2.48 0 4.498 2.019 4.498 4.5M999.914 53.593h-24.828c-.6 0-1.086.448-1.086 1.001 0 .552.486 1 1.086 1h24.828c.6 0 1.086-.448 1.086-1 0-.553-.486-1-1.086-1M966.917 53.593h-4.834c-.598 0-1.083.448-1.083 1.001 0 .552.485 1 1.083 1h4.834c.597 0 1.083-.448 1.083-1 0-.553-.486-1-1.083-1M968.602 61.593c0 .553-.486 1-1.085 1h-5.43c-.602 0-1.087-.447-1.087-1 0-.552.485-1 1.087-1h5.43c.599 0 1.085.448 1.085 1m10.863 0c0 .553-.487 1-1.087 1h-5.431c-.599 0-1.087-.447-1.087-1 0-.552.488-1 1.087-1h5.431c.6 0 1.087.448 1.087 1m8.535 0c0 .553-.485 1-1.085 1h-3.106c-.6 0-1.086-.447-1.086-1 0-.552.487-1 1.086-1h3.106c.6 0 1.085.448 1.085 1M284 126.593c-.551 0-1 .519-1 1.158v2.685c0 .64.449 1.157 1 1.157.551 0 1-.518 1-1.157v-2.685c0-.64-.449-1.158-1-1.158M280.843 124.593h-2.686c-.639 0-1.157.448-1.157 1.001 0 .552.518 1 1.157 1h2.686c.639 0 1.157-.448 1.157-1 0-.553-.518-1-1.157-1M284 118.593c-.551 0-1 .519-1 1.159v2.683c0 .64.449 1.158 1 1.158.551 0 1-.518 1-1.158v-2.683c0-.64-.449-1.159-1-1.159M288.842 123.593h-2.686c-.638 0-1.156.448-1.156 1s.518 1 1.156 1h2.686c.64 0 1.158-.448 1.158-1s-.518-1-1.158-1M559 55.593c-.552 0-1 .519-1 1.158v2.686c0 .64.448 1.156 1 1.156s1-.517 1-1.156V56.75c0-.64-.448-1.158-1-1.158M556.842 53.593h-2.684c-.639 0-1.158.448-1.158 1.001 0 .552.52 1 1.158 1h2.684c.64 0 1.158-.448 1.158-1 0-.553-.518-1-1.158-1M559 47.593c-.552 0-1 .519-1 1.159v2.683c0 .64.448 1.158 1 1.158s1-.518 1-1.158v-2.683c0-.64-.448-1.159-1-1.159M564.844 52.593h-2.686c-.639 0-1.158.448-1.158 1 0 .553.52 1 1.158 1h2.686c.638 0 1.156-.447 1.156-1 0-.552-.518-1-1.156-1M1036 115.593c0 2.21 1.79 4 4 4 2.208 0 4-1.79 4-4 0-2.209-1.792-4-4-4-2.21 0-4 1.791-4 4M219.086 305.593h24.828c.6 0 1.086-.447 1.086-.999 0-.553-.486-1-1.086-1h-24.828c-.6 0-1.086.447-1.086 1 0 .552.486 1 1.086 1M206.082 305.593h4.836c.597 0 1.082-.447 1.082-.999 0-.553-.485-1-1.082-1h-4.836c-.597 0-1.082.447-1.082 1 0 .552.485 1 1.082 1M691.858 323.593s1.48 10.907-10.858 10.655c0 0 10.598.111 10.32 10.345 0 0 .953-8.049 10.68-9.848 0 0-8.22 1.947-10.142-11.152M1234.858 74.593s1.48 10.907-10.858 10.655c0 0 10.598.111 10.32 10.345 0 0 .953-8.049 10.68-9.848 0 0-8.22 1.947-10.142-11.152M1061.859 172.593s1.48 10.907-10.859 10.655c0 0 10.599.111 10.32 10.345 0 0 .954-8.05 10.68-9.848 0 0-8.22 1.946-10.141-11.152M1177.859 283.593s1.48 10.907-10.859 10.655c0 0 10.599.111 10.32 10.345 0 0 .954-8.05 10.68-9.848 0 0-8.22 1.946-10.141-11.152M356.858 27.593S358.34 38.5 346 38.248c0 0 10.598.112 10.32 10.345 0 0 .953-8.05 10.68-9.848 0 0-8.22 1.946-10.142-11.152M248.858 57.593S250.338 68.5 238 68.247c0 0 10.598.112 10.32 10.346 0 0 .953-8.05 10.68-9.85 0 0-8.22 1.948-10.142-11.15M10.858 68.593S12.338 79.5 0 79.247c0 0 10.598.112 10.32 10.346 0 0 .953-8.05 10.68-9.85 0 0-8.22 1.948-10.142-11.15M60.858 349.593S62.338 360.5 50 360.247c0 0 10.598.112 10.32 10.346 0 0 .953-8.05 10.68-9.85 0 0-8.22 1.948-10.142-11.15M509.62 140.593s.493 3.635-3.62 3.551c0 0 3.534.039 3.44 3.45 0 0 .318-2.684 3.56-3.285 0 0-2.74.649-3.38-3.716M147.62 203.593s.493 3.635-3.62 3.551c0 0 3.534.039 3.44 3.45 0 0 .318-2.684 3.56-3.284 0 0-2.74.648-3.38-3.717M472.62 304.593s.493 3.635-3.62 3.552c0 0 3.534.037 3.44 3.448 0 0 .318-2.683 3.56-3.283 0 0-2.74.648-3.38-3.717M299.705 234.914c-2.215 0-4.017 1.795-4.017 4s1.802 3.999 4.017 3.999h24.59c2.215 0 4.017-1.794 4.017-4 0-2.204-1.802-4-4.017-4h-2.838l-.114-.708c-.426-2.676-2.975-4.547-5.82-3.87l-.621.149-.31-.555c-1.264-2.255-3.656-3.655-6.24-3.655-3.938 0-7.142 3.19-7.142 7.112 0 .207.014.412.031.615l.08.913h-1.616zm24.59 9.68h-24.59c-3.146 0-5.705-2.548-5.705-5.68 0-3.071 2.46-5.583 5.523-5.679.08-4.78 4.011-8.642 8.829-8.642 2.99 0 5.771 1.515 7.394 3.992 3.314-.472 6.272 1.603 7.111 4.647h1.438c3.146 0 5.705 2.55 5.705 5.681 0 3.133-2.56 5.68-5.705 5.68z" transform="translate(77 -31.593)"/>
                <g transform="translate(77 -31.593) translate(1038 18.593)">
                    <mask id="prefix__d" fill="#fff">
                        <use xlink:href="#prefix__c"/>
                    </mask>
                    <path fill="#91A8F6" d="M5.81 10.448c-2.21 0-4.006 1.8-4.006 4.012 0 2.213 1.797 4.012 4.007 4.012h24.527c2.21 0 4.008-1.8 4.008-4.012 0-2.212-1.798-4.012-4.008-4.012h-2.83l-.113-.711c-.426-2.683-2.971-4.558-5.806-3.881l-.62.148-.31-.557C19.4 3.185 17.013 1.78 14.435 1.78c-3.928 0-7.124 3.2-7.124 7.134 0 .208.015.414.032.617l.08.916H5.81zm24.528 9.71H5.811c-3.139 0-5.692-2.556-5.692-5.698 0-3.081 2.456-5.6 5.51-5.696.08-4.794 4-8.669 8.806-8.669 2.983 0 5.757 1.52 7.376 4.004 3.303-.472 6.256 1.61 7.093 4.662h1.434c3.138 0 5.691 2.557 5.691 5.699s-2.553 5.698-5.691 5.698z" mask="url(#prefix__d)"/>
                </g>
                <path fill="#91A8F6" d="M475.705 106.914c-2.215 0-4.017 1.795-4.017 4s1.802 3.999 4.017 3.999h24.59c2.215 0 4.016-1.794 4.016-4 0-2.204-1.801-4-4.016-4h-2.838l-.114-.708c-.426-2.674-2.977-4.543-5.82-3.869l-.621.148-.31-.555c-1.264-2.255-3.656-3.655-6.24-3.655-3.938 0-7.142 3.19-7.142 7.112 0 .207.014.413.031.615l.08.913h-1.616zm24.59 9.68h-24.59c-3.146 0-5.705-2.548-5.705-5.68 0-3.072 2.46-5.583 5.523-5.679.08-4.778 4.011-8.642 8.829-8.642 2.99 0 5.77 1.515 7.394 3.992 3.312-.471 6.272 1.604 7.111 4.648h1.438c3.146 0 5.705 2.549 5.705 5.68 0 3.133-2.56 5.68-5.705 5.68z" transform="translate(77 -31.593)"/>
                <path fill="#93C7EA" d="M457.67 411.85c-10.462 2.941-21.342-3.102-24.302-13.5l-15.62-54.861c-2.96-10.397 3.122-21.21 13.584-24.151 10.46-2.942 21.34 3.1 24.3 13.498l15.62 54.862c2.959 10.396-3.122 21.21-13.582 24.151" transform="translate(77 -31.593)"/>
                <path fill="#93C7EA" d="M435.861 411.985c-7.709-7.581-7.829-19.994-.268-27.724l39.897-40.79c7.56-7.73 19.94-7.85 27.649-.27 7.709 7.582 7.829 19.995.268 27.725l-39.897 40.79c-7.56 7.73-19.939 7.851-27.649.27" transform="translate(77 -31.593)"/>
                <path fill="#FF8383" d="M515.148 333.172c5.204 7.813 3.088 18.365-4.727 23.57-7.813 5.203-18.365 3.087-23.57-4.726-5.202-7.814-3.087-18.367 4.726-23.571 7.814-5.203 18.367-3.087 23.57 4.727" transform="translate(77 -31.593)"/>
                <path fill="#FF8383" d="M489.473 340.45c-2.514.622-5.077-.832-5.724-3.247l-1.6-5.965c-.647-2.416.866-4.878 3.38-5.5 2.514-.623 5.076.831 5.723 3.245l1.598 5.965c.649 2.416-.865 4.879-3.377 5.502" transform="translate(77 -31.593)"/>
                <path fill="#FF8383" d="M506.682 320.024l-5.934 15.593c-.92 2.416-3.553 3.6-5.88 2.647-2.328-.955-3.469-3.687-2.55-6.102l5.935-15.593c.92-2.415 3.552-3.6 5.88-2.645 2.327.953 3.468 3.685 2.55 6.1" transform="translate(77 -31.593)"/>
                <path fill="#FF8383" d="M517.507 323.263l-7.508 14.759c-1.162 2.287-4.008 3.222-6.357 2.091-2.35-1.132-3.311-3.902-2.148-6.19L509 319.165c1.163-2.286 4.009-3.221 6.357-2.09 2.35 1.132 3.31 3.902 2.149 6.19" transform="translate(77 -31.593)"/>
                <path fill="#FF8383" d="M525.978 332.019l-10.497 12.83c-1.626 1.988-4.613 2.327-6.674.758-2.059-1.57-2.411-4.452-.784-6.439l10.495-12.83c1.627-1.988 4.615-2.327 6.674-.758 2.06 1.57 2.412 4.45.786 6.439M415.293 299.587l-6.587-.261c-4.426-.177-7.873-3.94-7.7-8.407l1.378-35.326 22.616.898-1.377 35.326c-.175 4.467-3.904 7.946-8.33 7.77" transform="translate(77 -31.593)"/>
                <path fill="#D15E79" d="M425 255.496l-22.639-.903-.35 9.015c-.342 8.835 6.752 16.59 15.448 15.948.542-.04 1.083-.109 1.626-.206 1.816-.33 3.508-.983 5.062-1.878l.853-21.976z" transform="translate(77 -31.593)"/>
                <path fill="#1B2A67" d="M436.883 220.756c5.888 10.731-.927 24.507-15.222 30.769-14.295 6.26-30.656 2.637-36.544-8.094-5.888-10.731.927-24.507 15.222-30.769 14.295-6.26 30.656-2.637 36.544 8.094" transform="translate(77 -31.593)"/>
                <path fill="#1B2A67" d="M452.976 223.487c3.899 8.526-3.676 18.62-16.918 22.545-13.242 3.925-27.137.196-31.034-8.33-3.898-8.528 3.677-18.622 16.918-22.547 13.243-3.925 27.136-.195 31.034 8.332" transform="translate(77 -31.593)"/>
                <path fill="#1B2A67" d="M430.572 202.575c7.99 4.913 7.05 17.409-2.102 27.913-9.153 10.502-23.05 15.036-31.042 10.124-7.99-4.912-7.05-17.409 2.103-27.912 9.152-10.504 23.05-15.037 31.04-10.125" transform="translate(77 -31.593)"/>
                <path fill="#FF8383" d="M438.563 250.196c2.235 12.589-4.32 24.299-14.638 26.15-10.318 1.85-20.494-6.857-22.73-19.447l-1.757-9.909c-2.236-12.589 4.316-24.297 14.633-26.148 10.32-1.852 20.498 6.855 22.732 19.446l1.76 9.908z" transform="translate(77 -31.593)"/>
                <path fill="#1B2A67" d="M416.06 218.341c-5.807-5.277-15.914-2.725-22.575 5.7-6.66 8.424-7.352 19.53-1.545 24.806 5.808 5.275 15.915 2.724 22.574-5.7 6.661-8.423 7.353-19.53 1.545-24.806" transform="translate(77 -31.593)"/>
                <path fill="#86294E" d="M420.054 246.593c-.334 0-.664-.155-.869-.441-.327-.467-.21-1.103.267-1.424.139-.091 3.481-2.304 7.025-.292.502.286.673.917.38 1.406-.291.49-.932.657-1.441.37-2.373-1.35-4.668.14-4.767.204-.182.12-.389.177-.595.177M437.946 246.593c-.206 0-.412-.058-.595-.18-.1-.064-2.393-1.548-4.767-.204-.505.287-1.145.121-1.44-.368-.294-.487-.123-1.116.379-1.402 3.55-2.018 6.884.197 7.025.291.478.323.595.96.264 1.426-.204.285-.533.437-.866.437M425 249.632c-.023.552-.487.983-1.04.96-.552-.02-.982-.486-.96-1.038.022-.553.487-.982 1.039-.96.551.021.982.487.96 1.038M435 250.633c-.023.551-.488.982-1.04.96-.552-.022-.981-.488-.96-1.039.022-.552.488-.982 1.04-.96.55.021.981.488.96 1.039" transform="translate(77 -31.593)"/>
                <path fill="#FFD2D4" d="M437.49 242.03c-1.78 0-3.469.662-4.785 1.878-1.385 1.28-2.189 3.021-2.263 4.908-.075 1.884.59 3.687 1.871 5.071 1.28 1.386 3.024 2.19 4.907 2.265 1.9.032 3.687-.59 5.074-1.872 1.385-1.28 2.19-3.023 2.263-4.91.075-1.886-.59-3.685-1.87-5.072-1.282-1.384-3.025-2.187-4.91-2.262-.096-.003-.19-.006-.287-.006m.02 15.563c-.115 0-.23-.003-.346-.009-2.266-.086-4.366-1.053-5.907-2.72-1.54-1.668-2.34-3.838-2.25-6.106.09-2.268 1.056-4.364 2.722-5.904 1.67-1.54 3.82-2.356 6.105-2.252 2.268.086 4.366 1.056 5.908 2.723 1.54 1.666 2.34 3.833 2.251 6.104-.09 2.268-1.057 4.366-2.724 5.905-1.584 1.466-3.617 2.26-5.76 2.26M419.49 240.203c-1.99 0-3.879.736-5.349 2.095-1.549 1.433-2.447 3.38-2.53 5.488-.17 4.347 3.229 8.022 7.578 8.195 2.085.1 4.119-.66 5.668-2.091 1.549-1.432 2.447-3.379 2.53-5.486.084-2.108-.66-4.12-2.09-5.667-1.431-1.548-3.38-2.448-5.488-2.528-.106-.006-.212-.006-.32-.006m.022 17.39c-.13 0-.257-.002-.384-.009-5.235-.207-9.326-4.63-9.12-9.861.1-2.537 1.18-4.88 3.044-6.604 1.861-1.724 4.287-2.635 6.822-2.515 2.535.098 4.88 1.18 6.602 3.042 1.724 1.864 2.617 4.285 2.518 6.82-.102 2.537-1.183 4.88-3.046 6.603-1.769 1.636-4.043 2.524-6.436 2.524" transform="translate(77 -31.593)"/>
                <path fill="#FFD2D4" d="M427.712 250.422l3.518.17c.409.022.754-.373.77-.877.015-.505-.302-.93-.712-.951l-3.518-.17c-.41-.02-.753.374-.77.878-.016.506.304.93.712.95" transform="translate(77 -31.593)"/>
                <path fill="#86294E" d="M433.994 254.786c-.098 1.37-1.52 2.618-3.174 2.788-1.654.171-2.914-.802-2.814-2.172.098-1.37 1.52-2.618 3.174-2.79 1.654-.168 2.914.804 2.814 2.174M434 261.77c-.116 2.78-2.82 4.938-6.037 4.819-3.218-.119-5.075-3.1-4.958-5.88 3.775-.316 7.446.01 10.995 1.062" transform="translate(77 -31.593)"/>
                <path fill="#FFD2D4" d="M428.132 263.53c-2.466-.278-3.987-1.098-4.132-2.896 3.076-.159 6.08.144 9 .97-.422 1.62-2.45 2.196-4.868 1.925" transform="translate(77 -31.593)"/>
                <path fill="#201028" d="M421.242 267.593l-6.256-.005c-2.524 0-4.946-.87-6.82-2.455l-3.915-3.303c-.312-.264-.336-.713-.055-1.002.28-.292.76-.313 1.072-.052l3.916 3.304c1.593 1.348 3.654 2.088 5.802 2.088l6.256.006c.419 0 .758.318.758.71 0 .394-.34.71-.758.71" transform="translate(77 -31.593)"/>
                <path fill="#FFD2D4" d="M420.638 268.593h-.002l-2.275-.002c-.753 0-1.362-.673-1.361-1.503.002-.823.611-1.495 1.362-1.495h.001l2.276.004c.753 0 1.363.673 1.361 1.5-.001.826-.61 1.496-1.362 1.496" transform="translate(77 -31.593)"/>
                <path fill="#445EEA" d="M412.99 254.584c-.27 6.898-6.083 12.27-12.98 12-6.898-.272-12.272-6.083-12-12.981.272-6.898 6.083-12.272 12.98-12 6.899.271 12.271 6.083 12 12.981" transform="translate(77 -31.593)"/>
                <path fill="#91A8F6" d="M408.99 254.47c-.236 5.796-4.903 10.326-10.42 10.117-5.517-.209-9.798-5.076-9.56-10.87.237-5.795 4.903-10.326 10.42-10.117 5.518.21 9.798 5.076 9.56 10.87" transform="translate(77 -31.593)"/>
                <path fill="#E0EEF7" d="M400.995 254.23c-.097 2.485-1.742 4.437-3.672 4.361-1.931-.075-3.416-2.15-3.318-4.634.097-2.484 1.741-4.436 3.672-4.361 1.931.076 3.416 2.15 3.318 4.635" transform="translate(77 -31.593)"/>
                <path fill="#93C7EA" d="M431.369 428.9l-59.966 1.693c-9.996-.394-17.782-8.829-17.389-18.84l3.789-100.496c.205-5.252 3.675-9.814 8.676-11.409l44.706-14.255 35.734 17.152c4.487 2.154 7.267 6.774 7.071 11.754l-3.809 96.988c-.393 10.012-8.815 17.809-18.812 17.414" transform="translate(77 -31.593)"/>
                <path fill="#6EACCE" d="M453.89 315.593c.209 10.434.086 20.856-.087 31.274-.139 10.419-.517 20.831-.894 31.241-.448 10.408-.904 20.817-1.594 31.214-.155 2.528-.285 5.375-1.254 7.963-.916 2.586-2.384 4.975-4.326 6.898-3.896 3.82-9.44 5.886-14.735 5.317 5.3-.112 10.375-2.452 13.643-6.308 1.679-1.878 2.903-4.117 3.598-6.486.742-2.377.721-4.813.746-7.474.141-10.42.517-20.83.898-31.243.454-10.405.907-20.813 1.6-31.212.658-10.4 1.366-20.798 2.405-31.184" transform="translate(77 -31.593)"/>
                <path fill="#93C7EA" d="M427.735 304.593L395 302.538l1.255-18.946c.157-2.355 2.243-4.14 4.662-3.99l23.976 1.506c2.42.152 4.254 2.185 4.098 4.54l-1.256 18.945zM331.065 400.09c-9.978-4.155-14.708-15.63-10.564-25.63l21.865-52.774c4.145-10 15.592-14.741 25.57-10.588 9.977 4.154 14.707 15.628 10.563 25.63l-21.867 52.773c-4.143 10-15.59 14.741-25.567 10.588" transform="translate(77 -31.593)"/>
                <path fill="#6EACCE" d="M368.5 310.593c3.554 1.143 6.794 3.41 9.194 6.411 2.352 3.029 3.855 6.779 4.184 10.672.526 3.869-.728 7.992-2.16 11.32l-4.201 10.26c-2.884 6.806-5.776 13.61-8.881 20.324l-4.67 10.07c-1.66 3.312-3.222 6.665-4.966 9.943 1.109-3.54 2.398-7.005 3.592-10.51l3.89-10.391c2.597-6.924 5.414-13.758 8.236-20.59l4.357-10.197c.743-1.743 1.513-3.281 1.883-4.961.41-1.671.654-3.4.601-5.137-.094-6.979-4.395-13.84-11.06-17.214" transform="translate(77 -31.593)"/>
                <path fill="#86294E" d="M413.442 358.144c-1.312-.083-2.448.902-2.532 2.197l-.3 4.564c-.083 1.293.914 2.416 2.226 2.5l5.666.36.606-9.26-5.666-.36zm9.36 14.45l-10.262-.654c-3.846-.244-6.773-3.532-6.525-7.327l.298-4.566c.247-3.795 3.577-6.684 7.426-6.44l10.261.654-1.198 18.332z" transform="translate(77 -31.593)"/>
                <path fill="#D15E79" d="M431.873 386.573l-8.8-.556c-5.345-.338-9.398-4.856-9.053-10.092l1.825-27.72c.204-3.092 28.358-1.313 28.154 1.78l-1.824 27.719c-.345 5.236-4.957 9.207-10.302 8.87" transform="translate(77 -31.593)"/>
                <path fill="#86294E" d="M442 350.274c-.073 1.04-5.282 1.575-11.632 1.2-6.35-.376-11.44-1.522-11.367-2.56.074-1.039 5.28-1.577 11.631-1.2 6.352.374 11.44 1.521 11.367 2.56" transform="translate(77 -31.593)"/>
                <path fill="#93C7EA" d="M320.002 381.836c.172-10.797 9.148-19.41 20.05-19.24l57.52.899c10.9.17 19.598 9.06 19.425 19.856-.171 10.797-9.147 19.411-20.049 19.24l-57.52-.9c-10.9-.17-19.597-9.06-19.426-19.855" transform="translate(77 -31.593)"/>
                <path fill="#6EACCE" d="M340 362.494c7.383-.507 14.76-.684 22.138-.807 7.379-.16 14.753-.082 22.127-.004l11.057.255c3.615.026 7.89.523 11.225 2.555 3.44 1.86 6.278 4.741 8.128 8.108 1.801 3.402 2.6 7.277 2.24 10.992-.463-7.456-5.052-14.14-11.406-17.019-1.572-.742-3.25-1.216-4.941-1.507-1.687-.333-3.4-.245-5.29-.26l-11.061-.097c-7.373-.155-14.746-.312-22.116-.705-7.368-.36-14.738-.768-22.101-1.511" transform="translate(77 -31.593)"/>
                <path fill="#FF8383" d="M435.926 378.018c.87 9.349-6.004 17.631-15.35 18.501-9.35.87-17.631-6.003-18.502-15.351-.87-9.349 6.004-17.631 15.35-18.5 9.35-.87 17.631 6.002 18.502 15.35" transform="translate(77 -31.593)"/>
                <path fill="#FF8383" d="M410.752 371.358c-2.134-.768-3.264-3.192-2.526-5.414l1.822-5.485c.739-2.222 3.066-3.399 5.2-2.63 2.133.767 3.264 3.192 2.527 5.413l-1.824 5.486c-.738 2.221-3.066 3.4-5.2 2.63M443.076 373.158l-15.351 1.417c-2.377.22-4.485-1.516-4.706-3.875-.221-2.36 1.527-4.45 3.906-4.67l15.35-1.418c2.377-.22 4.484 1.516 4.706 3.876.22 2.36-1.529 4.45-3.905 4.67M440.404 387.584l-15.363-1.03c-2.38-.158-4.186-2.291-4.032-4.765.154-2.471 2.208-4.346 4.587-4.186l15.363 1.03c2.38.158 4.186 2.291 4.032 4.764-.154 2.47-2.208 4.347-4.587 4.187" transform="translate(77 -31.593)"/>
                <path fill="#445EEA" d="M595.819 335.593c-.466 0-.931-.177-1.285-.532-.712-.708-.712-1.86 0-2.571l17.363-17.364c.705-.71 1.859-.71 2.57 0 .71.708.71 1.86 0 2.57l-17.364 17.365c-.351.355-.82.532-1.284.532M584 324.593c-1.104 0-2-.808-2-1.805v-24.39c0-.996.896-1.805 2-1.805s2 .809 2 1.806v24.39c0 .996-.896 1.804-2 1.804M631.195 347.593h-24.389c-.997 0-1.806-.895-1.806-1.999 0-1.106.81-2 1.806-2h24.389c.997 0 1.805.894 1.805 2 0 1.104-.808 2-1.805 2" transform="translate(77 -31.593)"/>
                <path fill="#6EACCE" d="M415.483 422.593h148.113c4.132 0 5.404-3.132 5.404-7H408c0 3.868 3.352 7 7.483 7" transform="translate(77 -31.593)"/>
                <path fill="#6EACCE" d="M406.727 415.593H459c0 3.868-3.786 7-8.46 7H406.506c-4.819-.065-4.597-7 .222-7" transform="translate(77 -31.593)"/>
                <path fill="#E0EEF7" d="M462.585 417.593h106.479c3.16 0 5.88-2.259 6.466-5.373l14.352-61.787c.772-4.07-2.339-7.84-6.469-7.84H476.938c-3.166 0-5.879 2.26-6.47 5.375l-14.351 61.786c-.768 4.07 2.34 7.84 6.468 7.84" transform="translate(77 -31.593)"/>
                <path fill="#6EACCE" d="M470.585 348.693c.322-1.702 1.306-3.143 2.647-4.1 2.007 1.433 3.156 3.92 2.648 6.548l-14.464 61.357c-.33 1.703-1.303 3.139-2.646 4.095-2.006-1.43-3.156-3.921-2.652-6.545l14.467-61.355z" transform="translate(77 -31.593)"/>
                <path fill="#FFF" d="M537.607 387.593h-17.214c-3.53 0-6.393-2.91-6.393-6.5s2.862-6.5 6.393-6.5h17.214c3.53 0 6.393 2.91 6.393 6.5s-2.862 6.5-6.393 6.5" transform="translate(77 -31.593)"/>
                <path fill="#6EACCE" d="M422.125 417.593h-5.25c-1.036 0-1.875-.894-1.875-2 0-1.103.84-2 1.875-2h5.25c1.034 0 1.875.897 1.875 2 0 1.106-.84 2-1.875 2M433.125 417.593h-5.25c-1.036 0-1.875-.894-1.875-2 0-1.103.84-2 1.875-2h5.25c1.034 0 1.875.897 1.875 2 0 1.106-.84 2-1.875 2M443.125 417.593h-5.25c-1.037 0-1.875-.894-1.875-2 0-1.103.838-2 1.875-2h5.25c1.036 0 1.875.897 1.875 2 0 1.106-.84 2-1.875 2M453.125 417.593h-5.25c-1.037 0-1.875-.894-1.875-2 0-1.103.838-2 1.875-2h5.25c1.036 0 1.875.897 1.875 2 0 1.106-.84 2-1.875 2" transform="translate(77 -31.593)"/>
                <path fill="#1B2A67" d="M648.51 431.593H200.49c-2.48 0-4.49-2.014-4.49-4.499s2.01-4.5 4.49-4.5h448.02c2.48 0 4.49 2.015 4.49 4.5s-2.01 4.5-4.49 4.5" transform="translate(77 -31.593)"/>
                <path stroke="#1B2A67" stroke-linecap="round" stroke-width=".827" d="M267 394.593s-3.201-24.882-9-31" transform="translate(77 -31.593)"/>
                <path fill="#FFD2D4" d="M259.043 349.257c1.509 5.092 1.2 9.693-.688 10.276-1.888.581-4.642-3.075-6.15-8.169-.014-.052-.03-.102-.044-.152-1.278-4.539 5.438-6.608 6.836-2.108l.046.153" transform="translate(77 -31.593)"/>
                <path fill="#FFD2D4" d="M268.337 360.636c-5.092 1.51-9.695 1.2-10.276-.688-.582-1.888 3.075-4.642 8.168-6.15l.153-.044c4.537-1.277 6.608 5.438 2.108 6.837l-.153.045" transform="translate(77 -31.593)"/>
                <path fill="#FFD2D4" d="M250.77 366.388c5.094-1.508 8.752-4.262 8.169-6.15-.583-1.888-5.183-2.196-10.276-.688-.052.016-.103.03-.152.046-4.5 1.398-2.431 8.115 2.107 6.837l.152-.045z" transform="translate(77 -31.593)"/>
                <path fill="#FFD2D4" d="M259.152 372.66c1.421-5.5 1.014-10.429-.91-11.01-1.926-.581-4.639 3.405-6.06 8.905l-.042.165c-1.198 4.898 5.646 6.964 6.968 2.104.016-.055.03-.11.044-.165" transform="translate(77 -31.593)"/>
                <path fill="#FFD2D4" d="M264.56 370.562c-4.23-3.595-6.541-7.79-5.16-9.368 1.378-1.577 5.926.059 10.157 3.655l.125.11c3.708 3.24-1.197 8.85-4.995 5.711l-.126-.108" transform="translate(77 -31.593)"/>
                <path fill="#D15E79" d="M260.893 360.37c.399 1.321-.349 2.716-1.67 3.116-1.322.399-2.717-.349-3.115-1.67-.4-1.321.347-2.716 1.668-3.116 1.323-.398 2.717.35 3.117 1.67" transform="translate(77 -31.593)"/>
                <path fill="#445EEA" d="M257.878 378.77c6.755 5.499 10.601 12.095 8.587 14.733-2.014 2.64-9.124.323-15.879-5.175-6.755-5.496-8.586-14.73-8.586-14.73s9.122-.325 15.878 5.173" transform="translate(77 -31.593)"/>
                <path fill="#445EEA" d="M281.556 387.142c-7.233 6.91-15.18 10.254-17.75 7.471-2.57-2.783 1.21-10.64 8.444-17.548 7.234-6.91 17.75-7.472 17.75-7.472s-1.211 10.64-8.444 17.55" transform="translate(77 -31.593)"/>
                <path fill="#1B2A67" d="M276.852 423.593L253.149 423.593 249 393.593 281 393.593z" transform="translate(77 -31.593)"/>
                <path fill="#1B2A67" d="M282.31 401.593h-34.618c-.935 0-1.692-.748-1.692-1.67v-7.659c0-.923.757-1.67 1.692-1.67h34.617c.935 0 1.691.747 1.691 1.67v7.659c0 .922-.756 1.67-1.69 1.67" transform="translate(77 -31.593)"/>
                <path fill="#445EEA" d="M337 171.113L348.714 183.593 438 146.593z" transform="translate(77 -31.593)"/>
                <path fill="#91A8F6" d="M341.107 129.593L332.271 143.003 338.245 156.145 324.843 158.437 313 184.593 441 145.628z" transform="translate(77 -31.593)"/>
                <path fill="#445EEA" d="M337.946 155.593L332 142.593 401 145.82zM219.066 194.649c-.936 0-1.725-.733-1.786-1.685-.187-2.94-.28-6.037-.28-9.199v-.729c.006-1.565.035-3.131.086-4.702.03-.972.825-1.74 1.792-1.74h.058c.989.033 1.766.864 1.734 1.857-.05 1.536-.08 3.067-.085 4.591v.723c0 3.088.094 6.106.273 8.97.066.994-.684 1.85-1.674 1.911-.039.003-.076.003-.118.003m5.723 28.24c-.725 0-1.408-.446-1.679-1.167-1.752-4.666-3.11-9.439-4.03-14.183-.19-.976.442-1.922 1.414-2.113.981-.202 1.916.446 2.106 1.42.883 4.55 2.185 9.129 3.867 13.605.35.931-.12 1.97-1.044 2.32-.21.08-.424.118-.634.118m14.204 25.034c-.525 0-1.048-.231-1.404-.675-3.048-3.845-5.817-7.945-8.233-12.196-.49-.861-.188-1.962.672-2.455.862-.483 1.957-.187 2.448.674 2.322 4.086 4.987 8.036 7.922 11.733.616.778.486 1.91-.286 2.53-.33.264-.724.389-1.119.389m21.136 19.49c-.342 0-.686-.096-.993-.302-4.063-2.721-7.947-5.779-11.54-9.095-.73-.67-.776-1.81-.105-2.542.672-.733 1.81-.778 2.535-.106 3.455 3.186 7.192 6.132 11.1 8.75.825.55 1.046 1.67.496 2.496-.343.519-.913.8-1.493.8m25.974 12.277c-.172 0-.35-.026-.525-.082-4.718-1.45-9.319-3.222-13.67-5.273-.897-.423-1.282-1.494-.862-2.394.42-.905 1.497-1.286 2.386-.864 4.2 1.978 8.64 3.689 13.197 5.092.945.29 1.48 1.295 1.188 2.247-.237.773-.946 1.274-1.714 1.274m28.301 5.194c-.052 0-.105 0-.157-.006-4.94-.425-9.8-1.06-14.443-1.889-.976-.173-1.624-1.108-1.452-2.09.175-.974 1.11-1.598 2.081-1.454 4.537.81 9.289 1.432 14.123 1.847.987.085 1.717.956 1.633 1.949-.079.937-.865 1.643-1.785 1.643m17.326.708c-.983 0-1.97-.005-2.953-.017-.993-.011-1.785-.825-1.773-1.819.012-.993.868-1.895 1.813-1.777 4.645.053 9.254-.022 14.313-.234h.075c.958 0 1.752.755 1.793 1.722.042.992-.726 1.833-1.716 1.874-4.052.17-7.832.251-11.552.251" transform="translate(77 -31.593)"/>
                <path fill="#445EEA" d="M146.81 67.83c-.78 0-1.495-.507-1.727-1.285-.28-.95.266-1.942 1.218-2.222 4.54-1.33 9.304-2.183 14.159-2.541l.542-.017c.889.043 1.818.764 1.835 1.751.021.988-.772 1.806-1.765 1.823l-.393.015c-4.552.336-9.063 1.142-13.359 2.4-.17.05-.342.075-.51.075m41.727 4.56c-.336 0-.679-.092-.984-.291-3.816-2.487-8.066-4.313-12.623-5.428-.965-.239-1.557-1.205-1.32-2.166.238-.954 1.218-1.54 2.182-1.31 4.954 1.214 9.578 3.203 13.737 5.91.832.542 1.064 1.652.52 2.478-.347.525-.922.807-1.512.807m-65.741 10.637c-.382 0-.765-.116-1.092-.364-.791-.6-.943-1.721-.342-2.508 2.89-3.77 6.684-7.1 11.277-9.897.854-.511 1.961-.247 2.477.592.518.841.253 1.945-.594 2.46-4.212 2.562-7.676 5.597-10.293 9.012-.355.463-.892.705-1.433.705m83.959 11.213c-.671 0-1.314-.375-1.624-1.017-2.152-4.46-4.637-8.443-7.39-11.838-.622-.77-.502-1.896.275-2.517.765-.614 1.9-.503 2.533.275 2.923 3.607 5.558 7.826 7.83 12.532.43.89.052 1.96-.844 2.387-.253.119-.518.178-.78.178m-88.43 16.044c-.792 0-1.516-.522-1.736-1.314-.222-.804-.431-1.613-.628-2.431-.638-2.69-.962-5.357-.962-7.929 0-1.543.115-3.086.346-4.589.15-.978 1.083-1.654 2.05-1.5.985.147 1.66 1.06 1.51 2.035-.202 1.327-.306 2.688-.306 4.054 0 2.294.293 4.685.868 7.105.185.775.381 1.543.593 2.3.267.955-.297 1.94-1.255 2.201-.162.045-.322.068-.48.068m96.779 11.427c-.862 0-1.621-.614-1.773-1.483-.837-4.867-1.906-9.516-3.182-13.826-.28-.946.264-1.941 1.22-2.219.959-.29 1.956.263 2.234 1.212 1.316 4.44 2.418 9.228 3.28 14.227.167.974-.492 1.898-1.471 2.067-.106.018-.206.022-.308.022m-82.969 13.518c-.487 0-.976-.195-1.331-.583-3.374-3.672-6.288-7.707-8.657-11.993-.478-.869-.159-1.954.712-2.432.88-.471 1.97-.148 2.449.707 2.228 4.04 4.974 7.842 8.158 11.307.671.729.618 1.86-.117 2.528-.347.31-.78.466-1.214.466m85.288 15.17c-.994 0-1.8-.8-1.8-1.788v-.635c0-4.51-.181-9.094-.542-13.623-.076-.985.665-1.847 1.656-1.926.956-.087 1.856.659 1.937 1.646.363 4.62.55 9.3.55 13.903v.635c0 .987-.808 1.788-1.801 1.788m-62.003 1.598c-.263 0-.534-.058-.785-.18-4.612-2.221-8.889-4.726-12.714-7.443-.81-.576-.997-1.692-.42-2.496.575-.803 1.7-.995 2.512-.415 3.665 2.6 7.766 5.002 12.193 7.133.894.431 1.269 1.503.836 2.391-.31.637-.953 1.01-1.622 1.01m27.358 9.19c-.132 0-.264-.015-.396-.044-3.483-.777-6.877-1.651-10.088-2.6-1.366-.406-2.71-.827-4.03-1.262-.944-.308-1.458-1.321-1.144-2.258.31-.938 1.33-1.457 2.275-1.136 1.286.422 2.595.833 3.925 1.226 3.135.925 6.448 1.78 9.848 2.536.972.219 1.583 1.173 1.365 2.137-.19.832-.93 1.4-1.755 1.4m100.837 1.835c-.901 0-1.68-.67-1.786-1.58-.117-.982.593-1.87 1.58-1.983 4.68-.546 9.449-1.16 14.306-1.847.987-.154 1.9.542 2.039 1.517.14.98-.544 1.884-1.529 2.023-4.892.694-9.691 1.314-14.4 1.859-.07.009-.14.01-.21.01m-72.211 2.287c-.046 0-.093 0-.144-.003-5.012-.387-9.89-.917-14.499-1.572-.986-.14-1.667-1.045-1.527-2.025.14-.974 1.072-1.635 2.038-1.516 4.531.643 9.333 1.165 14.27 1.543.99.078 1.733.938 1.656 1.925-.073.938-.864 1.648-1.794 1.648m43.378.227c-.946 0-1.742-.737-1.794-1.689-.056-.984.704-1.828 1.698-1.883 4.658-.263 9.496-.61 14.38-1.038.963-.101 1.867.64 1.952 1.626.088.983-.646 1.852-1.637 1.939-4.921.431-9.795.783-14.495 1.042-.033.003-.068.003-.104.003m-20.857.6c-2.75 0-5.459-.033-8.117-.099-.994-.024-1.78-.844-1.754-1.835.023-.972.826-1.74 1.8-1.74h.047c4.65.116 9.443.127 14.388.037 1.12-.058 1.818.766 1.835 1.753.021.99-.77 1.805-1.765 1.823-2.173.04-4.318.06-6.434.06" transform="translate(77 -31.593)"/>
                <path fill="#445EEA" d="M888.814 79.593h96.374c12.046 0 21.812 9.738 21.812 21.749v49.561c0 12.013-9.766 21.75-21.812 21.75h-63.021l-22.667 19.94v-19.94h-10.686c-12.048 0-21.814-9.737-21.814-21.75v-49.561c0-12.011 9.766-21.749 21.814-21.749" transform="translate(77 -31.593)"/>
                <path fill="#91A8F6" d="M902.74 109.593h68.52c1.514 0 2.74-1.12 2.74-2.5s-1.226-2.5-2.74-2.5h-68.52c-1.513 0-2.74 1.12-2.74 2.5s1.227 2.5 2.74 2.5M902.74 128.593h68.52c1.514 0 2.74-1.12 2.74-2.5s-1.226-2.5-2.74-2.5h-68.52c-1.513 0-2.74 1.12-2.74 2.5s1.227 2.5 2.74 2.5M961.647 146.593h9.706c1.462 0 2.647-1.12 2.647-2.5s-1.185-2.5-2.647-2.5h-9.706c-1.462 0-2.647 1.12-2.647 2.5s1.185 2.5 2.647 2.5M938.648 146.593h9.705c1.462 0 2.647-1.12 2.647-2.5s-1.185-2.5-2.647-2.5h-9.705c-1.462 0-2.648 1.12-2.648 2.5s1.186 2.5 2.648 2.5M902.71 146.593h22.58c1.496 0 2.71-1.12 2.71-2.5s-1.214-2.5-2.71-2.5h-22.58c-1.497 0-2.71 1.12-2.71 2.5s1.213 2.5 2.71 2.5M566.874 178.593H493.16c-7.249 0-13.126 5.838-13.126 13.04v42.226c0 6.88 5.366 12.502 12.165 12.991L477 271.593l40.059-24.694h49.815c7.25 0 13.126-5.838 13.126-13.04v-42.226c0-7.202-5.877-13.04-13.126-13.04" transform="translate(77 -31.593)"/>
                <path fill="#445EEA" d="M539 202.093c0 4.694-3.805 8.5-8.5 8.5-4.694 0-8.5-3.806-8.5-8.5 0-4.693 3.806-8.5 8.5-8.5 4.695 0 8.5 3.807 8.5 8.5" transform="translate(77 -31.593)"/>
                <path stroke="#445EEA" stroke-linecap="round" stroke-linejoin="round" stroke-width="2.761" d="M539 202.093c0 4.694-3.805 8.5-8.5 8.5-4.694 0-8.5-3.806-8.5-8.5 0-4.693 3.806-8.5 8.5-8.5 4.695 0 8.5 3.807 8.5 8.5z" transform="translate(77 -31.593)"/>
                <path fill="#445EEA" d="M551 231.593h-41c0-7.18 5.884-13 13.141-13h14.718c7.257 0 13.141 5.82 13.141 13" transform="translate(77 -31.593)"/>
                <path stroke="#445EEA" stroke-linecap="round" stroke-linejoin="round" stroke-width="2.761" d="M551 231.593h-41c0-7.18 5.884-13 13.141-13h14.718c7.257 0 13.141 5.82 13.141 13z" transform="translate(77 -31.593)"/>
                <path fill="#445EEA" d="M694.862 102.39c-.666 0-1.306-.375-1.616-1.02-.433-.895-.06-1.97.836-2.401 3.802-1.841 7.87-2.973 12.09-3.368.956-.09 1.862.636 1.956 1.627.091.99-.633 1.866-1.623 1.96-3.79.355-7.446 1.372-10.86 3.021-.253.123-.52.182-.783.182m34.124 2.87c-.36 0-.723-.106-1.04-.333-3.095-2.205-6.529-3.824-10.199-4.806-.96-.257-1.53-1.245-1.275-2.203.26-.959 1.234-1.533 2.2-1.277 4.088 1.092 7.91 2.894 11.357 5.35.81.578.998 1.7.425 2.511-.351.497-.904.757-1.468.757m-50.388 14.058c-.24 0-.486-.05-.72-.152-.91-.4-1.325-1.46-.927-2.37 1.687-3.879 4.036-7.398 6.977-10.451.685-.724 1.826-.739 2.539-.047.716.688.736 1.828.047 2.543-2.644 2.748-4.754 5.908-6.27 9.396-.296.676-.954 1.08-1.646 1.08m63.619 5.358c-.808 0-1.542-.548-1.744-1.37-.916-3.694-2.465-7.161-4.615-10.308-.561-.82-.35-1.943.468-2.503.816-.568 1.936-.354 2.498.468 2.392 3.506 4.12 7.366 5.135 11.477.24.967-.348 1.943-1.31 2.181-.146.037-.292.055-.432.055m-64.93 18.111c-.77 0-1.48-.498-1.717-1.273-1.04-3.384-1.567-6.912-1.57-10.49 0-.671.017-1.334.056-1.993.054-.994.956-1.735 1.895-1.695.988.057 1.748.907 1.69 1.9-.032.588-.05 1.187-.05 1.784.004 3.221.48 6.395 1.413 9.434.292.949-.24 1.958-1.188 2.25-.175.057-.354.083-.53.083m63.822 1.787c-.208 0-.418-.039-.627-.114-.93-.346-1.404-1.383-1.058-2.315 1.315-3.552 1.986-7.294 1.986-11.125 0-.992.804-1.799 1.796-1.799.99 0 1.795.807 1.795 1.8 0 4.257-.743 8.425-2.208 12.378-.27.724-.956 1.175-1.684 1.175m-49.543 16.848c-.325 0-.658-.088-.954-.276-3.574-2.253-6.694-5.102-9.277-8.463-.605-.788-.459-1.92.328-2.526.79-.604 1.918-.457 2.522.329 2.32 3.023 5.128 5.584 8.339 7.613.842.53 1.093 1.64.565 2.482-.343.545-.926.841-1.523.841m34.245.967c-.635 0-1.246-.338-1.576-.93-.48-.869-.165-1.966.701-2.45 3.322-1.84 6.264-4.239 8.753-7.131.647-.754 1.784-.835 2.533-.189.75.648.836 1.785.186 2.538-2.763 3.215-6.038 5.886-9.728 7.936-.279.153-.577.226-.869.226m-16.31 4.205c-2.434 0-4.872-.249-7.244-.738-.973-.202-1.597-1.155-1.398-2.127.201-.98 1.173-1.578 2.124-1.402 3.693.765 7.582.869 11.28.314.981-.137 1.894.534 2.043 1.516.147.983-.53 1.898-1.512 2.048-1.734.257-3.516.39-5.292.39M709.5 113.593c-12.979 0-23.5 7.01-23.5 15.658v.045c.01 2.259 1.777 3.806 3.429 3.094l6.17-2.652c1.484-.639 2.203-2.817 1.536-4.653l-.758-2.084s11.337 2.035 26.158 0l-.764 2.676c-.484 1.694.143 3.583 1.427 4.288l6.1 3.357c1.484.816 3.216-.28 3.557-2.322.096-.574.145-1.157.145-1.749 0-8.648-10.521-15.658-23.5-15.658" transform="translate(77 -31.593)"/>
                <path fill="#91A8F6" d="M726 148.593h-33l4.89-15.212c.917-2.852 3.585-4.788 6.6-4.788h10.02c3.016 0 5.683 1.936 6.601 4.788L726 148.593z" transform="translate(77 -31.593)"/>
                <path fill="#445EEA" d="M816.87 287.387c-.668 0-1.309-.374-1.618-1.02-.433-.896-.059-1.97.836-2.401 3.805-1.842 7.875-2.972 12.093-3.365 1.012-.09 1.865.641 1.955 1.625.091.992-.636 1.87-1.623 1.961-3.788.353-7.445 1.366-10.863 3.019-.252.123-.518.181-.78.181m34.122 2.881c-.36 0-.722-.105-1.038-.33-3.103-2.213-6.537-3.831-10.201-4.81-.96-.257-1.53-1.245-1.275-2.204.257-.958 1.235-1.521 2.2-1.278 4.082 1.094 7.903 2.895 11.358 5.354.81.578.996 1.702.423 2.512-.35.496-.903.756-1.467.756M800.6 304.317c-.24 0-.485-.05-.719-.152-.91-.399-1.326-1.459-.927-2.371 1.693-3.88 4.04-7.396 6.98-10.45.685-.727 1.826-.738 2.539-.048.716.69.736 1.829.047 2.545-2.641 2.746-4.753 5.908-6.274 9.395-.296.677-.956 1.08-1.646 1.08m63.623 5.361c-.809 0-1.542-.548-1.744-1.368-.916-3.693-2.468-7.16-4.615-10.308-.562-.82-.35-1.942.468-2.502.82-.568 1.936-.351 2.498.469 2.392 3.502 4.12 7.365 5.135 11.473.24.965-.349 1.942-1.31 2.18-.146.04-.293.056-.432.056m-64.939 18.105c-.769 0-1.48-.499-1.717-1.27-1.04-3.387-1.567-6.915-1.567-10.49 0-.668.018-1.33.056-1.99.055-.994 1.034-1.75 1.892-1.697.99.057 1.749.906 1.693 1.896-.032.596-.05 1.193-.05 1.792 0 3.215.474 6.387 1.41 9.427.293.949-.24 1.957-1.187 2.25-.176.056-.354.082-.53.082m63.823 1.794c-.207 0-.417-.04-.626-.115-.93-.346-1.404-1.383-1.058-2.315 1.316-3.551 1.987-7.294 1.987-11.123 0-.995.803-1.8 1.795-1.8.99 0 1.795.805 1.795 1.8 0 4.258-.743 8.425-2.208 12.378-.27.727-.956 1.175-1.685 1.175m-49.54 16.845c-.325 0-.658-.09-.954-.277-3.573-2.256-6.694-5.105-9.273-8.463-.606-.787-.459-1.92.328-2.526.79-.603 1.915-.456 2.521.328 2.318 3.025 5.125 5.585 8.337 7.614.842.53 1.094 1.641.564 2.482-.341.546-.926.842-1.523.842m34.243.97c-.634 0-1.246-.338-1.574-.93-.482-.87-.168-1.966.7-2.446 3.321-1.848 6.266-4.246 8.752-7.136.647-.754 1.782-.84 2.533-.188.752.647.836 1.785.186 2.538-2.76 3.212-6.035 5.881-9.73 7.933-.277.155-.575.228-.867.228m-16.307 4.203c-2.445 0-4.883-.249-7.254-.742-.97-.205-1.595-1.157-1.394-2.13.204-.973 1.17-1.586 2.127-1.398 3.682.772 7.594.87 11.276.313.982-.134 1.894.531 2.044 1.517.146.983-.53 1.898-1.511 2.048-1.727.257-3.508.389-5.288.392" transform="translate(77 -31.593)"/>
                <path fill="#91A8F6" d="M810 333.593L852 333.593 852 309.593 810 309.593z" transform="translate(77 -31.593)"/>
                <path fill="#445EEA" d="M846 307.614v-3.009c0-2.216 1.791-4.012 4-4.012s4 1.796 4 4.012v4.988h-8" transform="translate(77 -31.593)"/>
                <path fill="#E0EEF7" d="M846.46 304.391v24.202H818v-24.202c0-2.096 1.73-3.798 3.862-3.798H850l-.782.16c-1.594.468-2.758 1.919-2.758 3.638" transform="translate(77 -31.593)"/>
                <path fill="#445EEA" d="M820 310.593L826 310.593 826 304.593 820 304.593z" transform="translate(77 -31.593)"/>
                <path stroke="#445EEA" stroke-linecap="round" stroke-linejoin="round" stroke-width=".658" d="M828 305.093L844 305.093M828 307.093L844 307.093M828 309.093L844 309.093M828 311.093L844 311.093M820 313.093L844 313.093M820 315.093L844 315.093M820 318.093L844 318.093M820 320.093L832 320.093" transform="translate(77 -31.593)"/>
                <path fill="#445EEA" d="M842 333.593L810 333.593 810 309.593z" transform="translate(77 -31.593)"/>
                <path fill="#445EEA" d="M820 333.593L852 333.593 852 309.593z" transform="translate(77 -31.593)"/>
                <path fill="#445EEA" d="M852 333.593h-42l18.863-10.315c1.285-.913 2.99-.913 4.274 0L852 333.593z" transform="translate(77 -31.593)"/>
            </g>
        </g>
    </g>
</svg>
