<svg width="1366" height="807" viewBox="0 0 1366 807" fill="none" xmlns="http://www.w3.org/2000/svg">
<g filter="url(#filter0_d)">
<mask id="mask0" mask-type="alpha" maskUnits="userSpaceOnUse" x="43" y="26" width="1280" height="721">
<path d="M1315.04 26.8906H50.9614C46.5775 26.8906 43.0237 30.4445 43.0237 34.8283V738.926C43.0237 743.31 46.5775 746.864 50.9614 746.864H1315.04C1319.42 746.864 1322.98 743.31 1322.98 738.926V34.8283C1322.98 30.4445 1319.42 26.8906 1315.04 26.8906Z" fill="white"/>
</mask>
<g mask="url(#mask0)">
<g filter="url(#filter1_d)">
<path d="M1315.04 26.8906H50.9614C46.5775 26.8906 43.0237 30.4445 43.0237 34.8283V739.599C43.0237 743.983 46.5775 747.536 50.9614 747.536H1315.04C1319.42 747.536 1322.98 743.983 1322.98 739.599V34.8283C1322.98 30.4445 1319.42 26.8906 1315.04 26.8906Z" fill="white"/>
</g>
<path d="M417.496 67.2246H367.685C366.589 67.2246 365.701 68.1131 365.701 69.209V73.3071C365.701 74.4031 366.589 75.2915 367.685 75.2915H417.496C418.592 75.2915 419.48 74.4031 419.48 73.3071V69.209C419.48 68.1131 418.592 67.2246 417.496 67.2246Z" fill="#3F51B5"/>
<path d="M511.61 67.2246H451.044C449.948 67.2246 449.059 68.1131 449.059 69.209V73.3071C449.059 74.4031 449.948 75.2915 451.044 75.2915H511.61C512.706 75.2915 513.595 74.4031 513.595 73.3071V69.209C513.595 68.1131 512.706 67.2246 511.61 67.2246Z" fill="#BFBFD5"/>
<path d="M581.524 67.2246H547.847C546.751 67.2246 545.862 68.1131 545.862 69.209V73.3071C545.862 74.4031 546.751 75.2915 547.847 75.2915H581.524C582.62 75.2915 583.508 74.4031 583.508 73.3071V69.209C583.508 68.1131 582.62 67.2246 581.524 67.2246Z" fill="#BFBFD5"/>
<path d="M678.327 67.2246H617.76C616.664 67.2246 615.776 68.1131 615.776 69.209V73.3071C615.776 74.4031 616.664 75.2915 617.76 75.2915H678.327C679.423 75.2915 680.311 74.4031 680.311 73.3071V69.209C680.311 68.1131 679.423 67.2246 678.327 67.2246Z" fill="#BFBFD5"/>
<path d="M775.13 67.2246H714.563C713.467 67.2246 712.579 68.1131 712.579 69.209V73.3071C712.579 74.4031 713.467 75.2915 714.563 75.2915H775.13C776.226 75.2915 777.114 74.4031 777.114 73.3071V69.209C777.114 68.1131 776.226 67.2246 775.13 67.2246Z" fill="#BFBFD5"/>
<path d="M850.421 67.2246H811.366C810.27 67.2246 809.382 68.1131 809.382 69.209V73.3071C809.382 74.4031 810.27 75.2915 811.366 75.2915H850.421C851.517 75.2915 852.406 74.4031 852.406 73.3071V69.209C852.406 68.1131 851.517 67.2246 850.421 67.2246Z" fill="#BFBFD5"/>
<path d="M925.712 67.2246H886.658C885.562 67.2246 884.673 68.1131 884.673 69.209V73.3071C884.673 74.4031 885.562 75.2915 886.658 75.2915H925.712C926.808 75.2915 927.697 74.4031 927.697 73.3071V69.209C927.697 68.1131 926.808 67.2246 925.712 67.2246Z" fill="#BFBFD5"/>
<path d="M295.787 27.5684H298.476V748.214H295.787V27.5684Z" fill="#F1F1F4"/>
<path d="M297.03 26.8906H43.0237V124.127H297.03V26.8906Z" fill="#EAEAF3"/>
<g filter="url(#filter2_d)">
<path d="M1274.7 67.2246H1021.68C1017.3 67.2246 1013.74 70.7784 1013.74 75.1623V371.208C1013.74 375.592 1017.3 379.146 1021.68 379.146H1274.7C1279.09 379.146 1282.64 375.592 1282.64 371.208V75.1623C1282.64 70.7784 1279.09 67.2246 1274.7 67.2246Z" fill="white"/>
</g>
<g filter="url(#filter3_d)">
<path d="M1274.7 406.037H1021.68C1017.3 406.037 1013.74 409.591 1013.74 413.975V699.265C1013.74 703.649 1017.3 707.202 1021.68 707.202H1274.7C1279.09 707.202 1282.64 703.649 1282.64 699.265V413.975C1282.64 409.591 1279.09 406.037 1274.7 406.037Z" fill="white"/>
</g>
<path d="M1259.47 429.848H1031.27C1030.17 429.848 1029.28 430.736 1029.28 431.832V455.645C1029.28 456.741 1030.17 457.63 1031.27 457.63H1259.47C1260.57 457.63 1261.46 456.741 1261.46 455.645V431.832C1261.46 430.736 1260.57 429.848 1259.47 429.848Z" fill="#E7E7F2"/>
<path d="M1257.49 477.473H1033.25C1031.06 477.473 1029.28 479.25 1029.28 481.441V582.647C1029.28 584.839 1031.06 586.616 1033.25 586.616H1257.49C1259.68 586.616 1261.46 584.839 1261.46 582.647V481.441C1261.46 479.25 1259.68 477.473 1257.49 477.473Z" fill="#D2EFFC"/>
<path d="M1029.88 600.922C1029.88 598.731 1031.66 596.953 1033.85 596.953H1257.16C1259.35 596.953 1261.13 598.731 1261.13 600.922V707.201H1029.88V600.922Z" fill="#BEF7DA"/>
<path d="M213.266 163.816H118.848C117.522 163.816 116.447 164.892 116.447 166.218V181.259C116.447 182.586 117.522 183.661 118.848 183.661H213.266C214.593 183.661 215.668 182.586 215.668 181.259V166.218C215.668 164.892 214.593 163.816 213.266 163.816Z" fill="#C3C3D8"/>
<path d="M254.939 199.533H118.848C117.522 199.533 116.447 200.608 116.447 201.935V216.976C116.447 218.302 117.522 219.377 118.848 219.377H254.939C256.266 219.377 257.341 218.302 257.341 216.976V201.935C257.341 200.608 256.266 199.533 254.939 199.533Z" fill="#C3C3D8"/>
<path d="M243.033 235.254H118.848C117.522 235.254 116.447 236.329 116.447 237.655V252.697C116.447 254.023 117.522 255.098 118.848 255.098H243.033C244.359 255.098 245.434 254.023 245.434 252.697V237.655C245.434 236.329 244.359 235.254 243.033 235.254Z" fill="#3F51B5"/>
<path d="M225.173 270.973H118.848C117.522 270.973 116.447 272.048 116.447 273.374V288.416C116.447 289.742 117.522 290.817 118.848 290.817H225.173C226.499 290.817 227.574 289.742 227.574 288.416V273.374C227.574 272.048 226.499 270.973 225.173 270.973Z" fill="#C3C3D8"/>
<path d="M254.939 306.695H118.848C117.522 306.695 116.447 307.77 116.447 309.097V324.138C116.447 325.464 117.522 326.54 118.848 326.54H254.939C256.266 326.54 257.341 325.464 257.341 324.138V309.097C257.341 307.77 256.266 306.695 254.939 306.695Z" fill="#C3C3D8"/>
<path d="M252.956 687.703H85.1137C83.7875 687.703 82.7124 688.778 82.7124 690.104V705.146C82.7124 706.472 83.7875 707.547 85.1137 707.547H252.956C254.282 707.547 255.357 706.472 255.357 705.146V690.104C255.357 688.778 254.282 687.703 252.956 687.703Z" fill="#C3C3D8"/>
<path d="M100.155 163.816H85.1137C83.7875 163.816 82.7124 164.892 82.7124 166.218V181.259C82.7124 182.586 83.7875 183.661 85.1137 183.661H100.155C101.482 183.661 102.557 182.586 102.557 181.259V166.218C102.557 164.892 101.482 163.816 100.155 163.816Z" fill="#9696B1"/>
<path d="M100.155 199.533H85.1137C83.7875 199.533 82.7124 200.608 82.7124 201.935V216.976C82.7124 218.302 83.7875 219.377 85.1137 219.377H100.155C101.482 219.377 102.557 218.302 102.557 216.976V201.935C102.557 200.608 101.482 199.533 100.155 199.533Z" fill="#9696B1"/>
<path d="M100.155 270.973H85.1137C83.7875 270.973 82.7124 272.048 82.7124 273.374V288.416C82.7124 289.742 83.7875 290.817 85.1137 290.817H100.155C101.482 290.817 102.557 289.742 102.557 288.416V273.374C102.557 272.048 101.482 270.973 100.155 270.973Z" fill="#9696B1"/>
<path d="M100.155 235.254H85.1137C83.7875 235.254 82.7124 236.329 82.7124 237.655V252.697C82.7124 254.023 83.7875 255.098 85.1137 255.098H100.155C101.482 255.098 102.557 254.023 102.557 252.697V237.655C102.557 236.329 101.482 235.254 100.155 235.254Z" fill="#3F51B5"/>
<path d="M100.155 306.695H85.1137C83.7875 306.695 82.7124 307.77 82.7124 309.097V324.138C82.7124 325.464 83.7875 326.54 85.1137 326.54H100.155C101.482 326.54 102.557 325.464 102.557 324.138V309.097C102.557 307.77 101.482 306.695 100.155 306.695Z" fill="#9696B1"/>
<path d="M1013.74 74.5177C1013.74 70.1338 1017.3 66.5801 1021.68 66.5801H1275.69C1280.07 66.5801 1283.63 70.1338 1283.63 74.5177V153.895H1013.74V74.5177Z" fill="#E9EEFF"/>
<g filter="url(#filter4_d)">
<path d="M1175.94 107.561H1120.44C1112.01 107.561 1105.17 114.399 1105.17 122.834V178.334C1105.17 186.77 1112.01 193.608 1120.44 193.608H1175.94C1184.38 193.608 1191.22 186.77 1191.22 178.334V122.834C1191.22 114.399 1184.38 107.561 1175.94 107.561Z" fill="#3F51B5"/>
</g>
<path d="M1225.74 248.855H1072.94C1063.08 248.855 1055.08 256.852 1055.08 266.715C1055.08 276.579 1063.08 284.575 1072.94 284.575H1225.74C1235.6 284.575 1243.6 276.579 1243.6 266.715C1243.6 256.852 1235.6 248.855 1225.74 248.855Z" fill="#344F8E"/>
<path d="M1225.74 300.447H1072.94C1063.08 300.447 1055.08 308.443 1055.08 318.307C1055.08 328.171 1063.08 336.167 1072.94 336.167H1225.74C1235.6 336.167 1243.6 328.171 1243.6 318.307C1243.6 308.443 1235.6 300.447 1225.74 300.447Z" fill="#4BA2ED"/>
<path d="M973.41 94.1152H336.122V99.4932H973.41V94.1152Z" fill="#F2F2F7"/>
<path d="M432.925 91.4258H352.256V99.4927H432.925V91.4258Z" fill="#3F51B5"/>
<g filter="url(#filter5_d)">
<path d="M965.472 131.76H344.06C339.676 131.76 336.122 135.314 336.122 139.697V699.263C336.122 703.647 339.676 707.201 344.06 707.201H965.472C969.856 707.201 973.41 703.647 973.41 699.263V139.697C973.41 135.314 969.856 131.76 965.472 131.76Z" fill="white"/>
</g>
<path d="M336.122 139.697C336.122 135.314 339.677 131.76 344.06 131.76H968.161C972.544 131.76 976.098 135.314 976.098 139.697V185.539H336.122V139.697Z" fill="#F4F4F7"/>
<path d="M543.878 150.584H364.996C363.9 150.584 363.012 151.472 363.012 152.568V164.733C363.012 165.829 363.9 166.718 364.996 166.718H543.878C544.974 166.718 545.862 165.829 545.862 164.733V152.568C545.862 151.472 544.974 150.584 543.878 150.584Z" fill="#D9D9E9"/>
<path d="M489.394 215.119H381.835C375.894 215.119 371.079 219.935 371.079 225.875V333.434C371.079 339.374 375.894 344.19 381.835 344.19H489.394C495.334 344.19 500.15 339.374 500.15 333.434V225.875C500.15 219.935 495.334 215.119 489.394 215.119Z" fill="#D6D6E8"/>
<path d="M919.63 365.701H381.835C375.894 365.701 371.079 370.517 371.079 376.457V521.662C371.079 527.602 375.894 532.418 381.835 532.418H919.63C925.57 532.418 930.386 527.602 930.386 521.662V376.457C930.386 370.517 925.57 365.701 919.63 365.701Z" fill="#D6D6E8"/>
<path d="M631.909 215.119H524.35C518.41 215.119 513.594 219.935 513.594 225.875V333.434C513.594 339.374 518.41 344.19 524.35 344.19H631.909C637.85 344.19 642.665 339.374 642.665 333.434V225.875C642.665 219.935 637.85 215.119 631.909 215.119Z" fill="#D6D6E8"/>
<path d="M371.079 570.063C371.079 559.667 379.506 551.24 389.902 551.24H618.465C628.86 551.24 637.287 559.667 637.287 570.063V707.201H371.079V570.063Z" fill="#D6D6E8"/>
<path d="M664.177 570.063C664.177 559.667 672.604 551.24 683 551.24H911.563C921.959 551.24 930.386 559.667 930.386 570.063V707.201H664.177V570.063Z" fill="#D6D6E8"/>
<path d="M777.114 215.119H669.555C663.615 215.119 658.799 219.935 658.799 225.875V333.434C658.799 339.374 663.615 344.19 669.555 344.19H777.114C783.055 344.19 787.87 339.374 787.87 333.434V225.875C787.87 219.935 783.055 215.119 777.114 215.119Z" fill="#D6D6E8"/>
<path d="M919.63 215.119H812.071C806.131 215.119 801.315 219.935 801.315 225.875V333.434C801.315 339.374 806.131 344.19 812.071 344.19H919.63C925.57 344.19 930.386 339.374 930.386 333.434V225.875C930.386 219.935 925.57 215.119 919.63 215.119Z" fill="#D6D6E8"/>
</g>
</g>
<defs>
<filter id="filter0_d" x="29.7137" y="17.5806" width="1306.57" height="746.593" filterUnits="userSpaceOnUse" color-interpolation-filters="sRGB">
<feFlood flood-opacity="0" result="BackgroundImageFix"/>
<feColorMatrix in="SourceAlpha" type="matrix" values="0 0 0 0 0 0 0 0 0 0 0 0 0 0 0 0 0 0 127 0"/>
<feOffset dy="4"/>
<feGaussianBlur stdDeviation="6.655"/>
<feColorMatrix type="matrix" values="0 0 0 0 0.14902 0 0 0 0 0.376471 0 0 0 0 0.721569 0 0 0 0.16 0"/>
<feBlend mode="normal" in2="BackgroundImageFix" result="effect1_dropShadow"/>
<feBlend mode="normal" in="SourceGraphic" in2="effect1_dropShadow" result="shape"/>
</filter>
<filter id="filter1_d" x="27.526" y="17.2968" width="1310.95" height="751.641" filterUnits="userSpaceOnUse" color-interpolation-filters="sRGB">
<feFlood flood-opacity="0" result="BackgroundImageFix"/>
<feColorMatrix in="SourceAlpha" type="matrix" values="0 0 0 0 0 0 0 0 0 0 0 0 0 0 0 0 0 0 127 0"/>
<feOffset dy="5.90388"/>
<feGaussianBlur stdDeviation="7.74884"/>
<feColorMatrix type="matrix" values="0 0 0 0 0.118533 0 0 0 0 0.299407 0 0 0 0 0.646288 0 0 0 0.18 0"/>
<feBlend mode="normal" in2="BackgroundImageFix" result="effect1_dropShadow"/>
<feBlend mode="normal" in="SourceGraphic" in2="effect1_dropShadow" result="shape"/>
</filter>
<filter id="filter2_d" x="1006.36" y="62.7967" width="283.657" height="326.681" filterUnits="userSpaceOnUse" color-interpolation-filters="sRGB">
<feFlood flood-opacity="0" result="BackgroundImageFix"/>
<feColorMatrix in="SourceAlpha" type="matrix" values="0 0 0 0 0 0 0 0 0 0 0 0 0 0 0 0 0 0 127 0"/>
<feOffset dy="2.95194"/>
<feGaussianBlur stdDeviation="3.68992"/>
<feColorMatrix type="matrix" values="0 0 0 0 0.185961 0 0 0 0 0.321818 0 0 0 0 0.803493 0 0 0 0.1 0"/>
<feBlend mode="normal" in2="BackgroundImageFix" result="effect1_dropShadow"/>
<feBlend mode="normal" in="SourceGraphic" in2="effect1_dropShadow" result="shape"/>
</filter>
<filter id="filter3_d" x="1006.36" y="401.609" width="283.657" height="315.925" filterUnits="userSpaceOnUse" color-interpolation-filters="sRGB">
<feFlood flood-opacity="0" result="BackgroundImageFix"/>
<feColorMatrix in="SourceAlpha" type="matrix" values="0 0 0 0 0 0 0 0 0 0 0 0 0 0 0 0 0 0 127 0"/>
<feOffset dy="2.95194"/>
<feGaussianBlur stdDeviation="3.68992"/>
<feColorMatrix type="matrix" values="0 0 0 0 0.185961 0 0 0 0 0.321818 0 0 0 0 0.803493 0 0 0 0.1 0"/>
<feBlend mode="normal" in2="BackgroundImageFix" result="effect1_dropShadow"/>
<feBlend mode="normal" in="SourceGraphic" in2="effect1_dropShadow" result="shape"/>
</filter>
<filter id="filter4_d" x="1099.65" y="103.881" width="97.0872" height="97.0872" filterUnits="userSpaceOnUse" color-interpolation-filters="sRGB">
<feFlood flood-opacity="0" result="BackgroundImageFix"/>
<feColorMatrix in="SourceAlpha" type="matrix" values="0 0 0 0 0 0 0 0 0 0 0 0 0 0 0 0 0 0 127 0"/>
<feOffset dy="1.84"/>
<feGaussianBlur stdDeviation="2.76"/>
<feColorMatrix type="matrix" values="0 0 0 0 0.136039 0 0 0 0 0.273272 0 0 0 0 0.759825 0 0 0 0.09 0"/>
<feBlend mode="normal" in2="BackgroundImageFix" result="effect1_dropShadow"/>
<feBlend mode="normal" in="SourceGraphic" in2="effect1_dropShadow" result="shape"/>
</filter>
<filter id="filter5_d" x="328.742" y="127.332" width="652.047" height="590.201" filterUnits="userSpaceOnUse" color-interpolation-filters="sRGB">
<feFlood flood-opacity="0" result="BackgroundImageFix"/>
<feColorMatrix in="SourceAlpha" type="matrix" values="0 0 0 0 0 0 0 0 0 0 0 0 0 0 0 0 0 0 127 0"/>
<feOffset dy="2.95194"/>
<feGaussianBlur stdDeviation="3.68992"/>
<feColorMatrix type="matrix" values="0 0 0 0 0.185961 0 0 0 0 0.321818 0 0 0 0 0.803493 0 0 0 0.1 0"/>
<feBlend mode="normal" in2="BackgroundImageFix" result="effect1_dropShadow"/>
<feBlend mode="normal" in="SourceGraphic" in2="effect1_dropShadow" result="shape"/>
</filter>
</defs>
</svg>
