<svg xmlns="http://www.w3.org/2000/svg" xmlns:xlink="http://www.w3.org/1999/xlink" width="401" height="359" viewBox="0 0 401 359">
    <defs>
        <path id="prefix__a" d="M0 0.12L400.948 0.12 400.948 84.948 0 84.948z"/>
        <path id="prefix__c" d="M35.287 1.082C28.73 6.227 21.091 9.88 14.827 15.413 8.581 20.93 5.035 28.195 3.007 36.151c-1.18 4.632-1.908 9.363-2.646 14.08-.018.115-.003.215.013.316-.509.587-.03 1.748.919 1.485 2.82-.783 5.605-.989 8.52-.865 2.18.094 4.37-.001 6.171-1.372 3.975-3.026 3.502-8.305 4.645-12.634.662-2.512 2.018-4.687 4.637-5.45 2.126-.62 4.342-.667 6.022-2.292 3.393-3.276 2.02-8.207-.035-11.771-.806-1.402-1.614-2.803-1.49-4.481.113-1.569.8-3.025 1.662-4.321 1.572-2.37 3.744-4.273 5.306-6.656.466-.71-.162-1.318-.825-1.318-.214 0-.433.064-.619.21"/>
        <path id="prefix__e" d="M35.287 1.082C28.73 6.227 21.091 9.88 14.827 15.413 8.581 20.93 5.035 28.195 3.007 36.151c-1.18 4.632-1.908 9.363-2.646 14.08-.018.115-.003.215.013.316-.509.587-.03 1.748.919 1.485 2.82-.783 5.605-.989 8.52-.865 2.18.094 4.37-.001 6.171-1.372 3.975-3.026 3.502-8.305 4.645-12.634.662-2.512 2.018-4.687 4.637-5.45 2.126-.62 4.342-.667 6.022-2.292 3.393-3.276 2.02-8.207-.035-11.771-.806-1.402-1.614-2.803-1.49-4.481.113-1.569.8-3.025 1.662-4.321 1.572-2.37 3.744-4.273 5.306-6.656.466-.71-.162-1.318-.825-1.318-.214 0-.433.064-.619.21"/>
        <path id="prefix__g" d="M35.287 1.082C28.73 6.227 21.091 9.88 14.827 15.413 8.581 20.93 5.035 28.195 3.007 36.151c-1.18 4.632-1.908 9.363-2.646 14.08-.018.115-.003.215.013.316-.509.587-.03 1.748.919 1.485 2.82-.783 5.605-.989 8.52-.865 2.18.094 4.37-.001 6.171-1.372 3.975-3.026 3.502-8.305 4.645-12.634.662-2.512 2.018-4.687 4.637-5.45 2.126-.62 4.342-.667 6.022-2.292 3.393-3.276 2.02-8.207-.035-11.771-.806-1.402-1.614-2.803-1.49-4.481.113-1.569.8-3.025 1.662-4.321 1.572-2.37 3.744-4.273 5.306-6.656.466-.71-.162-1.318-.825-1.318-.214 0-.433.064-.619.21"/>
        <path id="prefix__i" d="M35.287 1.082C28.73 6.227 21.091 9.88 14.827 15.413 8.581 20.93 5.035 28.195 3.007 36.151c-1.18 4.632-1.908 9.363-2.646 14.08-.018.115-.003.215.013.316-.509.587-.03 1.748.919 1.485 2.82-.783 5.605-.989 8.52-.865 2.18.094 4.37-.001 6.171-1.372 3.975-3.026 3.502-8.305 4.645-12.634.662-2.512 2.018-4.687 4.637-5.45 2.126-.62 4.342-.667 6.022-2.292 3.393-3.276 2.02-8.207-.035-11.771-.806-1.402-1.614-2.803-1.49-4.481.113-1.569.8-3.025 1.662-4.321 1.572-2.37 3.744-4.273 5.306-6.656.466-.71-.162-1.318-.825-1.318-.214 0-.433.064-.619.21"/>
        <path id="prefix__k" d="M35.287 1.082C28.73 6.227 21.091 9.88 14.827 15.413 8.581 20.93 5.035 28.195 3.007 36.151c-1.18 4.632-1.908 9.363-2.646 14.08-.018.115-.003.215.013.316-.509.587-.03 1.748.919 1.485 2.82-.783 5.605-.989 8.52-.865 2.18.094 4.37-.001 6.171-1.372 3.975-3.026 3.502-8.305 4.645-12.634.662-2.512 2.018-4.687 4.637-5.45 2.126-.62 4.342-.667 6.022-2.292 3.393-3.276 2.02-8.207-.035-11.771-.806-1.402-1.614-2.803-1.49-4.481.113-1.569.8-3.025 1.662-4.321 1.572-2.37 3.744-4.273 5.306-6.656.466-.71-.162-1.318-.825-1.318-.214 0-.433.064-.619.21"/>
        <path id="prefix__m" d="M3.198 1.895c.601 2.956 1.566 6.062 1.665 9.086.1 2.988-1.889 4.805-3.123 7.298-.843 1.703-1.295 3.917-.298 5.663 1.075 1.881 3.175 2.075 5.08 2.48 2.594.552 4.482 2.908 3.585 5.62-.726 2.199-2.522 3.868-2.796 6.251-.508 4.448 3.405 7.74 7.107 9.232 4.537 1.828 12.37 2.548 13.644 8.41.248 1.142 1.995.66 1.747-.484-.214-.98-.614-1.852-1.143-2.634-.798-10.326-1.627-20.885-5.583-30.564-1.7-4.158-3.925-8.084-6.827-11.517C12.93 6.803 8.706 3.811 4.529.87 4.38.764 4.227.717 4.08.717c-.54 0-.995.62-.882 1.178"/>
        <path id="prefix__o" d="M3.198 1.895c.601 2.956 1.566 6.062 1.665 9.086.1 2.988-1.889 4.805-3.123 7.298-.843 1.703-1.295 3.917-.298 5.663 1.075 1.881 3.175 2.075 5.08 2.48 2.594.552 4.482 2.908 3.585 5.62-.726 2.199-2.522 3.868-2.796 6.251-.508 4.448 3.405 7.74 7.107 9.232 4.537 1.828 12.37 2.548 13.644 8.41.248 1.142 1.995.66 1.747-.484-.214-.98-.614-1.852-1.143-2.634-.798-10.326-1.627-20.885-5.583-30.564-1.7-4.158-3.925-8.084-6.827-11.517C12.93 6.803 8.706 3.811 4.529.87 4.38.764 4.227.717 4.08.717c-.54 0-.995.62-.882 1.178"/>
        <path id="prefix__q" d="M3.198 1.895c.601 2.956 1.566 6.062 1.665 9.086.1 2.988-1.889 4.805-3.123 7.298-.843 1.703-1.295 3.917-.298 5.663 1.075 1.881 3.175 2.075 5.08 2.48 2.594.552 4.482 2.908 3.585 5.62-.726 2.199-2.522 3.868-2.796 6.251-.508 4.448 3.405 7.74 7.107 9.232 4.537 1.828 12.37 2.548 13.644 8.41.248 1.142 1.995.66 1.747-.484-.214-.98-.614-1.852-1.143-2.634-.798-10.326-1.627-20.885-5.583-30.564-1.7-4.158-3.925-8.084-6.827-11.517C12.93 6.803 8.706 3.811 4.529.87 4.38.764 4.227.717 4.08.717c-.54 0-.995.62-.882 1.178"/>
        <path id="prefix__s" d="M3.198 1.895c.601 2.956 1.566 6.062 1.665 9.086.1 2.988-1.889 4.805-3.123 7.298-.843 1.703-1.295 3.917-.298 5.663 1.075 1.881 3.175 2.075 5.08 2.48 2.594.552 4.482 2.908 3.585 5.62-.726 2.199-2.522 3.868-2.796 6.251-.508 4.448 3.405 7.74 7.107 9.232 4.537 1.828 12.37 2.548 13.644 8.41.248 1.142 1.995.66 1.747-.484-.214-.98-.614-1.852-1.143-2.634-.798-10.326-1.627-20.885-5.583-30.564-1.7-4.158-3.925-8.084-6.827-11.517C12.93 6.803 8.706 3.811 4.529.87 4.38.764 4.227.717 4.08.717c-.54 0-.995.62-.882 1.178"/>
        <path id="prefix__u" d="M3.198 1.895c.601 2.956 1.566 6.062 1.665 9.086.1 2.988-1.889 4.805-3.123 7.298-.843 1.703-1.295 3.917-.298 5.663 1.075 1.881 3.175 2.075 5.08 2.48 2.594.552 4.482 2.908 3.585 5.62-.726 2.199-2.522 3.868-2.796 6.251-.508 4.448 3.405 7.74 7.107 9.232 4.537 1.828 12.37 2.548 13.644 8.41.248 1.142 1.995.66 1.747-.484-.214-.98-.614-1.852-1.143-2.634-.798-10.326-1.627-20.885-5.583-30.564-1.7-4.158-3.925-8.084-6.827-11.517C12.93 6.803 8.706 3.811 4.529.87 4.38.764 4.227.717 4.08.717c-.54 0-.995.62-.882 1.178"/>
        <path id="prefix__w" d="M7.618 1.627C4.34 10.819 1.024 20.254.693 30.125c-.327 9.799 3.124 18.82 6.94 27.642.018.04.045.059.065.093-.039.313-.092.62-.112.941-.072 1.165 1.713 1.16 1.785 0 .296-4.746 3.094-8.742 5.402-12.706 2.32-3.987 4.09-8.093 3.928-12.819-.387-11.24-9.056-20.171-9.33-31.407-.014-.577-.436-.877-.87-.877-.36 0-.73.207-.883.636"/>
        <path id="prefix__y" d="M7.618 1.627C4.34 10.819 1.024 20.254.693 30.125c-.327 9.799 3.124 18.82 6.94 27.642.018.04.045.059.065.093-.039.313-.092.62-.112.941-.072 1.165 1.713 1.16 1.785 0 .296-4.746 3.094-8.742 5.402-12.706 2.32-3.987 4.09-8.093 3.928-12.819-.387-11.24-9.056-20.171-9.33-31.407-.014-.577-.436-.877-.87-.877-.36 0-.73.207-.883.636"/>
        <path id="prefix__A" d="M7.618 1.627C4.34 10.819 1.024 20.254.693 30.125c-.327 9.799 3.124 18.82 6.94 27.642.018.04.045.059.065.093-.039.313-.092.62-.112.941-.072 1.165 1.713 1.16 1.785 0 .296-4.746 3.094-8.742 5.402-12.706 2.32-3.987 4.09-8.093 3.928-12.819-.387-11.24-9.056-20.171-9.33-31.407-.014-.577-.436-.877-.87-.877-.36 0-.73.207-.883.636"/>
        <path id="prefix__C" d="M.03 31.552c0 11.054 5.748 20.765 14.412 26.262h32.992c8.664-5.497 14.412-15.208 14.412-26.262C61.846 14.396 48.013.497 30.938.497 13.863.497.03 14.396.03 31.552z"/>
        <path id="prefix__E" d="M.03 31.552c0 11.054 5.748 20.765 14.412 26.262h32.992c8.664-5.497 14.412-15.208 14.412-26.262C61.846 14.396 48.013.497 30.938.497 13.863.497.03 14.396.03 31.552z"/>
        <path id="prefix__G" d="M.03 31.552c0 11.054 5.748 20.765 14.412 26.262h32.992c8.664-5.497 14.412-15.208 14.412-26.262C61.846 14.396 48.013.497 30.938.497 13.863.497.03 14.396.03 31.552z"/>
        <path id="prefix__I" d="M.03 31.552c0 11.054 5.748 20.765 14.412 26.262h32.992c8.664-5.497 14.412-15.208 14.412-26.262C61.846 14.396 48.013.497 30.938.497 13.863.497.03 14.396.03 31.552z"/>
        <path id="prefix__K" d="M.03 31.552c0 11.054 5.748 20.765 14.412 26.262h32.992c8.664-5.497 14.412-15.208 14.412-26.262C61.846 14.396 48.013.497 30.938.497 13.863.497.03 14.396.03 31.552z"/>
        <path id="prefix__M" d="M.03 31.552c0 11.054 5.748 20.765 14.412 26.262h32.992c8.664-5.497 14.412-15.208 14.412-26.262C61.846 14.396 48.013.497 30.938.497 13.863.497.03 14.396.03 31.552z"/>
        <path id="prefix__O" d="M.03 31.552c0 11.054 5.748 20.765 14.412 26.262h32.992c8.664-5.497 14.412-15.208 14.412-26.262C61.846 14.396 48.013.497 30.938.497 13.863.497.03 14.396.03 31.552z"/>
        <path id="prefix__Q" d="M.03 31.552c0 11.054 5.748 20.765 14.412 26.262h32.992c8.664-5.497 14.412-15.208 14.412-26.262C61.846 14.396 48.013.497 30.938.497 13.863.497.03 14.396.03 31.552z"/>
        <path id="prefix__S" d="M.03 31.552c0 11.054 5.748 20.765 14.412 26.262h32.992c8.664-5.497 14.412-15.208 14.412-26.262C61.846 14.396 48.013.497 30.938.497 13.863.497.03 14.396.03 31.552z"/>
        <path id="prefix__U" d="M.03 31.552c0 11.054 5.748 20.765 14.412 26.262h32.992c8.664-5.497 14.412-15.208 14.412-26.262C61.846 14.396 48.013.497 30.938.497 13.863.497.03 14.396.03 31.552z"/>
        <path id="prefix__W" d="M.03 31.552c0 11.054 5.748 20.765 14.412 26.262h32.992c8.664-5.497 14.412-15.208 14.412-26.262C61.846 14.396 48.013.497 30.938.497 13.863.497.03 14.396.03 31.552z"/>
        <path id="prefix__Y" d="M.03 31.552c0 11.054 5.748 20.765 14.412 26.262h32.992c8.664-5.497 14.412-15.208 14.412-26.262C61.846 14.396 48.013.497 30.938.497 13.863.497.03 14.396.03 31.552z"/>
    </defs>
    <g fill="none" fill-rule="evenodd">
        <path fill="#FFBEB4" d="M78.499 26.465L76 30.465 81 30.465zM83.501 31.465L81 35.465 86 35.465zM76.499 34.465L74 38.465 79 38.465zM288.499 77.465L286 73.465 291 73.465zM293.501 73.465L291 69.465 296 69.465zM286.501 69.465L284 65.465 289 65.465z" transform="translate(0 2)"/>
        <g>
            <g transform="translate(0 2) translate(0 .465) translate(0 270.051)">
                <mask id="prefix__b" fill="#fff">
                    <use xlink:href="#prefix__a"/>
                </mask>
                <path fill="#FFCDC5" d="M400.948 33.62c0 18.501-89.755 33.5-200.475 33.5C89.755 67.12 0 52.121 0 33.62 0 15.119 89.755.12 200.473.12c110.72 0 200.475 14.999 200.475 33.5" mask="url(#prefix__b)" opacity=".319"/>
            </g>
            <path stroke="#FFBEB4" stroke-linecap="round" stroke-width="2" d="M305.135 293.403L368.593 293.403M332.213 311.64L395.67 311.64" transform="translate(0 2) translate(0 .465)"/>
            <path fill="#FFCDC5" d="M290.094 294.962c0 1.347-22.276 2.44-49.754 2.44-27.48 0-49.756-1.093-49.756-2.44 0-1.348 22.277-2.44 49.756-2.44 27.478 0 49.754 1.092 49.754 2.44M178.458 290.67c0 2.37-19.858 4.291-44.356 4.291-24.496 0-44.355-1.921-44.355-4.291 0-2.371 19.86-4.293 44.355-4.293 24.498 0 44.356 1.922 44.356 4.293" transform="translate(0 2) translate(0 .465)"/>
            <path stroke="#FFBEB4" stroke-width="3" d="M109.146 142.156L188.112 142.156 188.112 0.011 109.146 0.011z" transform="translate(0 2) translate(0 .465)"/>
            <path fill="#FFBEB4" d="M119.019 131.142L178.241 131.142 178.241 11.023 119.019 11.023z" transform="translate(0 2) translate(0 .465)"/>
            <path fill="#273596" d="M275.43 165.469h-70.18c-9.466 0-17.137 7.676-17.137 17.143v56.997h104.453v-56.997c0-9.467-7.672-17.143-17.136-17.143" transform="translate(0 2) translate(0 .465)"/>
            <path stroke="#273596" d="M269.843 173.232h-59.007c-8.144 0-14.746 6.605-14.746 14.752V241.4h88.5v-53.415c0-8.147-6.603-14.752-14.747-14.752z" transform="translate(0 2) translate(0 .465)"/>
            <path fill="#273596" d="M280.205 239.609h-79.731v-6.52c0-2.655 2.15-4.805 4.802-4.805h70.127c2.653 0 4.802 2.15 4.802 4.804v6.52z" transform="translate(0 2) translate(0 .465)"/>
            <path fill="#00000C" d="M287.004 277.945h-93.33c-2.73 0-4.944-2.215-4.944-4.948H291.95c0 2.733-2.214 4.948-4.945 4.948M190.232 293.403c-1.032 0-1.751-1.023-1.402-1.993l4.845-13.465h4.327l-6.408 14.568c-.237.54-.772.89-1.362.89M290.448 293.403c1.03 0 1.75-1.023 1.4-1.993l-4.844-13.465h-4.326l6.407 14.568c.238.54.773.89 1.363.89" transform="translate(0 2) translate(0 .465)"/>
            <path fill="#3847DC" d="M197.384 219.823h-21.632c-6.828 0-12.362-5.537-12.362-12.367 0-6.83 5.534-12.366 12.362-12.366h17.139c2.48 0 4.493 2.012 4.493 4.495v20.238zM194.294 272.998L280.206 272.998 280.206 239.608 194.294 239.608z" transform="translate(0 2) translate(0 .465)"/>
            <path fill="#3847DC" d="M200.474 272.998h-16.237c-4.004 0-7.25-3.248-7.25-7.252V195.09h16.238c4.003 0 7.249 3.246 7.249 7.252v70.656z" transform="translate(0 2) translate(0 .465)"/>
            <path stroke="#273596" d="M193.793 204.174v60.293h-11.757v-50.852h-3.224c-3.402 0-6.158-2.758-6.158-6.159 0-3.402 2.756-6.16 6.158-6.16h12.104c1.588 0 2.877 1.288 2.877 2.878z" transform="translate(0 2) translate(0 .465)"/>
            <path fill="#3847DC" d="M283.296 219.823h21.632c6.828 0 12.361-5.537 12.361-12.367 0-6.83-5.533-12.366-12.36-12.366h-17.14c-2.481 0-4.493 2.012-4.493 4.495v20.238z" transform="translate(0 2) translate(0 .465)"/>
            <path fill="#EB7F74" d="M253.447 190.592l23.31 1.464c5.022.316 8.839 4.646 8.523 9.67l-1.464 23.32c-.315 5.025-4.642 8.843-9.666 8.527l-23.31-1.466c-5.023-.315-8.839-4.644-8.524-9.669l1.464-23.319c.316-5.024 4.644-8.843 9.667-8.527" transform="translate(0 2) translate(0 .465)"/>
            <path stroke="#FF5847" d="M256.121 193.627l17.602 1.105c5.023.316 8.839 4.646 8.524 9.67l-1.106 17.609c-.315 5.025-4.643 8.843-9.665 8.527l-17.602-1.106c-5.023-.315-8.84-4.644-8.524-9.669l1.105-17.609c.316-5.025 4.643-8.843 9.666-8.527z" transform="translate(0 2) translate(0 .465)"/>
            <path fill="#3847DC" d="M280.205 272.998h10.19c7.344 0 13.297-5.955 13.297-13.302V195.09H287.18c-3.852 0-6.975 3.124-6.975 6.977v70.93z" transform="translate(0 2) translate(0 .465)"/>
            <path stroke="#273596" d="M286.35 204.174v60.293h11.757v-50.852h3.224c3.402 0 6.158-2.758 6.158-6.159 0-3.402-2.756-6.16-6.158-6.16h-12.104c-1.589 0-2.877 1.288-2.877 2.878z" transform="translate(0 2) translate(0 .465)"/>
            <path fill="#3847DC" d="M275.76 245.54h-70.841c-2.454 0-4.445-1.992-4.445-4.448v-1.484h79.732v1.484c0 2.456-1.991 4.448-4.446 4.448" transform="translate(0 2) translate(0 .465)"/>
            <path fill="#39B54A" d="M132.464 236.656c2.068-17.541 6.886-34.727 14.233-50.789.429-.937-.96-1.758-1.392-.814-7.476 16.342-12.35 33.755-14.454 51.603-.121 1.029 1.492 1.02 1.613 0M127.028 237.412c.258-27.82.104-55.645-.426-83.46-.146-7.676-.325-15.35-.544-23.023-.03-1.036-1.642-1.04-1.612 0 .795 27.809 1.108 55.633 1.084 83.453-.007 7.677-.043 15.353-.114 23.03-.01 1.038 1.602 1.039 1.612 0M121.61 233.193c-1.964-18.507-5.981-36.775-12.044-54.372-1.72-4.996-3.606-9.931-5.643-14.807-.393-.943-1.954-.529-1.554.43 7.111 17.026 12.315 34.833 15.448 53.018.9 5.22 1.622 10.465 2.18 15.73.108 1.022 1.722 1.033 1.612 0" transform="translate(0 2) translate(0 .465)"/>
            <path fill="#39B54A" d="M126.703 90.2c-.026-1.058-1.441-1.19-1.785-.242-3.337 9.225-6.715 18.694-7.051 28.6-.334 9.835 3.18 18.888 7.066 27.742.017.04.046.06.066.094-.04.314-.093.622-.114.944-.073 1.169 1.745 1.164 1.818 0 .301-4.764 3.15-8.772 5.5-12.752 2.363-4.001 4.166-8.122 4-12.866-.394-11.28-9.222-20.245-9.5-31.52M170.771 156.26c1.553-2.353 3.698-4.247 5.242-6.615.61-.934-.677-1.695-1.427-1.103-6.477 5.115-14.02 8.747-20.209 14.248-6.168 5.483-9.67 12.707-11.674 20.616-1.166 4.605-1.885 9.308-2.614 13.999-.018.113-.003.214.013.314-.502.582-.03 1.737.908 1.475 2.785-.779 5.537-.982 8.414-.86 2.154.093 4.317 0 6.096-1.364 3.926-3.007 3.46-8.255 4.588-12.56.654-2.497 1.994-4.659 4.58-5.417 2.1-.617 4.288-.665 5.949-2.28 3.351-3.256 1.995-8.159-.035-11.702-.797-1.393-1.594-2.786-1.472-4.455.113-1.559.79-3.006 1.641-4.296M111.595 184.63c-.214-.98-.616-1.853-1.147-2.635-.8-10.324-1.632-20.88-5.601-30.559-1.705-4.157-3.938-8.082-6.85-11.514-3.335-3.932-7.574-6.925-11.764-9.867-.702-.492-1.48.318-1.335 1.027.603 2.955 1.57 6.061 1.67 9.083.102 2.99-1.893 4.806-3.133 7.298-.846 1.703-1.298 3.916-.298 5.662 1.078 1.881 3.184 2.075 5.098 2.48 2.6.552 4.494 2.908 3.594 5.618-.728 2.199-2.53 3.869-2.804 6.251-.51 4.447 3.417 7.74 7.13 9.23 4.55 1.828 12.41 2.548 13.688 8.409.248 1.143 2 .659 1.752-.483M112.225 138.249L125.512 236.449M112.225 138.25c.734 4.067 1.365 8.148 2.05 12.222l1.884 12.244c1.253 8.164 2.38 16.345 3.508 24.526 1.09 8.185 2.176 16.371 3.139 24.574l1.438 12.304c.42 4.111.897 8.213 1.268 12.329-.734-4.067-1.366-8.148-2.051-12.222l-1.885-12.245c-1.252-8.163-2.38-16.344-3.506-24.524-1.087-8.187-2.173-16.372-3.135-24.576l-1.438-12.305c-.422-4.108-.898-8.212-1.272-12.328M138.437 132.953L128.349 239.25M138.437 132.953c-.427 8.897-.99 17.783-1.69 26.654-.67 8.873-1.466 17.736-2.285 26.596-.859 8.857-1.746 17.71-2.756 26.552-.98 8.844-2.1 17.676-3.357 26.495.425-8.898.986-17.783 1.687-26.654.67-8.874 1.466-17.736 2.288-26.596.861-8.856 1.748-17.71 2.76-26.551.98-8.845 2.099-17.677 3.353-26.496" transform="translate(0 2) translate(0 .465)"/>
        </g>
        <g transform="translate(0 2) translate(140 147.465)">
            <mask id="prefix__d" fill="#fff">
                <use xlink:href="#prefix__c"/>
            </mask>
            <path fill="#39B54A" d="M.185 50.301c2.778-2.973 6.648-4.916 10.682-5.75 4.037-.816 8.365-.547 12.098 1.1-3.996-.707-7.987-.706-11.852.093-3.869.777-7.538 2.34-10.928 4.557" mask="url(#prefix__d)"/>
            <mask id="prefix__f" fill="#fff">
                <use xlink:href="#prefix__e"/>
            </mask>
            <path fill="#39B54A" d="M.579 45.6c2.683-3.5 6.589-6.06 10.814-7.501 4.23-1.42 8.898-1.76 13.172-.608-4.401-.185-8.712.377-12.777 1.762C7.713 40.618 3.95 42.784.578 45.6" mask="url(#prefix__f)"/>
            <g>
                <mask id="prefix__h" fill="#fff">
                    <use xlink:href="#prefix__g"/>
                </mask>
                <path fill="#39B54A" d="M1.096 40.97c1.72-2.526 3.919-4.735 6.39-6.59 2.466-1.867 5.251-3.322 8.182-4.357 2.94-1.01 6.03-1.598 9.13-1.667 1.55-.032 3.097.036 4.628.217 1.527.223 3.042.51 4.502.975-1.52-.195-3.031-.36-4.55-.379-1.512-.058-3.025-.021-4.524.124-2.996.284-5.956.883-8.781 1.878-2.834.972-5.522 2.339-8.045 3.972-2.516 1.649-4.823 3.623-6.932 5.827" mask="url(#prefix__h)"/>
            </g>
            <g>
                <mask id="prefix__j" fill="#fff">
                    <use xlink:href="#prefix__i"/>
                </mask>
                <path fill="#39B54A" d="M2.383 34.933c1.705-2.523 3.84-4.763 6.215-6.712 2.368-1.964 5.024-3.58 7.82-4.883 2.81-1.274 5.77-2.238 8.81-2.76l2.285-.325 2.298-.188 2.3-.002c.765.04 1.53.096 2.288.161-.763.066-1.522.122-2.278.162l-2.257.274-2.235.355-2.207.48c-2.919.724-5.771 1.687-8.488 2.95-2.73 1.237-5.315 2.773-7.762 4.514-2.438 1.754-4.692 3.77-6.79 5.974" mask="url(#prefix__j)"/>
            </g>
            <g>
                <mask id="prefix__l" fill="#fff">
                    <use xlink:href="#prefix__k"/>
                </mask>
                <path fill="#39B54A" d="M5.195 26.198C6.8 24.003 8.73 22.044 10.84 20.3c2.102-1.759 4.43-3.246 6.871-4.508 2.454-1.237 5.029-2.248 7.693-2.92l2.005-.457 2.022-.358 2.04-.212c.683-.044 1.365-.07 2.046-.088-.668.148-1.332.286-1.997.408l-1.972.478-1.953.52-1.922.607c-2.541.867-5.025 1.879-7.402 3.106-2.39 1.201-4.665 2.618-6.857 4.161-2.184 1.558-4.238 3.302-6.219 5.16" mask="url(#prefix__l)"/>
            </g>
        </g>
        <g transform="translate(0 2) translate(82 129.465)">
            <mask id="prefix__n" fill="#fff">
                <use xlink:href="#prefix__m"/>
            </mask>
            <path fill="#39B54A" d="M29.457 51.841c-3.893-3.034-7.977-5.696-12.358-7.801-4.368-2.134-8.983-3.69-13.77-4.868 4.937.228 9.818 1.622 14.295 3.776 4.465 2.183 8.585 5.154 11.833 8.893" mask="url(#prefix__n)"/>
            <mask id="prefix__p" fill="#fff">
                <use xlink:href="#prefix__o"/>
            </mask>
            <path fill="#39B54A" d="M7.741 32.392c4.814 1.027 9.368 3.277 13.332 6.25 3.946 3 7.36 6.768 9.676 11.129-3.106-3.815-6.534-7.254-10.401-10.16-3.851-2.929-8.095-5.282-12.607-7.219" mask="url(#prefix__p)"/>
            <g>
                <mask id="prefix__r" fill="#fff">
                    <use xlink:href="#prefix__q"/>
                </mask>
                <path fill="#39B54A" d="M.63 18.834c3.12 1.13 6.109 2.622 8.962 4.344 2.862 1.712 5.548 3.716 8.072 5.902 2.506 2.208 4.852 4.605 6.934 7.214l1.524 1.985 1.445 2.04c.896 1.407 1.778 2.817 2.548 4.291-.508-.659-1.004-1.324-1.487-1.994l-1.537-1.945-1.566-1.916-1.633-1.854c-2.216-2.43-4.54-4.757-7.02-6.906-2.462-2.173-5.077-4.162-7.78-6.035-2.711-1.862-5.55-3.541-8.463-5.126" mask="url(#prefix__r)"/>
            </g>
            <g>
                <mask id="prefix__t" fill="#fff">
                    <use xlink:href="#prefix__s"/>
                </mask>
                <path fill="#39B54A" d="M4.023 10.987c2.69 1.483 5.214 3.267 7.595 5.227 2.39 1.95 4.59 4.133 6.635 6.45 2.024 2.334 3.893 4.809 5.51 7.441L24.94 32.1l1.106 2.03c.67 1.391 1.335 2.779 1.89 4.215-.405-.655-.799-1.312-1.18-1.976l-1.223-1.943-1.242-1.923-1.301-1.88c-1.775-2.474-3.635-4.88-5.644-7.16-1.988-2.297-4.125-4.46-6.337-6.55-2.224-2.08-4.573-4.026-6.986-5.925" mask="url(#prefix__t)"/>
            </g>
            <g>
                <mask id="prefix__v" fill="#fff">
                    <use xlink:href="#prefix__u"/>
                </mask>
                <path fill="#39B54A" d="M2.38-1.422C5.054.84 7.64 3.198 10.142 5.65c2.512 2.445 4.892 5.038 7.112 7.77 2.198 2.75 4.233 5.648 5.919 8.75.84 1.551 1.615 3.137 2.298 4.76.645 1.64 1.243 3.3 1.663 5.005-.68-1.618-1.381-3.217-2.2-4.755-.783-1.555-1.64-3.07-2.563-4.538-1.845-2.94-3.868-5.764-6.055-8.46-2.168-2.716-4.496-5.301-6.838-7.885-2.352-2.576-4.771-5.1-7.1-7.72" mask="url(#prefix__v)"/>
            </g>
        </g>
        <g transform="translate(0 2) translate(117 89.465)">
            <mask id="prefix__x" fill="#fff">
                <use xlink:href="#prefix__w"/>
            </mask>
            <path fill="#39B54A" d="M9.725 60.095c-1.133-5.243-2.14-10.514-2.96-15.823-.824-5.309-1.375-10.668-1.645-16.05-.173-5.383-.05-10.797.672-16.143.37-2.672.86-5.325 1.503-7.938.682-2.603 1.469-5.18 2.485-7.659-.762 2.57-1.431 5.161-1.916 7.79-.522 2.618-.907 5.261-1.163 7.916-.527 5.307-.657 10.652-.394 15.984.17 5.338.734 10.659 1.36 15.973.63 5.316 1.408 10.622 2.058 15.95" mask="url(#prefix__x)"/>
            <g>
                <mask id="prefix__z" fill="#fff">
                    <use xlink:href="#prefix__y"/>
                </mask>
                <path fill="#39B54A" d="M11.35 54.273c-.79-3.543-1.277-7.152-1.567-10.78-.304-3.626-.339-7.276-.195-10.915.17-3.639.52-7.27 1.135-10.857.317-1.791.665-3.575 1.057-5.348.447-1.763.888-3.521 1.439-5.25-.14.898-.29 1.791-.455 2.68l-.41 2.682c-.275 1.786-.52 3.576-.725 5.368-.397 3.586-.711 7.176-.854 10.779-.17 3.599-.168 7.203-.083 10.811.099 3.608.353 7.213.658 10.83" mask="url(#prefix__z)"/>
            </g>
            <g>
                <mask id="prefix__B" fill="#fff">
                    <use xlink:href="#prefix__A"/>
                </mask>
                <path fill="#39B54A" d="M12.829 49.886c-.259-2.601-.302-5.215-.24-7.829.05-2.614.278-5.222.59-7.817.34-2.592.768-5.174 1.37-7.716.304-1.27.623-2.535.966-3.794.388-1.247.754-2.498 1.21-3.72l-.642 3.853c-.226 1.28-.442 2.558-.638 3.84-.384 2.564-.776 5.121-1.087 7.69-.339 2.566-.594 5.142-.86 7.721-.25 2.581-.437 5.17-.67 7.772" mask="url(#prefix__B)"/>
            </g>
        </g>
        <g>
            <path fill="#FFBEB4" d="M61.846 33.618c0 11.026-5.748 20.713-14.412 26.197H14.442C5.778 54.33.03 44.645.03 33.618c0-17.115 13.834-30.98 30.908-30.98 17.076 0 30.908 13.865 30.908 30.98" transform="translate(0 2) translate(96 232.465)"/>
            <path fill="#FFBEB4" d="M61.846 33.618c0 11.026-5.748 20.713-14.412 26.197H14.442C5.778 54.33.03 44.645.03 33.618c0-17.115 13.834-30.98 30.908-30.98 17.076 0 30.908 13.865 30.908 30.98" transform="translate(0 2) translate(96 232.465)"/>
            <path fill="#97B8FF" d="M61.846 33.618c0 11.026-5.748 20.713-14.412 26.197H14.442C5.778 54.33.03 44.645.03 33.618c0-17.115 13.834-30.98 30.908-30.98 17.076 0 30.908 13.865 30.908 30.98" transform="translate(0 2) translate(96 232.465)"/>
            <path fill="#97B8FF" d="M43.337 5.588H18.54c-1.189 0-2.152-.965-2.152-2.158v-.547c0-1.193.963-2.158 2.152-2.158h24.797c1.188 0 2.152.965 2.152 2.158v.547c0 1.193-.964 2.158-2.152 2.158" transform="translate(0 2) translate(96 232.465)"/>
        </g>
        <g transform="translate(0 2) translate(96 234.465)">
            <mask id="prefix__D" fill="#fff">
                <use xlink:href="#prefix__C"/>
            </mask>
            <path stroke="#FFF" d="M-1.578 14.769c0-6.525 5.264-11.814 11.757-11.814 6.493 0 11.757 5.289 11.757 11.814 0 6.522-5.264 11.812-11.757 11.812-6.493 0-11.757-5.29-11.757-11.812z" mask="url(#prefix__D)"/>
            <mask id="prefix__F" fill="#fff">
                <use xlink:href="#prefix__E"/>
            </mask>
            <path stroke="#FFF" d="M3.97 14.769c0-3.446 2.78-6.24 6.21-6.24 3.427 0 6.208 2.794 6.208 6.24 0 3.444-2.78 6.238-6.209 6.238s-6.208-2.794-6.208-6.238z" mask="url(#prefix__F)"/>
            <mask id="prefix__H" fill="#fff">
                <use xlink:href="#prefix__G"/>
            </mask>
            <path stroke="#FFF" d="M27.579 35.504c0-1.324 1.069-2.398 2.387-2.398 1.319 0 2.388 1.074 2.388 2.398s-1.07 2.399-2.388 2.399c-1.318 0-2.387-1.075-2.387-2.399z" mask="url(#prefix__H)"/>
            <mask id="prefix__J" fill="#fff">
                <use xlink:href="#prefix__I"/>
            </mask>
            <path stroke="#FFF" d="M3.97 34.836c0-1.325 1.07-2.4 2.388-2.4 1.319 0 2.388 1.075 2.388 2.4 0 1.324-1.07 2.398-2.388 2.398-1.318 0-2.387-1.074-2.387-2.398z" mask="url(#prefix__J)"/>
            <g>
                <mask id="prefix__L" fill="#fff">
                    <use xlink:href="#prefix__K"/>
                </mask>
                <path stroke="#FFF" d="M52.475 36.636c0-1.324 1.069-2.398 2.387-2.398 1.32 0 2.388 1.074 2.388 2.398s-1.069 2.398-2.388 2.398c-1.318 0-2.387-1.074-2.387-2.398z" mask="url(#prefix__L)"/>
            </g>
            <g>
                <mask id="prefix__N" fill="#fff">
                    <use xlink:href="#prefix__M"/>
                </mask>
                <path stroke="#FFF" d="M28.118 11.887c0-1.324 1.07-2.398 2.387-2.398 1.32 0 2.388 1.074 2.388 2.398 0 1.325-1.069 2.399-2.388 2.399-1.318 0-2.387-1.074-2.387-2.399z" mask="url(#prefix__N)"/>
            </g>
            <g>
                <mask id="prefix__P" fill="#fff">
                    <use xlink:href="#prefix__O"/>
                </mask>
                <path stroke="#FFF" d="M40.999 19.28c0-2.492 2.01-4.511 4.49-4.511 2.48 0 4.49 2.019 4.49 4.51 0 2.493-2.01 4.512-4.49 4.512-2.48 0-4.49-2.02-4.49-4.511z" mask="url(#prefix__P)"/>
            </g>
            <g>
                <mask id="prefix__R" fill="#fff">
                    <use xlink:href="#prefix__Q"/>
                </mask>
                <path stroke="#FFF" d="M37.3 19.28c0-4.545 3.666-8.229 8.189-8.229s8.19 3.684 8.19 8.229c0 4.543-3.667 8.227-8.19 8.227s-8.19-3.684-8.19-8.227z" mask="url(#prefix__R)"/>
            </g>
            <g>
                <mask id="prefix__T" fill="#fff">
                    <use xlink:href="#prefix__S"/>
                </mask>
                <path stroke="#FFF" d="M42.873 50.097c0-3.989 3.219-7.223 7.189-7.223 3.969 0 7.188 3.234 7.188 7.223 0 3.99-3.22 7.225-7.188 7.225-3.97 0-7.189-3.234-7.189-7.225z" mask="url(#prefix__T)"/>
            </g>
            <g>
                <mask id="prefix__V" fill="#fff">
                    <use xlink:href="#prefix__U"/>
                </mask>
                <path stroke="#FFF" d="M46.11 50.097c0-2.192 1.768-3.97 3.951-3.97s3.953 1.778 3.953 3.97c0 2.194-1.77 3.971-3.953 3.971s-3.952-1.777-3.952-3.97z" mask="url(#prefix__V)"/>
            </g>
            <g>
                <mask id="prefix__X" fill="#fff">
                    <use xlink:href="#prefix__W"/>
                </mask>
                <path stroke="#FFF" d="M11.755 46.993c0-3.062 2.47-5.542 5.516-5.542 3.047 0 5.516 2.48 5.516 5.542 0 3.06-2.47 5.542-5.516 5.542-3.047 0-5.516-2.481-5.516-5.542z" mask="url(#prefix__X)"/>
            </g>
            <g>
                <mask id="prefix__Z" fill="#fff">
                    <use xlink:href="#prefix__Y"/>
                </mask>
                <path stroke="#FFF" d="M15.301 46.993c0-1.095.882-1.98 1.97-1.98 1.089 0 1.97.885 1.97 1.98 0 1.093-.881 1.98-1.97 1.98-1.088 0-1.97-.887-1.97-1.98z" mask="url(#prefix__Z)"/>
            </g>
        </g>
        <g>
            <path fill="#97B8FF" d="M123.691 231.57c0-8.32-3.277-15.87-8.607-21.448-1.989 9.428-6.527 18.328-13.092 25.397-8.503 9.154-20.326 15.153-32.738 16.652 1.946 2.191 4.188 4.116 6.68 5.688h33.238c8.729-5.503 14.52-15.224 14.52-26.288" transform="translate(0 2) translate(34 34.465)"/>
            <path stroke="#3F50B5" stroke-width="3" d="M121.143 254.487V57.057c0-31.447 20.26-56.94 45.253-56.94h0c24.993 0 45.253 25.493 45.253 56.94" transform="translate(0 2) translate(34 34.465)"/>
            <path fill="#FFBEB4" d="M204.533 79.7c0-3.875 3.147-7.017 7.03-7.017 3.882 0 7.029 3.142 7.029 7.017 0 3.875-3.147 7.018-7.03 7.018-3.882 0-7.029-3.143-7.029-7.018" transform="translate(0 2) translate(34 34.465)"/>
            <path fill="#3F50B5" d="M237.28 79.058h-51.436c0-14.18 11.52-25.67 25.724-25.67s25.712 11.49 25.712 25.67" transform="translate(0 2) translate(34 34.465)"/>
            <path fill="#000" d="M231.096 62.367c-11.635 11.364-32.186 15.353-42.8 16.69h48.984c0-6.375-2.331-12.202-6.184-16.69" opacity=".293" transform="translate(0 2) translate(34 34.465)"/>
            <path fill="#3F50B5" d="M141.719 259.01h-41.323v-.695c0-3.009 2.445-5.45 5.46-5.45h30.404c3.014 0 5.459 2.441 5.459 5.45v.695z" transform="translate(0 2) translate(34 34.465)"/>
            <path stroke="#FFBEB4" stroke-linecap="round" stroke-width="2" d="M.861 274.522L79.852 274.522M47.078 284.739L126.068 284.739" transform="translate(0 2) translate(34 34.465)"/>
        </g>
    </g>
</svg>
