<svg xmlns="http://www.w3.org/2000/svg" xmlns:xlink="http://www.w3.org/1999/xlink" width="227" height="169" viewBox="0 0 227 169">
    <defs>
        <path id="prefix__a" d="M100.853 166.851c57.796-7.933 138.995-38.531 123.526-90.661-42.328-121.26-83.274-61.196-129.59-61.196-46.315 0-89.527 5.666-93.663 67.995-4.137 62.33 41.93 91.795 99.727 83.862z"/>
    </defs>
    <g fill="none" fill-rule="evenodd" transform="matrix(-1 0 0 1 227 0)">
        <mask id="prefix__b" fill="#fff">
            <use xlink:href="#prefix__a"/>
        </mask>
        <use fill="#FEF7F0" xlink:href="#prefix__a"/>
        <g mask="url(#prefix__b)">
            <g>
                <path fill="#F5F5F5" d="M52 0.443L50.232 3.675 47 5.443 50.232 7.211 52 10.443 53.768 7.211 57 5.443 53.768 3.675z" transform="translate(37 .557)"/>
                <path fill="#EBEBEB" d="M129 90.443L130.414 93.029 133 94.443 130.414 95.857 129 98.443 127.586 95.857 125 94.443 127.586 93.029z" transform="translate(37 .557)"/>
                <path fill="#E0E0E0" d="M133 78.443L133.707 79.736 135 80.443 133.707 81.15 133 82.443 132.293 81.15 131 80.443 132.293 79.736zM39 1.443L39.707 2.736 41 3.443 39.707 4.15 39 5.443 38.293 4.15 37 3.443 38.293 2.736z" transform="translate(37 .557)"/>
                <path fill="#EBEBEB" d="M140.957 148.297c-.206-1.062-1.236-1.892-2.3-1.853-1.055.039-2.015.927-2.158 1.988-.153-1.06-1.121-1.94-2.176-1.968-1.064-.03-2.088.81-2.284 1.873-.143.774.119 1.58.548 2.237.429.656 1.015 1.188 1.594 1.711.812.734 1.561 1.424 2.373 2.158.805-.74 1.49-1.437 2.295-2.178.575-.53 1.157-1.066 1.58-1.726.423-.66.677-1.47.528-2.242" transform="translate(37 .557)"/>
                <g>
                    <path fill="#FFBE9D" d="M67.213 99.356l1.387-4.644c.243-1.007.565-2.194.997-3.55.389-1.218 1.387-2.498 2.297-3.42 1.417-1.434 2.091-1.444 3.043-2.205.087-.056.184-.135.265-.179.198-.106.342-.247.464-.398.82-.884.032-2.252-1.635-2.122-1.254.098-3.3.455-6.628 3.873-.041.052-.085.095-.126.149-1.746 2.26-3.386-4.192-3.682-6.594-.192-1.558-1.884-2.516-3.416-1.952l-8.105 3.775c-.67-.235-1.464-.196-2.366.08-1.194.439-1.856 1.66-1.545 2.846l3.288 13.066-14.265 38.587 25.42-6.6 4.607-30.712z" transform="translate(37 .557) translate(18 39.443)"/>
                    <path fill="#3F50B5" d="M83.2 69.978l-6.433 12.551-3.217-.89-16.168 13.095c-1.376 1.115-3.393.936-4.55-.402l-6.156-7.123s12.413-5.324 14.709-9.73c2.295-4.408-.357-5.407-.357-5.407l5.842-6.61 16.33 4.516zM74.856 44.339s-9.417-2.074-22.668-14.761C38.938 16.89 32.71.042 31.088.124c-1.621.082-8.704-3.192-22.173 25.982C-4.555 55.28.75 62.055 3.43 62c2.68-.054 20.88-5.104 32.248-3.818 11.368 1.287 25.98 7.186 25.98 7.186l13.197-21.03z" transform="translate(37 .557) translate(18 39.443)"/>
                    <path fill="#3F50B5" d="M94.86 60.24l-3.212 6.082-1.44 2.725c-1.973 3.736-6.539 5.28-10.39 3.514L59.633 65.56 71.39 38.841l20.164 10.7c3.871 2.054 5.349 6.834 3.307 10.7" transform="translate(37 .557) translate(18 39.443)"/>
                    <path fill="#000" d="M94.86 60.24l-3.212 6.082-1.44 2.725c-1.973 3.736-6.539 5.28-10.39 3.514L59.633 65.56 71.39 38.841l20.164 10.7c3.871 2.054 5.349 6.834 3.307 10.7" opacity=".139" transform="translate(37 .557) translate(18 39.443)"/>
                    <path fill="#3F50B5" d="M10.003 26.637C2.834 42.441-.15 56.524 3.338 58.092c3.487 1.569 12.126-9.972 19.295-25.775C29.8 16.513 32.785 2.43 29.298.862 25.81-.706 17.172 10.833 10.003 26.637" transform="translate(37 .557) translate(18 39.443)"/>
                    <path fill="#000" d="M10.003 26.637C2.834 42.441-.15 56.524 3.338 58.092c3.487 1.569 12.126-9.972 19.295-25.775C29.8 16.513 32.785 2.43 29.298.862 25.81-.706 17.172 10.833 10.003 26.637" opacity=".139" transform="translate(37 .557) translate(18 39.443)"/>
                    <path fill="#F9B800" d="M96.592 69.028L91.122 67.317 94.507 60.909 98.61 63.448z" transform="translate(37 .557) translate(18 39.443)"/>
                    <path fill="#000" d="M94.507 60.909L91.122 67.317 92.246 67.669 94.998 61.212z" opacity=".149" transform="translate(37 .557) translate(18 39.443)"/>
                    <path fill="#2C60FF" d="M90.738 62.387c-.08.176-2.81-.88-6.098-2.36-3.289-1.48-5.889-2.822-5.809-2.998.08-.176 2.81.881 6.099 2.36 3.287 1.48 5.887 2.822 5.808 2.998M92.42 58.57c-.086.174-2.557-.863-5.518-2.315-2.963-1.453-5.294-2.771-5.208-2.944.085-.173 2.555.863 5.518 2.316 2.962 1.453 5.294 2.77 5.208 2.943M88.616 66.39c-.03.093-.679-.056-1.716-.375-.517-.159-1.131-.36-1.81-.594-.675-.244-1.375-.597-2.125-.935-2.993-1.383-5.278-2.738-5.204-2.898.09-.19 2.532.892 5.497 2.262.744.336 1.433.706 2.084.976.653.263 1.239.508 1.728.724.978.433 1.574.748 1.546.84" transform="translate(37 .557) translate(18 39.443)"/>
                    <path fill="#F9B800" d="M24.618 23.123s-8.184-5.053-12.662 5.956C7.478 40.09 16.089 41.9 16.089 41.9c3.524-5.44 6.387-11.676 8.529-18.776" transform="translate(37 .557) translate(18 39.443)"/>
                    <path fill="#000" d="M33.323 10.002c.047.008-.07.756-.32 2.103-.26 1.345-.626 3.298-1.151 5.696l-1.13 3.853-.635 2.146-.335 1.122c-.122.376-.281.745-.424 1.125l-1.849 4.75-.487 1.246c-.159.42-.384.816-.575 1.23l-1.216 2.498c-.412.842-.82 1.676-1.22 2.497-.21.405-.383.826-.616 1.211l-.683 1.152-2.608 4.385c-.213.346-.405.7-.626 1.028l-.681.957-1.303 1.827-2.347 3.269c-1.564 1.888-2.877 3.378-3.779 4.411-.907 1.03-1.426 1.584-1.463 1.553-.037-.03.41-.643 1.253-1.726l3.605-4.551 2.259-3.296 1.262-1.83.661-.956c.216-.328.403-.682.61-1.028l2.556-4.376.672-1.146c.23-.384.401-.802.608-1.206l1.208-2.48 1.21-2.479c.192-.41.417-.803.576-1.22l.49-1.235 1.874-4.703c.146-.376.309-.741.435-1.113l.346-1.11c.229-.729.45-1.438.666-2.122l1.206-3.809c.569-2.349 1.031-4.261 1.362-5.623.334-1.327.54-2.058.589-2.05" opacity=".149" transform="translate(37 .557) translate(18 39.443)"/>
                    <path fill="#000" d="M48.638 86.335c.746 1.35 1.508 2.72 2.613 3.798 1.105 1.079 2.622 1.843 4.162 1.689 1.54-.155 2.998-1.428 3.015-2.968.738.552 1.87.253 2.483-.437.612-.69.81-1.648.884-2.565 1.004.59 2.4.122 3.069-.827.67-.95.712-2.228.387-3.342-.325-1.115-.973-2.103-1.612-3.073.773.062 1.592.116 2.283-.233.692-.35 1.158-1.26.755-1.919-.237-.386-.69-.579-1.125-.714-1.211-.377-2.061-.68-3.322-.534-.293.003.505 3.31-7.408 7.835-4.67 2.67-6.184 3.29-6.184 3.29" opacity=".139" transform="translate(37 .557) translate(18 39.443)"/>
                    <path fill="#EB996E" d="M66.456 91.114c-.006.036-.532-.064-1.386-.041-.85.019-2.036.204-3.208.764-1.172.56-2.06 1.365-2.607 2.012-.553.648-.804 1.12-.836 1.101-.011-.006.04-.13.155-.342.115-.212.302-.509.569-.85.527-.683 1.425-1.53 2.63-2.104 1.207-.576 2.431-.743 3.296-.725.434.007.784.047 1.022.091.239.043.367.082.365.094" transform="translate(37 .557) translate(18 39.443)"/>
                    <path fill="#FFBE9D" d="M49.153 84.237c1.275 1.22 2.147 2.565 3.484 3.793.607.557 1.55 1.614 2.365 1.755.814.14 1.336.033 1.658-.725.261-.614-.208-1.452-.531-1.958-.852-1.33-1.666-2.37-2.304-3.404-.3-.485.088-.585.229-.36.613.633 1.529 1.181 2.078 1.87.753.945.89 2.195 2.858 1.8.26-.053.52-.143.73-.303.742-.565.773-1.547.46-2.333-.244-.617-.672-1.14-1.095-1.652.838.942 1.753 1.935 3.085 2.042.775.062 1.552-.297 1.866-1.005.394-.892-.171-1.753-.739-2.45-1.005-1.235-2.127-2.376-3.345-3.404-.454-.382-1.032-.596-1.627-.6-.689-.005-1.551.124-1.977.722-.774 1.083-.535 2.04-.535 2.04s-1.729-.871-3.118.041c-1.388.913-1.732 2.481-1.732 2.481l-1.81 1.65z" transform="translate(37 .557) translate(18 39.443)"/>
                    <path fill="#FFBE9D" d="M58.35 76.925c-.534-.536-.659-1.518-.244-2.328.294-.574.665-1.13 1.041-1.257 1.644-.552 8.828.685 8.762 2.272-.067 1.63-.59 2.348-4.489 1.787-.685-.098-1.761-.233-1.761-.233l-.941 1.406-2.367-1.647z" transform="translate(37 .557) translate(18 39.443)"/>
                    <path fill="#EB996E" d="M59.637 83.572c-.057.035-.603-1.076-1.72-2.072-1.104-1.009-2.267-1.442-2.238-1.501.008-.023.308.054.76.266.452.21 1.048.573 1.616 1.085.566.512.986 1.067 1.241 1.494.257.427.363.718.341.728M60.846 78.694c-.036.034-.51-.352-1.157-.746-.322-.197-.62-.363-.843-.463-.222-.103-.37-.132-.369-.163 0-.026.17-.047.419.028.25.07.57.223.9.425.664.404 1.098.876 1.05.919M62.052 77.219c-.005.042-.63.06-1.384-.156-.374-.114-.69-.293-.885-.462-.197-.167-.28-.306-.26-.323.038-.035.484.387 1.206.59.712.206 1.333.283 1.323.35M55.07 85.537c-.023.016-.277-.307-.655-.848-.385-.528-.876-1.317-1.676-1.897-.801-.581-1.744-.719-2.375-.627-.645.09-.981.354-1.001.317-.007-.01.069-.081.23-.18.158-.101.414-.212.747-.278.661-.136 1.668-.014 2.518.603.846.615 1.322 1.436 1.678 1.983.347.562.557.91.534.927M60.566 101.356c.006.056-1.309.244-2.936.42-1.628.176-2.952.274-2.958.218-.007-.056 1.308-.244 2.936-.42 1.627-.176 2.952-.274 2.958-.218" transform="translate(37 .557) translate(18 39.443)"/>
                </g>
                <path fill="#E8505B" d="M140.5 9.443L141.03 10.413 142 10.943 141.03 11.473 140.5 12.443 139.97 11.473 139 10.943 139.97 10.413zM149.5 30.443L150.03 31.413 151 31.943 150.03 32.473 149.5 33.443 148.97 32.473 148 31.943 148.97 31.413zM.97 84.413L0 84.943.97 85.473 1.5 86.443 2.03 85.473 3 84.943 2.03 84.413 1.5 83.443zM128 15.443L129.06 17.382 131 18.443 129.06 19.503 128 21.443 126.94 19.503 125 18.443 126.94 17.382zM10 70.443L11.061 72.382 13 73.443 11.061 74.504 10 76.443 8.939 74.504 7 73.443 8.939 72.382zM150.94 117.383L149 118.443 150.94 119.504 152 121.443 153.061 119.504 155 118.443 153.061 117.383 152 115.443z" transform="translate(37 .557)"/>
            </g>
        </g>
    </g>
</svg>
