<svg xmlns="http://www.w3.org/2000/svg" xmlns:xlink="http://www.w3.org/1999/xlink" width="670" height="551" viewBox="0 0 670 551">
    <defs>
        <path id="prefix__a" d="M0 215.455L358.003 215.455 358.003 0.348 0 0.348z"/>
        <path id="prefix__c" d="M0.529 0.508L20.834 0.508 20.834 24.034 0.529 24.034z"/>
        <path id="prefix__e" d="M0.529 0.508L20.834 0.508 20.834 24.034 0.529 24.034z"/>
        <path id="prefix__g" d="M0.53 0.561L18.296 0.561 18.296 15.202 0.53 15.202z"/>
        <path id="prefix__i" d="M0.529 58.98L41.773 58.98 41.773 0.508 0.529 0.508z"/>
        <path id="prefix__k" d="M17.717 3.172c-2.27.578-4.315 1.806-5.892 3.537-3.114 3.419-8.42 9.43-11.292 13.737 3.173 6.874 11.633 8.99 11.633 8.99l-.529 24.322 41.773.53s0-15.335.528-25.91c10.047-1.587 13.22-8.46 13.22-8.46L57.596 7.313c-1.45-1.91-3.438-3.342-5.71-4.11-2.93-.99-7.145-2.1-10.205-1.795C39.04 4.582 31.136 3.526 29.55.353c-.722 0-7.537 1.724-11.833 2.82"/>
        <path id="prefix__m" d="M17.717 3.172c-2.27.578-4.315 1.806-5.892 3.537-3.114 3.419-8.42 9.43-11.292 13.737 3.173 6.874 11.633 8.99 11.633 8.99l-.529 24.322 41.773.53s0-15.335.528-25.91c10.047-1.587 13.22-8.46 13.22-8.46L57.596 7.313c-1.45-1.91-3.438-3.342-5.71-4.11-2.93-.99-7.145-2.1-10.205-1.795C39.04 4.582 31.136 3.526 29.55.353c-.722 0-7.537 1.724-11.833 2.82"/>
        <path id="prefix__o" d="M17.717 3.172c-2.27.578-4.315 1.806-5.892 3.537-3.114 3.419-8.42 9.43-11.292 13.737 3.173 6.874 11.633 8.99 11.633 8.99l-.529 24.322 41.773.53s0-15.335.528-25.91c10.047-1.587 13.22-8.46 13.22-8.46L57.596 7.313c-1.45-1.91-3.438-3.342-5.71-4.11-2.93-.99-7.145-2.1-10.205-1.795C39.04 4.582 31.136 3.526 29.55.353c-.722 0-7.537 1.724-11.833 2.82"/>
        <path id="prefix__q" d="M17.717 3.172c-2.27.578-4.315 1.806-5.892 3.537-3.114 3.419-8.42 9.43-11.292 13.737 3.173 6.874 11.633 8.99 11.633 8.99l-.529 24.322 41.773.53s0-15.335.528-25.91c10.047-1.587 13.22-8.46 13.22-8.46L57.596 7.313c-1.45-1.91-3.438-3.342-5.71-4.11-2.93-.99-7.145-2.1-10.205-1.795C39.04 4.582 31.136 3.526 29.55.353c-.722 0-7.537 1.724-11.833 2.82"/>
    </defs>
    <g fill="none" fill-rule="evenodd">
        <rect width="334" height="315" y="236" fill="#F3F4FA" rx="53"/>
        <rect width="405" height="358" x="265" fill="#EDEEF7" rx="59"/>
        <g transform="translate(292 77.197)">
            <path fill="#FFFCF0" d="M119.275 9.708c-27.38-.566-52.836 11.26-60.822 33.484-4.72 13.136-4.012 28.872-12.969 39.404-8.86 10.42-24.265 12.08-34.326 21.268C3.226 111.106-.46 122.5.046 133.414c.505 10.914 4.837 21.353 10.78 30.398 18.756 28.538 54.957 43.61 87.666 36.496 21.79-4.738 42.139-18.333 64.358-16.8 18.807 1.299 35.104 13.22 52.64 20.35 32.973 13.41 72.22 9.016 101.636-11.378 11.677-8.096 22.072-18.92 27.115-32.467 5.042-13.547 3.908-30.064-5.184-41.138-9.235-11.249-25.986-21.674-47.544-18.204-14.12 2.272-42.133 18.264-67.52 14.068-14.11-2.334-47.894-6.325-50.385-58.806-1.025-21.613-17.198-45.458-54.333-46.225"/>
            <path fill="#FFFCF0" d="M26.63 64.37c1.644 3.221 5.485 4.982 9.091 4.7 3.606-.28 6.91-2.355 9.257-5.108 2.05-2.405 3.49-5.72 2.471-8.712-1.195-3.513-5.43-5.218-9.112-4.756-6.039.757-15.453 6.534-11.707 13.875M262.024 14.297c1.644 3.222 5.485 4.983 9.091 4.702 3.606-.282 6.91-2.355 9.257-5.109 2.05-2.405 3.49-5.72 2.472-8.711-1.195-3.513-5.43-5.218-9.113-4.757-6.039.757-15.452 6.534-11.707 13.875"/>
            <path fill="#FFF4E5" d="M341.944 150.162c-3.733 1.884-5.787 6.315-5.48 10.485.308 4.17 2.689 7.999 5.86 10.724 2.769 2.38 6.594 4.061 10.057 2.9 4.066-1.365 6.057-6.251 5.542-10.51-.845-6.983-7.476-17.892-15.98-13.599"/>
            <path fill="#FFFCF0" d="M51.486.733C49 1.448 47.36 3.74 47.217 6.1c-.143 2.36 1.036 4.716 2.8 6.528 1.539 1.581 3.795 2.868 6.052 2.532 2.651-.395 4.29-2.948 4.31-5.375.034-3.982-3.232-10.683-8.893-9.052M8.596 86.226c-1.738.409-2.86 1.801-2.93 3.254-.07 1.454.79 2.923 2.053 4.063 1.103.996 2.706 1.82 4.288 1.641 1.858-.208 2.977-1.761 2.96-3.258-.03-2.456-2.413-6.632-6.371-5.7M19.18 27.64c1.302-1.221 1.582-2.988.918-4.282-.664-1.295-2.143-2.14-3.806-2.498-1.452-.313-3.252-.228-4.535.715-1.507 1.108-1.701 3.011-.94 4.3 1.249 2.115 5.398 4.545 8.363 1.765"/>
            <path fill="#FFF4E5" d="M123.952 24.427c-2.485.716-4.125 3.007-4.269 5.367-.143 2.36 1.037 4.716 2.8 6.527 1.539 1.583 3.795 2.869 6.052 2.533 2.651-.395 4.29-2.947 4.31-5.375.034-3.982-3.232-10.683-8.893-9.052M17.31 166.16c-.31-1.592-1.65-2.743-3.115-2.964-1.466-.219-3.004.387-4.232 1.388-1.074.874-2.001 2.212-1.916 3.64.1 1.678 1.603 2.842 3.118 2.99 2.485.24 6.851-1.43 6.145-5.055M227.18 101.05c-1.151 2.316-.57 5.074 1.072 6.774 1.643 1.7 4.178 2.422 6.704 2.347 2.206-.066 4.679-.86 5.956-2.752 1.5-2.22.726-5.153-1.05-6.808-2.913-2.716-10.06-4.835-12.682.44"/>
            <mask id="prefix__b" fill="#fff">
                <use xlink:href="#prefix__a"/>
            </mask>
            <path fill="#F9B800" d="M305.524 38.546h31.458v-22.09h-31.458v22.09zm0 26.432h31.458V42.89h-31.458v22.09zm0 26.433h31.458v-22.09h-31.458v22.09zm0 26.432h31.458v-22.09h-31.458v22.09zm0 26.432h31.458v-22.089h-31.458v22.09zm-31.459 0h27.116v-22.089h-27.116v22.09zm-35.801 0h31.458v-22.089h-31.458v22.09zm0-26.432h31.458V95.754h-31.458v22.09zm0-26.432h31.458v-22.09h-31.458v22.09zm0-26.432h31.458v-22.09h-31.458v22.09zm0-26.432h31.458v-22.09h-31.458v22.09zm35.801 79.296h27.116v-22.09h-27.116v22.09zm0-26.432h27.116v-22.09h-27.116v22.09zm0-26.433h27.116V42.89h-27.116v22.09zm0-26.432h27.116v-22.09h-27.116v22.09zm62.917-26.432H233.92V148.618H341.325V12.114h-4.343z" mask="url(#prefix__b)"/>
            <path fill="#F6F1DF" d="M352.815 200.618c0 4.4-17.544 7.967-39.186 7.967-21.641 0-39.185-3.567-39.185-7.967 0-4.399 17.544-7.966 39.185-7.966 21.642 0 39.186 3.567 39.186 7.966" mask="url(#prefix__b)"/>
            <path fill="#96B6B2" d="M336.689 33.436s-6.264 8.53-4.82 15.911c1.558 7.969 7.085 17.54-3.576 24.736-10.662 7.197-13.49 10.872-13.49 10.872s-8.9-17.535-4.369-26.33c4.532-8.797 7.21-6.127 13.328-11.195 4.664-3.865 7.063-13.727 12.927-13.994" mask="url(#prefix__b)"/>
            <path fill="#96B6B2" d="M330.8 48.013c-1.906 1.314-2.947 3.878-3.995 5.844-1.752 3.284-3.527 6.546-4.976 9.978-1.455 3.446-2.853 7.19-3.401 10.908-.22 1.49-.215 3.02-.295 4.526.625-.703 2.993-3.143 9.093-7.26 7.33-4.948 3.53-11.528 2.459-17.007-.467-2.386.238-4.946 1.115-6.99M347.217 67.42s-4.125 8.83-4.532 15.726c-.476 8.105 2.533 15.459-8.129 22.655-10.662 7.197-12.66 9.196-12.66 9.196s-3.732-14.526-.8-22.122c3.563-9.231 6.168-8.382 12.286-13.45 4.665-3.866 7.97-11.738 13.835-12.005" mask="url(#prefix__b)"/>
            <path fill="#96B6B2" d="M338.823 89.339c.313-3.305 3.1-11.186 4.047-13.298-3.003 3.47-8.665 12.486-11.569 18.73-2.31 4.97-4.69 10.555-5.76 14.764 1.354-.946 3.547-2.407 7.039-4.585 7.623-4.756 5.706-9.965 6.243-15.611M271.012 66.064s3.672 8.355 11.654 12.337c8.275 4.127 16.257 11.258 18.255 22.27-6.956-4.125-12.991-.812-23.115-4.676-9.96-3.803-15.149-21.187-6.794-29.931" mask="url(#prefix__b)"/>
            <path fill="#96B6B2" d="M284.4 87.62c3.655 1.727 7.797 3.117 11.26 5.328-2.89-5.777-7.961-9.811-13.177-12.413-3.514-1.753-6.026-4.523-7.616-6.748-.13 6.484 3.777 11.111 9.534 13.833" mask="url(#prefix__b)"/>
            <path fill="#6B9A84" d="M311.633 135.443c-.19 0-.351-.147-.366-.339-2.463-32.612-14.158-38.073-19.78-40.697-11.715-5.47-15.251-7.122-19.278-15.77-.087-.184-.006-.403.177-.488.184-.086.402-.007.488.178 3.915 8.406 7.095 9.89 18.926 15.414 8.754 4.088 18 12.193 20.2 41.307.015.202-.136.379-.338.395h-.029M314.802 135.443c-.188 0-.348-.143-.366-.333-.831-8.999-1.294-31.444 0-50.18 1.295-18.733 11.718-33.785 11.824-33.935.116-.166.347-.207.51-.09.167.117.206.346.09.512-.103.148-10.41 15.04-11.691 33.563-1.292 18.698-.83 41.088 0 50.062.018.202-.13.381-.333.4l-.034.001M318.918 135.443c-.193 0-.355-.15-.366-.347-.007-.132-.144-3.435 2.983-20.166 3.133-16.77 16.676-35.326 16.813-35.51.12-.165.351-.2.513-.08.163.12.198.35.078.513-.135.185-13.58 18.609-16.682 35.212-3.092 16.548-2.973 19.96-2.972 19.993.01.2-.145.374-.348.384h-.019" mask="url(#prefix__b)"/>
            <path fill="#AB7349" d="M322.857 194.159L306.807 194.159 299.64 133.388 330.025 133.388z" mask="url(#prefix__b)"/>
            <path fill="#FFCAD0" d="M298.13 154L331.891 154 331.891 151.513 298.13 151.513z" mask="url(#prefix__b)"/>
            <path fill="#FFCAD0" d="M302.55 200.618L301.093 200.436 306.946 153.481 308.403 153.663zM327.47 200.618L321.617 153.663 323.074 153.481 328.927 200.436z" mask="url(#prefix__b)"/>
            <path fill="#F6F1DF" d="M204.553 205.346c0 5.582-43.29 10.109-96.692 10.109-53.4 0-96.69-4.527-96.69-10.11 0-5.582 43.29-10.108 96.69-10.108 53.402 0 96.692 4.526 96.692 10.109" mask="url(#prefix__b)"/>
            <path fill="#3F50B5" d="M57.7 77.276c-14.99 5.939-26.33 21.023-30 37.996-3.67 16.974-1.16 38.376 11.118 56.562 22.798 33.768 65.8 37.107 81.746 37.232 22.303.176 38.974-4.21 57.321-13.128 25.531-12.41 30.084-47.126 16.129-64.074-10.518-12.774-23.936-15.27-42.93-7.615-7.567 3.05-15.967 3.278-22.16-2.454-5.288-4.894-8.045-12.202-11.355-18.86-2.79-5.61-6.437-11.242-11.86-14.045-4.818-2.49-8.628-5.776-13.314-8.613-10.446-6.323-23.47-7.447-34.695-3" mask="url(#prefix__b)"/>
            <path fill="#3042AD" d="M143.855 177.445c-1.597-2.798-5.845-3.946-9.576-3.645-3.731.301-7.173 1.712-10.705 2.748-3.616 1.06-7.275 1.967-11.821 2.126-3.713.13-5.47 9.658-.241 10.074 5.978.475 11.779.732 17.704.133 3.917-.396 7.983-.972 11.166-2.898 3.182-1.924 5.153-5.593 3.473-8.538m-42.803 9.682c-3.869.345-9.447-1.542-12.842-3.253-9.07-4.573-3.904-12.677 5.012-8.156 2.147 1.089 4.63 1.461 7.007 2.353 2.364.886 3.66 8.802.823 9.056M51.257 142.457c.348.85.798 1.775 1.659 2.098 1.207.454 2.546-.624 2.88-1.87.335-1.247-.027-2.56-.347-3.81-5.196-20.285.434-41.808 15.547-56.303.387-.371.784-4.598-3.948-2.57-1.614.691-4.794 2.31-6.065 3.52-3.472 3.303-6.085 8.188-8.11 12.473-4.35 9.205-6.262 19.558-5.506 29.71.427 5.74 1.713 11.42 3.89 16.752M64.835 162.644c-1.959 1.611-3.273 3.986-3.599 6.501.785-2.581 3.269-4.357 5.877-5.047 2.608-.69 5.358-.476 8.048-.26-3.038 2.06-4.61 6.068-3.781 9.643.587-2.925 2.795-5.469 5.608-6.462 1.17-.413 2.711-.91 2.72-2.148.004-.664-.486-1.217-.98-1.66-4.015-3.604-9.611-4.091-13.893-.567M68.099 154.33c-3.013-3.557-8.194-5.7-12.998-4.922-2.198.356-3.952 1.396-4.804 2.85 1.298-1.343 4.028-1.628 6.64-1.198 1.34.22 2.665.602 3.973 1.058-4.617-.338-9.453.928-13.12 3.871-2.39 1.921-3.799 4.4-3.855 6.79.663-2.552 3.738-4.74 7.144-5.957 2.969-1.06 7.152-2.942 11.581-2.887-2.255.739-3.729 2.38-3.72 4.35.603-.824 1.582-1.447 2.776-1.822-2.667 2.55-4.692 5.746-3.461 8.05.346-2.825 2.93-5.66 6.567-7.2.736-.313 1.586-.664 2.247-1.073.762.02 1.425-.084 1.595-.558.149-.41-.195-.914-.565-1.352" mask="url(#prefix__b)"/>
            <path fill="#3042AD" d="M193.676 160.833l-13.954-13.74c-2.063-2.032-4.257-4.141-7.052-4.898-4.935-1.337-9.846 1.9-13.86 5.068-2.273 1.793-4.568 1.372-6.823 1.548 3.052-9.106 2.169-19.723-2.367-26.217-5.64-8.077-12.837-9.655-23.023-4.815-4.057 1.928-8.562 2.072-11.883-1.551-2.837-3.094-4.314-7.715-6.09-11.924-1.497-3.547-3.452-7.108-6.36-8.88-2.584-1.574-4.627-3.652-7.14-5.445-5.602-3.999-12.587-4.709-18.606-1.898-8.039 3.755-14.12 13.292-16.09 24.023-1.968 10.731-.621 24.262 5.964 35.76 12.226 21.349 35.286 23.46 43.839 23.54 11.96.11 20.9-2.663 30.74-8.3 1.013-.582 1.957-1.248 2.849-1.973.806.627 2.606 1.233 3.172 1.814 1.17 1.2 1.89 2.76 2.527 4.31 1.96 4.772 3.346 9.78 4.118 14.88.508 3.351.772 6.816 2.218 9.88 1.447 3.066 4.449 5.703 7.833 5.511 3.209-.182 5.741-2.753 7.614-5.365 1.873-2.612 3.55-5.552 6.33-7.164 2.175-1.26 5.025-1.73 6.337-3.874 1.006-1.642.77-3.816 1.756-5.47 2.316-3.885 9.492-2.492 11.351-6.615 1.301-2.884-1.145-5.986-3.4-8.205" mask="url(#prefix__b)"/>
            <path fill="#FC9576" d="M198.032 155.125s4.15 3.601 5.883 2.535c1.733-1.067 6.93-5.73 9.196-5.998 2.265-.266 6.53 2.666 4.664 4.665-1.866 1.999-17.058 13.593-18.658 13.86-1.599.267-8.247-6.982-8.247-6.982l7.162-8.08zM176.487 187.983s-.39 1.992 1.642 2.086c2.032.094 8.954-.835 10.977.22 2.022 1.055 3.896 5.879 1.23 6.48-2.668.603-21.752 1.633-23.224.953-1.472-.68-.06-8.91-.06-8.91l9.435-.83z" mask="url(#prefix__b)"/>
            <path fill="#C0A791" d="M168.998 138.025s14.394 44.778 15.104 49.043c.711 4.264-19.368 10.306-21.5 6.93-2.133-3.376-11.906-41.403-12.617-42.113-.71-.712 9.418-19.902 19.013-13.86" mask="url(#prefix__b)"/>
            <path fill="#C0A791" d="M184.102 187.068c-.71-4.265-15.103-49.043-15.103-49.043-9.596-6.042-19.725 13.148-19.014 13.86.202.201 1.136 3.416 2.418 7.99l.006-.023c.683-2.482 6.668-6.727 8.225-7.297 6.978-2.555 12.242 14.2 17.175 39.62 3.718-1.535 6.57-3.454 6.293-5.107" mask="url(#prefix__b)"/>
            <path fill="#FC9576" d="M129.95 107.55s7.737 10.853 10.884 9.24c3.148-1.613 7.819-11.194 9.951-11.017 2.132.178 2.043 7.196-3.02 12.216-5.065 5.02-13.173 8.308-21.114 3.021-7.94-5.286-3.764-9.995-3.764-9.995l7.063-3.465z" mask="url(#prefix__b)"/>
            <path fill="#FC9576" d="M129.95 107.55s7.737 10.853 10.884 9.24c3.148-1.613 7.819-11.194 9.951-11.017 2.132.178 2.043 7.196-3.02 12.216-5.065 5.02-13.173 8.308-21.114 3.021-7.94-5.286-3.764-9.995-3.764-9.995l7.063-3.465z" mask="url(#prefix__b)"/>
            <path fill="#F9B800" d="M64.884 123.233c-2.768-15.15 2.83-25.811 9.36-31.142 7.674-6.264 22.24-10.096 37.716-4.665 9.83 3.451 17.99 20.124 17.99 20.124l-7.063 3.465 7.73 20.524-1.2 25.72s-12.324 13.225-30.792 7.33c-25.047-7.996-30.396-23.04-33.74-41.356" mask="url(#prefix__b)"/>
            <path fill="#F2E5C0" d="M86.371 107.284s14.082 11.328 14.038 13.727c0 0-8.44-15.327-11.505-16.393-3.066-1.066-9.196 0-9.196 0s4.908 1.227 6.663 2.666M67.714 117.679s10.661 32.118 55.173 17.325c0 0-7.596 14.126-30.385 12.26-14.277-1.168-26.654-15.059-24.788-29.585" mask="url(#prefix__b)" opacity=".203"/>
            <path fill="#FC9576" d="M97.7 80.63l2.71 7.73s-4.843 5.664-9.574 0l-1.932-7.064s6.597-2.398 8.795-.666" mask="url(#prefix__b)"/>
            <path fill="#FC9576" d="M97.587 84.244c.36-.287.731-.544 1.11-.768l-.998-2.846c-2.198-1.732-8.796.666-8.796.666l1.933 7.064c1.062 1.272 2.13 1.97 3.148 2.291.49-2.464 1.523-4.748 3.603-6.407" mask="url(#prefix__b)"/>
            <path fill="#FC9576" d="M99.974 69.993s1.501 6.372-1.075 10.837c-1.233 2.137-3.376 1.932-7.85 1.35-3.535-.461-6.2-2.18-6.943-6.215-.933-5.064 1.356-8.448 3.953-9.106 5.953-1.51 5.864 4.353 11.915 3.134" mask="url(#prefix__b)"/>
            <path fill="#698C99" d="M149.719 79.994c.17.048 9.24 2.235 9.24 3.035 0 .8-12.755 28.963-13.683 29.548-.927.586-6.841-5.471-7.107-5.826-.267-.356 9.671-27.285 11.55-26.757" mask="url(#prefix__b)"/>
            <path fill="#698C99" d="M149.696 80.932c.14.04 7.204 1.799 7.204 2.473 0 .674-11.79 27.421-12.674 27.243-.527-.106-4.92-4.067-5.137-4.366-.218-.3 9.075-25.794 10.607-25.35" mask="url(#prefix__b)"/>
            <path fill="#C0A791" d="M106.769 166.074c.216.598 24.416 3.58 36.677-7.97 12.26-11.55 19.19-18.657 21.678-18.302 2.488.355 18.658 27.187 21.146 29.496 2.487 2.31 12.971-11.372 15.103-17.591 0 0-21.322-30.696-32.161-35.183-7.095-2.937-28.61.977-43.89 14.215-15.282 13.238-21.09 28.321-18.553 35.335" mask="url(#prefix__b)"/>
            <path fill="#C0A791" d="M136.416 159.214c-4.905 1.451-10.287 2.62-15.152.433-4.748-2.133-7.24-7.141-6.064-12.244 1.27-5.503 5.666-9.41 9.954-12.712 4.533-3.49 9.034-6.67 12.955-10.883.807-.868 1.59-1.756 2.363-2.652-5.24 2.374-10.486 5.542-15.151 9.583-15.281 13.238-21.089 28.32-18.553 35.335.217.598 24.417 3.58 36.678-7.97.995-.937 1.951-1.842 2.876-2.72-3.198 1.542-6.528 2.83-9.906 3.83M175.063 152.863c4.869 7.323 9.906 15.228 11.207 16.435.98.91 3.2-.665 5.662-3.284-5.395-4.646-11.587-8.384-16.869-13.15" mask="url(#prefix__b)"/>
            <path fill="#F2E5DB" d="M209.861 150.097c-1.505 2.102.517 8.16 3.11 10.465 0 0-13.384 14.437-13.96 14.793-.575.357 1.047 2.18 2.607.597 1.558-1.582 19.782-18.425 21.304-25.032 0 0-8.16-7.67-13.061-.823M190.88 187.382c-2.547.45-5.335 6.196-5.094 9.658 0 0-19.662.966-20.323.818-.66-.147-.775 2.29 1.446 2.248 2.22-.04 27.026.655 32.734-3.005 0 0-.473-11.188-8.764-9.72" mask="url(#prefix__b)"/>
            <path fill="#551610" d="M89.104 49.667c2.11-1.143 7.396-.622 10.461 1.377 3.065 2 2.8-2.932 6.93-2.132 4.132.8 7.463 2.399 6.264 4.531-1.2 2.132 1.333.667 1.199 3.731-.133 3.065-1.466 5.331-3.065 5.864-1.599.534-2.265 1.276-3.199 3.57-.932 2.294-8.352 6.958-13.038 2.694-4.686-4.265-7.219-1.466-7.751-.533-.534.932-.4 2.399-2 4.131-1.6 1.733-2.798 2.399-1.865 4.532.932 2.132-5.198 1.156-7.464-2.4-3.798-1.156-4.82-7.3-.999-9.129-.977-2.859-1.86-4.312-1.177-7.485.67-3.11 3.825-6.626 6.93-5.42 5.375 2.088 6.516-2.108 8.774-3.331" mask="url(#prefix__b)"/>
            <path fill="#ACBAB8" d="M89.104 49.667c-.267-.996-6.326-.186-7.979 2.262-1.234 1.828-5.148 9.043-1.95 18.34 0 0 3.931-.9 5.13-1.234-1.386-8.662.983-15.881 4.799-19.368" mask="url(#prefix__b)"/>
            <path fill="#ACBAB8" d="M90.973 74.335c.617 4.196-1.832 8.033-5.47 8.568-3.639.536-7.09-2.433-7.707-6.63-.618-4.197 1.831-8.033 5.47-8.568 3.639-.536 7.089 2.432 7.707 6.63" mask="url(#prefix__b)"/>
            <path fill="#ACBAB8" d="M90.973 74.335c.617 4.196-1.832 8.033-5.47 8.568-3.639.536-7.09-2.433-7.707-6.63-.618-4.197 1.831-8.033 5.47-8.568 3.639-.536 7.089 2.432 7.707 6.63" mask="url(#prefix__b)"/>
            <path fill="#ACBAB8" d="M89.702 74.521c.618 4.198-1.831 8.034-5.47 8.57-3.639.535-7.089-2.433-7.707-6.63-.617-4.198 1.832-8.034 5.47-8.57 3.64-.535 7.09 2.434 7.707 6.63" mask="url(#prefix__b)"/>
            <path fill="#FC9576" d="M100.409 121.01s-5.996 14.712-8.884 16.818c0 0 23.5 4.772 37.493-7.089 13.993-11.86 17.058-19.59 18.924-20.257 1.866-.666 9.329-5.197 8.263-11.328-1.067-6.13-6.397 4.265-7.73 2.799-1.333-1.466-2.132-4.665-3.332-1.466-1.2 3.198-1.2 5.597-3.332 7.33-2.132 1.733-16.703 19.857-41.402 13.194" mask="url(#prefix__b)"/>
        </g>
        <g>
            <path stroke="#3F50B5" stroke-linecap="round" stroke-width="3" d="M4.97 71.383L55.097 71.383 55.097 0.317 4.97 0.317z" transform="translate(33 272)"/>
            <path fill="#FBB03B" d="M9.412 65.086L50.656 65.086 50.656 6.614 9.412 6.614z" transform="translate(33 272)"/>
            <g transform="translate(33 272) translate(8.883 6.105)">
                <mask id="prefix__d" fill="#fff">
                    <use xlink:href="#prefix__c"/>
                </mask>
                <path fill="#006837" d="M20.834 9.757c0 7.885-6.392 14.277-14.277 14.277-7.884 0-14.277-6.392-14.277-14.277 0-7.885 6.393-14.276 14.277-14.276 7.885 0 14.277 6.391 14.277 14.276" mask="url(#prefix__d)"/>
                <mask id="prefix__f" fill="#fff">
                    <use xlink:href="#prefix__e"/>
                </mask>
                <path stroke="#006837" stroke-linecap="round" stroke-width=".5" d="M20.834 9.757c0 7.885-6.392 14.277-14.277 14.277-7.884 0-14.277-6.392-14.277-14.277 0-7.885 6.393-14.276 14.277-14.276 7.885 0 14.277 6.391 14.277 14.276z" mask="url(#prefix__f)"/>
                <path fill="#FE5700" d="M13.22 53.222c0-1.402 1.136-2.538 2.537-2.538 1.402 0 2.538 1.136 2.538 2.538 0 1.401-1.136 2.538-2.538 2.538-1.401 0-2.537-1.137-2.537-2.538"/>
                <path stroke="#FE5700" stroke-linecap="round" stroke-width=".5" d="M13.22 53.222c0-1.402 1.136-2.538 2.537-2.538 1.402 0 2.538 1.136 2.538 2.538 0 1.401-1.136 2.538-2.538 2.538-1.401 0-2.537-1.137-2.537-2.538z"/>
                <path stroke="#FE5700" stroke-linecap="round" stroke-width=".5" d="M10.047 53.222c0-3.154 2.557-5.71 5.71-5.71 3.155 0 5.711 2.556 5.711 5.71s-2.556 5.71-5.71 5.71-5.711-2.556-5.711-5.71z"/>
                <g transform="translate(6.345 43.778)">
                    <mask id="prefix__h" fill="#fff">
                        <use xlink:href="#prefix__g"/>
                    </mask>
                    <path stroke="#FE5700" stroke-linecap="round" d="M.53 9.444C.53 4.538 4.507.56 9.413.56c4.906 0 8.883 3.977 8.883 8.883 0 4.905-3.977 8.883-8.883 8.883-4.906 0-8.883-3.978-8.883-8.883z" mask="url(#prefix__h)"/>
                </g>
                <mask id="prefix__j" fill="#fff">
                    <use xlink:href="#prefix__i"/>
                </mask>
                <use fill="#3F50B5" xlink:href="#prefix__i"/>
                <path fill="#006837" d="M32.256 49.415L41.139 49.415 41.139 40.532 32.256 40.532z" mask="url(#prefix__j)"/>
                <path stroke="#006837" stroke-linecap="round" stroke-width=".5" d="M32.256 49.415L41.139 49.415 41.139 40.532 32.256 40.532z" mask="url(#prefix__j)"/>
                <path stroke="#006837" stroke-linecap="round" d="M27.814 53.857L45.58 53.857 45.58 36.09 27.814 36.09z" mask="url(#prefix__j)"/>
                <path fill="#FE5700" d="M15.758 12.571L11.285 24.312 20.23 24.312z" mask="url(#prefix__j)"/>
                <path stroke="#FE5700" d="M15.758 8.818L9.141 26.188 22.375 26.188z" mask="url(#prefix__j)"/>
                <path fill="#006837" d="M31.907 16.366L30.29 13.564 33.524 13.564zM35.714 18.904L34.097 16.102 37.331 16.102zM32.859 21.759L31.241 18.957 34.476 18.957zM4.566 47.421L3.32 50.222 5.812 50.222zM7.499 44.883L6.253 47.685 8.745 47.685zM5.3 42.027L4.054 44.829 6.545 44.829z" mask="url(#prefix__j)"/>
            </g>
            <path stroke="#006837" stroke-linecap="round" stroke-width="3" d="M195.853 81.641L195.853 192.682" transform="translate(33 272)"/>
            <g>
                <path fill="#006837" d="M194.28 72.554c.167-.151.337-.3.512-.443.087-.072.175-.142.264-.211.056-.044-.058.044-.001.002l.063-.049.144-.107c.365-.267.743-.514 1.132-.743.215-.126.31-.435.171-.651-.14-.217-.422-.306-.65-.171-.826.484-1.6 1.057-2.31 1.7-.184.168-.182.505 0 .673.199.182.477.18.674 0" transform="translate(33 272) translate(0 13.085)"/>
                <path fill="#006837" d="M194.6 70.715l-1.17.637c-.22.118-.308.44-.171.65.143.223.417.299.65.171l1.172-.636c.22-.119.307-.44.17-.651-.142-.222-.416-.298-.65-.17M196.271 77.577c2.697 2.088 4.733 4.943 5.791 8.19.19.579 1.109.33.919-.254-1.107-3.394-3.212-6.422-6.037-8.61-.478-.37-1.157.299-.673.674" transform="translate(33 272) translate(0 13.085)"/>
                <path fill="#006837" d="M199.564 82.148l.015-.148-.017.127c.034-.247.099-.487.195-.717l-.048.114c.087-.206.198-.4.332-.58.069-.093.077-.26.048-.367-.03-.11-.116-.23-.219-.284-.11-.058-.244-.087-.367-.048-.124.04-.206.114-.284.219-.363.489-.559 1.08-.606 1.684-.01.116.06.257.14.337.082.083.217.144.335.14.275-.013.455-.21.476-.477M194.44 71.428c-5.124 1.472-9.463 5.037-12.68 9.286-3.22 4.25-5.42 9.176-7.366 14.138-1.947 4.964-3.676 10.027-6.081 14.784-1.018 2.014-2.175 3.994-3.788 5.57 4.049-.986 7.759-3.124 10.936-5.821 3.178-2.698 5.85-5.943 8.257-9.345.91-1.287 1.788-2.6 2.519-3.996 4.006-7.648 3.44-17.319 8.507-24.31" transform="translate(33 272) translate(0 13.085)"/>
                <path fill="#006837" d="M194.313 70.97c-14.517 4.273-18.854 20.506-23.907 32.874-1.564 3.83-3.242 8.055-6.218 11.026-.342.341.006.91.463.795 7.351-1.836 13.14-7.06 17.661-12.924 2.328-3.02 4.464-6.157 5.778-9.758 1.207-3.309 1.87-6.777 2.694-10.192.92-3.808 2.07-7.594 4.371-10.817.357-.499-.468-.974-.822-.48-4.007 5.61-4.536 12.676-6.457 19.104-1.063 3.553-2.733 6.648-4.891 9.654-2.243 3.123-4.73 6.1-7.649 8.615-3.169 2.731-6.863 4.863-10.938 5.88l.463.796c2.502-2.498 4.033-5.818 5.435-9.015 1.485-3.384 2.747-6.86 4.074-10.306 2.577-6.69 5.539-13.522 10.75-18.613 2.668-2.607 5.853-4.665 9.446-5.722.586-.172.337-1.091-.253-.918M201.256 82.283c-.679 7.257.588 14.688 3.633 21.31 2.265 4.928 5.462 9.357 8.387 13.924 2.925 4.567 5.632 9.398 6.741 14.706.296-5.898.457-11.805.484-17.712.008-1.598.004-3.202-.202-4.787-.2-1.523-.587-3.016-1.058-4.478-1.513-4.686-3.92-9.083-7.053-12.884-3.218-3.903-7.156-7.143-11.104-10.308" transform="translate(33 272) translate(0 13.085)"/>
                <path fill="#006837" d="M200.78 82.283c-.631 7.023.499 14.153 3.289 20.63 2.847 6.611 7.422 12.243 10.998 18.444 1.988 3.448 3.653 7.086 4.492 10.993.116.545.908.39.934-.127.205-4.108.347-8.22.422-12.333.07-3.772.366-7.702-.341-11.43-1.297-6.838-5.042-13.315-9.747-18.368-2.868-3.078-6.131-5.747-9.406-8.375-.473-.379-1.151.29-.673.674 5.568 4.467 10.981 9.13 14.624 15.369 1.739 2.977 3.124 6.203 3.972 9.55.959 3.785.698 7.76.636 11.63-.071 4.43-.219 8.86-.438 13.283.311-.042.623-.083.934-.126-1.467-6.838-5.392-12.718-9.175-18.472-1.94-2.952-3.866-5.925-5.438-9.094-1.583-3.19-2.745-6.579-3.462-10.068-.824-4.004-1.036-8.11-.67-12.18.056-.61-.897-.607-.951 0M198.218 126.802c2.007 3.042 4.826 5.542 8.087 7.172 2.425 1.213 5.058 1.938 7.629 2.804 2.568.865 5.136 1.901 7.23 3.624-1.73-2.393-3.516-4.747-5.354-7.058-.498-.625-1.002-1.25-1.578-1.803-.555-.531-1.172-.993-1.814-1.415-2.057-1.354-4.372-2.314-6.783-2.816-2.477-.515-5.025-.546-7.555-.544" transform="translate(33 272) translate(0 13.085)"/>
                <path fill="#006837" d="M197.807 127.042c2.385 3.566 5.736 6.33 9.689 7.997 4.441 1.875 9.488 2.602 13.332 5.7.382.307 1.092-.101.748-.577-1.488-2.054-3.014-4.08-4.578-6.075-1.489-1.899-2.944-3.557-5.035-4.809-1.91-1.143-4.02-1.973-6.201-2.427-2.525-.525-5.114-.56-7.682-.56-.612 0-.614.95 0 .95 2.432 0 4.886.02 7.28.498 2.16.432 4.233 1.23 6.123 2.361 1.978 1.185 3.342 2.749 4.748 4.54 1.547 1.97 3.053 3.973 4.523 6.002l.747-.577c-3.609-2.907-8.16-3.825-12.404-5.409-4.268-1.591-7.924-4.29-10.468-8.095-.339-.506-1.163-.03-.822.48M201.197 103.598c-.874 2.315-1.127 4.862-.725 7.303.298 1.817.948 3.554 1.494 5.312.548 1.758 1 3.583.886 5.421.628-1.905 1.211-3.824 1.75-5.756.147-.522.29-1.048.364-1.585.072-.517.079-1.04.056-1.562-.074-1.67-.467-3.325-1.15-4.85-.705-1.568-1.703-2.983-2.71-4.373" transform="translate(33 272) translate(0 13.085)"/>
                <path fill="#006837" d="M200.738 103.471c-1.041 2.847-1.182 5.895-.46 8.836.763 3.104 2.248 6.06 2.098 9.327-.025.555.774.62.936.127.546-1.668 1.062-3.345 1.545-5.032.465-1.627.76-3.129.577-4.83-.354-3.299-1.955-5.995-3.861-8.632-.356-.491-1.182-.017-.822.48 1.853 2.562 3.476 5.204 3.759 8.429.146 1.67-.236 3.145-.695 4.733-.446 1.542-.922 3.074-1.422 4.599l.935.126c.141-3.056-1.087-5.858-1.908-8.739-.872-3.066-.865-6.162.236-9.17.21-.577-.708-.825-.918-.254M189.184 133.584c-3.77 2.303-5.42 6.21-6.818 10.401-1.396 4.191-1.884 8.62-2.635 12.975-1.16 6.72-2.967 13.327-5.388 19.702 5.059-2.96 9.277-7.338 12.045-12.504 2.768-5.165 4.076-11.103 3.737-16.954-.26-4.496-1.468-9.002-.759-13.45" transform="translate(33 272) translate(0 13.085)"/>
                <path fill="#006837" d="M188.944 133.173c-4.547 2.842-6.54 8.317-7.789 13.284-.81 3.218-1.235 6.514-1.782 9.782-.546 3.264-1.241 6.502-2.088 9.703-.948 3.588-2.088 7.122-3.4 10.593-.153.4.363.736.698.537 10.852-6.406 17.087-18.671 15.914-31.217-.371-3.976-1.272-7.974-.671-11.975.09-.599-.828-.857-.918-.253-.502 3.341-.03 6.657.385 9.979.41 3.282.568 6.549.1 9.835-.877 6.16-3.57 11.987-7.724 16.62-2.19 2.442-4.743 4.523-7.566 6.19l.7.537c2.252-5.957 3.985-12.106 5.148-18.37 1.119-6.024 1.701-12.134 4.183-17.81 1.162-2.658 2.795-5.053 5.29-6.613.518-.324.041-1.148-.48-.822M196.316 127.333c-4.006 6.74-4.186 15.132-2.787 22.847 1.4 7.715 4.236 15.099 5.919 22.756 1.96-7.719 3.934-15.532 3.974-23.496.04-7.965-2.053-16.224-7.344-22.177" transform="translate(33 272) translate(0 13.085)"/>
                <path fill="#006837" d="M195.906 127.093c-6.377 10.874-3.1 23.908.186 35.192 1.04 3.573 2.091 7.144 2.896 10.777.103.463.806.445.918 0 3.126-12.307 6.37-25.702 1.446-38.007-1.187-2.971-2.823-5.723-4.938-8.129-.405-.46-1.076.216-.673.674 8.203 9.328 8.097 22.656 5.84 34.155-.73 3.715-1.66 7.386-2.593 11.055h.918c-2.634-11.881-8.229-23.71-6.322-36.146.49-3.2 1.502-6.293 3.143-9.09.31-.53-.512-1.01-.821-.481M198.647 82.08c-5.027 3.948-8.352 9.72-10.505 15.737-2.152 6.018-3.236 12.353-4.552 18.608-1.316 6.254-2.9 12.537-5.945 18.156 2.484-.987 4.311-3.111 5.996-5.187 2.87-3.538 5.63-7.166 8.275-10.875 2.397-3.363 4.73-6.855 5.97-10.794 1.011-3.217 1.255-6.622 1.387-9.992.2-5.08.158-10.17-.125-15.247" transform="translate(33 272) translate(0 13.085)"/>
                <path fill="#006837" d="M198.31 81.744c-12.12 9.623-12.929 26.29-16.46 40.145-1.097 4.302-2.51 8.53-4.617 12.452-.174.326.127.87.538.699 3.352-1.392 5.541-4.45 7.727-7.205 2.468-3.114 4.86-6.291 7.155-9.535 2.187-3.09 4.28-6.309 5.515-9.914 1.273-3.717 1.485-7.691 1.615-11.586.16-4.771.101-9.547-.159-14.314-.033-.61-.985-.613-.952 0 .221 4.04.297 8.089.217 12.135-.076 3.85-.143 7.788-1.064 11.547-.897 3.658-2.766 6.935-4.867 10.028-2.156 3.178-4.464 6.262-6.821 9.294-1.303 1.676-2.605 3.366-4.001 4.968-1.302 1.492-2.765 2.894-4.618 3.664l.537.7c7.304-13.6 5.983-30.07 13.552-43.544 1.9-3.382 4.329-6.442 7.376-8.861.48-.381-.198-1.05-.673-.673M196.074 69.136c.727 2.797 3.227 4.785 5.83 6.036 2.605 1.25 5.45 1.98 7.956 3.419 3.256 1.87 5.81 4.929 7.068 8.466.795-3.88.477-8.024-1.178-11.62-1.657-3.597-4.698-6.594-8.427-7.924-3.729-1.33-8.11-.883-11.34 1.409" transform="translate(33 272) translate(0 13.085)"/>
                <path fill="#006837" d="M195.616 69.263c1.308 4.691 6.224 6.478 10.308 8.057 2.392.924 4.653 2.02 6.54 3.79 1.791 1.682 3.164 3.767 4.005 6.073.147.402.819.5.918 0 .973-4.916.295-10.231-2.613-14.406-2.616-3.756-6.78-6.346-11.415-6.478-2.698-.076-5.393.673-7.616 2.212-.5.346-.025 1.172.481.822 3.67-2.542 8.579-2.727 12.52-.685 3.897 2.02 6.605 5.808 7.625 10.037.652 2.702.638 5.526.1 8.246h.918c-1.62-4.445-4.969-7.858-9.284-9.744-4.193-1.834-10.154-3.102-11.57-8.177-.164-.59-1.083-.34-.917.253M195.561 67.767c-.516-2.681-2.266-4.997-4.382-6.722-2.117-1.724-4.598-2.93-7.055-4.121-2.456-1.19-4.938-2.397-7.054-4.121.907 2.937 1.827 5.9 3.35 8.571 1.523 2.67 3.721 5.06 6.557 6.25 2.934 1.23 6.31 1.068 9.354.139" transform="translate(33 272) translate(0 13.085)"/>
                <path fill="#006837" d="M196.02 67.64c-1.843-8.888-12.538-10.304-18.614-15.174-.341-.273-.949-.034-.795.463 1.42 4.596 2.97 9.451 6.62 12.805 3.66 3.364 8.585 3.866 13.226 2.488.586-.174.337-1.094-.252-.918-4.505 1.338-9.218.811-12.662-2.587-3.282-3.237-4.688-7.75-6.015-12.041l-.794.463c3.26 2.614 7.19 4.036 10.805 6.056 3.436 1.922 6.726 4.659 7.563 8.698.124.6 1.042.346.917-.253" transform="translate(33 272) translate(0 13.085)"/>
                <path fill="#006837" d="M195.567 66.588c-1.155-3.567-.957-7.462-.067-11.105.888-3.643 2.437-7.085 3.978-10.504-.352 2.689.16 5.406.633 8.077.473 2.67.91 5.414.413 8.08-.498 2.666-2.114 5.28-4.651 6.24" transform="translate(33 272) translate(0 13.085)"/>
                <path fill="#006837" d="M196.026 66.462c-2.289-7.305.893-14.652 3.863-21.243l-.887-.24c-.506 4.258.991 8.353 1.235 12.57.205 3.563-.812 7.895-4.49 9.368-.562.224-.316 1.145.253.917 3.538-1.417 5.112-5.181 5.214-8.785.135-4.743-1.826-9.31-1.26-14.07.055-.462-.698-.66-.887-.24-3.077 6.827-6.33 14.413-3.959 21.976.182.583 1.101.334.918-.253M189.782 133.72c1.756-2.19 3.774-4.17 6.015-5.859.205-.154.313-.411.172-.651-.12-.201-.444-.326-.651-.17-2.31 1.74-4.399 3.748-6.21 6.006-.16.203-.192.475 0 .673.166.168.514.2.674 0M198.585 126.375c-.26-.053-.52-.106-.774-.18l-.173-.056-.114-.042c-.045-.016-.039-.015.001.002-.12-.051-.237-.11-.348-.181l-.057-.038c-.003-.002-.095-.066-.036-.024.058.041-.021-.019-.033-.028l-.065-.058c-.041-.04-.081-.08-.12-.124-.007-.008-.052-.066-.056-.066.011-.002.055.077.013.014-.031-.048-.063-.095-.09-.144-.014-.025-.025-.052-.038-.076-.03-.055.036.107.001.004-.015-.048-.031-.095-.043-.145-.004-.016-.024-.066-.017-.083l.008.06-.005-.068c-.014-.248-.208-.488-.476-.476-.245.01-.491.21-.475.476.037.646.407 1.172.923 1.54.502.357 1.13.49 1.721.61.243.05.526-.07.585-.332.054-.237-.071-.533-.332-.585" transform="translate(33 272) translate(0 13.085)"/>
                <path fill="#006837" d="M196.32 63.737c3.252-4.14-.106-9.835 2.587-14.143.163-.26-.248-.499-.41-.24-2.675 4.278.658 10.01-2.514 14.046-.187.239.147.578.336.337M179.65 55.93c1.99 6.023 8.445 8.254 13.95 9.895.295.087.42-.372.127-.46-5.325-1.586-11.687-3.718-13.618-9.562-.096-.29-.556-.165-.46.127M200 69.562c7.052.886 13.278 5.99 15.547 12.724.097.288.557.164.46-.127-2.345-6.953-8.732-12.16-16.007-13.073-.303-.038-.301.438 0 .476M190.911 73.748c-3.87 3.34-6.16 8.007-7.95 12.707-2.03 5.329-3.647 10.795-6.766 15.628-1.68 2.6-3.673 4.977-5.917 7.106-.223.211.114.548.336.337 3.866-3.667 6.93-8.07 9.052-12.955 2.21-5.088 3.57-10.53 6.172-15.449 1.395-2.639 3.141-5.08 5.41-7.038.231-.2-.106-.535-.337-.336M197.125 87.675c-5.286 9.254-6.42 20.06-10.332 29.853-1.13 2.828-2.508 5.55-4.235 8.062-.173.253.239.492.411.24 6.012-8.75 7.398-19.495 10.775-29.337 1.017-2.964 2.236-5.854 3.792-8.578.152-.267-.259-.506-.41-.24M203.66 86.483c6.083 7.2 10.374 15.854 12.445 25.048.592 2.621.995 5.28 1.22 7.958.025.303.5.306.475 0-.797-9.518-3.915-18.798-9.035-26.865-1.439-2.266-3.036-4.427-4.768-6.477-.198-.234-.533.103-.337.336M201.924 107.121c.557 2.996.987 6.013 1.289 9.044.03.301.506.305.476 0-.306-3.074-.741-6.133-1.305-9.17-.057-.3-.516-.173-.46.126M202.62 128.857c4.41 1.257 8.548 3.308 12.223 6.05.245.183.482-.23.24-.411-3.706-2.765-7.89-4.831-12.337-6.099-.295-.083-.42.375-.126.46M186.578 138.7c-1.351 1.867-1.864 4.105-2.125 6.359-.293 2.532-.391 5.08-.716 7.61-.667 5.203-1.965 10.386-4.732 14.893-.16.262.25.501.41.24 2.655-4.323 3.978-9.268 4.68-14.256.342-2.43.506-4.872.718-7.317.221-2.56.635-5.16 2.176-7.289.18-.249-.233-.487-.41-.24M196.883 132.704c1.68 8.821 2.43 17.799 2.242 26.777-.007.307.47.307.476 0 .189-9.02-.57-18.04-2.26-26.903-.056-.301-.515-.174-.458.126" transform="translate(33 272) translate(0 13.085)"/>
                <path fill="#DBBA8F" d="M195.316 225.6c-9.345 0-16.92-7.575-16.92-16.92v-29.083h33.84v29.083c0 9.345-7.575 16.92-16.92 16.92" transform="translate(33 272) translate(0 13.085)"/>
                <path fill="#DBBA8F" d="M212.236 208.68v-29.083h-4.368c-4.877 14.883-14.619 28.152-27.383 37.231 2.88 5.229 8.44 8.772 14.83 8.772 9.346 0 16.921-7.575 16.921-16.92" transform="translate(33 272) translate(0 13.085)"/>
                <g fill="#491B0B">
                    <path d="M1.439 2.51c-.677 3.614.33 7.699 3.607 9.739 1.811 1.127 3.956 1.508 5.998 2.002 2.266.549 4.536 1.268 6.468 2.613 1.864 1.3 3.23 3.147 3.675 5.396.472 2.385-.012 4.866-.54 7.2-.947 4.168-2.043 8.68.478 12.532 2.273 3.469 6.404 5.527 8.048 9.437.234.556 1.155.312.917-.253-1.422-3.384-4.509-5.43-6.893-8.072-1.408-1.56-2.42-3.351-2.649-5.472-.247-2.3.252-4.608.766-6.839.956-4.152 1.942-8.82-.898-12.485-2.683-3.464-7.005-4.431-11.033-5.427-2.373-.587-4.704-1.465-6.026-3.657-1.158-1.92-1.408-4.285-1-6.462.112-.598-.805-.854-.918-.252" transform="translate(33 272) translate(0 13.085) translate(177.016 176.381)"/>
                    <path d="M.927 21.6c2.358-1.535 5.19-3.344 8.129-2.44 2.76.85 3.478 3.929 2.747 6.447-1.566 5.386-8.089 8.065-8.333 14.064-.11 2.684 1.117 5.36 3.226 7.017.477.374 1.154-.295.673-.673-2.147-1.687-3.342-4.514-2.855-7.236.561-3.135 3.016-5.422 5.01-7.724 1.77-2.044 3.431-4.381 3.506-7.186.066-2.466-1.18-4.799-3.607-5.59-3.237-1.055-6.358.794-8.977 2.5-.511.332-.035 1.157.48.822M10.257 1.866c.27 3.868 2.868 7.294 6.377 8.872 1.896.852 4.225 1.33 6.173.373 1.743-.854 2.747-2.652 3.52-4.347.948-2.077 1.854-4.705 4.208-5.546.572-.206.326-1.125-.253-.918-2.146.767-3.323 2.738-4.216 4.717-.96 2.126-1.951 4.905-4.488 5.535-2.509.622-5.386-.771-7.21-2.43-1.784-1.622-2.99-3.831-3.16-6.256-.041-.607-.993-.612-.951 0M35.297 9.08c-5.294 2.042-8.768 7.387-8.194 13.092.538 5.342 4.24 9.524 6.094 14.398.583 1.532.963 3.12 1.008 4.763.054 2.006-.305 3.99-.663 5.955-.109.6.809.856.918.253.54-2.967 1.027-5.97.35-8.96-.547-2.42-1.704-4.656-2.882-6.821-1.221-2.247-2.536-4.481-3.304-6.936-.852-2.724-.844-5.61.224-8.278 1.204-3.008 3.69-5.386 6.702-6.548.566-.218.32-1.139-.253-.918M13.515 51.518c-1.079-2.467-1.797-5.09-2.111-7.764-.154-1.309-.21-2.629-.174-3.945.036-1.294.076-2.7.445-3.949.178-.602.535-1.283 1.184-1.482.675-.209 1.26.261 1.644.772.753 1.002 1.132 2.333 1.42 3.535.591 2.45.678 4.982 1.106 7.46.432 2.503 1.235 4.953 2.95 6.878.409.458 1.08-.217.674-.673-3.966-4.449-2.383-11.116-4.591-16.298-.42-.985-1.003-2.066-2.04-2.508-1-.426-2.053.018-2.684.848-.757.995-.833 2.386-.948 3.586-.143 1.498-.16 3.009-.056 4.511.23 3.289 1.039 6.49 2.36 9.509.245.56 1.065.075.821-.48" transform="translate(33 272) translate(0 13.085) translate(177.016 176.381)"/>
                </g>
                <path fill="#E7CEA7" d="M165.425 35.88c0-2.921 2.366-5.288 5.287-5.288 2.92 0 5.288 2.367 5.288 5.287s-2.367 5.288-5.288 5.288c-2.92 0-5.287-2.367-5.287-5.288" transform="translate(33 272) translate(0 13.085)"/>
                <path fill="#F7931E" d="M172.502 12.085c-9.893 0-17.912 8.02-17.912 17.912v5.354h35.823v-5.354c0-9.893-8.019-17.912-17.911-17.912" transform="translate(33 272) translate(0 13.085)"/>
                <path stroke="#F7931E" stroke-linecap="round" stroke-width="4" d="M172.401 12.652c.437-.682 1.585-2.408 3.305-4.162C182.03 2.046 190.56.863 194.214.587c14.455 0 26.174 12.082 26.174 26.985v195.384" transform="translate(33 272) translate(0 13.085)"/>
                <path fill="#F7931E" d="M241.01 225.071h-43.36c0-4.38 3.552-7.931 7.932-7.931h27.496c4.38 0 7.931 3.55 7.931 7.931" transform="translate(33 272) translate(0 13.085)"/>
                <path fill="#FBB03B" d="M241.01 225.071c0-4.38-3.552-7.931-7.932-7.931h-5.99c-3.039 3.242-7.36 5.985-10.96 7.931h24.881z" opacity=".249" transform="translate(33 272) translate(0 13.085)"/>
                <path fill="#FBB03B" d="M156.717 35.35h33.696v-5.353c0-4.89-1.96-9.318-5.136-12.551-7.543 8.535-17.588 14.838-28.56 17.905" transform="translate(33 272) translate(0 13.085)"/>
                <path fill="#009245" d="M239.762 139.269c-.013.094-.019.19-.019.285v-.145c0-.051.006-.096.02-.14" transform="translate(33 272) translate(0 13.085)"/>
                <path fill="#009245" d="M249.691 142.022c-.748.857-1.808 1.295-2.868 1.295-.894 0-1.789-.311-2.511-.946-.641-.558-1.022-1.339-1.08-2.183-.05-.85.23-1.668.788-2.303.97-1.103 2.665-1.217 3.768-.24.457.393.724.945.761 1.554.045.603-.158 1.18-.558 1.637-.336.387-.812.621-1.326.654-.52.031-1.015-.14-1.402-.476-.698-.61-.767-1.675-.153-2.367.23-.266.63-.292.895-.057.26.228.286.628.057.895-.076.082-.108.184-.101.291.006.108.057.21.14.279.133.121.31.178.482.166.177-.007.343-.09.456-.222.362-.413.324-1.041-.088-1.403-.584-.507-1.466-.456-1.98.127-.336.38-.5.876-.47 1.383.032.508.26.977.647 1.314.509.444 1.169.66 1.84.628.68-.045 1.301-.35 1.752-.863.59-.666.882-1.53.825-2.417-.058-.895-.457-1.707-1.13-2.297-1.796-1.58-4.543-1.402-6.116.393-.882 1.003-1.307 1.885-1.307 2.69v59.608c0 .349-.286.635-.635.635-.354 0-.634-.286-.634-.635v-32.82c-.336-2.456-2.017-4.518-4.378-5.343-1.307-.457-2.71-.374-3.953.222-1.237.603-2.175 1.65-2.626 2.957-.73 2.081.38 4.371 2.462 5.101 1.605.558 3.362-.292 3.92-1.897.21-.59.172-1.225-.101-1.783-.272-.565-.742-.984-1.332-1.193-.908-.317-1.903.165-2.22 1.073-.115.33-.476.507-.807.393-.33-.114-.508-.476-.393-.812.545-1.567 2.271-2.398 3.832-1.853 1.878.654 2.874 2.716 2.22 4.594-.62 1.789-2.309 2.918-4.11 2.918-.47 0-.952-.082-1.422-.247-2.747-.952-4.207-3.966-3.248-6.713.565-1.624 1.732-2.931 3.273-3.68 1.555-.748 3.3-.844 4.924-.279 1.656.578 3.027 1.662 3.959 3.052v-23.298c0-.095.006-.19.02-.285.076-1.04.602-2.1 1.604-3.242 2.037-2.317 5.584-2.55 7.906-.508 1.91 1.675 2.1 4.594.418 6.503" transform="translate(33 272) translate(0 13.085)"/>
                <path fill="#009245" d="M239.317 152.101c-6.424 0-11.633-5.208-11.633-11.633 6.425 0 11.633 5.209 11.633 11.633" transform="translate(33 272) translate(0 13.085)"/>
                <path stroke="#009245" stroke-linecap="round" d="M239.317 152.101h0c-6.424 0-11.633-5.208-11.633-11.633 6.425 0 11.633 5.209 11.633 11.633z" transform="translate(33 272) translate(0 13.085)"/>
                <path fill="#009245" d="M243.508 196.194c-2.135-14.445 7.842-27.885 22.287-30.02 2.136 14.443-7.842 27.885-22.287 30.02" transform="translate(33 272) translate(0 13.085)"/>
                <path stroke="#009245" stroke-linecap="round" d="M243.508 196.194h0c-2.135-14.445 7.842-27.885 22.287-30.02 2.136 14.443-7.842 27.885-22.287 30.02z" transform="translate(33 272) translate(0 13.085)"/>
                <path fill="#009245" d="M238.011 194.785c-7.374-1.81-11.886-9.253-10.078-16.627 7.375 1.809 11.887 9.252 10.078 16.627" transform="translate(33 272) translate(0 13.085)"/>
                <path stroke="#009245" stroke-linecap="round" d="M238.011 194.785h0c-7.374-1.81-11.886-9.253-10.078-16.627 7.375 1.809 11.887 9.252 10.078 16.627z" transform="translate(33 272) translate(0 13.085)"/>
                <path fill="#009245" d="M246.368 169.127c1.305 3.252-.274 6.946-3.527 8.25-1.303-3.251.275-6.946 3.527-8.25" transform="translate(33 272) translate(0 13.085)"/>
                <path stroke="#009245" stroke-linecap="round" d="M246.368 169.127h0c1.305 3.252-.274 6.946-3.527 8.25-1.303-3.251.275-6.946 3.527-8.25z" transform="translate(33 272) translate(0 13.085)"/>
                <path fill="#009245" d="M262.747 193.073l-.048.11c-1.684 3.853-6.173 5.611-10.026 3.927l-.11-.048.048-.11c1.685-3.853 6.173-5.611 10.026-3.928l.11.049z" transform="translate(33 272) translate(0 13.085)"/>
                <path stroke="#009245" stroke-linecap="round" d="M262.747 193.073l-.048.11c-1.684 3.853-6.173 5.611-10.026 3.927l-.11-.048.048-.11c1.685-3.853 6.173-5.611 10.026-3.928l.11.049z" transform="translate(33 272) translate(0 13.085)"/>
                <path fill="#009245" d="M235.133 196.74c-2.27.833-4.787-.331-5.62-2.602 2.27-.834 4.787.331 5.62 2.602" transform="translate(33 272) translate(0 13.085)"/>
                <path stroke="#009245" stroke-linecap="round" d="M235.133 196.74h0c-2.27.833-4.787-.331-5.62-2.602 2.27-.834 4.787.331 5.62 2.602z" transform="translate(33 272) translate(0 13.085)"/>
                <path fill="#009245" d="M250.153 153.435c.288 4.956-3.497 9.207-8.453 9.495-.287-4.957 3.497-9.208 8.453-9.495" transform="translate(33 272) translate(0 13.085)"/>
                <path stroke="#009245" stroke-linecap="round" d="M250.153 153.435h0c.288 4.956-3.497 9.207-8.453 9.495-.287-4.957 3.497-9.208 8.453-9.495z" transform="translate(33 272) translate(0 13.085)"/>
                <path fill="#009245" d="M245.78 192.76c4.461-7.674 9.716-14.865 15.676-21.446.205-.226-.13-.563-.337-.336-5.985 6.61-11.268 13.834-15.75 21.543-.155.265.256.505.41.24M229.268 180.218c2.668 3.627 4.848 7.589 6.47 11.788.11.283.57.16.46-.126-1.639-4.24-3.826-8.241-6.52-11.902-.18-.245-.593-.007-.41.24M255.18 196.05c1.468-.874 3.044-1.537 4.695-1.972.297-.078.17-.537-.126-.46-1.688.446-3.309 1.127-4.809 2.022-.262.157-.023.568.24.41M243.59 175.285c.692-1.539 1.462-3.042 2.304-4.504.154-.265-.257-.505-.41-.24-.843 1.462-1.613 2.965-2.305 4.503-.125.278.285.52.41.24M243.01 161.507l5.715-6.283c.205-.226-.13-.564-.336-.337-1.906 2.095-3.81 4.19-5.716 6.283-.205.226.13.563.337.337M229.585 142.115c2.976 2.322 5.674 4.982 8.04 7.924.192.238.526-.1.336-.337-2.365-2.942-5.063-5.601-8.04-7.923-.24-.186-.578.148-.336.336" transform="translate(33 272) translate(0 13.085)"/>
                <path fill="#E7CEA7" d="M244.41 225.071h-4.898c-6.24 0-11.298-5.06-11.298-11.3v-14.61h27.496v14.61c0 6.24-5.06 11.3-11.3 11.3" transform="translate(33 272) translate(0 13.085)"/>
                <g>
                    <path fill="#491B0B" d="M1.772 12.951c4.859-1.837 7.969-6.704 7.475-11.903-.058-.604-1.01-.61-.952 0 .451 4.752-2.292 9.29-6.776 10.986-.568.214-.322 1.134.253.917" transform="translate(33 272) translate(0 13.085) translate(225.87 195.415)"/>
                    <path fill="#491B0B" d="M1.766 9.712C4.898 8.178 6.518 4.62 5.694 1.24c-.145-.594-1.063-.342-.917.254.729 2.99-.743 6.05-3.492 7.397-.55.27-.068 1.09.481.821M2.602 17.79c3.373.155 6.626 1.626 8.934 4.1 2.363 2.534 3.57 5.988 3.427 9.435-.026.612.926.611.951 0 .153-3.696-1.177-7.396-3.705-10.108-2.48-2.658-5.99-4.212-9.607-4.38-.612-.027-.61.925 0 .952" transform="translate(33 272) translate(0 13.085) translate(225.87 195.415)"/>
                    <path fill="#491B0B" d="M2.277 20.55c4.888 1.062 8.37 5.426 8.297 10.435-.009.613.943.613.951 0 .079-5.41-3.705-10.204-8.995-11.353-.597-.13-.852.788-.253.918M11.291 3.554c-1.79 5.285 2.107 9.926 5.284 13.681 1.773 2.097 3.551 4.318 4.318 7.005.788 2.756.518 5.744-.716 8.327-.262.55.558 1.034.823.48 1.113-2.33 1.527-4.915 1.15-7.476-.393-2.659-1.705-4.974-3.327-7.076-3.188-4.135-8.596-8.837-6.614-14.688.197-.582-.722-.831-.918-.253M23.752 3.135c.243 4.53 3.293 8.443 7.636 9.76.588.179.838-.74.253-.917-3.923-1.191-6.717-4.744-6.937-8.843-.033-.61-.985-.613-.952 0" transform="translate(33 272) translate(0 13.085) translate(225.87 195.415)"/>
                    <path fill="#491B0B" d="M20.136 2.275C20.753 9.2 24.8 15.58 30.833 19.053c.532.306 1.012-.516.48-.822-5.725-3.295-9.639-9.37-10.225-15.956-.054-.606-1.007-.611-.952 0" transform="translate(33 272) translate(0 13.085) translate(225.87 195.415)"/>
                    <path stroke="#42210B" stroke-linecap="round" stroke-width="2" d="M0.104 10.075L32.524 10.075" transform="translate(33 272) translate(0 13.085) translate(225.87 195.415)"/>
                </g>
                <path fill="#DBBA8F" d="M231.388 219.425l-.808.193c-.115.21-.212.428-.306.646 2.045 2.904 5.417 4.807 9.239 4.807h4.897c6.24 0 11.3-5.059 11.3-11.299v-14.61h-3.257c-4.447 8.88-11.98 16.225-21.065 20.263" opacity=".249" transform="translate(33 272) translate(0 13.085)"/>
                <path fill="#DBBA8F" d="M144.353 162.677H11.103v-13.65c0-17.576 14.25-31.824 31.825-31.824h69.6c17.577 0 31.825 14.248 31.825 31.824v13.65z" transform="translate(33 272) translate(0 13.085)"/>
                <path fill="#E7CEA7" d="M152.92 203.392h-22.737v-55.576c0-5.226 4.237-9.463 9.463-9.463h3.81c5.226 0 9.463 4.237 9.463 9.463v55.576z" transform="translate(33 272) translate(0 13.085)"/>
                <path fill="#E7CEA7" d="M155.457 203.392H132.72v-55.576c0-5.226 4.237-9.463 9.463-9.463h3.811c5.226 0 9.463 4.237 9.463 9.463v55.576zM25.275 203.392H2.538v-55.576c0-5.226 4.236-9.463 9.463-9.463h3.81c5.227 0 9.464 4.237 9.464 9.463v55.576z" transform="translate(33 272) translate(0 13.085)"/>
                <path fill="#E7CEA7" d="M22.737 203.392H0v-55.576c0-5.226 4.237-9.463 9.463-9.463h3.81c5.227 0 9.464 4.237 9.464 9.463v55.576z" transform="translate(33 272) translate(0 13.085)"/>
                <path fill="#DBBA8F" d="M22.737 203.392L132.721 203.392 132.721 188.586 22.737 188.586z" transform="translate(33 272) translate(0 13.085)"/>
                <path fill="#E7CEA7" d="M128.227 192.393H27.758c-2.773 0-5.021-2.249-5.021-5.022v-20.888h110.512v20.888c0 2.773-2.248 5.022-5.022 5.022" transform="translate(33 272) translate(0 13.085)"/>
                <path fill="#E7CEA7" d="M22.737 188.586L133.249 188.586 133.249 162.677 22.737 162.677z" transform="translate(33 272) translate(0 13.085)"/>
                <path fill="#F7931E" d="M150.698 227.186L147.394 227.186 142.503 203.392 149.112 203.392zM9.782 227.186L13.087 227.186 17.978 203.392 11.368 203.392z" transform="translate(33 272) translate(0 13.085)"/>
                <path fill="#1A1A1A" d="M89.22 25.801c-5.738.204-10.23 4.861-10.034 10.401.004.13.024.257.034.387-1.934-1.511-4.4-1.99-6.53-1.016-3.242 1.481-4.468 5.748-2.74 9.53 1.729 3.781 5.758 5.646 9 4.165 2.271-1.039 3.548-3.446 3.516-6.095 1.947 1.758 4.59 2.794 7.467 2.693 5.738-.205 10.23-4.86 10.033-10.402-.197-5.54-5.008-9.866-10.746-9.663" transform="translate(33 272) translate(0 13.085)"/>
                <path fill="#000" d="M99.95 36.443c-2.663-1.782-6.082-2.418-9.305-2.088-3.95.406-7.656 2.104-11.082 4.112-1.326.777-2.635 1.61-4.078 2.14-1.444.528-3.064.733-4.515.226-.595-.208-1.145-.56-1.598-1.002-.384 1.642-.228 3.508.578 5.272 1.729 3.781 5.758 5.646 9 4.165 2.271-1.039 3.548-3.446 3.517-6.095 1.945 1.758 4.589 2.794 7.465 2.693 5.397-.193 9.69-4.323 10.018-9.423" transform="translate(33 272) translate(0 13.085)"/>
                <path fill="#1A1A1A" d="M108.88 58.36c.39 10.943-7.872 20.12-18.451 20.496-10.58.375-19.47-8.193-19.86-19.136-.389-10.945 7.873-20.121 18.453-20.497 10.58-.375 19.47 8.192 19.859 19.136" transform="translate(33 272) translate(0 13.085)"/>
                <path fill="#F1B596" d="M80.833 73.111s-.625 12.192-.531 14.834c1.113 1.548 5.453 4.568 5.453 4.568l6.738-3.943-.3-8.454-11.36-7.005z" transform="translate(33 272) translate(0 13.085)"/>
                <path fill="#F1B596" d="M80.66 76.706c2.491 3.603 6.284 7.285 11.707 8.317l-.174-4.907-11.36-7.005s-.078 1.518-.174 3.595" transform="translate(33 272) translate(0 13.085)"/>
                <path fill="#F1B596" d="M74.618 66.077c.85 2.506 5.862 15.596 17.831 16.122.228.01.459-.027.674-.105 8.22-2.998 15.203-9.54 14.908-17.885-.3-8.455-5.942-18.307-12.32-19.139-6.38-.832-16.27 3.752-19.14 12.32-1.388 4.72-1.864 6.973-2.018 7.835-.051.287-.029.576.065.852M48.646 153.159l36.931 7.083c1.038.199 1.9.92 2.276 1.907l5.334 13.95c.64 1.677.065 3.567-1.388 4.62-2.186 1.581-5.453 2.69-7.725-2.18-1.9-4.07-2.964-6.888-3.55-8.666-.459-1.394-1.84-2.265-3.296-2.071-6.51.863-23.406 2.804-30.168.691-8.46-2.643 1.586-15.334 1.586-15.334M101.523 185.414l-8.893 24.21c-.399 1.084-.332 2.285.185 3.319l6.923 13.845c.824 1.649 2.463 2.73 4.303 2.84 3.494.21 8.435-.11 5.942-4.028-2.36-3.71-4.936-7.419-6.492-9.619-.884-1.251-1.013-2.884-.339-4.26L115.272 187l-13.22-1.586" transform="translate(33 272) translate(0 13.085)"/>
                <path fill="#F1B596" d="M112.002 192.673c-.078-.106-.207-.16-.33-.207-2.334-.9-4.773-1.526-7.253-1.859-1.511-.203-3.082-.317-4.52-.775l-.84 2.288c.805 1.37 1.825 2.615 3.02 3.662 1.96 1.715 4.377 2.9 6.932 3.397.087.017.178.032.27.041l2.448-4.996c.094-.312.195-.623.286-.937.059-.204.112-.442-.013-.614" transform="translate(33 272) translate(0 13.085)"/>
                <path fill="#491B0B" d="M62.394 175.896s-2.643-13.22 2.115-19.565c9.518 1.587 22.209 4.231 22.209 4.231s8.26 2.203 13.456 3.628c2.119.581 3.3 2.837 2.567 4.908-2.762 7.817-6.506 20.546-6.506 20.546s11.633 10.047 23.795 3.172c4.23-12.161 13.219-34.898 8.989-40.185-3.172-4.231-26.967-11.105-26.967-11.105l-39.658-1.586s-36.485.528-38.07 18.507c-1.058 8.989 13.218 17.449 38.07 17.449" transform="translate(33 272) translate(0 13.085)"/>
                <path fill="#491B0B" d="M62.43 160.94c-1.36.094-2.739.285-4.04.402-6.358.568-13.067-1.528-17.44-6.177-2.594-2.755-4.218-6.432-4.575-10.182-6.332 2.738-11.477 6.957-12.052 13.463-1.057 8.99 13.22 17.45 38.071 17.45 0 0-1.665-8.344.037-14.955" transform="translate(33 272) translate(0 13.085)"/>
                <path fill="#E9937F" d="M63.98 113.501s-8.988 10.576-.528 18.508c0 6.344-.529 10.575-.529 10.575s-22.208-7.932-6.874-34.37c2.644-5.288 7.932 5.287 7.932 5.287" transform="translate(33 272) translate(0 13.085)"/>
                <path fill="#F1B596" d="M103.905 113.501s8.99 10.576.529 18.508c0 6.344.529 10.575.529 10.575s22.208-7.932 6.873-34.37c-2.643-5.288-7.931 5.287-7.931 5.287" transform="translate(33 272) translate(0 13.085)"/>
                <path fill="#491B0B" d="M106.338 160.071c-.831-.488-1.817-.618-2.773-.738-11.98-1.508-23.958-4.285-35.937-5.793-.99-.125-2.107-.216-2.876.42-.571.474-.785 1.967-.719 3.074.151-.242.308-.477.476-.703 9.518 1.587 22.209 4.23 22.209 4.23s8.26 2.204 13.455 3.629c2.12.58 3.3 2.836 2.569 4.908-2.763 7.817-6.507 20.546-6.507 20.546s3.397 2.928 8.434 4.54c.231-.154.454-.32.656-.52 1.418-1.398 1.636-3.574 1.772-5.56l1.43-20.884c.09-1.314.178-2.647-.095-3.935-.273-1.288-.958-2.547-2.094-3.214" transform="translate(33 272) translate(0 13.085)"/>
                <path fill="#F1B596" d="M63.373 169.196c-.052-4.37.587-8.749 2.173-12.796l-5.2-.997c-.339.395-.642.823-.916 1.266-2.3 3.72-2.89 8.227-3.194 12.59l-.01.185c2.298.002 4.738-.094 7.147-.248" transform="translate(33 272) translate(0 13.085)"/>
                <path fill="#FBB03B" d="M62.923 115.088s-8.46-2.115-11.633-8.99c2.871-4.306 8.179-10.318 11.292-13.736 1.577-1.732 3.622-2.958 5.892-3.537 4.296-1.095 11.111-2.819 11.833-2.819 1.586 3.172 9.489 4.229 12.133 1.056 3.058-.305 7.274.805 10.204 1.795 2.272.767 4.26 2.199 5.71 4.11l9.56 12.603s-3.172 6.874-13.218 8.46c-.53 10.576-.53 25.91-.53 25.91l-41.771-.53.528-24.322z" transform="translate(33 272) translate(0 13.085)"/>
                <path fill="#FBB03B" d="M104.167 139.94s0-5.314.108-11.842c-2.294-2.755-5.07-5.156-7.868-7.422-4.343-3.516-8.9-6.905-12.236-11.389-4.795-6.447-6.616-14.624-6.61-22.72-2.555.599-6.335 1.557-9.087 2.258-2.27.579-4.315 1.805-5.892 3.537-3.114 3.418-8.42 9.43-11.291 13.737 3.172 6.874 11.632 8.989 11.632 8.989l-.529 24.323 41.773.529z" transform="translate(33 272) translate(0 13.085)"/>
                <path fill="#1A1A1A" d="M75.683 62.183c.529-.019 9.362-4.565 11.648-14.699.697 4.737 5.622 9.324 12.567 11.194 6.944 1.87 8.151 6.06 8.189 7.117.303-6.36.021-14.287-2.695-16.307-2.718-2.02-6.623-7.7-18.192-5.703-6.832 1.3-12.817 11.566-12.045 18.417" transform="translate(33 272) translate(0 13.085)"/>
                <path fill="#1A1A1A" d="M108.054 60.543c.62 1.597 1.056 3.24 1.384 4.916.31 1.678.494 3.399.329 5.173-.077.875-.288 1.82-.647 2.615-.337.812-.762 1.54-1.14 2.267-.758 1.416-1.406 2.96-1.075 4.582l-.181.06c-.344-.788-.411-1.691-.308-2.55.095-.863.34-1.708.624-2.501.284-.795.58-1.565.803-2.315.228-.76.314-1.466.321-2.246 0-1.545-.282-3.138-.599-4.712-.334-1.575-.76-3.145-1.234-4.68l1.723-.609z" transform="translate(33 272) translate(0 13.085)"/>
                <path fill="#F1B596" d="M77.58 64.262c.675 2.388-.142 4.712-1.828 5.19-1.686.477-3.601-1.072-4.278-3.46-.676-2.388.142-4.711 1.827-5.189 1.686-.478 3.602 1.071 4.278 3.46" transform="translate(33 272) translate(0 13.085)"/>
            </g>
            <g transform="translate(33 272) translate(50.757 98.737)">
                <mask id="prefix__l" fill="#fff">
                    <use xlink:href="#prefix__k"/>
                </mask>
                <path fill="#FFF" d="M4.034 12.931l45.486-.422 12.837-.12c.612-.005.613-.957 0-.951l-45.486.422-12.837.12c-.612.005-.613.957 0 .951" mask="url(#prefix__l)"/>
                <mask id="prefix__n" fill="#fff">
                    <use xlink:href="#prefix__m"/>
                </mask>
                <path fill="#FFF" d="M4.034 6.374l45.486-.423 12.837-.119c.612-.006.613-.957 0-.952l-45.486.423-12.837.12c-.612.005-.613.957 0 .951" mask="url(#prefix__n)"/>
                <g>
                    <mask id="prefix__p" fill="#fff">
                        <use xlink:href="#prefix__o"/>
                    </mask>
                    <path fill="#FFF" d="M.64 19.618c17.538.361 35.082.417 52.622.162 4.965-.071 9.93-.17 14.896-.29.611-.016.614-.967 0-.952-17.536.428-35.08.55-52.62.362-4.966-.052-9.932-.131-14.897-.234-.613-.013-.613.94 0 .952" mask="url(#prefix__p)"/>
                </g>
                <g>
                    <use fill="#3F50B5" xlink:href="#prefix__q"/>
                </g>
            </g>
            <g>
                <path stroke="#FBB03B" stroke-linecap="round" stroke-width=".75" d="M45.05 75.787c3.015 3.263 4.424 7.944 3.711 12.329-.357 2.2-1.217 4.418-.724 6.592M8.148 85.216L8.148 91.911" transform="translate(33 272) translate(55.833 39.098)"/>
                <path fill="#1A1A1A" d="M30.485 37.644c.036 1.022-.408 1.867-.991 1.888-.584.02-1.086-.79-1.123-1.812-.036-1.022.408-1.867.99-1.887.585-.021 1.088.79 1.124 1.811M44.498 37.411c.036 1.022-.408 1.867-.991 1.888-.584.02-1.087-.79-1.123-1.812-.037-1.022.408-1.867.991-1.887.584-.021 1.087.79 1.123 1.811" transform="translate(33 272) translate(55.833 39.098)"/>
                <path stroke="#FFF" stroke-width="2" d="M24.153 38.134c-.114-3.21 2.396-5.905 5.606-6.02 3.21-.114 5.906 2.397 6.02 5.607.113 3.21-2.396 5.905-5.607 6.019-3.21.114-5.905-2.396-6.019-5.606zM38.95 37.608c-.115-3.21 2.395-5.905 5.605-6.019 3.21-.114 5.906 2.397 6.02 5.607.114 3.21-2.396 5.905-5.607 6.019-3.21.114-5.905-2.396-6.019-5.607z" transform="translate(33 272) translate(55.833 39.098)"/>
                <path stroke="#1A1A1A" stroke-linecap="round" d="M41.62 30.9s3.078-2.755 6.342-.225M25.768 31.463s3.077-2.755 6.341-.225M33.72 46.047s2.4 4.711 7.202 1.79M32.361 45.779s1.075.49 2.095-.603" transform="translate(33 272) translate(55.833 39.098)"/>
                <path stroke="#FFF" stroke-width="2" d="M35.782 36.636L38.978 36.636" transform="translate(33 272) translate(55.833 39.098)"/>
                <path fill="#BDCCD4" d="M48.246 123.445H5.945c-1.315 0-2.38-1.066-2.38-2.38 0-1.314 1.065-2.38 2.38-2.38h42.3c1.315 0 2.38 1.066 2.38 2.38 0 1.314-1.065 2.38-2.38 2.38" opacity=".201" transform="translate(33 272) translate(55.833 39.098)"/>
                <path fill="#F2F2F2" d="M48.246 118.685H5.416L.58 90.885c-.237-1.36.809-2.604 2.188-2.604h48.607c1.394 0 2.444 1.27 2.182 2.64l-5.312 27.764z" transform="translate(33 272) translate(55.833 39.098)"/>
                <path fill="#BDCCD4" d="M23.923 103.88c0-1.752 1.42-3.172 3.172-3.172 1.753 0 3.172 1.42 3.172 3.172 0 1.753-1.42 3.173-3.172 3.173-1.752 0-3.172-1.42-3.172-3.173" transform="translate(33 272) translate(55.833 39.098)"/>
                <path fill="#BDCCD4" d="M48.072 118.685C31.298 113.366 16.305 102.54 5.99 88.281H2.77c-1.379 0-2.424 1.244-2.188 2.603l4.835 27.801h42.656z" opacity=".201" transform="translate(33 272) translate(55.833 39.098)"/>
                <path fill="#BDCCD4" d="M50.341 122.17c-.308-.282-.674-.51-1.061-.646-1.111-.39-2.327-.25-3.5-.155-6.342.517-12.788-.43-18.738-2.683H5.944c-1.314 0-2.379 1.065-2.379 2.38 0 1.313 1.065 2.379 2.38 2.379h42.301c.912 0 1.696-.52 2.095-1.274" transform="translate(33 272) translate(55.833 39.098)"/>
                <path fill="#1A1A1A" d="M42.02 16.225c1.506-.564 2.657-1.75 3.366-3.176.838-1.689 1.058-3.584 1.212-5.438.05-.61-.902-.607-.952 0-.235 2.831-.817 6.548-3.878 7.696-.568.213-.322 1.133.253.918M24.25 10.192c-1.546-3.05-.996-6.754 1.354-9.23.421-.446-.25-1.12-.673-.674-2.655 2.8-3.246 6.946-1.502 10.384.277.547 1.098.066.822-.48M22.617 33.68c-1.236 1.417-1.499 3.107-1.368 4.72.16 1.629.504 3.384.971 5.216.225.914.434 1.86.525 2.836.098.976.045 1.982-.142 2.93-.404 1.901-1.21 3.608-2.046 5.267l-.177-.072c.558-1.77 1.157-3.543 1.28-5.33.189-1.78-.27-3.472-.898-5.195-.312-.86-.662-1.734-.967-2.658-.296-.924-.49-1.927-.449-2.965.044-1.034.306-2.102.848-2.996.526-.896 1.359-1.655 2.324-1.915l.099.162z" transform="translate(33 272) translate(55.833 39.098)"/>
                <path fill="#FFF" d="M37.724 2.96c1.466.845 2.54 2.365 2.978 4.038.431 1.674.23 3.526-.642 4.976.394-1.63.432-3.269.028-4.818-.398-1.55-1.227-2.965-2.364-4.197M35.277 20.739c.78 1.545 1.665 2.973 2.755 4.253 1.079 1.288 2.337 2.401 3.728 3.43-1.637-.587-3.08-1.688-4.213-3.022-1.123-1.342-1.965-2.95-2.27-4.661M38.525 10.796c-.036-.716-.026-1.341-.078-1.98-.036-.64-.127-1.258-.186-1.973.52.507.765 1.222.819 1.93.04.71-.109 1.45-.555 2.023" transform="translate(33 272) translate(55.833 39.098)"/>
            </g>
        </g>
    </g>
</svg>
