<svg width="1366" height="847" viewBox="0 0 1366 847" fill="none" xmlns="http://www.w3.org/2000/svg">
<g filter="url(#filter0_d)">
<path d="M528.613 24.4335L38.5176 128.606C32.5166 129.882 28.6859 135.781 29.9614 141.782L169.921 800.24C171.197 806.241 177.095 810.071 183.096 808.796L673.191 704.623C679.192 703.347 683.023 697.449 681.747 691.448L541.788 32.9898C540.512 26.9887 534.614 23.158 528.613 24.4335Z" fill="white"/>
</g>
<path d="M29.5603 139.893C28.5062 134.934 31.6721 130.059 36.6311 129.005L530.497 24.0306C535.458 22.9765 540.333 26.1422 541.387 31.1015L603.418 322.932L91.5908 431.725L29.5603 139.893Z" fill="#E6E4FF"/>
<path d="M209.993 171.93L124.689 190.062C103.613 194.542 90.1584 215.26 94.6384 236.336L112.77 321.641C117.25 342.717 137.968 356.171 159.045 351.691L244.349 333.559C265.425 329.079 278.88 308.362 274.4 287.285L256.268 201.981C251.788 180.904 231.07 167.45 209.993 171.93Z" fill="#8C84E5"/>
<path d="M511.562 133.636L284.832 181.829C282.353 182.356 280.77 184.793 281.297 187.273L287.179 214.944C287.706 217.424 290.143 219.006 292.623 218.479L519.352 170.287C521.832 169.759 523.415 167.322 522.888 164.842L517.006 137.171C516.479 134.692 514.042 133.109 511.562 133.636Z" fill="#6A5FDA"/>
<path d="M521.788 181.741L295.058 229.934C292.578 230.461 290.995 232.899 291.523 235.378L303.247 290.538C303.774 293.017 306.211 294.6 308.691 294.073L535.421 245.88C537.9 245.353 539.483 242.916 538.956 240.436L527.232 185.277C526.705 182.797 524.267 181.214 521.788 181.741Z" fill="#9F98EE"/>
<path d="M280.755 515.867L173.002 538.77C166.803 540.088 162.846 546.182 164.164 552.381L187.067 660.133C188.385 666.332 194.478 670.289 200.677 668.972L308.43 646.068C314.629 644.751 318.586 638.657 317.269 632.458L294.365 524.705C293.047 518.506 286.954 514.549 280.755 515.867Z" fill="#FFDB96"/>
<path d="M424.425 485.33L318.917 507.757C312.718 509.074 308.761 515.168 310.079 521.367L332.982 629.12C334.3 635.319 340.393 639.276 346.592 637.958L452.1 615.532C458.299 614.214 462.256 608.121 460.938 601.922L438.035 494.169C436.717 487.97 430.624 484.013 424.425 485.33Z" fill="#5977BB"/>
<path d="M572.586 453.838L464.833 476.741C458.634 478.059 454.677 484.152 455.995 490.351L478.898 598.104C480.216 604.303 486.309 608.26 492.508 606.942L600.261 584.039C606.46 582.721 610.417 576.628 609.099 570.429L586.196 462.676C584.878 456.477 578.785 452.52 572.586 453.838Z" fill="#4BA2ED"/>
<path d="M536.49 503.754L536.487 503.743L539.338 503.138L540.422 503.124C541.146 503.11 541.813 503.154 542.427 503.254C543.04 503.353 543.643 503.492 544.235 503.671C544.827 503.851 545.369 504.048 545.866 504.258C546.356 504.468 546.807 504.703 547.219 504.968C547.628 505.237 548.17 505.212 548.847 504.896C549.525 504.581 550.244 504.189 551.004 503.721C551.765 503.254 552.508 502.753 553.233 502.217C553.96 501.681 554.4 501.343 554.555 501.208C554.704 501.069 554.784 500.995 554.795 500.986L554.801 500.967L554.851 500.928L554.9 500.89L554.95 500.848L554.997 500.81L555.005 500.793L555.019 500.776L555.033 500.762L555.041 500.743L555.091 500.715L555.144 500.693L555.152 500.779V500.865L555.144 500.951L555.133 501.039L555.116 501.1L555.102 501.161L555.091 501.249C555.086 501.307 555.083 501.385 555.083 501.479C555.083 501.575 554.989 501.976 554.795 502.687C554.602 503.395 554.328 504.133 553.977 504.894C553.623 505.657 553.285 506.249 552.965 506.669C552.644 507.092 552.434 507.385 552.334 507.548C552.235 507.714 552.107 507.875 551.95 508.029L551.715 508.27L551.665 508.309L551.615 508.347L551.607 508.367L551.593 508.381L551.579 508.394L551.571 508.414L551.524 508.452L551.474 508.491L551.466 508.511L551.452 508.524L551.438 508.538L551.43 508.558L551.424 508.577L551.411 508.591L551.397 508.605L551.389 508.624L551.662 508.566L553.128 507.91C554.104 507.474 555.025 507.001 555.89 506.492L557.265 505.685L557.419 505.596L557.494 505.549L557.544 505.51L557.594 505.472L557.641 505.433L557.69 505.394L557.798 505.355L557.903 505.32L557.928 505.43L557.903 505.447L557.878 505.469L557.87 505.488L557.856 505.502L557.842 505.516L557.834 505.535L557.829 505.555L557.815 505.568L557.801 505.582L557.793 505.602L557.784 505.621L557.771 505.635L557.754 505.696L557.74 505.756L557.726 505.77C557.721 505.784 557.555 506.144 557.226 506.851C556.9 507.562 556.72 507.924 556.684 507.941C556.651 507.958 556.612 508.024 556.568 508.137C556.526 508.253 556.225 508.743 555.663 509.606C555.102 510.471 554.541 511.254 553.974 511.953C553.407 512.658 553.205 513.419 553.371 514.234C553.532 515.05 553.686 515.977 553.83 517.013C553.974 518.053 554.074 519.187 554.123 520.417C554.176 521.648 554.151 523.055 554.049 524.645C553.946 526.233 553.744 527.803 553.446 529.354C553.144 530.909 552.788 532.322 552.37 533.593C551.953 534.868 551.554 535.955 551.173 536.856C550.791 537.758 550.393 538.618 549.973 539.431C549.555 540.247 549.005 541.181 548.322 542.235C547.636 543.285 547.263 543.861 547.202 543.963C547.133 544.06 546.84 544.436 546.317 545.091C545.8 545.746 545.236 546.413 544.622 547.088C544.014 547.76 543.444 548.335 542.913 548.81C542.385 549.286 541.744 549.836 540.986 550.464C540.234 551.092 539.404 551.703 538.5 552.297C537.596 552.892 536.628 553.47 535.602 554.031C534.576 554.592 533.57 555.073 532.585 555.474C531.604 555.873 530.475 556.276 529.206 556.68L527.301 557.286L527.307 557.313L523.742 558.068L523.737 558.043L523.267 558.112C522.951 558.162 522.691 558.198 522.487 558.223C522.282 558.245 521.502 558.306 520.147 558.403C518.793 558.5 517.722 558.538 516.934 558.513C516.146 558.491 514.957 558.381 513.37 558.184C511.78 557.985 510.403 557.739 509.242 557.44C508.083 557.145 507.353 556.954 507.057 556.874C506.767 556.793 506.435 556.688 506.062 556.556L505.506 556.359L505.492 556.345L505.473 556.34L505.453 556.332L505.439 556.318L505.379 556.301L505.318 556.285L505.304 556.271L505.285 556.265L505.265 556.257L505.251 556.243L505.238 556.229L505.218 556.221L505.191 556.227L505.166 556.116H505.224L505.282 556.121L505.536 556.097C505.702 556.08 506.156 556.011 506.897 555.892C507.635 555.773 508.409 555.61 509.225 555.397C510.041 555.187 510.862 554.924 511.694 554.614C512.527 554.305 513.492 553.871 514.595 553.309C515.698 552.751 516.697 552.153 517.584 551.517C518.469 550.879 519.094 550.411 519.462 550.11C519.827 549.817 520.369 549.294 521.09 548.55L522.169 547.433L522.177 547.414L522.191 547.4L522.205 547.386L522.213 547.367L522.221 547.348L522.235 547.334L522.249 547.32L522.255 547.301L522.307 547.273L522.36 547.248V547.193L522.362 547.135L522.379 547.118L522.384 547.101L521.942 547.165C521.643 547.209 521.359 547.251 521.079 547.292C520.803 547.331 520.355 547.342 519.738 547.32C519.124 547.298 518.447 547.212 517.709 547.063C516.97 546.913 516.237 546.709 515.513 546.441C514.789 546.175 514.255 545.94 513.915 545.733C513.577 545.531 513.132 545.235 512.579 544.848C512.032 544.458 511.537 544.04 511.1 543.598C510.663 543.156 510.223 542.633 509.781 542.027L509.114 541.129L509.067 541.051L509.023 540.974L508.995 540.924L508.973 540.871L509.056 540.863H509.142L509.764 540.816C510.176 540.786 510.812 540.672 511.667 540.471C512.521 540.269 513.107 540.106 513.425 539.981C513.741 539.857 513.934 539.779 514.003 539.743L514.108 539.694L514.238 539.638L514.371 539.58L514.377 539.561L514.393 539.547L514.407 539.533L514.412 539.514L514.299 539.511L514.183 539.505L514.067 539.503L513.951 539.497L513.837 539.494C513.76 539.492 513.624 539.481 513.428 539.467C513.234 539.45 512.698 539.353 511.822 539.176C510.945 538.999 510.232 538.798 509.687 538.571C509.142 538.341 508.611 538.079 508.1 537.78C507.588 537.476 507.01 537.069 506.366 536.555C505.721 536.043 505.113 535.419 504.535 534.683C503.957 533.945 503.49 533.223 503.131 532.518C502.771 531.816 502.478 531.083 502.251 530.325L501.908 529.197L501.966 529.194L502.024 529.2L502.085 529.216L502.146 529.233L502.207 529.247L502.265 529.263L503.197 529.465C503.819 529.601 504.568 529.672 505.448 529.675C506.327 529.681 506.85 529.672 507.018 529.656L507.273 529.631L507.765 529.526L507.751 529.512L507.732 529.504L507.712 529.498L507.699 529.484L507.685 529.471L507.665 529.462L507.646 529.454L507.632 529.44L507.571 529.424L507.511 529.41L507.497 529.396L507.477 529.388L507.458 529.379L507.444 529.366L507.383 529.349L507.323 529.335L507.309 529.321C507.295 529.316 507.115 529.23 506.761 529.07C506.413 528.904 506.037 528.671 505.63 528.376C505.224 528.08 504.812 527.767 504.4 527.435C503.982 527.101 503.598 526.733 503.247 526.332C502.895 525.931 502.5 525.409 502.066 524.761C501.635 524.12 501.272 523.459 500.974 522.779C500.675 522.096 500.446 521.41 500.28 520.719C500.114 520.03 500.006 519.433 499.953 518.927C499.904 518.421 499.895 517.84 499.928 517.185C499.962 516.53 500.058 515.822 500.222 515.061L500.465 513.919L500.476 513.831L500.487 513.745L500.501 513.728L500.506 513.709L500.515 513.692L500.528 513.676L500.548 513.684L500.562 513.698L500.575 513.712L500.595 513.72L500.614 513.728L500.628 513.742L500.642 513.756L500.661 513.764L500.7 513.811L500.739 513.861L500.758 513.869L500.772 513.883L501.687 514.547C502.298 514.992 503.012 515.479 503.833 516.012C504.651 516.543 505.102 516.814 505.18 516.825C505.26 516.839 505.368 516.903 505.509 517.019C505.647 517.13 506.081 517.376 506.811 517.757C507.541 518.136 508.478 518.556 509.629 519.018C510.776 519.483 512.032 519.911 513.398 520.31C514.761 520.708 516.202 521.02 517.722 521.252C519.24 521.482 520.302 521.62 520.902 521.665C521.505 521.709 522.517 521.712 523.941 521.676C525.365 521.642 526.433 521.587 527.143 521.512C527.854 521.438 528.338 521.377 528.595 521.335L528.982 521.264L528.955 521.183L528.919 521.106L528.664 520.445C528.493 520.003 528.321 519.372 528.147 518.548C527.973 517.727 527.876 516.955 527.854 516.234C527.835 515.512 527.879 514.768 527.981 513.999C528.086 513.233 528.216 512.609 528.368 512.125C528.526 511.643 528.747 511.088 529.032 510.454C529.32 509.821 529.718 509.144 530.235 508.422C530.749 507.703 531.369 507.026 532.093 506.395C532.82 505.765 533.503 505.256 534.148 504.869C534.792 504.484 535.342 504.205 535.804 504.031C536.263 503.857 536.49 503.765 536.49 503.754Z" fill="white"/>
<path d="M304.019 663.433L211.768 683.041C209.967 683.424 208.817 685.194 209.2 686.995L211.631 698.432C212.014 700.233 213.784 701.383 215.585 701L307.836 681.391C309.637 681.009 310.787 679.238 310.404 677.437L307.973 666C307.59 664.199 305.82 663.05 304.019 663.433Z" fill="#A4B1D0"/>
<path d="M449.934 632.417L357.683 652.026C355.882 652.408 354.732 654.179 355.115 655.98L357.546 667.417C357.929 669.218 359.699 670.367 361.5 669.984L453.752 650.376C455.553 649.993 456.702 648.223 456.319 646.422L453.888 634.985C453.506 633.184 451.735 632.034 449.934 632.417Z" fill="#A4B1D0"/>
<path d="M595.85 601.399L503.598 621.008C501.797 621.391 500.648 623.161 501.031 624.962L503.462 636.399C503.844 638.2 505.615 639.35 507.416 638.967L599.667 619.358C601.468 618.975 602.618 617.205 602.235 615.404L599.804 603.967C599.421 602.166 597.651 601.017 595.85 601.399Z" fill="#8E95A6"/>
<g filter="url(#filter1_d)">
<path d="M1329.56 128.604L839.467 24.4307C833.466 23.1551 827.567 26.9859 826.291 32.9869L686.332 691.445C685.056 697.446 688.887 703.345 694.888 704.62L1184.98 808.793C1190.98 810.069 1196.88 806.238 1198.16 800.237L1338.12 141.779C1339.39 135.778 1335.56 129.879 1329.56 128.604Z" fill="white"/>
</g>
<path d="M1153.48 292.955L933.481 246.194C932.241 245.93 931.022 246.722 930.759 247.962L926.941 265.92C926.678 267.16 927.469 268.379 928.709 268.642L1148.7 315.404C1149.94 315.667 1151.16 314.876 1151.43 313.636L1155.24 295.677C1155.51 294.438 1154.72 293.219 1153.48 292.955Z" fill="#C9CEDB"/>
<path d="M773.728 280.277L1285.56 389.071L1224.48 676.412L712.651 567.618L773.728 280.277Z" fill="#BDDCFF"/>
<g filter="url(#filter2_d)">
<path d="M1110.55 119.593L1043.21 105.278C1024.61 101.326 1006.33 113.197 1002.38 131.794L988.063 199.139C984.11 217.736 995.981 236.017 1014.58 239.969L1081.92 254.284C1100.52 258.237 1118.8 246.366 1122.75 227.769L1137.07 160.423C1141.02 141.826 1129.15 123.546 1110.55 119.593Z" fill="white"/>
</g>
<path d="M1101.29 127.681L1048.38 116.433C1031.11 112.763 1014.14 123.786 1010.47 141.055L999.218 193.969C995.548 211.238 1006.57 228.212 1023.84 231.883L1076.75 243.13C1094.02 246.801 1111 235.777 1114.67 218.509L1125.92 165.594C1129.59 148.326 1118.56 131.351 1101.29 127.681Z" fill="#7EB9FF"/>
<path d="M1104.12 690.718L816.785 629.642C800.667 626.217 784.824 636.505 781.399 652.622L781.398 652.623C777.973 668.74 788.261 684.583 804.378 688.009L1091.72 749.085C1107.84 752.51 1123.68 742.222 1127.1 726.105L1127.1 726.104C1130.53 709.987 1120.24 694.144 1104.12 690.718Z" fill="#96EDCE"/>
<path d="M1020.14 693.312L847.313 656.576C845.512 656.193 843.742 657.343 843.359 659.144L840.587 672.187C840.204 673.988 841.354 675.759 843.155 676.142L1015.98 712.878C1017.79 713.26 1019.56 712.111 1019.94 710.31L1022.71 697.266C1023.09 695.465 1021.94 693.695 1020.14 693.312Z" fill="#C8F9E8"/>
<g filter="url(#filter3_d)">
<path d="M918.479 22.1211H417.436C411.301 22.1211 406.327 27.0946 406.327 33.2297V706.398C406.327 712.533 411.301 717.506 417.436 717.506H918.479C924.615 717.506 929.588 712.533 929.588 706.398V33.2297C929.588 27.0946 924.615 22.1211 918.479 22.1211Z" fill="white"/>
</g>
<path d="M819.426 297.521H514.191C512.924 297.521 511.896 298.549 511.896 299.816V327.357C511.896 328.624 512.924 329.652 514.191 329.652H819.426C820.694 329.652 821.721 328.624 821.721 327.357V299.816C821.721 298.549 820.694 297.521 819.426 297.521Z" fill="#8F94A6"/>
<path d="M814.834 384.732H521.075C504.598 384.732 491.24 398.09 491.24 414.567V414.568C491.24 431.045 504.598 444.403 521.075 444.403H814.834C831.312 444.403 844.669 431.045 844.669 414.568V414.567C844.669 398.09 831.312 384.732 814.834 384.732Z" fill="#5977BB"/>
<path d="M757.948 406.482H581.257C579.416 406.482 577.923 407.975 577.923 409.816V423.151C577.923 424.993 579.416 426.485 581.257 426.485H757.948C759.789 426.485 761.282 424.993 761.282 423.151V409.816C761.282 407.975 759.789 406.482 757.948 406.482Z" fill="#A4B7E3"/>
<path d="M814.834 559.154H521.075C504.598 559.154 491.24 572.512 491.24 588.989V588.989C491.24 605.467 504.598 618.824 521.075 618.824H814.834C831.312 618.824 844.669 605.467 844.669 588.989V588.989C844.669 572.512 831.312 559.154 814.834 559.154Z" fill="#4F98CB"/>
<path d="M757.948 577.924H581.257C579.416 577.924 577.923 579.416 577.923 581.258V594.593C577.923 596.434 579.416 597.927 581.257 597.927H757.948C759.789 597.927 761.282 596.434 761.282 594.593V581.258C761.282 579.416 759.789 577.924 757.948 577.924Z" fill="#B2D8F2"/>
<path d="M814.834 471.943H521.075C504.598 471.943 491.24 485.301 491.24 501.778V501.779C491.24 518.256 504.598 531.613 521.075 531.613H814.834C831.312 531.613 844.669 518.256 844.669 501.779V501.778C844.669 485.301 831.312 471.943 814.834 471.943Z" fill="#83C0F4"/>
<path d="M757.948 489.438H581.257C579.416 489.438 577.923 490.93 577.923 492.771V506.106C577.923 507.948 579.416 509.44 581.257 509.44H757.948C759.789 509.44 761.282 507.948 761.282 506.106V492.771C761.282 490.93 759.789 489.438 757.948 489.438Z" fill="#BADAF5"/>
<path d="M406.327 31.3012C406.327 26.2311 410.436 22.1211 415.508 22.1211H920.408C925.476 22.1211 929.588 26.2311 929.588 31.3012V210.311H406.327V31.3012Z" fill="#BFCFF8"/>
<g filter="url(#filter4_d)">
<path d="M700.088 143.758H635.827C618.083 143.758 603.697 158.143 603.697 175.888V240.148C603.697 257.893 618.083 272.278 635.827 272.278H700.088C717.833 272.278 732.218 257.893 732.218 240.148V175.888C732.218 158.143 717.833 143.758 700.088 143.758Z" fill="white"/>
</g>
<path d="M693.203 152.934H642.713C626.235 152.934 612.878 166.291 612.878 182.769V233.259C612.878 249.736 626.235 263.094 642.713 263.094H693.203C709.681 263.094 723.038 249.736 723.038 233.259V182.769C723.038 166.291 709.681 152.934 693.203 152.934Z" fill="#3F51B5"/>
<defs>
<filter id="filter0_d" x="18.6018" y="16.6087" width="674.505" height="807.082" filterUnits="userSpaceOnUse" color-interpolation-filters="sRGB">
<feFlood flood-opacity="0" result="BackgroundImageFix"/>
<feColorMatrix in="SourceAlpha" type="matrix" values="0 0 0 0 0 0 0 0 0 0 0 0 0 0 0 0 0 0 127 0"/>
<feOffset dy="3.53565"/>
<feGaussianBlur stdDeviation="4.525"/>
<feColorMatrix type="matrix" values="0 0 0 0 0.14788 0 0 0 0 0.376938 0 0 0 0 0.720524 0 0 0 0.06 0"/>
<feBlend mode="normal" in2="BackgroundImageFix" result="effect1_dropShadow"/>
<feBlend mode="normal" in="SourceGraphic" in2="effect1_dropShadow" result="shape"/>
</filter>
<filter id="filter1_d" x="674.972" y="16.6067" width="674.505" height="807.082" filterUnits="userSpaceOnUse" color-interpolation-filters="sRGB">
<feFlood flood-opacity="0" result="BackgroundImageFix"/>
<feColorMatrix in="SourceAlpha" type="matrix" values="0 0 0 0 0 0 0 0 0 0 0 0 0 0 0 0 0 0 127 0"/>
<feOffset dy="3.53565"/>
<feGaussianBlur stdDeviation="4.525"/>
<feColorMatrix type="matrix" values="0 0 0 0 0.14788 0 0 0 0 0.376938 0 0 0 0 0.720524 0 0 0 0.06 0"/>
<feBlend mode="normal" in2="BackgroundImageFix" result="effect1_dropShadow"/>
<feBlend mode="normal" in="SourceGraphic" in2="effect1_dropShadow" result="shape"/>
</filter>
<filter id="filter2_d" x="982.395" y="101.247" width="160.342" height="160.342" filterUnits="userSpaceOnUse" color-interpolation-filters="sRGB">
<feFlood flood-opacity="0" result="BackgroundImageFix"/>
<feColorMatrix in="SourceAlpha" type="matrix" values="0 0 0 0 0 0 0 0 0 0 0 0 0 0 0 0 0 0 127 0"/>
<feOffset dy="1.63621"/>
<feGaussianBlur stdDeviation="2.45432"/>
<feColorMatrix type="matrix" values="0 0 0 0 0.0558619 0 0 0 0 0.140618 0 0 0 0 0.441116 0 0 0 0.1 0"/>
<feBlend mode="normal" in2="BackgroundImageFix" result="effect1_dropShadow"/>
<feBlend mode="normal" in="SourceGraphic" in2="effect1_dropShadow" result="shape"/>
</filter>
<filter id="filter3_d" x="395.28" y="14.6092" width="545.356" height="717.48" filterUnits="userSpaceOnUse" color-interpolation-filters="sRGB">
<feFlood flood-opacity="0" result="BackgroundImageFix"/>
<feColorMatrix in="SourceAlpha" type="matrix" values="0 0 0 0 0 0 0 0 0 0 0 0 0 0 0 0 0 0 127 0"/>
<feOffset dy="3.53565"/>
<feGaussianBlur stdDeviation="5.52379"/>
<feColorMatrix type="matrix" values="0 0 0 0 0.040508 0 0 0 0 0.229145 0 0 0 0 0.515352 0 0 0 0.19 0"/>
<feBlend mode="normal" in2="BackgroundImageFix" result="effect1_dropShadow"/>
<feBlend mode="normal" in="SourceGraphic" in2="effect1_dropShadow" result="shape"/>
</filter>
<filter id="filter4_d" x="599.116" y="140.704" width="137.683" height="137.683" filterUnits="userSpaceOnUse" color-interpolation-filters="sRGB">
<feFlood flood-opacity="0" result="BackgroundImageFix"/>
<feColorMatrix in="SourceAlpha" type="matrix" values="0 0 0 0 0 0 0 0 0 0 0 0 0 0 0 0 0 0 127 0"/>
<feOffset dy="1.52713"/>
<feGaussianBlur stdDeviation="2.2907"/>
<feColorMatrix type="matrix" values="0 0 0 0 0.136039 0 0 0 0 0.273272 0 0 0 0 0.759825 0 0 0 0.09 0"/>
<feBlend mode="normal" in2="BackgroundImageFix" result="effect1_dropShadow"/>
<feBlend mode="normal" in="SourceGraphic" in2="effect1_dropShadow" result="shape"/>
</filter>
</defs>
</svg>
