<?xml version="1.0" encoding="UTF-8"?>
<svg width="637px" height="245px" viewBox="0 0 637 245" version="1.1" xmlns="http://www.w3.org/2000/svg" xmlns:xlink="http://www.w3.org/1999/xlink">
    <title>Illustration</title>
    <g id="⚙️-Symbols" stroke="none" stroke-width="1" fill="none" fill-rule="evenodd">
        <g id="Cards/Newsletter/Large" transform="translate(-585.000000, -85.000000)">
            <g id="Illustration" transform="translate(585.000000, 85.000000)">
                <path d="M3.26067022,211.129134 C5.78209591,212.663421 8.4395601,214.136229 11.2295519,215.547378 C12.1142456,215.994847 13.1936793,215.639422 13.6405346,214.753512 C14.0873898,213.867603 13.7324516,212.786687 12.8477578,212.339217 C10.1399915,210.969657 7.56445151,209.542253 5.12457904,208.05759 C4.27755947,207.542179 3.17366423,207.811944 2.65896002,208.660127 C2.14425581,209.50831 2.41365065,210.613722 3.26067022,211.129134 Z M27.9348097,222.701851 C30.7122186,223.708544 33.5786787,224.669424 36.5312914,225.584315 C37.4781398,225.877703 38.4832241,225.346915 38.7762101,224.398766 C39.0691961,223.450616 38.539136,222.444151 37.5922877,222.150763 C34.692894,221.252362 31.8799539,220.309423 29.1564111,219.322255 C28.2244416,218.984455 27.1954663,219.467163 26.8581304,220.400413 C26.5207945,221.333663 27.0028402,222.364052 27.9348097,222.701851 Z M53.9992609,230.237281 C56.8844729,230.892905 59.8304429,231.511745 62.8345303,232.093684 C63.8076315,232.282189 64.7490896,231.645064 64.9373359,230.670626 C65.1255822,229.696188 64.4893316,228.753436 63.5162304,228.564931 C60.5494063,227.990211 57.6409574,227.379253 54.7935528,226.73222 C53.8269848,226.512581 52.8656184,227.119163 52.6462808,228.087059 C52.4269431,229.054955 53.032693,230.017642 53.9992609,230.237281 Z M80.6689213,235.023809 C83.6117633,235.426761 86.5966994,235.798257 89.621149,236.138251 C90.6061041,236.248974 91.4942041,235.539173 91.6047758,234.552865 C91.7153476,233.566556 91.0065199,232.677236 90.0215648,232.566513 C87.0255481,232.229716 84.0692229,231.86178 81.1551833,231.462772 C80.1731791,231.32831 79.268254,232.016472 79.1339765,232.999825 C78.9996989,233.983179 79.6869171,234.889347 80.6689213,235.023809 Z M107.54449,237.753567 C110.515007,237.95824 113.513536,238.13492 116.537462,238.283637 C117.527411,238.332323 118.369337,237.568176 118.417956,236.576867 C118.466575,235.585558 117.703476,234.742476 116.713527,234.69379 C113.712921,234.546219 110.737828,234.37092 107.790872,234.167871 C106.802068,234.099741 105.94533,234.847196 105.877293,235.837359 C105.809257,236.827521 106.555686,237.685437 107.54449,237.753567 Z M134.55004,238.835472 C137.5382,238.873311 140.542616,238.885384 143.560553,238.871808 C144.551685,238.867349 145.351547,238.05916 145.347113,237.066666 C145.342643,236.074173 144.535562,235.273212 143.54443,235.27767 C140.54692,235.291154 137.563006,235.279163 134.595424,235.241585 C133.604361,235.229035 132.790787,236.023381 132.778254,237.015805 C132.765722,238.008229 133.558977,238.822922 134.55004,238.835472 Z M161.549216,238.493206 C164.541836,238.381451 167.539743,238.245467 170.540046,238.085473 C171.529785,238.032695 172.289401,237.186464 172.236695,236.195365 C172.183988,235.204265 171.338919,234.443606 170.349179,234.496385 C167.367873,234.655366 164.389002,234.790486 161.415458,234.901529 C160.425005,234.938516 159.652026,235.772524 159.688962,236.764338 C159.725899,237.756153 160.558763,238.530193 161.549216,238.493206 Z M188.517545,236.841645 C191.51049,236.587078 194.497508,236.309224 197.475498,236.008421 C198.461636,235.908813 199.180421,235.027544 199.08095,234.040051 C198.981478,233.052558 198.101418,232.332786 197.11528,232.432394 C194.156097,232.731296 191.187895,233.007401 188.213772,233.260367 C187.226186,233.344367 186.493591,234.214159 186.577476,235.203101 C186.66136,236.192044 187.529959,236.925645 188.517545,236.841645 Z M215.363192,233.910506 C218.35286,233.510362 221.323969,233.087369 224.27316,232.642017 C225.253221,232.494019 225.927907,231.578456 225.780113,230.597049 C225.632318,229.615641 224.718011,228.940029 223.73795,229.088026 C220.80869,229.530368 217.857484,229.950529 214.887687,230.348013 C213.905281,230.4795 213.21533,231.383583 213.346636,232.367338 C213.477943,233.351094 214.380786,234.041993 215.363192,233.910506 Z M242.031371,229.639373 C245.013035,229.079249 247.960382,228.496192 250.869719,227.890893 C251.840137,227.688994 252.463369,226.737563 252.261747,225.765811 C252.060125,224.79406 251.109999,224.169972 250.139581,224.371871 C247.253108,224.972412 244.328542,225.550963 241.369579,226.106823 C240.39543,226.289823 239.753874,227.228962 239.936623,228.204449 C240.119371,229.179936 241.057222,229.822373 242.031371,229.639373 Z M268.44109,223.845693 C271.402973,223.09378 274.30852,222.318203 277.153581,221.519933 C278.107967,221.252151 278.664867,220.260325 278.397452,219.304629 C278.130037,218.348932 277.139572,217.791267 276.185186,218.059049 C273.36909,218.849192 270.492327,219.617085 267.559065,220.361733 C266.598316,220.605631 266.016923,221.583262 266.260487,222.545331 C266.504051,223.5074 267.48034,224.089592 268.44109,223.845693 Z M294.383847,216.149466 C297.307975,215.136834 300.139574,214.098522 302.873723,213.035946 C303.797719,212.676852 304.256062,211.635674 303.897461,210.710409 C303.538859,209.785144 302.499109,209.326171 301.575114,209.685265 C298.883157,210.731444 296.093376,211.754422 293.210757,212.752679 C292.274047,213.077064 291.777299,214.100426 292.101239,215.038423 C292.425178,215.97642 293.447137,216.473851 294.383847,216.149466 Z M319.443248,205.690247 C322.269295,204.250766 324.926933,202.780255 327.409572,201.280917 C328.258306,200.768342 328.531387,199.663838 328.019515,198.813937 C327.507643,197.964037 326.404654,197.690581 325.55592,198.203156 C323.149156,199.65667 320.566904,201.085469 317.815956,202.486698 C316.932534,202.93668 316.580661,204.018601 317.030025,204.903237 C317.47939,205.787872 318.559826,206.140229 319.443248,205.690247 Z M342.255934,190.785993 C344.597025,188.963606 346.93939,187.075387 349.296434,185.113117 C350.058585,184.478616 350.162772,183.345556 349.529141,182.582358 C348.895511,181.819159 347.764006,181.714829 347.001854,182.349331 C344.674444,184.286931 342.362601,186.150546 340.053077,187.948359 C339.270561,188.557497 339.129333,189.686527 339.737635,190.470118 C340.345937,191.253709 341.473418,191.395131 342.255934,190.785993 Z M362.847844,173.195846 C364.976768,171.232523 367.151924,169.188541 369.417944,167.024841 C370.135254,166.33992 370.162272,165.20239 369.478292,164.484094 C368.794311,163.765799 367.658341,163.738744 366.941032,164.423664 C364.689488,166.573541 362.529372,168.60339 360.416368,170.552032 C359.6873,171.224388 359.640579,172.361278 360.312012,173.091347 C360.983446,173.821416 362.118776,173.868202 362.847844,173.195846 Z M382.289578,154.464235 L388.669456,148.13891 C389.373878,147.440706 389.379696,146.302869 388.68245,145.597478 C387.985205,144.892088 386.848928,144.886262 386.144506,145.584466 L379.766275,151.90816 C379.061402,152.605909 379.054851,153.743742 379.751642,154.449583 C380.448433,155.155423 381.584706,155.161983 382.289578,154.464235 Z M401.481047,135.585895 L403.149435,133.987026 C404.800914,132.409989 406.404005,130.89635 407.979786,129.427281 C408.705209,128.750984 408.745786,127.613857 408.070416,126.887437 C407.395047,126.161018 406.25948,126.120385 405.534057,126.796682 L403.937916,128.291111 C402.331252,129.801696 400.690667,131.362853 398.994954,132.993515 C398.28007,133.680974 398.257073,134.818593 398.943589,135.534459 C399.630104,136.250325 400.766163,136.273353 401.481047,135.585895 Z M421.305916,117.522312 C423.612234,115.560884 425.902229,113.668659 428.189269,111.836953 C428.963293,111.217031 429.088907,110.086153 428.469836,109.311065 C427.850765,108.535977 426.721438,108.41019 425.947414,109.030112 C423.632321,110.884286 421.315177,112.798945 418.982474,114.782812 C418.22702,115.425294 418.134723,116.559387 418.776324,117.315879 C419.417925,118.072371 420.550462,118.164794 421.305916,117.522312 Z M442.475143,101.168086 C444.931326,99.4680944 447.403034,97.8267682 449.89692,96.2415694 C450.733715,95.7096742 450.981477,94.5991996 450.450311,93.7612551 C449.919146,92.9233105 448.810195,92.6752085 447.9734,93.2071037 C445.439545,94.817708 442.928767,96.4849784 440.434366,98.2114222 C439.619026,98.7757415 439.414906,99.8950845 439.978451,100.711545 C440.541996,101.528005 441.659803,101.732406 442.475143,101.168086 Z M465.305629,87.3199869 C467.92812,85.9459554 470.58328,84.6261709 473.275162,83.3600043 C474.172266,82.9380381 474.55791,81.8677214 474.136523,80.9693851 C473.715136,80.0710488 472.646287,79.6848744 471.749184,80.1068406 C469.010649,81.3949511 466.309487,82.7376013 463.64166,84.1353863 C462.763463,84.5955099 462.424036,85.6814109 462.883529,86.560814 C463.343021,87.4402172 464.427432,87.7801105 465.305629,87.3199869 Z M489.696213,76.4776459 C492.457536,75.4554699 495.25955,74.4832221 498.104887,73.5609467 C499.047859,73.2552958 499.56485,72.2420367 499.259618,71.2977692 C498.954386,70.3535016 497.942517,69.8358006 496.999545,70.1414516 C494.107502,71.0788661 491.259087,72.0672145 488.451696,73.1064435 C487.522041,73.4505794 487.047002,74.4842261 487.390666,75.4151579 C487.734329,76.3460897 488.766558,76.8217818 489.696213,76.4776459 Z M515.254735,68.7386981 C515.964816,68.5679936 516.677534,68.4000681 517.392915,68.2349254 C519.558175,67.7350846 521.735332,67.2973332 523.922096,66.9213848 C524.898946,66.7534448 525.554884,65.8243211 525.387174,64.846129 C525.219464,63.8679369 524.291615,63.2110978 523.314765,63.3790379 C521.061491,63.7664208 518.817992,64.2175113 516.586638,64.7326097 C515.860721,64.9001844 515.137473,65.070591 514.416866,65.2438258 C513.453108,65.4755146 512.859391,66.4456894 513.090762,67.4107717 C513.322133,68.375854 514.290976,68.9703869 515.254735,68.7386981 Z M541.507506,65.2296726 C544.459423,65.1645439 547.409149,65.2080273 550.348865,65.3584316 C551.338716,65.4090753 552.182147,64.6465949 552.232721,63.6553841 C552.283295,62.6641733 551.521861,61.8195834 550.53201,61.7689398 C547.505218,61.6140804 544.468034,61.5693077 541.428444,61.6363708 C540.437542,61.6582332 539.651956,62.4803442 539.673789,63.4726071 C539.695621,64.4648701 540.516605,65.251535 541.507506,65.2296726 Z M567.886684,67.5487074 C570.793035,68.130972 573.660537,68.8180789 576.477987,69.6059939 C577.432601,69.872957 578.422589,69.3144422 578.689186,68.3585163 C578.955782,67.4025904 578.398034,66.411243 577.443419,66.14428 C574.539655,65.3322266 571.584992,64.6242344 568.59082,64.0243755 C567.618938,63.8296666 566.673445,64.4607724 566.479004,65.4339898 C566.284562,66.4072072 566.914802,67.3539985 567.886684,67.5487074 Z M593.086511,75.6943726 C595.801048,76.9496804 598.417322,78.3025417 600.920094,79.7441214 C601.779246,80.238987 602.876344,79.9427178 603.37053,79.0823855 C603.864717,78.2220533 603.568854,77.1234483 602.709702,76.6285826 C600.11357,75.1332281 597.402259,73.7312236 594.591328,72.4313392 C593.691502,72.0152247 592.625185,72.4083521 592.209641,73.3094139 C591.794097,74.2104757 592.186686,75.2782581 593.086511,75.6943726 Z M615.131465,89.9995347 C617.359028,92.0273753 619.379108,94.1319038 621.174113,96.2954027 C621.807494,97.0588093 622.938964,97.1635108 623.701324,96.52926 C624.463683,95.8950092 624.568241,94.7619841 623.93486,93.9985775 C622.031001,91.7038775 619.895031,89.4786147 617.545852,87.3400623 C616.812467,86.6724318 615.677462,86.7265535 615.010747,87.4609465 C614.344032,88.1953395 614.39808,89.3319042 615.131465,89.9995347 Z M629.596174,111.328272 C630.451061,114.120814 630.926849,116.923983 631.013872,119.715285 C631.0448,120.707305 631.87296,121.48639 632.863619,121.45542 C633.854279,121.42445 634.632295,120.595152 634.601367,119.603132 C634.504234,116.48753 633.974803,113.368315 633.027794,110.274853 C632.7373,109.325936 631.733613,108.792502 630.785998,109.083395 C629.838382,109.374289 629.30568,110.379354 629.596174,111.328272 Z M626.919499,135.958842 C625.591965,138.354542 623.941668,140.7072 621.96603,143.006569 C621.319599,143.758926 621.404631,144.893588 622.155956,145.540907 C622.907281,146.188227 624.040386,146.103078 624.686818,145.350721 C626.818829,142.869354 628.60964,140.31638 630.057944,137.702736 C630.538846,136.834888 630.22613,135.740974 629.359472,135.259411 C628.492815,134.777847 627.400402,135.090993 626.919499,135.958842 Z M608.716946,154.447357 C606.380662,156.00996 603.86399,157.528791 601.167164,159.000892 C600.296921,159.475926 599.976013,160.567459 600.450396,161.438898 C600.924779,162.310336 602.014814,162.631685 602.885057,162.156651 C605.674605,160.633936 608.283229,159.059612 610.710496,157.436156 C611.534698,156.884896 611.756574,155.768946 611.20607,154.943612 C610.655566,154.118278 609.541147,153.896097 608.716946,154.447357 Z M585.052841,166.401612 C582.378023,167.44047 579.590393,168.444909 576.690136,169.413873 C575.749942,169.727989 575.242055,170.745854 575.555739,171.68734 C575.869423,172.628826 576.885892,173.13741 577.826086,172.823295 C580.780113,171.836366 583.621716,170.81248 586.350733,169.752572 C587.274805,169.393676 587.733371,168.352596 587.374968,167.427254 C587.016565,166.501912 585.976913,166.042717 585.052841,166.401612 Z M559.614486,174.376239 C557.531903,174.90145 555.405746,175.411657 553.236049,175.906659 L550.91514,176.426874 C549.947199,176.640363 549.335357,177.599179 549.548553,178.56845 C549.761749,179.537721 550.71925,180.150404 551.687191,179.936915 L552.378785,179.783741 C555.150757,179.167248 557.854855,178.526408 560.491051,177.86158 C561.452182,177.619191 562.035106,176.642475 561.793049,175.680025 C561.550992,174.717574 560.575616,174.133849 559.614486,174.376239 Z M533.394419,179.86912 C530.431485,180.378117 527.492055,180.845063 524.576194,181.270297 C523.595398,181.413331 522.916099,182.325467 523.058937,183.30761 C523.201775,184.289753 524.112659,184.969985 525.093455,184.826951 C528.039329,184.397341 531.008633,183.925649 534.001298,183.411544 C534.978169,183.243729 535.634226,182.314689 535.466641,181.336476 C535.299056,180.358262 534.371291,179.701305 533.394419,179.86912 Z M506.851251,183.370551 C503.861781,183.640704 500.900104,183.864568 497.966329,184.042598 C496.977002,184.102633 496.223595,184.954411 496.283548,185.945097 C496.3435,186.935784 497.19411,187.690226 498.183437,187.63019 C501.152505,187.450019 504.149348,187.223496 507.173848,186.950178 C508.160978,186.860973 508.88899,185.987331 508.799907,184.998845 C508.710825,184.010358 507.838381,183.281346 506.851251,183.370551 Z M480.13519,184.562905 C477.131996,184.552688 474.16232,184.491413 471.226354,184.379712 C470.235927,184.342031 469.402522,185.115487 469.364892,186.107276 C469.327262,187.099064 470.099658,187.933614 471.090085,187.971295 C474.067492,188.084572 477.078532,188.146701 480.122996,188.157068 C481.114132,188.16043 481.920336,187.358585 481.923714,186.366087 C481.927071,185.373589 481.126326,184.566277 480.13519,184.562905 Z M453.455229,183.046143 C450.474577,182.707536 447.534944,182.31324 444.636679,181.864177 C443.657193,181.712414 442.740302,182.384507 442.588747,183.365339 C442.437192,184.346171 443.108362,185.264321 444.087849,185.416084 C447.034157,185.872591 450.02188,186.273337 453.050639,186.61741 C454.035464,186.729287 454.924393,186.020527 455.036117,185.034349 C455.147841,184.048171 454.440054,183.158021 453.455229,183.046143 Z M427.194916,178.384481 C424.285257,177.667289 421.426923,176.890479 418.620581,176.055487 C417.670492,175.7728 416.671444,176.314895 416.389144,177.266289 C416.106845,178.217684 416.648196,179.218105 417.598285,179.500792 C420.459155,180.352008 423.37231,181.143716 426.337036,181.874482 C427.299451,182.111704 428.271685,181.522747 428.508582,180.55901 C428.745479,179.595273 428.157331,178.621703 427.194916,178.384481 Z M401.862648,170.132082 C399.092962,168.986682 396.389715,167.779832 393.754274,166.514023 C392.860613,166.084795 391.788676,166.462288 391.360037,167.357177 C390.931398,168.252067 391.308373,169.325476 392.202035,169.754704 C394.897501,171.049343 397.661501,172.283316 400.492594,173.454111 C401.408689,173.83296 402.458027,173.396417 402.836357,172.479064 C403.214687,171.561711 402.778742,170.510931 401.862648,170.132082 Z M357.504223,141.415676 C355.363868,139.286812 353.364416,137.121523 351.513378,134.933834 C350.872662,134.176591 349.740234,134.08284 348.984029,134.724436 C348.227824,135.366032 348.134202,136.500016 348.774918,137.25726 C350.692719,139.523854 352.761952,141.764711 354.974833,143.965711 C355.678039,144.665143 356.814324,144.661299 357.512796,143.957126 C358.211268,143.252953 358.20743,142.115107 357.504223,141.415676 Z M341.625448,120.459404 C340.184097,117.692596 339.05069,115.008141 338.242685,112.471182 C337.941525,111.525605 336.931896,111.003537 335.987615,111.305111 C335.043335,111.606686 334.521984,112.617702 334.823144,113.563279 C335.695762,116.303107 336.909251,119.177234 338.443175,122.121746 C338.901588,123.001714 339.985582,123.342941 340.864342,122.883898 C341.743103,122.424854 342.083861,121.339372 341.625448,120.459404 Z M337.724545,95.612472 C338.324561,92.8668385 339.212782,90.1281162 340.390472,87.3953093 C340.78318,86.4840358 340.363814,85.4265119 339.453791,85.0332636 C338.543768,84.6400153 337.487695,85.0599577 337.094986,85.9712312 C335.827436,88.9125563 334.868112,91.8705191 334.218276,94.8441237 C334.006393,95.8136834 334.619534,96.7716675 335.587763,96.983841 C336.555993,97.1960145 337.512663,96.5820317 337.724545,95.612472 Z M349.62444,72.6279784 C351.412259,70.4518573 353.387326,68.2799628 355.549837,66.112586 C356.250374,65.410473 356.249877,64.2726206 355.548728,63.5711215 C354.847578,62.8696223 353.711287,62.8701198 353.01075,63.5722328 C350.76818,65.8198486 348.715416,68.0771817 346.852654,70.3445233 C346.222961,71.1109823 346.332979,72.2434889 347.098386,72.8740476 C347.863793,73.5046063 348.994746,73.3944374 349.62444,72.6279784 Z M368.926123,54.5486719 C371.209641,52.8150783 373.614703,51.0851372 376.141301,49.3589446 C376.960037,48.7995773 377.170919,47.681492 376.612319,46.8616311 C376.053719,46.0417702 374.937168,45.8305985 374.118432,46.3899658 C371.543223,48.1493697 369.089654,49.9142009 366.757714,51.6845554 C365.967896,52.2841675 365.813036,53.4114034 366.411825,54.2023073 C367.010614,54.9932113 368.136304,55.1482839 368.926123,54.5486719 Z" id="Line" fill="#FFFFFF" transform="translate(318.500000, 142.477195) scale(1, -1) rotate(-179.000000) translate(-318.500000, -142.477195) "></path>
                <g id="Envelope" transform="translate(204.000000, 0.500000)">
                    <polygon id="Path" points="0.775950329 7.84047608 64.3158693 24.7877417 41.9027101 39.5699356 0.775950329 8.77779348"></polygon>
                    <path d="M67.8604827,4.06647131 C68.5996927,3.77186579 69.3303851,4.50909688 69.0280721,5.24450891 L69.0280721,5.24450891 L43.4946095,67.3576513 C43.1977675,68.0797542 42.1843983,68.1079917 41.847718,67.4035418 L41.847718,67.4035418 L29.970843,42.5539376 L4.73254934,30.8602167 C4.05128277,30.544548 4.04262251,29.6011702 4.67297556,29.2567337 L4.67297556,29.2567337 L4.77781046,29.2075051 Z M65.6915722,8.615 L31.5965722,41.777 L42.5990928,64.7958437 L65.6915722,8.615 Z M64.3615722,7.397 L7.38724637,30.1052036 L30.1625722,40.659 L64.3615722,7.397 Z" id="Icon" fill="#FFFFFF" transform="translate(36.654310, 35.957957) scale(1, -1) rotate(-173.000000) translate(-36.654310, -35.957957) "></path>
                </g>
            </g>
        </g>
    </g>
</svg>