<svg xmlns="http://www.w3.org/2000/svg" width="1333" height="358" viewBox="0 0 1333 358">
    <g fill="none" fill-rule="evenodd" transform="translate(0 6)">
        <circle cx="1236" cy="255" r="87" stroke="#F9B800" stroke-width="20" opacity=".358"/>
        <path fill="#3F50B5" d="M69.32 279.556c1.48 0 2.68 1.218 2.68 2.722 0 1.503-1.2 2.722-2.68 2.722-1.481 0-2.682-1.219-2.682-2.722 0-1.504 1.2-2.722 2.681-2.722zm-16.852 0c1.48 0 2.68 1.218 2.68 2.722 0 1.503-1.2 2.722-2.68 2.722-1.48 0-2.68-1.219-2.68-2.722 0-1.504 1.2-2.722 2.68-2.722zm-16.851 0c1.48 0 2.68 1.218 2.68 2.722 0 1.503-1.2 2.722-2.68 2.722-1.48 0-2.68-1.219-2.68-2.722 0-1.504 1.2-2.722 2.68-2.722zm-16.085 0c1.48 0 2.68 1.218 2.68 2.722 0 1.503-1.2 2.722-2.68 2.722-1.48 0-2.68-1.219-2.68-2.722 0-1.504 1.2-2.722 2.68-2.722zm-16.851 0c1.48 0 2.68 1.218 2.68 2.722 0 1.503-1.2 2.722-2.68 2.722C1.2 285 0 283.781 0 282.278c0-1.504 1.2-2.722 2.68-2.722zm151.638 0c1.48 0 2.681 1.218 2.681 2.722 0 1.503-1.2 2.722-2.68 2.722-1.481 0-2.682-1.219-2.682-2.722 0-1.504 1.2-2.722 2.681-2.722zm-16.85 0c1.48 0 2.68 1.218 2.68 2.722 0 1.503-1.2 2.722-2.68 2.722-1.482 0-2.682-1.219-2.682-2.722 0-1.504 1.2-2.722 2.681-2.722zm-16.852 0c1.48 0 2.68 1.218 2.68 2.722 0 1.503-1.2 2.722-2.68 2.722-1.48 0-2.68-1.219-2.68-2.722 0-1.504 1.2-2.722 2.68-2.722zm-16.085 0c1.48 0 2.68 1.218 2.68 2.722 0 1.503-1.2 2.722-2.68 2.722-1.48 0-2.68-1.219-2.68-2.722 0-1.504 1.2-2.722 2.68-2.722zm-16.851 0c1.48 0 2.68 1.218 2.68 2.722 0 1.503-1.2 2.722-2.68 2.722-1.48 0-2.681-1.219-2.681-2.722 0-1.504 1.2-2.722 2.68-2.722zm-18.362-17.112c1.48 0 2.681 1.22 2.681 2.723s-1.2 2.722-2.68 2.722c-1.481 0-2.682-1.219-2.682-2.722 0-1.504 1.2-2.723 2.681-2.723zm-16.85 0c1.48 0 2.68 1.22 2.68 2.723s-1.2 2.722-2.68 2.722c-1.482 0-2.682-1.219-2.682-2.722 0-1.504 1.2-2.723 2.681-2.723zm-16.852 0c1.48 0 2.68 1.22 2.68 2.723s-1.2 2.722-2.68 2.722c-1.48 0-2.68-1.219-2.68-2.722 0-1.504 1.2-2.723 2.68-2.723zm-16.085 0c1.48 0 2.68 1.22 2.68 2.723s-1.2 2.722-2.68 2.722c-1.48 0-2.68-1.219-2.68-2.722 0-1.504 1.2-2.723 2.68-2.723zm-16.851 0c1.48 0 2.68 1.22 2.68 2.723s-1.2 2.722-2.68 2.722C1.2 267.889 0 266.67 0 265.167c0-1.504 1.2-2.723 2.68-2.723zm151.638 0c1.48 0 2.681 1.22 2.681 2.723s-1.2 2.722-2.68 2.722c-1.481 0-2.682-1.219-2.682-2.722 0-1.504 1.2-2.723 2.681-2.723zm-16.85 0c1.48 0 2.68 1.22 2.68 2.723s-1.2 2.722-2.68 2.722c-1.482 0-2.682-1.219-2.682-2.722 0-1.504 1.2-2.723 2.681-2.723zm-16.852 0c1.48 0 2.68 1.22 2.68 2.723s-1.2 2.722-2.68 2.722c-1.48 0-2.68-1.219-2.68-2.722 0-1.504 1.2-2.723 2.68-2.723zm-16.085 0c1.48 0 2.68 1.22 2.68 2.723s-1.2 2.722-2.68 2.722c-1.48 0-2.68-1.219-2.68-2.722 0-1.504 1.2-2.723 2.68-2.723zm-16.851 0c1.48 0 2.68 1.22 2.68 2.723s-1.2 2.722-2.68 2.722c-1.48 0-2.681-1.219-2.681-2.722 0-1.504 1.2-2.723 2.68-2.723zm-18.362-16.333c1.48 0 2.681 1.219 2.681 2.722 0 1.504-1.2 2.723-2.68 2.723-1.481 0-2.682-1.22-2.682-2.723s1.2-2.722 2.681-2.722zm-16.85 0c1.48 0 2.68 1.219 2.68 2.722 0 1.504-1.2 2.723-2.68 2.723-1.482 0-2.682-1.22-2.682-2.723s1.2-2.722 2.681-2.722zm-16.852 0c1.48 0 2.68 1.219 2.68 2.722 0 1.504-1.2 2.723-2.68 2.723-1.48 0-2.68-1.22-2.68-2.723s1.2-2.722 2.68-2.722zm-16.085 0c1.48 0 2.68 1.219 2.68 2.722 0 1.504-1.2 2.723-2.68 2.723-1.48 0-2.68-1.22-2.68-2.723s1.2-2.722 2.68-2.722zm-16.851 0c1.48 0 2.68 1.219 2.68 2.722 0 1.504-1.2 2.723-2.68 2.723-1.48 0-2.681-1.22-2.681-2.723s1.2-2.722 2.68-2.722zm151.638 0c1.48 0 2.681 1.219 2.681 2.722 0 1.504-1.2 2.723-2.68 2.723-1.481 0-2.682-1.22-2.682-2.723s1.2-2.722 2.681-2.722zm-16.85 0c1.48 0 2.68 1.219 2.68 2.722 0 1.504-1.2 2.723-2.68 2.723-1.482 0-2.682-1.22-2.682-2.723s1.2-2.722 2.681-2.722zm-16.852 0c1.48 0 2.68 1.219 2.68 2.722 0 1.504-1.2 2.723-2.68 2.723-1.48 0-2.68-1.22-2.68-2.723s1.2-2.722 2.68-2.722zm-16.085 0c1.48 0 2.68 1.219 2.68 2.722 0 1.504-1.2 2.723-2.68 2.723-1.48 0-2.68-1.22-2.68-2.723s1.2-2.722 2.68-2.722zm-16.851 0c1.48 0 2.68 1.219 2.68 2.722 0 1.504-1.2 2.723-2.68 2.723-1.48 0-2.681-1.22-2.681-2.723s1.2-2.722 2.68-2.722zM154.319 229c1.48 0 2.681 1.219 2.681 2.722 0 1.504-1.2 2.722-2.68 2.722-1.481 0-2.682-1.218-2.682-2.722 0-1.503 1.2-2.722 2.681-2.722zm-16.85 0c1.48 0 2.68 1.219 2.68 2.722 0 1.504-1.2 2.722-2.68 2.722-1.482 0-2.682-1.218-2.682-2.722 0-1.503 1.2-2.722 2.681-2.722zm-16.852 0c1.48 0 2.68 1.219 2.68 2.722 0 1.504-1.2 2.722-2.68 2.722-1.48 0-2.68-1.218-2.68-2.722 0-1.503 1.2-2.722 2.68-2.722zm-16.085 0c1.48 0 2.68 1.219 2.68 2.722 0 1.504-1.2 2.722-2.68 2.722-1.48 0-2.68-1.218-2.68-2.722 0-1.503 1.2-2.722 2.68-2.722zm-16.851 0c1.48 0 2.68 1.219 2.68 2.722 0 1.504-1.2 2.722-2.68 2.722-1.48 0-2.681-1.218-2.681-2.722 0-1.503 1.2-2.722 2.68-2.722zm-18.362 0c1.48 0 2.681 1.219 2.681 2.722 0 1.504-1.2 2.722-2.68 2.722-1.481 0-2.682-1.218-2.682-2.722 0-1.503 1.2-2.722 2.681-2.722zm-16.85 0c1.48 0 2.68 1.219 2.68 2.722 0 1.504-1.2 2.722-2.68 2.722-1.482 0-2.682-1.218-2.682-2.722 0-1.503 1.2-2.722 2.681-2.722zm-16.852 0c1.48 0 2.68 1.219 2.68 2.722 0 1.504-1.2 2.722-2.68 2.722-1.48 0-2.68-1.218-2.68-2.722 0-1.503 1.2-2.722 2.68-2.722zm-16.085 0c1.48 0 2.68 1.219 2.68 2.722 0 1.504-1.2 2.722-2.68 2.722-1.48 0-2.68-1.218-2.68-2.722 0-1.503 1.2-2.722 2.68-2.722zM2.68 229c1.48 0 2.68 1.219 2.68 2.722 0 1.504-1.2 2.722-2.68 2.722-1.48 0-2.681-1.218-2.681-2.722C0 230.22 1.2 229 2.68 229zm0-16.444c1.48 0 2.68 1.218 2.68 2.722 0 1.503-1.2 2.722-2.68 2.722C1.2 218 0 216.781 0 215.278c0-1.504 1.2-2.722 2.68-2.722zm16.85 0c1.482 0 2.682 1.218 2.682 2.722 0 1.503-1.2 2.722-2.681 2.722-1.48 0-2.68-1.219-2.68-2.722 0-1.504 1.2-2.722 2.68-2.722zm16.086 0c1.48 0 2.68 1.218 2.68 2.722 0 1.503-1.2 2.722-2.68 2.722-1.48 0-2.68-1.219-2.68-2.722 0-1.504 1.2-2.722 2.68-2.722zm16.851 0c1.48 0 2.68 1.218 2.68 2.722 0 1.503-1.2 2.722-2.68 2.722-1.48 0-2.68-1.219-2.68-2.722 0-1.504 1.2-2.722 2.68-2.722zm16.851 0c1.48 0 2.681 1.218 2.681 2.722 0 1.503-1.2 2.722-2.68 2.722-1.481 0-2.682-1.219-2.682-2.722 0-1.504 1.2-2.722 2.681-2.722zm85 0c1.48 0 2.681 1.218 2.681 2.722 0 1.503-1.2 2.722-2.68 2.722-1.481 0-2.682-1.219-2.682-2.722 0-1.504 1.2-2.722 2.681-2.722zm-16.85 0c1.48 0 2.68 1.218 2.68 2.722 0 1.503-1.2 2.722-2.68 2.722-1.482 0-2.682-1.219-2.682-2.722 0-1.504 1.2-2.722 2.681-2.722zm-16.852 0c1.48 0 2.68 1.218 2.68 2.722 0 1.503-1.2 2.722-2.68 2.722-1.48 0-2.68-1.219-2.68-2.722 0-1.504 1.2-2.722 2.68-2.722zm-16.085 0c1.48 0 2.68 1.218 2.68 2.722 0 1.503-1.2 2.722-2.68 2.722-1.48 0-2.68-1.219-2.68-2.722 0-1.504 1.2-2.722 2.68-2.722zm-16.851 0c1.48 0 2.68 1.218 2.68 2.722 0 1.503-1.2 2.722-2.68 2.722-1.48 0-2.681-1.219-2.681-2.722 0-1.504 1.2-2.722 2.68-2.722zm-18.362-17.112c1.48 0 2.681 1.22 2.681 2.723s-1.2 2.722-2.68 2.722c-1.481 0-2.682-1.219-2.682-2.722 0-1.504 1.2-2.723 2.681-2.723zm-16.85 0c1.48 0 2.68 1.22 2.68 2.723s-1.2 2.722-2.68 2.722c-1.482 0-2.682-1.219-2.682-2.722 0-1.504 1.2-2.723 2.681-2.723zm-16.852 0c1.48 0 2.68 1.22 2.68 2.723s-1.2 2.722-2.68 2.722c-1.48 0-2.68-1.219-2.68-2.722 0-1.504 1.2-2.723 2.68-2.723zm-16.085 0c1.48 0 2.68 1.22 2.68 2.723s-1.2 2.722-2.68 2.722c-1.48 0-2.68-1.219-2.68-2.722 0-1.504 1.2-2.723 2.68-2.723zm-16.851 0c1.48 0 2.68 1.22 2.68 2.723s-1.2 2.722-2.68 2.722C1.2 200.889 0 199.67 0 198.167c0-1.504 1.2-2.723 2.68-2.723zm85 0c1.48 0 2.68 1.22 2.68 2.723s-1.2 2.722-2.68 2.722c-1.48 0-2.681-1.219-2.681-2.722 0-1.504 1.2-2.723 2.68-2.723zm16.85 0c1.482 0 2.682 1.22 2.682 2.723s-1.2 2.722-2.681 2.722c-1.48 0-2.68-1.219-2.68-2.722 0-1.504 1.2-2.723 2.68-2.723zm16.086 0c1.48 0 2.68 1.22 2.68 2.723s-1.2 2.722-2.68 2.722c-1.48 0-2.68-1.219-2.68-2.722 0-1.504 1.2-2.723 2.68-2.723zm16.851 0c1.48 0 2.68 1.22 2.68 2.723s-1.2 2.722-2.68 2.722c-1.48 0-2.68-1.219-2.68-2.722 0-1.504 1.2-2.723 2.68-2.723zm16.851 0c1.48 0 2.681 1.22 2.681 2.723s-1.2 2.722-2.68 2.722c-1.481 0-2.682-1.219-2.682-2.722 0-1.504 1.2-2.723 2.681-2.723zM19.532 179.111c1.48 0 2.68 1.219 2.68 2.722 0 1.504-1.2 2.723-2.68 2.723-1.48 0-2.68-1.22-2.68-2.723s1.2-2.722 2.68-2.722zm16.085 0c1.48 0 2.68 1.219 2.68 2.722 0 1.504-1.2 2.723-2.68 2.723-1.48 0-2.68-1.22-2.68-2.723s1.2-2.722 2.68-2.722zm16.851 0c1.48 0 2.68 1.219 2.68 2.722 0 1.504-1.2 2.723-2.68 2.723-1.48 0-2.68-1.22-2.68-2.723s1.2-2.722 2.68-2.722zm16.851 0c1.48 0 2.681 1.219 2.681 2.722 0 1.504-1.2 2.723-2.68 2.723-1.481 0-2.682-1.22-2.682-2.723s1.2-2.722 2.681-2.722zm18.362 0c1.48 0 2.68 1.219 2.68 2.722 0 1.504-1.2 2.723-2.68 2.723-1.48 0-2.681-1.22-2.681-2.723s1.2-2.722 2.68-2.722zm16.85 0c1.482 0 2.682 1.219 2.682 2.722 0 1.504-1.2 2.723-2.681 2.723-1.48 0-2.68-1.22-2.68-2.723s1.2-2.722 2.68-2.722zm16.086 0c1.48 0 2.68 1.219 2.68 2.722 0 1.504-1.2 2.723-2.68 2.723-1.48 0-2.68-1.22-2.68-2.723s1.2-2.722 2.68-2.722zm16.851 0c1.48 0 2.68 1.219 2.68 2.722 0 1.504-1.2 2.723-2.68 2.723-1.48 0-2.68-1.22-2.68-2.723s1.2-2.722 2.68-2.722zm16.851 0c1.48 0 2.681 1.219 2.681 2.722 0 1.504-1.2 2.723-2.68 2.723-1.481 0-2.682-1.22-2.682-2.723s1.2-2.722 2.681-2.722zm-151.638 0c1.48 0 2.68 1.219 2.68 2.722 0 1.504-1.2 2.723-2.68 2.723-1.48 0-2.681-1.22-2.681-2.723s1.2-2.722 2.68-2.722zM19.53 162c1.482 0 2.682 1.219 2.682 2.722 0 1.504-1.2 2.722-2.681 2.722-1.48 0-2.68-1.218-2.68-2.722 0-1.503 1.2-2.722 2.68-2.722zm16.086 0c1.48 0 2.68 1.219 2.68 2.722 0 1.504-1.2 2.722-2.68 2.722-1.48 0-2.68-1.218-2.68-2.722 0-1.503 1.2-2.722 2.68-2.722zm16.851 0c1.48 0 2.68 1.219 2.68 2.722 0 1.504-1.2 2.722-2.68 2.722-1.48 0-2.68-1.218-2.68-2.722 0-1.503 1.2-2.722 2.68-2.722zm-49.787 0c1.48 0 2.68 1.219 2.68 2.722 0 1.504-1.2 2.722-2.68 2.722-1.48 0-2.681-1.218-2.681-2.722C0 163.22 1.2 162 2.68 162zm85 0c1.48 0 2.68 1.219 2.68 2.722 0 1.504-1.2 2.722-2.68 2.722-1.48 0-2.681-1.218-2.681-2.722 0-1.503 1.2-2.722 2.68-2.722zm16.85 0c1.482 0 2.682 1.219 2.682 2.722 0 1.504-1.2 2.722-2.681 2.722-1.48 0-2.68-1.218-2.68-2.722 0-1.503 1.2-2.722 2.68-2.722zm16.086 0c1.48 0 2.68 1.219 2.68 2.722 0 1.504-1.2 2.722-2.68 2.722-1.48 0-2.68-1.218-2.68-2.722 0-1.503 1.2-2.722 2.68-2.722zm16.851 0c1.48 0 2.68 1.219 2.68 2.722 0 1.504-1.2 2.722-2.68 2.722-1.48 0-2.68-1.218-2.68-2.722 0-1.503 1.2-2.722 2.68-2.722zm16.851 0c1.48 0 2.681 1.219 2.681 2.722 0 1.504-1.2 2.722-2.68 2.722-1.481 0-2.682-1.218-2.682-2.722 0-1.503 1.2-2.722 2.681-2.722zm-85 0c1.48 0 2.681 1.219 2.681 2.722 0 1.504-1.2 2.722-2.68 2.722-1.481 0-2.682-1.218-2.682-2.722 0-1.503 1.2-2.722 2.681-2.722z" opacity=".198"/>
        <path stroke="#5ACFF3" stroke-width="6" d="M131.176 22.707L138.747 13.707 146.319 22.707 153.89 13.707 161.461 22.707 169.033 13.707 176.604 22.707 184.176 13.707" transform="rotate(33 157.676 18.207)"/>
    </g>
</svg>
