<svg xmlns="http://www.w3.org/2000/svg" xmlns:xlink="http://www.w3.org/1999/xlink" width="1366" height="449" viewBox="0 0 1366 449">
    <defs>
        <path id="prefix__a" d="M0.078 0.527L34.817 0.527 34.817 110.961 0.078 110.961z"/>
        <path id="prefix__c" d="M.144.493v60.549c0 17.415 14.116 31.532 31.532 31.532H44.7c17.415 0 31.534-14.117 31.534-31.532V.493"/>
        <path id="prefix__e" d="M.144.493v60.549c0 17.415 14.116 31.532 31.532 31.532H44.7c17.415 0 31.534-14.117 31.534-31.532V.493"/>
        <path id="prefix__g" d="M.144.493v60.549c0 17.415 14.116 31.532 31.532 31.532H44.7c17.415 0 31.534-14.117 31.534-31.532V.493"/>
        <path id="prefix__i" d="M.144.493v60.549c0 17.415 14.116 31.532 31.532 31.532H44.7c17.415 0 31.534-14.117 31.534-31.532V.493"/>
        <path id="prefix__k" d="M.144.493v60.549c0 17.415 14.116 31.532 31.532 31.532H44.7c17.415 0 31.534-14.117 31.534-31.532V.493"/>
        <path id="prefix__m" d="M.144.493v60.549c0 17.415 14.116 31.532 31.532 31.532H44.7c17.415 0 31.534-14.117 31.534-31.532V.493"/>
        <path id="prefix__o" d="M.144.493v60.549c0 17.415 14.116 31.532 31.532 31.532H44.7c17.415 0 31.534-14.117 31.534-31.532V.493"/>
        <path id="prefix__q" d="M.144.493v60.549c0 17.415 14.116 31.532 31.532 31.532H44.7c17.415 0 31.534-14.117 31.534-31.532V.493"/>
        <path id="prefix__s" d="M.144.493v60.549c0 17.415 14.116 31.532 31.532 31.532H44.7c17.415 0 31.534-14.117 31.534-31.532V.493"/>
        <path id="prefix__u" d="M.144.493v60.549c0 17.415 14.116 31.532 31.532 31.532H44.7c17.415 0 31.534-14.117 31.534-31.532V.493"/>
        <path id="prefix__w" d="M.144.493v60.549c0 17.415 14.116 31.532 31.532 31.532H44.7c17.415 0 31.534-14.117 31.534-31.532V.493"/>
        <path id="prefix__y" d="M.144.493v60.549c0 17.415 14.116 31.532 31.532 31.532H44.7c17.415 0 31.534-14.117 31.534-31.532V.493"/>
        <path id="prefix__A" d="M.144.493v60.549c0 17.415 14.116 31.532 31.532 31.532H44.7c17.415 0 31.534-14.117 31.534-31.532V.493"/>
        <path id="prefix__C" d="M.144.493v60.549c0 17.415 14.116 31.532 31.532 31.532H44.7c17.415 0 31.534-14.117 31.534-31.532V.493"/>
        <path id="prefix__E" d="M.144.493v60.549c0 17.415 14.116 31.532 31.532 31.532H44.7c17.415 0 31.534-14.117 31.534-31.532V.493"/>
    </defs>
    <g fill="none" fill-rule="evenodd">
        <g fill="#FFDCD6">
            <path d="M0 116L1366 116 1366 0.34 0 0.34z" transform="translate(0 332.473)"/>
            <path d="M696.467 26.67c0 1.016-24.113 1.839-53.86 1.839-29.744 0-53.86-.823-53.86-1.838 0-1.016 24.116-1.838 53.86-1.838 29.747 0 53.86.822 53.86 1.838M181.789 17.222c0 2.547-23.74 4.61-53.021 4.61-29.283 0-53.022-2.063-53.022-4.61s23.739-4.611 53.022-4.611c29.282 0 53.02 2.064 53.02 4.61M522.42 12.922c0 2.06-64.982 3.729-145.144 3.729S232.13 14.98 232.13 12.92s64.983-3.73 145.145-3.73 145.145 1.67 145.145 3.73" transform="translate(0 332.473)"/>
        </g>
        <path fill="#DFA80A" d="M213.805 275.749L536.194 275.749 536.194 231.963 213.805 231.963z"/>
        <g>
            <path fill="#F9B800" d="M474.203 250.205H122.506v-74.022c0-16.844 13.654-30.499 30.498-30.499h290.701c16.844 0 30.498 13.655 30.498 30.5v74.021z" transform="translate(80 .473)"/>
            <path fill="#DFA80A" d="M161.02 250.208h-50.892l-6.753-35.137c-.792-4.134 1.91-8.128 6.044-8.92l34.112-6.56c4.126-.792 8.119 1.909 8.911 6.044l8.578 44.573z" transform="translate(80 .473)"/>
            <path fill="#3847DC" d="M494.866 215.071l-6.76 35.137H437.22l8.57-44.574c.8-4.134 4.793-6.835 8.92-6.043l34.111 6.56c4.126.792 6.836 4.785 6.044 8.92" transform="translate(80 .473)"/>
            <path fill="#F9B800" d="M494.656 206.15l-34.109-6.56c-4.13-.794-8.124 1.912-8.918 6.042l-9.91 51.541c-1.787 9.284-9.909 15.993-19.362 15.993H175.882c-9.453 0-17.576-6.709-19.36-15.993l-9.91-51.54c-.796-4.13-4.789-6.837-8.92-6.043l-34.108 6.56c-4.132.794-6.837 4.787-6.042 8.918l16.281 84.674c.455 2.363 1.96 4.257 3.935 5.298 1.933 1.624 4.423 2.606 7.146 2.606H472.37c2.311 0 4.456-.706 6.234-1.913 2.865-.645 5.222-2.923 5.812-5.99l16.281-84.675c.795-4.13-1.91-8.124-6.04-8.919" transform="translate(80 .473)"/>
            <path fill="#00000C" d="M451.973 316.42H142.579c-4.845 0-8.773-3.928-8.773-8.773h326.94c0 4.845-3.927 8.773-8.773 8.773M145.895 347.61L140.844 347.61 146.68 316.42 155.065 316.42zM445.974 347.61L451.025 347.61 445.19 316.42 436.804 316.42z" transform="translate(80 .473)"/>
            <path stroke="#FFDCD6" stroke-width="2" d="M6.263 134.415L123.879 134.415 123.879 16.799 6.263 16.799z" transform="translate(80 .473)"/>
            <path fill="#FFDCD6" d="M19.127 121.552L111.017 121.552 111.017 29.662 19.127 29.662z" transform="translate(80 .473)"/>
            <path fill="#FF5748" d="M49.181 263.237c1.575-28.316 2.244-56.682 1.994-85.04-.249-28.276-1.407-56.543-3.473-84.745-1.162-15.869-2.614-31.715-4.348-47.532-.208-1.898-3.21-1.919-3 0 3.09 28.191 5.28 56.48 6.55 84.811 1.265 28.25 1.623 56.538 1.071 84.81-.31 15.908-.91 31.81-1.794 47.696-.107 1.93 2.893 1.923 3 0" transform="translate(80 .473)"/>
            <path fill="#FF5748" d="M47.238 107.956c-.74-7.136-7.106-12.441-11.29-18.271-8.625-12.02-9.88-27.771-9.262-42.552.618-14.783 2.788-29.75-.134-44.254 15.948 12.18 27.246 30.3 31.162 49.98 3.916 19.68-.275 40.747-10.346 58.102" transform="translate(80 .473)"/>
            <g transform="translate(80 .473) translate(25)">
                <mask id="prefix__b" fill="#fff">
                    <use xlink:href="#prefix__a"/>
                </mask>
                <path fill="#FF5748" d="M22.238 107.956c-.313-2.286-1.177-4.458-2.377-6.404-1.192-1.957-2.617-3.76-4.11-5.506-1.486-1.754-3.034-3.463-4.46-5.295-.73-.905-1.354-1.887-2.023-2.838-.628-.978-1.222-1.98-1.788-2.997-2.193-4.107-3.751-8.542-4.77-13.075C1.7 67.3 1.14 62.674.909 58.04c-.5-9.28.393-18.515.885-27.68.243-4.586.393-9.168.27-13.733C1.918 12.066 1.48 7.522.589 3.074L.078.527l2.07 1.57c8.105 6.145 14.948 13.88 20.294 22.497 5.323 8.63 9.185 18.197 11.059 28.169 1.882 9.979 1.694 20.277-.233 30.184-1.996 9.895-5.66 19.445-10.9 28.014 4.83-8.797 8.255-18.348 9.905-28.198 1.718-9.826 1.7-19.963-.327-29.692-2.03-9.73-5.777-19.095-11.07-27.502C15.61 17.146 8.815 9.706.957 3.66l1.56-.976c.892 4.592 1.308 9.25 1.427 13.893.096 4.645-.086 9.276-.36 13.885-.55 9.216-1.466 18.37-1.192 27.518.142 4.57.607 9.129 1.515 13.6.904 4.472 2.378 8.82 4.403 12.9.523 1.012 1.075 2.012 1.659 2.989.627.95 1.21 1.934 1.899 2.846 1.347 1.847 2.84 3.6 4.276 5.407 1.442 1.799 2.834 3.662 3.966 5.685 1.132 2.018 1.912 4.253 2.129 6.548" mask="url(#prefix__b)"/>
            </g>
            <path fill="#FF5748" d="M50.478 182.347c.144-19.46 4.561-38.851 12.891-56.443 2.322-4.905 4.947-9.66 7.843-14.25.775-1.228-1.172-2.358-1.943-1.135-10.527 16.684-17.317 35.608-19.894 55.162-.728 5.527-1.106 11.092-1.147 16.666-.011 1.448 2.239 1.45 2.25 0" transform="translate(80 .473)"/>
            <path fill="#FF5748" d="M57.172 137.498c-3.807-13.446 4.488-28.933 12.117-40.635 7.63-11.703 16.664-22.71 21.69-35.745 5.661 23.479 1.088 49.241-12.31 69.336-2.458 3.687-5.356 7.318-9.38 9.174-4.024 1.855-9.423 1.389-12.117-2.13" transform="translate(80 .473)"/>
            <path fill="#FD8970" d="M57.896 137.299c-2.94-10.718 1.591-21.92 6.7-31.222 5.388-9.813 12.329-18.63 18.35-28.04 3.4-5.313 6.464-10.833 8.755-16.72h-1.446c3.013 12.63 3.107 25.89.398 38.586-1.34 6.273-3.338 12.416-6.003 18.253-2.601 5.698-5.749 11.59-9.929 16.299-2.271 2.556-5.128 4.795-8.586 5.354-3.116.505-6.406-.317-8.432-2.841-.604-.753-1.66.314-1.061 1.06 3.692 4.599 10.612 4.093 15.113 1.07 5.432-3.648 9.017-10.076 12.001-15.731 6.405-12.138 9.925-25.762 10.316-39.475.22-7.722-.578-15.46-2.371-22.973-.186-.783-1.198-.638-1.446 0-8.293 21.3-27.145 37.103-33.317 59.398-1.568 5.665-2.057 11.66-.489 17.38.256.93 1.703.536 1.447-.398" transform="translate(80 .473)"/>
            <path fill="#FF5748" d="M48.95 202.189c4.282-13.778-.814-28.833-8.404-41.103-7.59-12.27-17.643-22.92-24.763-35.468-3.348 14.37-1.85 29.826 4.191 43.287 6.043 13.462 16.014 26.233 28.976 33.284" transform="translate(80 .473)"/>
            <path fill="#FD8970" d="M49.673 202.388c3.226-10.616 1.085-21.858-3.276-31.822-4.646-10.616-11.927-19.717-18.837-28.915-3.973-5.288-7.848-10.66-11.13-16.411-.31-.544-1.225-.456-1.37.179-2.773 12.085-2.265 24.845 1.505 36.662 3.442 10.788 9.538 20.999 17.3 29.233 4.291 4.552 9.217 8.51 14.706 11.522.847.465 1.605-.83.757-1.295-9.566-5.251-17.28-13.367-23.08-22.533-6.262-9.896-10.344-21.013-11.256-32.728-.533-6.856-.024-13.76 1.514-20.462l-1.37.179c11.042 19.35 29.598 35.005 33.873 57.759 1.14 6.066 1.018 12.309-.782 18.234-.282.925 1.166 1.32 1.446.398" transform="translate(80 .473)"/>
            <path fill="#FF5748" d="M48.468 261.228c-2.65-9.703-5.745-19.276-9.275-28.694-.504-1.343-2.68-.76-2.17.599 3.531 9.416 6.626 18.99 9.275 28.694.381 1.394 2.552.801 2.17-.6" transform="translate(80 .473)"/>
            <path fill="#FF5748" d="M43.117 247.18c2.118-5.592 1.015-10.86-1.186-16.421-2.2-5.56-5.726-10.48-9.215-15.335l-18.53-25.78c.238 11.29.942 22.807 5.117 33.298 4.174 10.492 12.757 21.394 23.649 24.374" transform="translate(80 .473)"/>
            <path fill="#FD8970" d="M43.84 247.38c2.896-7.958-.356-16.478-4.451-23.401-2.166-3.663-4.703-7.093-7.184-10.544l-8.106-11.28c-3.09-4.296-6.176-8.592-9.264-12.888-.407-.566-1.415-.423-1.398.378.217 10.097.773 20.38 3.906 30.059 2.632 8.126 7.185 15.878 13.59 21.604 3.419 3.056 7.386 5.48 11.819 6.73.93.263 1.328-1.184.399-1.446-7.881-2.222-14.117-8.281-18.501-14.991-5-7.651-7.562-16.451-8.69-25.463-.684-5.47-.905-10.985-1.023-16.493l-1.398.379c5.21 7.25 10.423 14.5 15.634 21.75 4.812 6.696 10.06 13.319 12.785 21.2 1.597 4.622 2.136 9.334.436 14.007-.331.909 1.118 1.3 1.446.399" transform="translate(80 .473)"/>
            <path fill="#FF5748" d="M49.938 234.565c-.447-14.88 2.869-29.804 9.606-43.084 1.907-3.759 4.084-7.372 6.499-10.826.832-1.189-1.118-2.315-1.943-1.135-8.682 12.42-14.123 26.957-15.866 42.002-.501 4.33-.677 8.688-.546 13.043.043 1.444 2.294 1.45 2.25 0" transform="translate(80 .473)"/>
            <path fill="#FF5748" d="M57.586 192.818c-3.688-9.478-1.563-20.637 3.131-29.66 4.694-9.021 12.047-16.371 19.778-22.98.957 13.95-1.253 28.107-6.417 41.1-1.479 3.723-3.308 7.493-6.47 9.953-3.16 2.46-6.76 3.905-9.883 1.398" transform="translate(80 .473)"/>
            <path fill="#FD8970" d="M58.31 192.619c-5.843-15.385 2.679-31.79 13.123-42.888 3.01-3.2 6.258-6.165 9.593-9.022l-1.28-.53c.558 8.449.004 16.949-1.708 25.244-.854 4.137-1.986 8.218-3.39 12.203-1.26 3.584-2.624 7.319-4.933 10.38-2.531 3.358-7.586 7.003-11.611 3.975-.771-.58-1.52.72-.756 1.295 3.409 2.566 7.38 1.078 10.463-1.263 3.14-2.384 5.04-5.842 6.536-9.418 3.525-8.436 5.71-17.447 6.633-26.536.536-5.277.615-10.588.266-15.88-.045-.67-.778-.961-1.281-.53-12.15 10.408-23.612 23.362-24.9 40.057-.348 4.51.189 9.075 1.799 13.312.339.893 1.79.506 1.446-.4" transform="translate(80 .473)"/>
            <path fill="#FF5748" d="M45.76 135.967c.463-7.93-4.346-15.11-9.126-21.454C25.67 99.961 13.725 86.147.91 73.195c1.321 18.776 8.981 38.221 24.714 48.554 6.762 4.442 14.982 7.26 19.732 13.81" transform="translate(80 .473)"/>
            <path fill="#FD8970" d="M46.51 135.967c.47-10.038-6.569-18.443-12.347-25.917-6.42-8.306-13.159-16.366-20.202-24.15-4.074-4.505-8.25-8.915-12.52-13.236-.434-.438-1.329-.133-1.28.531.762 10.506 3.342 20.991 8.313 30.322 2.403 4.51 5.381 8.733 8.945 12.401 3.645 3.753 7.867 6.68 12.422 9.216 5.344 2.977 11.136 5.76 14.867 10.802.568.768 1.87.021 1.295-.757-3.116-4.21-7.523-6.976-12.038-9.483-4.592-2.55-9.154-5.023-13.096-8.544-7.803-6.97-12.983-16.432-15.999-26.362-1.737-5.72-2.778-11.635-3.21-17.595l-1.28.53c7.225 7.311 14.181 14.886 20.836 22.72 3.378 3.975 6.68 8.016 9.902 12.12 3.102 3.947 6.271 7.906 8.965 12.15 2.92 4.597 5.186 9.701 4.926 15.252-.045.965 1.455.963 1.5 0" transform="translate(80 .473)"/>
            <path fill="#FF5748" d="M43.702 132.307c2.068 5.062 3.618 10.316 4.63 15.689.179.948 1.625.546 1.447-.398-1.013-5.374-2.563-10.627-4.631-15.69-.36-.881-1.811-.496-1.446.399" transform="translate(80 .473)"/>
            <path fill="#FD8970" d="M18.26 201.253c1.572 3.699 3.833 6.93 6.3 10.01 2.477 3.075 5.145 6.039 7.586 9.265 2.428 3.24 4.511 6.78 6.032 10.536 1.54 3.745 2.592 7.687 2.991 11.68-1.215-3.821-2.655-7.512-4.41-11.035-1.768-3.52-3.828-6.857-6.212-9.982-2.343-3.164-4.958-6.2-7.236-9.537-2.28-3.31-4.274-6.978-5.05-10.937M60.414 189.24c.239-3.2.832-6.36 1.642-9.464.798-3.11 1.858-6.148 3.082-9.118 1.258-2.955 2.682-5.841 4.339-8.59 1.645-2.754 3.486-5.392 5.6-7.805-1.421 2.874-2.86 5.694-4.225 8.543-1.353 2.854-2.67 5.715-3.871 8.625-1.235 2.896-2.353 5.84-3.441 8.806-1.076 2.97-2.076 5.974-3.126 9.003" transform="translate(80 .473)"/>
            <path fill="#FF5748" d="M19.331 138.712c1.28 4.73 3.322 9.058 5.735 13.178 1.232 2.047 2.49 4.08 3.852 6.06 1.337 1.996 2.702 3.987 4.101 5.968 1.358 2.015 2.734 4.034 4.037 6.115 1.267 2.102 2.536 4.22 3.593 6.46 2.165 4.428 3.78 9.269 3.95 14.188-1.41-4.695-3.538-8.978-6.007-13.071-1.26-2.031-2.536-4.057-3.918-6.028-1.347-1.993-2.726-3.977-4.124-5.964-1.356-2.02-2.732-4.044-4.016-6.14-1.257-2.112-2.502-4.247-3.532-6.503-2.108-4.46-3.629-9.341-3.67-14.263" transform="translate(80 .473)"/>
            <path fill="#FD8970" d="M60.689 136.112c.689-5.345 2.648-10.498 5.089-15.306 2.435-4.833 5.385-9.353 8.292-13.842 2.936-4.467 5.818-8.94 8.293-13.63 2.46-4.69 4.469-9.631 5.547-14.9-.247 5.386-1.896 10.677-4.145 15.587-2.243 4.938-5.106 9.536-8.021 14.036-2.948 4.478-5.931 8.895-8.599 13.489-2.654 4.597-4.954 9.403-6.456 14.566M9.123 88.378c1.486 3.548 3.298 6.883 5.492 9.93 2.202 3.044 4.79 5.737 7.646 8.21 2.81 2.516 5.849 4.843 8.71 7.427 2.872 2.556 5.61 5.384 7.63 8.67-2.676-2.767-5.6-5.16-8.625-7.468-3.024-2.307-6.122-4.57-9.04-7.132-2.898-2.56-5.597-5.495-7.615-8.846-2.034-3.333-3.506-7.002-4.198-10.791M35.403 21.9c2.505 4.904 4.74 9.926 6.605 15.125.965 2.59 1.727 5.252 2.485 7.912.712 2.674 1.3 5.38 1.836 8.095.964 5.449 1.596 10.964 1.676 16.493.126 5.524-.23 11.057-1.178 16.484-.299-5.502-.6-10.937-1.159-16.342-.294-2.7-.574-5.396-.985-8.075-.353-2.686-.805-5.356-1.302-8.017-.959-5.33-2.199-10.601-3.597-15.85-1.418-5.248-3.036-10.481-4.38-15.825" transform="translate(80 .473)"/>
        </g>
        <g transform="translate(90 257.473)">
            <mask id="prefix__d" fill="#fff">
                <use xlink:href="#prefix__c"/>
            </mask>
            <path fill="#97B8FF" d="M44.7 92.574H31.677C14.26 92.574.144 78.457.144 61.042V.493h76.09v60.55c0 17.414-14.118 31.531-31.533 31.531" mask="url(#prefix__d)"/>
            <mask id="prefix__f" fill="#fff">
                <use xlink:href="#prefix__e"/>
            </mask>
            <path fill="#97B8FF" d="M48.279 95.716c.07-6.482 3.56-12.795 9.12-16.181 5.865-3.572 13.514-3.56 19.447-.164 1.53.877 2.91-1.486 1.38-2.362-5.245-3.003-11.681-3.726-17.466-1.95-5.653 1.733-10.364 5.873-12.95 11.178-1.444 2.963-2.231 6.18-2.267 9.479-.02 1.762 2.717 1.763 2.736 0" mask="url(#prefix__f)"/>
            <mask id="prefix__h" fill="#fff">
                <use xlink:href="#prefix__g"/>
            </mask>
            <path fill="#97B8FF" d="M61.27 92.968c-.303-1.35-.424-2.796-.15-4.148.13-.64.341-1.28.568-1.73.147-.29.311-.57.493-.84.164-.241.192-.28.433-.543.432-.471.714-.708 1.215-1 .301-.174.481-.254.69-.324.142-.048.285-.09.431-.125.05-.012.483-.1.3-.071.613-.092 1.106-.046 1.564.067.515.127 1.006.364 1.348.658.56.483 1.385.55 1.935 0 .493-.493.563-1.45 0-1.934-2.718-2.34-6.738-1.9-9.212.579-2.664 2.668-3.042 6.615-2.254 10.139.161.72.995 1.144 1.682.955.743-.204 1.118-.96.956-1.683" mask="url(#prefix__h)"/>
            <g>
                <mask id="prefix__j" fill="#fff">
                    <use xlink:href="#prefix__i"/>
                </mask>
                <path fill="#97B8FF" d="M-3.316 37.346c5.256-3.16 12.09-3.441 17.562-.621 5.234 2.699 8.805 8.162 9.424 14 .338 3.18-.328 6.133-1.296 9.144-1.028 3.205-2.306 6.53-2.102 9.955.404 6.744 6.74 9.663 10.12 14.755 3.769 5.678 4.828 12.902 2.78 19.403-.53 1.683 2.11 2.403 2.639.727 1.95-6.195 1.32-13.004-1.52-18.824-1.431-2.934-3.47-5.403-5.826-7.638-2.327-2.206-4.973-4.494-5.41-7.87-.466-3.595 1.158-7.183 2.199-10.541.993-3.205 1.51-6.424 1.072-9.773-.817-6.237-4.44-12.111-9.932-15.281-6.426-3.712-14.741-3.617-21.091.2-1.508.907-.134 3.274 1.38 2.364" mask="url(#prefix__j)"/>
            </g>
            <g>
                <mask id="prefix__l" fill="#fff">
                    <use xlink:href="#prefix__k"/>
                </mask>
                <path fill="#97B8FF" d="M-3.154 49.398c1.116-3.799 6.096-3.683 9.166-2.854 1.75.474 3.184 1.397 3.833 3.16.567 1.538.537 3.246.384 4.855-.634 6.678-4.607 12.904-10.255 16.462-1.486.936-.115 3.305 1.38 2.362 5.589-3.519 9.7-9.26 11.129-15.724.689-3.115 1.006-6.679-.394-9.647-1.546-3.278-5.164-4.349-8.514-4.633-3.896-.33-8.175 1.233-9.367 5.291-.498 1.693 2.142 2.416 2.638.728" mask="url(#prefix__l)"/>
            </g>
            <g>
                <mask id="prefix__n" fill="#fff">
                    <use xlink:href="#prefix__m"/>
                </mask>
                <path fill="#97B8FF" d="M80.824 26.849c-15.33.887-32.883 5.168-41.685 19.042-1.932 3.046-3.236 6.842-2.257 10.444.857 3.156 3.393 6 6.754 6.402 3.956.47 7.613-2.403 10.946-4.117 3.582-1.841 7.434-3.5 11.488-3.865 3.981-.36 8.394.389 11.37 3.262 2.66 2.569 3.932 6.468 2.562 9.995-.638 1.642 2.006 2.354 2.638.727 2.53-6.507-2.074-13.332-8.12-15.665-7.225-2.788-14.996-.087-21.5 3.278-1.742.9-3.425 1.929-5.193 2.779-1.636.788-3.553 1.349-5.269.475-3.04-1.547-3.745-5.333-2.906-8.36.983-3.541 3.531-6.596 6.124-9.11 2.601-2.521 5.593-4.595 8.796-6.281 8.066-4.248 17.243-5.748 26.252-6.27 1.75-.1 1.762-2.838 0-2.736" mask="url(#prefix__n)"/>
            </g>
            <g>
                <mask id="prefix__p" fill="#fff">
                    <use xlink:href="#prefix__o"/>
                </mask>
                <path fill="#97B8FF" d="M80.92 30.941c-9.223 1.374-18.114 5.022-25.602 10.59-1.637 1.217-3.477 2.617-3.357 4.887.118 2.223 2.116 3.213 4.12 2.858 2.325-.412 4.608-1.44 6.818-2.243 2.305-.837 4.629-1.65 7.037-2.137 4.335-.876 9.392-.39 12.497 3.076 1.177 1.315 3.108-.626 1.935-1.934-5.654-6.312-14.863-4.292-21.81-1.784-2.117.765-4.225 1.6-6.398 2.196-.632.173-1.75.47-1.42-.597.262-.842 1.295-1.466 1.959-1.96 3.433-2.555 7.168-4.71 11.095-6.41 4.415-1.912 9.099-3.195 13.854-3.903 1.735-.259.998-2.896-.728-2.639" mask="url(#prefix__p)"/>
            </g>
            <g>
                <mask id="prefix__r" fill="#fff">
                    <use xlink:href="#prefix__q"/>
                </mask>
                <path fill="#97B8FF" d="M10.637 93.76c.27-2.863.549-5.912 1.909-8.502.555-1.06 1.396-2.454 2.609-2.855 1.294-.428 2.445.88 3.22 1.735 3.68 4.058 5.31 9.905 4.316 15.284-.32 1.72 2.318 2.459 2.638.727.985-5.326-.086-10.95-3.098-15.475-1.421-2.134-3.524-4.904-6.308-5.086-2.842-.186-4.934 2.518-6.006 4.827-1.362 2.937-1.715 6.159-2.016 9.346-.166 1.752 2.57 1.74 2.736 0" mask="url(#prefix__r)"/>
            </g>
        </g>
        <path fill="#1A1A1A" d="M90.143 273.15L166.233 273.15 166.233 268.15 90.143 268.15z"/>
        <g transform="translate(90 257.473)">
            <mask id="prefix__t" fill="#fff">
                <use xlink:href="#prefix__s"/>
            </mask>
            <path fill="#97B8FF" d="M48.279 95.716c.07-6.482 3.56-12.795 9.12-16.181 5.865-3.572 13.514-3.56 19.447-.164 1.53.877 2.91-1.486 1.38-2.362-5.245-3.003-11.681-3.726-17.466-1.95-5.653 1.733-10.364 5.873-12.95 11.178-1.444 2.963-2.231 6.18-2.267 9.479-.02 1.762 2.717 1.763 2.736 0" mask="url(#prefix__t)"/>
            <mask id="prefix__v" fill="#fff">
                <use xlink:href="#prefix__u"/>
            </mask>
            <path fill="#97B8FF" d="M61.27 92.968c-.303-1.35-.424-2.796-.15-4.148.13-.64.341-1.28.568-1.73.147-.29.311-.57.493-.84.164-.241.192-.28.433-.543.432-.471.714-.708 1.215-1 .301-.174.481-.254.69-.324.142-.048.285-.09.431-.125.05-.012.483-.1.3-.071.613-.092 1.106-.046 1.564.067.515.127 1.006.364 1.348.658.56.483 1.385.55 1.935 0 .493-.493.563-1.45 0-1.934-2.718-2.34-6.738-1.9-9.212.579-2.664 2.668-3.042 6.615-2.254 10.139.161.72.995 1.144 1.682.955.743-.204 1.118-.96.956-1.683" mask="url(#prefix__v)"/>
            <mask id="prefix__x" fill="#fff">
                <use xlink:href="#prefix__w"/>
            </mask>
            <path fill="#97B8FF" d="M-3.316 37.346c5.256-3.16 12.09-3.441 17.562-.621 5.234 2.699 8.805 8.162 9.424 14 .338 3.18-.328 6.133-1.296 9.144-1.028 3.205-2.306 6.53-2.102 9.955.404 6.744 6.74 9.663 10.12 14.755 3.769 5.678 4.828 12.902 2.78 19.403-.53 1.683 2.11 2.403 2.639.727 1.95-6.195 1.32-13.004-1.52-18.824-1.431-2.934-3.47-5.403-5.826-7.638-2.327-2.206-4.973-4.494-5.41-7.87-.466-3.595 1.158-7.183 2.199-10.541.993-3.205 1.51-6.424 1.072-9.773-.817-6.237-4.44-12.111-9.932-15.281-6.426-3.712-14.741-3.617-21.091.2-1.508.907-.134 3.274 1.38 2.364" mask="url(#prefix__x)"/>
            <g>
                <mask id="prefix__z" fill="#fff">
                    <use xlink:href="#prefix__y"/>
                </mask>
                <path fill="#97B8FF" d="M-3.154 49.398c1.116-3.799 6.096-3.683 9.166-2.854 1.75.474 3.184 1.397 3.833 3.16.567 1.538.537 3.246.384 4.855-.634 6.678-4.607 12.904-10.255 16.462-1.486.936-.115 3.305 1.38 2.362 5.589-3.519 9.7-9.26 11.129-15.724.689-3.115 1.006-6.679-.394-9.647-1.546-3.278-5.164-4.349-8.514-4.633-3.896-.33-8.175 1.233-9.367 5.291-.498 1.693 2.142 2.416 2.638.728" mask="url(#prefix__z)"/>
            </g>
            <g>
                <mask id="prefix__B" fill="#fff">
                    <use xlink:href="#prefix__A"/>
                </mask>
                <path fill="#97B8FF" d="M80.824 26.849c-15.33.887-32.883 5.168-41.685 19.042-1.932 3.046-3.236 6.842-2.257 10.444.857 3.156 3.393 6 6.754 6.402 3.956.47 7.613-2.403 10.946-4.117 3.582-1.841 7.434-3.5 11.488-3.865 3.981-.36 8.394.389 11.37 3.262 2.66 2.569 3.932 6.468 2.562 9.995-.638 1.642 2.006 2.354 2.638.727 2.53-6.507-2.074-13.332-8.12-15.665-7.225-2.788-14.996-.087-21.5 3.278-1.742.9-3.425 1.929-5.193 2.779-1.636.788-3.553 1.349-5.269.475-3.04-1.547-3.745-5.333-2.906-8.36.983-3.541 3.531-6.596 6.124-9.11 2.601-2.521 5.593-4.595 8.796-6.281 8.066-4.248 17.243-5.748 26.252-6.27 1.75-.1 1.762-2.838 0-2.736" mask="url(#prefix__B)"/>
            </g>
            <g>
                <mask id="prefix__D" fill="#fff">
                    <use xlink:href="#prefix__C"/>
                </mask>
                <path fill="#97B8FF" d="M80.92 30.941c-9.223 1.374-18.114 5.022-25.602 10.59-1.637 1.217-3.477 2.617-3.357 4.887.118 2.223 2.116 3.213 4.12 2.858 2.325-.412 4.608-1.44 6.818-2.243 2.305-.837 4.629-1.65 7.037-2.137 4.335-.876 9.392-.39 12.497 3.076 1.177 1.315 3.108-.626 1.935-1.934-5.654-6.312-14.863-4.292-21.81-1.784-2.117.765-4.225 1.6-6.398 2.196-.632.173-1.75.47-1.42-.597.262-.842 1.295-1.466 1.959-1.96 3.433-2.555 7.168-4.71 11.095-6.41 4.415-1.912 9.099-3.195 13.854-3.903 1.735-.259.998-2.896-.728-2.639" mask="url(#prefix__D)"/>
            </g>
            <g>
                <mask id="prefix__F" fill="#fff">
                    <use xlink:href="#prefix__E"/>
                </mask>
                <path fill="#97B8FF" d="M10.637 93.76c.27-2.863.549-5.912 1.909-8.502.555-1.06 1.396-2.454 2.609-2.855 1.294-.428 2.445.88 3.22 1.735 3.68 4.058 5.31 9.905 4.316 15.284-.32 1.72 2.318 2.459 2.638.727.985-5.326-.086-10.95-3.098-15.475-1.421-2.134-3.524-4.904-6.308-5.086-2.842-.186-4.934 2.518-6.006 4.827-1.362 2.937-1.715 6.159-2.016 9.346-.166 1.752 2.57 1.74 2.736 0" mask="url(#prefix__F)"/>
            </g>
        </g>
        <g>
            <path fill="#1A1A1A" d="M85.143 269.894L161.233 269.894 161.233 266.894 85.143 266.894z" transform="translate(5 10.473)"/>
            <path fill="#97B8FF" d="M113.903 339.574h18.57c15.885 0 28.76-12.876 28.76-28.759V253.26c-.653-1.928-1.311-3.85-1.972-5.767h-1.831c-2.722 2.518-3.656 6.727-4.533 10.48-7.39 31.631-32.14 58.416-62.695 69.127 5.186 7.533 13.865 12.474 23.7 12.474" transform="translate(5 10.473)"/>
            <path fill="#FD8970" d="M302.638 50.357c0-8.976 7.276-16.252 16.252-16.252 8.976 0 16.252 7.276 16.252 16.252 0 8.976-7.276 16.252-16.252 16.252-8.976 0-16.252-7.276-16.252-16.252" transform="translate(5 10.473)"/>
            <path stroke="#FD8970" stroke-width=".5" d="M302.638 50.357c0-8.976 7.276-16.252 16.252-16.252 8.976 0 16.252 7.276 16.252 16.252 0 8.976-7.276 16.252-16.252 16.252-8.976 0-16.252-7.276-16.252-16.252z" transform="translate(5 10.473)"/>
            <path fill="#3847DC" d="M303.095.211L299.889 5.764 306.301 5.764zM301.062 10.924L299.029 14.445 303.095 14.445zM309.382 5.632L305.31 12.685 313.454 12.685zM466.263 89.322L463.057 83.769 469.469 83.769zM464.229 78.609L462.197 75.088 466.262 75.088zM472.55 83.901L468.478 76.848 476.621 76.848z" transform="translate(5 10.473)"/>
            <path stroke="#D5A00B" stroke-width="2" d="M218.252 267.228l-14.056 2.85c-2.599.526-5.132-1.154-5.66-3.752l-9.624-47.479c-.526-2.599 1.153-5.133 3.752-5.659l14.056-2.85c2.6-.526 5.133 1.154 5.66 3.751l9.625 47.48c.526 2.597-1.154 5.132-3.752 5.659zM530.04 267.228l14.056 2.85c2.598.526 5.132-1.154 5.66-3.752l9.624-47.479c.526-2.599-1.154-5.133-3.752-5.659l-14.057-2.85c-2.598-.526-5.133 1.154-5.659 3.751l-9.625 47.48c-.526 2.597 1.153 5.132 3.752 5.659z" transform="translate(5 10.473)"/>
            <g stroke="#FFDCD6" stroke-width="2">
                <path d="M93.027 28.713L178.35 28.713M533.372 18.574L743.863 18.574M.842.609L162.91.609M483.91 37.978L563.717 37.978M609.957 55.957L701.437 55.957M10.959 50.458L119.252 50.458" transform="translate(5 10.473) translate(0 356)"/>
            </g>
            <path fill="#97B8FF" d="M430.08 382.046c0 16.52-57.683 29.91-128.835 29.91-71.154 0-128.835-13.39-128.835-29.91s57.681-29.911 128.835-29.911c71.152 0 128.834 13.39 128.834 29.91" transform="translate(5 10.473)"/>
            <path fill="#97B8FF" d="M417.367 395.018c-38.805-6.172-77.96-10.567-116.855-6.085-11.9 1.37-23.746 3.573-35.724 3.69-11.978.118-24.343-2.016-34.344-8.61-6.463-4.261-11.634-10.163-17.26-15.48-2.444-2.311-5.045-4.546-7.826-6.462-20.482 5.297-32.948 12.298-32.948 19.975 0 16.52 57.681 29.91 128.834 29.91 51.136 0 95.313-6.915 116.123-16.938" transform="translate(5 10.473)"/>
            <path stroke="#FFF" stroke-width="2" d="M403.344 380.428c0 11.19-45.711 20.262-102.1 20.262-56.387 0-102.098-9.072-102.098-20.262 0-11.19 45.71-20.262 102.099-20.262 56.388 0 102.099 9.072 102.099 20.262z" transform="translate(5 10.473)"/>
            <path fill="#1A1A1A" d="M250.815 356.412c-.152-6.556-2.789-13.023-7.263-17.818-1.294-1.387-2.738-2.642-3.883-4.153-1.146-1.51-1.992-3.359-1.842-5.25.15-1.89 1.52-3.758 3.4-4.02 1.894-.265 3.61 1.05 5.07 2.285-1.134-2.066-2.288-4.189-2.64-6.52-.354-2.33.252-4.953 2.106-6.409 1.972-1.55 4.95-1.374 7.045.004 2.096 1.377 3.386 3.738 3.985 6.175.598 2.435.58 4.975.558 7.482.112-2.36.882-4.685 2.201-6.645.64-.948 1.625-1.9 2.752-1.708.81.14 1.402.834 1.825 1.538 2.052 3.412 1.744 7.765.618 11.583-1.126 3.82-2.99 7.403-3.92 11.274-.469 1.941-.697 3.94-1.269 5.851-.573 1.912-1.546 3.79-3.166 4.955-1.62 1.165-3.986 1.441-5.595.26" transform="translate(5 10.473)"/>
            <path fill="#FFF" d="M361.368 373.384c-6.069.206-8.74.108-8.74.108s6.047 6.19 1.813 12.845c-10.282.598-109.109 2.107-109.109 2.107s-3.594-14.061-.185-26.753v-.011c2.888-10.728 10.793-20.478 30.11-19.924.01 0 .031 0 .042.01 15.56 1.673 37.731 12.53 37.731 12.53s2.725-16.015 20.401-16.471c10.152.14 19.36 5.96 18.915 19.523-.044 1.259.977 2.302 2.247 2.258 4.495-.163 10.228.424 11.465 8.132.467 2.899-1.758 5.548-4.69 5.646" transform="translate(5 10.473)"/>
            <path fill="#1A1A1A" d="M325.085 374.475l10.106-.4 10.106-.3 2.526-.087 1.263-.051c.422-.016.823-.042 1.338-.028 1.942.097 3.88 1.03 5.062 2.619.586.786 1.027 1.689 1.215 2.644.176.956.196 1.862.058 2.775-.247 1.82-1.112 3.448-2.235 4.739l-.169-.105c.651-1.563 1.034-3.173 1.001-4.727-.044-1.572-.453-3.035-1.42-4.062-.927-1.051-2.251-1.751-3.661-1.91-.327-.038-.767-.053-1.189-.07l-1.263-.051-2.526-.087-10.106-.3-10.106-.4v-.2z" transform="translate(5 10.473)"/>
            <path stroke="#1A1A1A" stroke-linecap="round" stroke-width="1.5" d="M344.117 352.86c0 2.07-1.68 3.75-3.75 3.75-2.07 0-3.75-1.68-3.75-3.75" transform="translate(5 10.473)"/>
            <path fill="#1A1A1A" d="M341.29 356.608L340.29 359.031 339.29 356.608z" transform="translate(5 10.473)"/>
            <path fill="#1A1A1A" d="M341.29 356.608L340.29 359.031 339.29 356.608zM343.836 354.8L344.614 357.303 342.297 356.077zM338.592 356.339L336.257 357.53 337.072 355.039zM320.822 372.731h2.79c4.925 0 8.83-4.154 8.524-9.07l-1.593-25.608c-15.088 2.012-17.512 16.241-17.512 16.241l-.146-.07-.587 9.437c-.306 4.916 3.6 9.07 8.524 9.07M367.528 363.77c0 1.894-1.535 3.43-3.429 3.43s-3.429-1.536-3.429-3.43c0-1.894 1.535-3.43 3.43-3.43 1.893 0 3.428 1.536 3.428 3.43M283.949 355.222c1.053 1.615 1.827 3.396 2.36 5.256.523 1.86.744 3.83.549 5.788-.054.986-.333 1.939-.585 2.897-.375.914-.713 1.857-1.275 2.679-.462.89-1.135 1.618-1.757 2.39-.648.749-1.424 1.364-2.136 2.052l-.403-1.201 8.835-.178c2.945-.07 5.888-.176 8.83-.16l1.105.014c.419.008.853.03 1.27.109.846.134 1.656.449 2.387.885.73.438 1.382 1.013 1.9 1.687.509.688.887 1.45 1.103 2.26.464 1.64.087 3.444-.788 4.749-.418.669-.938 1.252-1.5 1.76-.55.527-1.158.97-1.78 1.38l-.127-.154c1.01-1.067 1.954-2.203 2.5-3.474.57-1.258.654-2.605.19-3.787-.45-1.208-1.336-2.175-2.441-2.75-.554-.28-1.153-.47-1.766-.561-.307-.053-.612-.06-.93-.061l-1.106.01c-2.952.01-5.903-.107-8.853-.183l-8.85-.203-1.691-.04 1.289-1.161c.68-.613 1.439-1.16 2.066-1.828.6-.691 1.262-1.342 1.715-2.142.556-.74.89-1.594 1.285-2.425.276-.871.59-1.745.69-2.668.285-1.826.184-3.723-.224-5.56-.418-1.83-1.085-3.632-2.03-5.27l.168-.11z" transform="translate(5 10.473)"/>
            <path fill="#1A1A1A" d="M294.386 381.36c.892-.312 1.857-.388 2.815-.287.958.1 1.93.435 2.744 1.058.409.311.733.716 1.024 1.134.228.46.46.91.527 1.408.15.477.087.974.104 1.45-.05.474-.155.94-.274 1.388-.103-.467-.13-.922-.216-1.36-.13-.43-.168-.875-.363-1.26-.28-.804-.768-1.485-1.42-1.973-.635-.51-1.43-.84-2.27-1.08-.846-.23-1.738-.379-2.671-.478M347.04 379.785c.892-.313 1.857-.389 2.815-.287.958.1 1.93.434 2.744 1.058.408.31.733.716 1.024 1.134.228.458.46.91.527 1.408.15.477.087.974.104 1.448-.05.475-.155.942-.274 1.39-.103-.468-.13-.922-.216-1.362-.13-.43-.168-.873-.363-1.258-.281-.805-.768-1.485-1.42-1.974-.635-.51-1.43-.84-2.27-1.08-.846-.23-1.74-.378-2.671-.477M254.371 366.282c0 1.054-1.722 1.908-3.845 1.908-2.124 0-3.845-.854-3.845-1.908 0-1.054 1.721-1.908 3.845-1.908 2.123 0 3.845.854 3.845 1.908M282.059 348.251c0 2.079-2.345 3.766-5.238 3.766-2.893 0-5.24-1.687-5.24-3.766 0-2.08 2.347-3.767 5.24-3.767 2.893 0 5.238 1.687 5.238 3.767" transform="translate(5 10.473)"/>
            <path fill="#1A1A1A" d="M275.3 341.767c-.89 2.149-3.54 3.192-5.083 5.038-2.888 3.43-1.367 8.816-3.289 12.866-1.4 2.943-4.702 4.854-7.948 4.593-3.496-.271-6.515-2.78-10.01-3.116-1.293-.131-2.607.065-3.823.532 2.888-10.727 10.793-20.477 30.11-19.924.01 0 .031 0 .042.01" transform="translate(5 10.473)"/>
            <path fill="#F2F2F2" d="M323.195 368.688c1.097-.4 2.06-.978 2.884-1.7.817-.726 1.506-1.582 1.99-2.543.997-1.926 1.25-4.18 1-6.486 1.031 2.1 1.006 4.765-.11 6.945-.572 1.084-1.398 2.03-2.407 2.702-.999.677-2.184 1.093-3.357 1.082M263.424 325.071c.478 1.49.46 3.081.184 4.602-.305 1.514-.878 3-1.876 4.205.273-1.534.629-2.945.894-4.394.293-1.444.486-2.888.798-4.413M252.452 318.049c1.547 1.716 2.486 3.95 2.885 6.24.377 2.295.224 4.715-.677 6.844.12-2.294.07-4.497-.309-6.677-.355-2.182-1.032-4.28-1.899-6.407" transform="translate(5 10.473)"/>
            <path fill="#FFDCD6" d="M593.769 320.34L677.42 320.34 677.42 179.456 593.769 179.456z" opacity=".263" transform="translate(5 10.473)"/>
            <path fill="#FFDCD6" d="M590.587 181.232L680.602 181.232 680.602 172.328 590.587 172.328z" opacity=".263" transform="translate(5 10.473)"/>
            <path fill="#FFDCD6" d="M604.045 344.516L596.254 344.516 593.727 320.34 605.73 320.34zM675.693 344.516L667.902 344.516 665.375 320.34 677.378 320.34z" transform="translate(5 10.473)"/>
            <path stroke="#FFF" d="M602.207 216.521L668.981 216.521 668.981 193.074 602.207 193.074z" opacity=".409" transform="translate(5 10.473)"/>
            <path stroke="#FFF" d="M607.021 212.474L664.167 212.474 664.167 197.325 607.021 197.325z" opacity=".409" transform="translate(5 10.473)"/>
            <path fill="#FFF" d="M633.58 204.898c0-1.11.902-2.013 2.014-2.013 1.112 0 2.013.902 2.013 2.013 0 1.112-.9 2.014-2.013 2.014-1.112 0-2.014-.902-2.014-2.014" opacity=".409" transform="translate(5 10.473)"/>
            <path stroke="#FFF" d="M602.207 301.042L668.981 301.042 668.981 226.008 602.207 226.008z" opacity=".409" transform="translate(5 10.473)"/>
            <path stroke="#FFF" d="M609.957 292.333L661.231 292.333 661.231 234.717 609.957 234.717z" opacity=".409" transform="translate(5 10.473)"/>
            <path fill="#FFDCD6" d="M600.955 172.328L607.695 172.328 607.695 125.797 600.955 125.797zM630.501 171.156L623.902 172.527 614.436 126.969 621.034 125.598z" opacity=".263" transform="translate(5 10.473)"/>
            <path fill="#FFDCD6" d="M607.696 172.328L614.436 172.328 614.436 125.797 607.696 125.797z" transform="translate(5 10.473)"/>
            <path fill="#7174BD" d="M607.696 172.328L614.436 172.328 614.436 125.797 607.696 125.797z" transform="translate(5 10.473)"/>
            <path fill="#FFDCD6" d="M661.304 168.61h.63c1.019 0 1.859.84 1.859 1.86 0 1.03-.84 1.86-1.86 1.86h-14.6c-1.02 0-1.85-.83-1.85-1.86 0-1.02.83-1.86 1.85-1.86h.63c-4.42-2.6-7.08-7.66-6.36-13.06.95-7.2 7.56-12.26 14.76-11.3 7.2.95 12.26 7.56 11.3 14.76-.55 4.17-3 7.62-6.36 9.6" opacity=".263" transform="translate(5 10.473)"/>
            <path stroke="#FFDCD6" d="M644.614 157.583c0-5.532 4.485-10.018 10.02-10.018 5.532 0 10.018 4.486 10.018 10.018 0 5.534-4.486 10.02-10.019 10.02-5.534 0-10.019-4.487-10.019-10.02z" opacity=".263" transform="translate(5 10.473)"/>
            <path fill="#1A1A1A" d="M242.511 146.372s-15.663-18.701-2.404-31.592c9.428-8.634 12.195-15.445 7.938-26.938-4.257-11.493 5.808-27.668 14.257-26.82 1.493-7.288 36.186-13.194 42.996 18.945 2.13 10.003-7.875 22.348.852 29.797 8.726 7.449 5.108 17.468 5.108 17.468s20.826.623 13.606 23.61c-2.964 6.385-13.394 13.613-27.228 11.808-13.834-1.805-55.125-16.278-55.125-16.278" transform="translate(5 10.473)"/>
            <path fill="#FFBDAF" d="M263.254 107.821c.833.833 0 22.508 0 22.508l8.336 12.504 6.67-.834 2.5-12.504-5.002-20.007-12.504-1.667z" transform="translate(5 10.473)"/>
            <path fill="#FF8773" d="M275.758 109.489l-12.504-1.667c.272.27.366 2.763.37 5.99 2.818 4.313 7.632 8.517 15.805 10.363l-3.67-14.686z" opacity=".334" transform="translate(5 10.473)"/>
            <path fill="#FFBDAF" d="M257.419 96.984s0 20.007 22.507 23.341c12.505-4.168 20.007-16.672 20.007-32.51 0-14.172-10.837-23.342-33.345-17.507-11.67 12.505-9.17 26.676-9.17 26.676M356.62 209.523l4.665 38.103c.216 1.772 1.056 3.406 2.37 4.614l15.844 14.578c1.873 1.724 1.976 4.636.241 6.498-2.316 2.483-6.087 5.113-11.222 4.147-2.777-.523-5.246-2.107-7.087-4.25-6.562-7.632-11.457-13.206-13.608-15.644-.795-.9-1.36-1.979-1.652-3.144l-11.226-44.903h21.674zM364.955 217.858s16.886 23.641 20.866 29.578c.616.92 1.54 1.575 2.613 1.845 5.35 1.347 21.117 4.324 28.942 6.084 2.301.517 4.714-.138 6.417-1.768.69-.658 1.313-1.3 1.88-1.922 2.93-3.216.954-8.393-3.375-8.826l-21.953-2.195c-1.799-.18-3.39-1.245-4.244-2.84l-17.808-33.294-13.338 13.338zM253.15 150.76l-.28.497-14.675 26.048 16.732-7.851s9.627 3.458 4.019 10.095c-6.917 4.3-29.07 22.713-38.136 11.497-9.067-11.217 22.62-54.307 27.574-56.55 4.673.187 8.693 8.225 4.767 16.264" transform="translate(5 10.473)"/>
            <path fill="#FF8773" d="M378.293 204.52l-13.338 13.338s3.475 4.865 7.642 10.733c4.741-2.47 9.355-6.219 12.22-11.873l-6.524-12.197zM356.62 209.523h-21.675l6.791 27.165c5.893.181 12.373-.906 17.594-5.022l-2.71-22.143z" opacity=".334" transform="translate(5 10.473)"/>
            <path fill="#739BE0" d="M386.403 209.52c-6.1 19.39-30.98 20.51-30.98 20.51l-15.25-29.57-63.12 52.56v1.17l-16.35-32.62s84.87-62.64 91.62-63.98c5.84-1.16 17.2 21.66 28.65 42.35.4.71.79 1.43 1.18 2.13.01.01 0 .01 0 .01 1.43 2.54 2.85 5.04 4.25 7.44" transform="translate(5 10.473)"/>
            <path fill="#FFF" d="M382.153 202.07c.01.01 0 .01 0 .01-6.59 12.91-18.99 18.99-22.16 19.96-.41.12-.77.2-1.08.2-.26 0-.49-.06-.7-.2l1.11-1.66c-.22-.14-.41-.14-.42-.14 1.85-.1 15.7-6.59 22.07-20.3.4.71.79 1.43 1.18 2.13" transform="translate(5 10.473)"/>
            <path fill="#FFBDAF" d="M290.622 131.331s31.504 18.593 65.086 22.818c7.663.768 6.31 10.4.902 11.057 0 0-40.405 1.614-65.82-17.08-2.072-8.586-.168-16.795-.168-16.795" transform="translate(5 10.473)"/>
            <path fill="#FF8773" d="M340.765 160.558c-17.603-4.8-34.701-11.45-50.922-19.803.067 2.286.329 4.811.947 7.371 16.448 12.098 39.169 15.69 53.159 16.72.297-.445.464-.943.412-1.492-.154-1.614-2.032-2.37-3.596-2.796" opacity=".334" transform="translate(5 10.473)"/>
            <path fill="#FF8773" d="M289.83 140.2l.007.374.656-1.113c-.238.236-.458.484-.663.74" transform="translate(5 10.473)"/>
            <path fill="#97B8FF" d="M361.063 226.82c-12.77 12.56-35.55 3.21-35.55 3.21l.75-11.96c.04-.66.09-1.36.13-2.1.22-3.5.49-7.83.83-13.2-8.73 20.22-41.93 57.47-66.52 57.9-31.4.21-32.66-30.64-32.66-30.64l38.09-21.72s42.68-32.57 66.51-49.97c8.35-6.1 20.27-1.69 22.51 8.4 2.85 12.84 3.71 31.07 4.82 47.01.06.8.12 1.59.17 2.38.28 3.75.57 7.35.92 10.69" transform="translate(5 10.473)"/>
            <path fill="#FFF" d="M360.143 216.13c-5.48 3.92-11.63 5.17-17.26 5.17-7.24 0-13.61-2.07-16.62-3.23.04-.66.09-1.36.13-2.1 4.46 1.76 21.39 7.43 33.58-2.22.06.8.12 1.59.17 2.38" transform="translate(5 10.473)"/>
            <path fill="#FFF4E2" d="M227.414 230.014s19.362-46.604 21.912-72.466c.421-8.196 3.957-12.435-.942-23.052 5.104-3.806 14.914-5.366 14.914-5.366l10.074 10.857 7.388-12.127s2.46-2.927 11.158 3.855c0 12.103.834 35.6 3.49 54.394-14.8 11.196-27.65 20.963-27.65 20.963s-14.803 41.246-40.344 22.942" transform="translate(5 10.473)"/>
            <path fill="#FFF" d="M251.707 181.497V148.26c0-1.395 1.184-2.44 2.452-2.165l23.358 5.082c.495.108 1.01.014 1.445-.263l18.024-11.483c1.365-.87 3.089.192 3.089 1.902v31.204c0 .795-.397 1.53-1.037 1.922l-17.889 10.95c-.35.213-.75.311-1.151.281l-26.387-1.989c-1.072-.08-1.904-1.043-1.904-2.204" transform="translate(5 10.473)"/>
            <path fill="#3847DC" d="M249.823 183.164v-33.236c0-1.396 1.278-2.442 2.645-2.166l25.208 5.082c.534.108 1.09.014 1.56-.263l19.448-11.482c1.473-.87 3.333.191 3.333 1.902v31.204c0 .795-.428 1.53-1.119 1.921l-19.303 10.95c-.377.213-.81.312-1.244.281l-28.473-1.989c-1.158-.08-2.055-1.043-2.055-2.204" transform="translate(5 10.473)"/>
            <path fill="#3847DC" d="M299.169 164.167c-2.674-1.281-5.732.52-8.18 2.195-2.987 2.042-6.078 4.023-9.526 5.12-3.448 1.096-7.336 1.23-10.586-.36-3.517-1.722-5.824-5.172-7.758-8.577-1.935-3.403-3.75-7.02-6.771-9.51-1.812-1.493-4.214-2.448-6.525-2.477v32.607c0 1.16.898 2.123 2.055 2.204l28.474 1.988c.433.03.866-.067 1.244-.281l19.302-10.95c.69-.393 1.119-1.126 1.119-1.922v-6.287c-.525-1.608-1.362-3.037-2.848-3.75" transform="translate(5 10.473)"/>
            <path fill="#FFBDAF" d="M273.803 164.476c-.402-.724-1.313-.986-2.04-.583-3.653 2.027-8.945 4.94-12.144 6.656-.156-.117-.314-.23-.47-.334l10.874-7.31c.687-.461.87-1.393.408-2.081-.462-.687-1.395-.87-2.082-.408l-12.15 8.165c.851-1.563 1.672-3.291 1.994-4.632.193-.806-.303-1.615-1.109-1.808-.802-.194-1.615.302-1.808 1.108-.526 2.19-3.078 6.329-4.017 7.738-.078.116-.13.24-.172.366-7.464 3.456-20.079 9.26-20.307 9.128l9.013 11.067s14.75-7.428 20.062-11.833c2.435-.82 7.66-2.55 11.385-3.78.786-.26 1.213-1.107.954-1.894-.26-.788-1.11-1.215-1.895-.954-1.573.519-5.08 1.678-8.047 2.665l.004-.051c1.946-.857 5.002-2.205 9.824-4.333.758-.335 1.101-1.22.766-1.978-.335-.757-1.219-1.101-1.978-.767-2.273 1.004-5.064 2.235-7.489 3.304 3.817-2.073 8.462-4.646 9.841-5.411.724-.402.985-1.315.583-2.04" transform="translate(5 10.473)"/>
            <path stroke="#1A1A1A" stroke-linecap="round" stroke-width="1.5" d="M275.195 90.782c0 2.618-2.122 4.74-4.739 4.74-2.618 0-4.74-2.122-4.74-4.74" transform="translate(5 10.473)"/>
            <path fill="#1A1A1A" d="M271.358 95.52L270.358 98.584 269.358 95.52z" transform="translate(5 10.473)"/>
            <path fill="#1A1A1A" d="M271.358 95.52L270.358 98.584 269.358 95.52zM274.637 93.403L275.824 96.399 273.098 94.68zM268.011 95.008L265.26 96.686 266.491 93.708z" transform="translate(5 10.473)"/>
            <path stroke="#1A1A1A" stroke-linecap="round" stroke-width="1.5" d="M295.33 90.782c0 2.618-2.123 4.74-4.74 4.74-2.618 0-4.74-2.122-4.74-4.74" transform="translate(5 10.473)"/>
            <path fill="#1A1A1A" d="M291.491 95.52L290.491 98.584 289.491 95.52z" transform="translate(5 10.473)"/>
            <path fill="#1A1A1A" d="M291.491 95.52L290.491 98.584 289.491 95.52zM294.771 93.403L295.957 96.399 293.231 94.68zM288.144 95.008L285.394 96.686 286.625 93.708z" transform="translate(5 10.473)"/>
            <path stroke="#1A1A1A" stroke-linecap="round" d="M273.302 104.868s5.888 7.733 14.083 2.625" transform="translate(5 10.473)"/>
            <path stroke="#1A1A1A" stroke-linecap="round" stroke-width="1.5" d="M266.818 83.088s4.753-4.257 9.72 0M285.26 83.088s4.753-4.257 9.72 0" transform="translate(5 10.473)"/>
            <path fill="#FFBDAF" d="M378.7 179.655c-2.516-1.604-4.837-3.49-6.947-5.596l.041-.058c1.563 1.374 3.224 2.638 4.978 3.757.25.16.53.234.806.234.495 0 .98-.245 1.266-.693.445-.699.24-1.626-.458-2.072-2.383-1.518-4.596-3.307-6.578-5.318-.087-.088-.194-.137-.295-.199l-11.783-13.722-5.414 7.628s.073.205.206.557c-.018.052-.04.101-.053.157-.638 3.108-.912 6.286-.77 9.457.034.783.664 1.537 1.5 1.5.782-.035 1.537-.66 1.5-1.5-.066-1.466-.044-2.9.061-4.317.74 1.591 1.627 3.36 2.631 5.112 2.036 4.362 4.952 8.418 8.44 11.732.29.276.661.412 1.032.412.397 0 .793-.156 1.087-.467.571-.6.547-1.549-.054-2.12-1.879-1.786-3.57-3.81-5.035-5.983.525-.007 1.024-.069 1.498-.177 2.264 3.187 4.968 6.02 8.08 8.432.274.213.597.315.918.315.447 0 .891-.199 1.187-.58.508-.655.388-1.597-.267-2.105-2.682-2.082-5.107-4.58-7.139-7.336.2-.14.394-.287.58-.44 2.241 2.224 4.704 4.22 7.37 5.92.25.16.528.235.804.235.496 0 .98-.245 1.266-.694.445-.698.24-1.626-.458-2.07" transform="translate(5 10.473)"/>
            <path fill="#1A1A1A" d="M258.332 94.425s9.492-8.559 8.457-23.1c6.692-1.279 15.09-3.044 19.774 8.031 4.685 11.073 8.547 14.177 13.37 13.933 2.087-7.119.687-18.984.687-18.984s-4.442-4.928-7.058-6.328c-2.618-1.399-6.512-4.198-7.668-4.076-1.156.121-19.47 4.016-19.47 4.016l-5.05 3.894s-3.956 6.242-4.99 7.35c-1.034 1.107-3.529 5.488-3.529 5.488l2.13 8.701 3.346 1.075z" transform="translate(5 10.473)"/>
            <path fill="#FFBDAF" d="M261.463 96.394c.724 2.904-.5 5.709-2.734 6.266-2.234.556-4.63-1.347-5.355-4.25-.724-2.904.501-5.71 2.735-6.266 2.233-.557 4.63 1.346 5.354 4.25" transform="translate(5 10.473)"/>
            <path fill="#97B8FF" d="M335.533 232.727c.168-2.646.131-5.327.087-7.97l-.502-29.695c-.022-1.327-.292-2.994-1.57-3.348-1.028-.284-2.013.509-2.785 1.244l-33.818 32.197c-6.845 6.516-13.745 13.076-21.716 18.154-7.97 5.078-17.176 8.637-26.626 8.51-4.869-.066-9.79-1.23-14.14-3.407 4.63 6.564 12.582 12.346 26.237 12.254 24.592-.425 57.794-37.672 66.52-57.892-1.489 23.625-1.702 27.256-1.702 27.256s4.208 1.724 10.015 2.697" transform="translate(5 10.473)"/>
            <path fill="#FF8773" d="M244.187 189.235c-.221-1.216-.754-2.347-1.703-3.122-3.116-2.544-7.755.23-11.742-.303-2.819-.377-5.197-2.505-6.43-5.067-1.234-2.562-1.46-5.503-1.261-8.34.03-.433.077-.865.126-1.296-3.781 8.444-5.487 16.078-2.367 19.94 5.243 6.485 14.859 3.06 23.377-1.812" opacity=".334" transform="translate(5 10.473)"/>
            <path fill="#1A1A1A" d="M280.812 92.5l-.504 4.654c-.058.534-.257 1.239.1 1.71.327.434.916.397 1.35.153.549-.308.906-.688 1.576-.429.563.217.892.739.882 1.338-.022 1.433-1.473 2.078-2.724 1.986-.48-.036-.478.715 0 .75 1.232.09 2.576-.392 3.17-1.543.543-1.054.353-2.419-.712-3.061-.455-.275-1.022-.39-1.543-.261-.321.079-.558.264-.828.443-.11.073-.33.274-.468.215-.234-.101-.144-.444-.126-.622.181-1.779.385-3.555.577-5.333.051-.479-.7-.476-.75 0M255.283 96.332c.008-.888.705-1.725 1.592-1.858.868-.13 1.779.46 2.048 1.285.148.457.873.261.723-.198-.393-1.208-1.65-2.008-2.91-1.82-1.238.184-2.191 1.356-2.203 2.59-.005.483.745.483.75 0" transform="translate(5 10.473)"/>
            <path fill="#1A1A1A" d="M256.784 93.853c-1.57 1.681-1.604 4.259-.103 5.994.317.365.846-.167.531-.531-1.23-1.42-1.176-3.564.103-4.933.33-.352-.2-.883-.53-.53" transform="translate(5 10.473)"/>
            <path fill="#F2F2F2" d="M240.867 135.087c-1.96-2.274-2.862-5.463-2.564-8.52.306-3.055 1.818-6.006 4.189-7.849-1.778 2.39-2.916 5.106-3.195 7.948-.287 2.841.294 5.731 1.57 8.421M278.303 65.471c2.38-.636 5.097.033 7.089 1.61 1.988 1.58 3.258 4.075 3.176 6.538-.718-2.325-2.002-4.333-3.797-5.756-1.793-1.427-4.041-2.223-6.468-2.392M316.147 130.439c1.892.441 3.53 1.791 4.591 3.441 1.053 1.657 1.587 3.711 1.19 5.613-.406-1.875-1.055-3.558-2.031-5.075-.964-1.526-2.22-2.823-3.75-3.979" transform="translate(5 10.473)"/>
            <path fill="#FFBDAF" d="M367.767 136.22s-4.446.095-5.487-3.026c2.743-1.136 24.594-5.392 36.987-5.203l11.729.189-.378 10.027-15.135-1.324s-6.621 1.23-12.11 7.662c-2.173 2.08-4.255 1.608-4.255 1.608s2.175-7.432 4.256-9.061c-6.053.264-15.607-.871-15.607-.871M524.133 87.195L522.956 105.927 511.678 114.165 501.479 103.966 505.892 89.353z" transform="translate(5 10.473)"/>
            <path fill="#FFBDAF" d="M503.813 96.233c1.083.765 2.247 1.5 3.509 2.195.407.225.873.345 1.339.338 4.791-.072 10.117-1.337 15.017-4.326l.455-7.245-18.242 2.158-2.078 6.88z" transform="translate(5 10.473)"/>
            <path fill="#FFBDAF" d="M497.458 46.103s-18.07 33.627 9.862 48.991c.409.224.874.344 1.341.338 9.982-.148 22.282-5.464 28.222-20.79 3.628-10.886-.883-24.518-4.61-26.773-3.727-2.256-21.478-12.063-34.815-1.766M486.849 219.249s-7.317 83.348-7.397 94.406c-.968 10.169-3.167 22.657-4.357 29.021-.561 3.005.537 6.071 2.827 7.961 3.823 3.155 10.155 6.027 16.456-1.485 1.449-1.725 2.137-4.025 1.889-6.313-1.893-17.444-2.805-29.453-2.805-29.453l21.52-94.137s-14.763-15.914-28.133 0M466.062 241.448l-30.418 86.298c-.76 2.157-2.257 3.976-4.226 5.14l-25.274 14.938c-1.935 1.144-4.334 1.123-6.262-.032-2.851-1.71-6.13-5.219-4.411-9.732.894-2.346 2.885-4.112 5.257-4.933 7.98-2.76 13.395-4.799 16.685-6.654 2.49-1.405 4.222-3.842 4.752-6.652l16.382-86.665 27.514 8.292z" transform="translate(5 10.473)"/>
            <path fill="#000" d="M504.858 241.583h-51.595c-6.509 0-11.787-5.277-11.787-11.788v-2.755c0-6.51 5.278-11.787 11.787-11.787h51.595c6.511 0 11.788 5.277 11.788 11.787v2.755c0 6.511-5.277 11.788-11.788 11.788" transform="translate(5 10.473)"/>
            <path fill="#FFBDAF" d="M410.996 128.18l-11.729-.189c-.167-.003-.342 0-.512-.002-.506 3.55-.07 6.882.45 9.22l11.412.998.38-10.027z" transform="translate(5 10.473)"/>
            <path fill="#97B8FF" d="M438.876 208.154c3.979-7.4 17.9-46.053 24.507-67.612-24.766.205-60.705-.009-60.705-.009s-3.71-9.21 0-17.6c11.896.613 43.484 5.116 64.634-14.738 14.599-12.075 35.159-7.515 35.159-7.515s6.048 13.091 20.579 3.754c9.62.077 16.783 3.556 21.491 12.153 4.707 8.596-5.415 27.827-5.415 27.827l-14.993 65.72s-27.011 22.88-83.334 2.042c-1.28-.473-2.569-2.82-1.923-4.022" transform="translate(5 10.473)"/>
            <path fill="#FFBDAF" d="M438.548 233.156l-7.017 37.122c5.14 3.167 12.64 6.133 22.36 5.698l12.17-34.528-27.513-8.292zM486.849 219.249s-2.187 24.905-4.182 49.294c5.176 2.413 12.329 4.518 20.285 3.331l12.03-52.625s-14.763-15.914-28.133 0" transform="translate(5 10.473)"/>
            <path fill="#1A1A1A" d="M476.264 220.4c-1.98 8.48-6.351 26.97-9.681 39.77-.28 1.09-.56 2.14-.83 3.14-.88 3.29-1.65 6.03-2.25 7.87-26.17 6.71-40.2-11.13-40.2-11.13s.94-3.49 2.65-9c.32-1.05.68-2.18 1.05-3.37 2.89-9.04 7.31-21.72 12.71-33.53 1.63-3.58 4.59-6.39 8.25-7.84 11.2-4.45 21.21.92 25.68 5.21 2.38 2.29 3.37 5.66 2.62 8.88M520.963 214.66c-.43 8.88-1.21 23.97-2.17 35.95-.09 1.27-.2 2.51-.3 3.69-.27 3.05-.55 5.8-.83 8.06-22.06 15.92-43.41-2.32-43.41-2.32s.45-2.91 1.27-7.63c.16-.98.35-2.04.54-3.16 1.9-10.74 5.13-27.65 8.94-42.03.87-3.29 3.1-6.09 6.16-7.57 7.81-3.79 17.13-1.32 22.54 1.77 4.72 2.69 7.52 7.81 7.26 13.24" transform="translate(5 10.473)"/>
            <path fill="#FFF" d="M466.583 260.17c-.279 1.09-.56 2.14-.83 3.14-2.739.36-5.33.52-7.779.52-17.851 0-28.021-8.49-32.021-12.78.32-1.05.68-2.18 1.05-3.37 2.641 3.3 14.721 16.17 39.58 12.49M518.793 250.61c-.09 1.27-.199 2.51-.3 3.69-6.519 3.69-13 5.01-18.92 5.01-10.979 0-20.07-4.54-24.05-6.9.161-.98.35-2.04.541-3.16 4.389 2.88 23.37 13.75 42.729 1.36" transform="translate(5 10.473)"/>
            <path fill="#FFFFFE" d="M491.709 66.213s-6.368-36.168 6.433-44.14c3.031-2.134 7.41-.225 9.88 8.196 2.247 1.235 3.584-7.41 7.744-6.737 4.159.674 3.597 7.636 4.496 8.758.897 1.123 22.067 2.287 22.846 15.424.779 13.138-6.356 25.511-6.356 25.511l-1.348-.949s1.797-12.912-3.031-18.639c-3.257-3.368-11.902 1.941-18.527-3.184-6.625-5.125-14.947-11.068-18.528 2.96-2.357 9.993-3.609 12.8-3.609 12.8" transform="translate(5 10.473)"/>
            <path fill="#FFBDAF" d="M542.822 73.85c-.947 3.183-3.553 5.217-5.819 4.543-2.267-.674-3.337-3.802-2.39-6.986.947-3.183 3.553-5.218 5.82-4.544 2.266.674 3.336 3.802 2.39 6.986" transform="translate(5 10.473)"/>
            <path fill="#97B8FF" d="M528.268 134.099c.216-.04.434-.057.65-.09.798-2.826 1.486-5.683 2.04-8.568l-2.69 8.658zM528.918 134.009c-5.141 18.209-15.228 35.019-28.973 48.032-15.878 15.032-36.544 24.929-58.21 27.873-.191.82-.298 1.644-.366 2.468 55.933 20.472 82.764-2.247 82.764-2.247l14.993-65.72s1.927-3.661 3.708-8.501c-4.395-1.864-9.202-2.618-13.916-1.905" transform="translate(5 10.473)"/>
            <path stroke="#FFF" stroke-linecap="round" stroke-width="1.5" d="M468.888 130.272s29.846 6.56 61.079 5.31M468.888 136.724s29.846 6.561 61.079 5.311" transform="translate(5 10.473)"/>
            <path fill="#1A1A1A" d="M500.336 189.889l-34.653-.872c-2.545-.065-4.557-2.18-4.493-4.725l1.13-44.935c.066-2.546 2.18-4.557 4.726-4.493l34.653.873c2.545.064 4.557 2.179 4.492 4.724l-1.13 44.936c-.065 2.545-2.18 4.556-4.725 4.492" transform="translate(5 10.473)"/>
            <path fill="#FFF" d="M481.273 158.52c-2.688-1.457-3.685-4.816-2.229-7.503 1.457-2.687 4.816-3.685 7.503-2.228 2.687 1.456 3.685 4.815 2.23 7.502-1.457 2.687-4.816 3.685-7.504 2.229" transform="translate(5 10.473)"/>
            <path fill="#FFBDAF" d="M514.13 187.148c-.358-10.745-1.91-13.313-1.91-13.313-.177 0-4.795 2.15-12.513 1.498-.713-2.268-2.047-5.332-3.988-6.93-.571-.471-1.434-.486-1.971.023-.658.622-.597 1.656.084 2.202 1.102.886 2.013 2.674 2.64 4.287-1.243-.219-2.542-.5-3.907-.881-.72-.201-1.464-.273-2.196-.213-4.786-2.779-8.416-6.083-8.471-6.133-.595-.545-1.517-.506-2.062.087-.545.593-.506 1.516.086 2.06.198.183 2.758 2.514 6.45 4.951.266.174.292.56.04.754-.308.239-.601.499-.873.78-.195.203-.483.293-.752.21-2.664-.828-4.936-2.168-4.966-2.186-.692-.411-1.587-.186-2 .507-.412.691-.186 1.585.505 1.999.126.075 2.328 1.376 5.1 2.305.248.083.415.326.374.584-.011.072-.022.144-.03.219-.044.352-.41.567-.74.438-1.94-.767-3.391-1.623-3.416-1.637-.69-.412-1.587-.188-2 .506-.411.693-.185 1.587.506 2 .128.076 2.404 1.42 5.24 2.35.459.151.81.516.958.975.027.087.054.173.083.26-2.588-.83-4.764-2.112-4.792-2.13-.692-.411-1.588-.186-2 .507-.413.691-.187 1.587.504 2 .174.102 4.302 2.544 8.429 3.117.068.01.135.013.2.013.056 0 .109-.008.162-.014 5.323 2.972 20.706 5.017 27.226-1.195" transform="translate(5 10.473)"/>
            <path fill="#97B8FF" d="M506.677 170.41s1.523 23.02 9.388 29.05c12.61-7.18 42.578-23.766 47.08-33.53 4.504-9.765-19.11-50.228-19.11-50.228l-20.78 16.85 12.69 22.023s-13.918 12.573-29.268 15.835" transform="translate(5 10.473)"/>
            <path fill="#739BE0" d="M529.328 145.999c.763 1.413 1.5 2.839 2.23 4.267.731 1.428 1.481 2.847 2.19 4.285l.157.319-.316.209c-4.445 2.941-8.943 5.797-13.452 8.634l-6.794 4.207c-2.28 1.379-4.535 2.796-6.86 4.109l.322-.748c.8 3.734 1.571 7.474 2.305 11.222.736 3.748 1.424 7.508 2.061 11.278-1.044-3.678-2.036-7.369-2.982-11.07-.946-3.7-1.855-7.41-2.737-11.125l-.114-.48.436-.269 6.796-4.19 6.817-4.165c4.563-2.744 9.138-5.47 13.767-8.11l-.159.528c-.638-1.471-1.236-2.961-1.855-4.441-.616-1.481-1.227-2.964-1.812-4.46M533.372 189.445c-1.117.993-2.308 1.856-3.524 2.675-1.212.827-2.467 1.577-3.73 2.312-1.277.712-2.564 1.407-3.894 2.026-1.326.627-2.676 1.208-4.102 1.66 1.116-.995 2.307-1.86 3.523-2.678 1.212-.826 2.467-1.577 3.732-2.31 1.277-.71 2.564-1.405 3.894-2.024 1.326-.627 2.676-1.208 4.101-1.66" transform="translate(5 10.473)"/>
            <path stroke="#1A1A1A" stroke-linecap="round" stroke-width="1.5" d="M497.122 55.328s4.571-4.093 9.347 0M520.491 55.987s4.714-3.928 9.341.332" transform="translate(5 10.473)"/>
            <path fill="#1A1A1A" d="M502.126 68.348c0 1.514-.736 2.741-1.645 2.741-.907 0-1.643-1.227-1.643-2.74 0-1.515.736-2.742 1.643-2.742.909 0 1.645 1.227 1.645 2.741M525.973 68.348c0 1.514-.736 2.741-1.645 2.741-.907 0-1.643-1.227-1.643-2.74 0-1.515.736-2.742 1.643-2.742.909 0 1.645 1.227 1.645 2.741" transform="translate(5 10.473)"/>
            <path stroke="#1A1A1A" stroke-linecap="round" d="M505.353 82.07s6.38 4.252 10.89-1.29" transform="translate(5 10.473)"/>
            <path stroke="#1A1A1A" stroke-width="2" d="M490.736 67.104c0-5.382 4.363-9.746 9.745-9.746 5.383 0 9.746 4.364 9.746 9.746 0 5.382-4.363 9.746-9.746 9.746-5.382 0-9.745-4.364-9.745-9.746zM515.156 68.459c0-5.383 4.363-9.746 9.746-9.746 5.382 0 9.746 4.363 9.746 9.746 0 5.382-4.364 9.746-9.746 9.746-5.383 0-9.746-4.364-9.746-9.746z" transform="translate(5 10.473)"/>
            <path stroke="#1A1A1A" stroke-linecap="round" stroke-width="2" d="M510.228 67.104L515.245 67.145" transform="translate(5 10.473)"/>
            <path fill="#1A1A1A" d="M511.022 70.407c.031 1.445-.067 2.907-.365 4.324-.053.25-.092.554-.364.653-.255.092-.605-.018-.875.005-.462.039-.858.298-1.084.704-.502.896-.07 1.95.813 2.397 1.129.57 2.337.158 3.425-.295.438-.184.245-.91-.2-.724-.93.388-2.167.92-3.088.222-.358-.27-.522-.711-.346-1.137.209-.501.65-.406 1.1-.404 1.17.005 1.327-1.036 1.476-1.977.2-1.247.286-2.506.257-3.768-.01-.482-.76-.484-.75 0M537.499 72.262c-.019-.933.347-1.848 1.023-2.495.694-.663 1.658-.968 2.607-.889.202.016.375-.185.375-.375 0-.217-.172-.358-.375-.375-1.141-.095-2.309.318-3.137 1.11-.813.777-1.265 1.902-1.243 3.024.01.482.76.483.75 0" transform="translate(5 10.473)"/>
            <path fill="#1A1A1A" d="M539.13 69.098c1.238 1.74 1.246 4.017.018 5.762-.28.396.37.771.647.38 1.368-1.944 1.362-4.584-.017-6.52-.278-.39-.928-.016-.648.378M516.188 35.762c-.126 2.502-.54 4.928-.409 7.318.05 1.189.248 2.369.596 3.506.36 1.136.89 2.22 1.646 3.22-1.05-.697-1.85-1.77-2.373-2.94-.534-1.175-.797-2.458-.866-3.738-.104-2.572.514-5.043 1.406-7.366M521.979 49.841c-1.442-.644-2.48-2.05-2.952-3.57-.46-1.523-.39-3.272.446-4.61-.058 1.551.088 2.955.51 4.317.41 1.365 1.077 2.612 1.996 3.863" transform="translate(5 10.473)"/>
            <path fill="#739BE0" d="M499.745 102.72c.98 2.326 2.632 4.205 4.601 5.566 1.975 1.35 4.264 2.228 6.614 2.463 2.364.262 4.784-.069 7.1-.782 2.32-.727 4.535-1.847 6.645-3.219-1.71 1.853-3.86 3.338-6.247 4.32-2.38.991-5.034 1.437-7.655 1.172-2.629-.293-5.154-1.35-7.162-3.026-2.01-1.65-3.52-3.982-3.896-6.495" transform="translate(5 10.473)"/>
        </g>
    </g>
</svg>
