<svg width="79" height="72" viewBox="0 0 79 72" fill="none" xmlns="http://www.w3.org/2000/svg">
<path d="M43 72C62.8823 72 79 55.8823 79 36C79 16.1177 62.8823 0 43 0C23.1177 0 7 16.1177 7 36C7 55.8823 23.1177 72 43 72Z" fill="#3F51B5"/>
<path d="M36 71.5C55.6061 71.5 71.5 55.6061 71.5 36C71.5 16.3939 55.6061 0.5 36 0.5C16.3939 0.5 0.5 16.3939 0.5 36C0.5 55.6061 16.3939 71.5 36 71.5Z" stroke="black"/>
<path fill-rule="evenodd" clip-rule="evenodd" d="M32.5598 52C31.6983 52 31 51.2966 31 50.4293V23.5711C31 22.9688 31.3418 22.4194 31.8804 22.157C32.4189 21.8945 33.0591 21.9652 33.5283 22.339L50.4073 35.7681C50.7817 36.0659 51 36.5199 51 37.0002C51 37.4806 50.7817 37.9345 50.4073 38.2324L33.5275 51.6619C33.2519 51.8809 32.911 52 32.5598 52ZM34 27V47L47 37.0002L34 27Z" fill="black"/>
</svg>
