<svg xmlns="http://www.w3.org/2000/svg" width="424" height="460" viewBox="0 0 424 460">
    <g fill="none" fill-rule="evenodd">
        <path stroke="#060606" stroke-width="1.037" d="M364.868 121.076L364.868 68.422 333.765 68.422 333.765 96.648 211.554 0.659 0.518 166.412 0.518 458.593 422.589 458.593 422.589 166.412z"/>
        <path fill="#FF5847" d="M176.371 96.948c0-22.508 16.092-40.755 35.942-40.755 19.851 0 35.943 18.247 35.943 40.755h-71.885z"/>
        <path stroke="#060606" stroke-width="1.081" d="M212.314 56.193L212.314 1.949"/>
        <path fill="#FFF" d="M248.429 96.948L422.588 458.594 0.518 458.594 176.545 96.948z" opacity=".374"/>
        <path fill="#243495" d="M413.53 424.597c-1.304-5.734-9.826-7.342-16.617-7.695-68.533-3.57-298.041-1.135-335.83-1.2-6.261-.01-12.74.022-18.46 2.214-5.718 2.192-10.492 7.162-9.808 12.51.588 4.601 4.943 8.224 9.654 10.474 8.859 4.232 19.355 4.961 29.486 5.278 43.067 1.35 86.07-3.08 129.143-4.308 59.977-1.708 120.106 2.797 179.982-.638 10.267-.589 21.453-1.777 28.63-8.109 2.575-2.27 4.528-5.417 3.82-8.526"/>
        <path fill="#060606" d="M264.821 436.268L263.696 436.145 277.279 311.483 278.403 311.605zM328.732 436.268L315.149 311.605 316.273 311.483 329.856 436.145z"/>
        <path fill="#060606" d="M268.074 399.859L325.479 399.859 325.479 398.727 268.074 398.727z"/>
        <path fill="#3F50B5" d="M268.074 313.242L326.692 313.242 326.692 309.846 268.074 309.846z"/>
        <path fill="#060606" d="M200.618 436.268L199.493 436.11 213.076 275.232 214.201 275.391zM392.406 436.268L378.824 275.391 379.948 275.232 393.531 436.11z"/>
        <path fill="#D28350" d="M196.327 277.936L396.697 277.936 396.697 265.993 196.327 265.993z"/>
        <path fill="#FF5847" d="M242.55 249.156s2.203 16.598-10.278 16.834c-12.482.236-8.994-17.567-8.994-17.567l19.272.733z"/>
        <path fill="#FF5847" d="M221.52 252.1c-2.212 0-4.011 1.8-4.011 4.011 0 2.211 1.799 4.01 4.01 4.01 2.212 0 4.012-1.799 4.012-4.01 0-2.212-1.8-4.01-4.011-4.01m0 9.905c-3.251 0-5.896-2.644-5.896-5.895 0-3.25 2.645-5.897 5.896-5.897 3.25 0 5.896 2.646 5.896 5.897 0 3.251-2.645 5.895-5.896 5.895"/>
        <path fill="#F7F7F7" d="M231.178 243.034c-.542-.416-.9-.772-1.294-1.231-.375-.447-.71-.95-.983-1.513-.56-1.114-.79-2.531-.566-3.88.22-1.35.818-2.541 1.505-3.54.696-.998 1.494-1.851 2.321-2.598 1.661-1.494 3.437-2.652 5.232-3.698.45-.262.901-.521 1.354-.755l1.31-.694c.78-.406 1.543-.824 2.268-1.268 1.46-.873 2.8-1.842 3.842-2.827.52-.491.935-.991 1.207-1.426.274-.43.363-.8.271-.876-.078-.106-.338.25-.37.59-.04.352-.064.474-.264.392-.196-.075-.565-.291-1.038-.517-.487-.231-1.085-.474-1.714-.71-3.715-1.39-5.6-5.528-4.21-9.243 1.39-3.715 5.528-5.601 9.243-4.21.597.223 1.146.517 1.642.868l.278.202c1.987 1.425 4.078 2.993 6.016 5.816.931 1.413 1.837 3.252 2.068 5.482.253 2.202-.293 4.508-1.192 6.103-.886 1.639-1.97 2.782-3.018 3.694-1.055.905-2.11 1.599-3.147 2.177-2.075 1.144-4.1 1.922-6.104 2.546-1 .317-1.996.584-2.988.828-.527.139-.894.2-1.34.3-.435.086-.854.189-1.274.295-1.677.419-3.312.934-4.737 1.619-1.417.682-2.605 1.549-3.13 2.507-.257.479-.388 1.028-.29 1.684.071.63.442 1.418.805 1.945l.133.192c.402.583.257 1.382-.326 1.784-.47.323-1.08.29-1.51-.038"/>
        <path stroke="#3A6559" stroke-width=".96" d="M351.883 240.128s10.143-8.931 5.459-17.568c-4.683-8.638-6.983-7.541-3.142-14.88 3.843-7.337 3.026-9.348-1.974-16.281-5-6.934-.228-20.705-3.013-27.212-2.551-5.96-7.485-9.83-7.485.392 0 11.348 3.62 13.58.284 24.348-3.337 10.768-9.523 21.482-1.625 25.905 7.897 4.423.324 13.116 2.75 20.57 2.425 7.457 8.746 4.726 8.746 4.726z"/>
        <path fill="#648070" d="M341.724 231.278c-.572-1.305.855-6.88-2.35-11.102-3.204-4.222-3.396-4.576-1.478-12.033 1.918-7.456-1.235-12.851-.985-21.696.249-8.843 5.799-15.518 8.03-8.018 2.23 7.5 2.887 8.29 1.434 16.182-1.452 7.891 1.788 4.99 2.66 15.059.874 10.068-1.462 34.939-7.311 21.608"/>
        <path fill="#F7A530" d="M334 232.04L361.608 231.887 353.169 265.923 340.516 265.993z"/>
        <path fill="#EF8473" d="M147.574 424.253L133.264 424.253 135.277 404.307 149.587 404.307z"/>
        <path fill="#231B22" d="M133.264 421.941h18.148l15.098 6.324c2.999 1.542 4.884 4.631 4.884 8.003h-40.416l2.286-14.327z"/>
        <path fill="#231B22" d="M152.89 422.619l-4.085-5.532s-6.391-1.167-5.833 5.782l9.918-.25z"/>
        <path fill="#79797A" d="M154.448 236.973s17 76.067 1.215 170.751h-33.421c1.784-26.183 14.617-149.26 0-169.536l32.206-1.215z"/>
        <path fill="#EF8473" d="M56.834 406.837L45.659 397.899 66.534 377.069 77.709 386.008z"/>
        <path fill="#231B22" d="M47.103 396.093l14.172 11.335 7.839 14.37c1.38 3.077.923 6.667-1.183 9.3v.001l-31.562-25.246 10.734-9.76z"/>
        <path fill="#231B22" d="M62.005 408.882l.266-6.873s-4.262-4.903-8.167.873l7.901 6z"/>
        <path fill="#868688" d="M99.759 240.011s1.938 50.084-9.608 73.782c-11.545 23.7-41.643 66.447-41.643 66.447l30.59 20.192s77.78-97.832 60.159-165.282l-39.498 4.861z"/>
        <path fill="#191538" d="M113.788 139.231s-7.79-2.544-4.1-16.964l5.461 4.463-1.36 12.501z"/>
        <path fill="#EF8473" d="M137.08 130.83c-.566-6.209-5.301-11.35-11.49-12.107-1.88-.229-3.861-.053-5.807.826-4.616 2.085-6.41 8.872-7.114 14.061l.207 6.534-1.451 26.89c3.48 16.84 16.66 16.665 17.402-3.874l.246-13.455c8.043-2.01 8.644-11.904 8.008-18.875"/>
        <path fill="#DF6E61" d="M129.073 149.706s-3.75 1.214-8.838-2.37c0 0 2.743 6.055 8.72 8.355l.118-5.985z"/>
        <path fill="#D29D96" d="M113.788 131.841c-.003 1.344-.83 2.431-1.849 2.43-1.018-.003-1.84-1.094-1.837-2.438.003-1.345.831-2.431 1.85-2.43 1.016.002 1.84 1.095 1.836 2.439"/>
        <path fill="#BA7B77" d="M112.007 131.837c0 .176-.144.32-.32.32-.177-.002-.32-.145-.319-.32 0-.178.144-.32.32-.32.177 0 .32.143.32.32"/>
        <path fill="#BA7B77" d="M111.688 131.517s.744-.115.833.803c0 0-.228-.45-.834-.164l.001-.64z"/>
        <path fill="#EF8473" d="M113.788 131.841c-.003 1.344-.83 2.431-1.849 2.43-1.018-.003-1.84-1.094-1.837-2.438.003-1.345.831-2.431 1.85-2.43 1.016.002 1.84 1.095 1.836 2.439"/>
        <path fill="#2F3248" d="M124.496 138.064c.392.78.888 1.495 1.494 2.068.616.561 1.352.96 2.156 1.086.808.12 1.633-.03 2.449-.248.399-.138.798-.294 1.196-.458.39-.184.772-.385 1.179-.56-.338.28-.697.53-1.052.798-.382.218-.776.425-1.179.62-.833.327-1.75.52-2.68.392-.924-.154-1.778-.648-2.373-1.335-.593-.687-1.01-1.502-1.19-2.363M128.705 129.788c.638.717 1.207 1.478 1.747 2.257.533.785 1.04 1.584 1.507 2.41l.1.179-.14.114c-.8.65-1.597 1.305-2.446 1.902.68-.784 1.412-1.511 2.14-2.24l-.038.292c-.555-.771-1.067-1.568-1.555-2.381-.481-.817-.932-1.653-1.315-2.533M126.38 130.225c.106.707.137 1.417.034 2.14-.052.36-.143.724-.324 1.072-.173.343-.485.687-.912.814-.431.136-.896-.009-1.215-.226-.332-.217-.59-.492-.81-.784-.44-.587-.753-1.224-1.001-1.897-.033-.09.014-.192.104-.225.085-.032.178.006.217.085l.004.007c.306.602.664 1.198 1.08 1.71.407.501.966.963 1.467.804.52-.134.787-.81.916-1.443.128-.65.165-1.346.146-2.024v-.007c-.002-.082.063-.15.144-.152.076-.002.14.053.15.126M135.7 129.75c.107.657.16 1.316.113 1.993-.02.34-.076.68-.196 1.023-.117.323-.345.745-.822.861-.49.105-.874-.19-1.117-.43-.255-.26-.453-.543-.619-.839-.335-.59-.578-1.205-.768-1.846-.028-.093.025-.19.118-.219.086-.025.176.018.211.098l.002.006c.257.583.547 1.165.88 1.696.17.26.345.52.554.72.206.205.443.325.616.28.187-.028.352-.24.457-.51.104-.27.16-.578.205-.888.076-.622.091-1.273.07-1.912v-.005c-.003-.082.061-.15.143-.154.076-.002.14.052.152.125"/>
        <path stroke="#2F3248" stroke-linecap="round" stroke-width=".552" d="M112.475 131.174s-1.013-.167-1.107.662c-.095.829.915.684.915.684"/>
        <path fill="#191538" d="M122.314 120.693c0-.734-.082 5.392-3.507 5.392-3.425 0 1.44 5.061-2.446 5.075-3.886.014-5.739-3.259-6.259-6.063-.416-2.245-2.31-11.091 7.764-11.091 10.075 0 7.692-7.218 15.655.746 6.001 6.001 4.484 7.784.512 8.657-3.97.872-11.719.057-11.719-2.716"/>
        <path fill="#EF8473" d="M160.264 202.269l17.263 13.722c6.463 4.686 13.113 3.004 16.807-4.074.238-.456.454-.93.644-1.424 3.038-7.9 4.11-56.178 4.11-56.178l-10.413-.334-7.234 42.133-9.767-8.094-11.41 14.249z"/>
        <path fill="#EF8473" d="M188.121 158.87c.206-4.629.846-9.765 1.854-13.247.66-2.276 1.36-4.327 1.69-4.084.712.528.744 5.846.744 5.846s.931-7.362 1.653-5.062c.723 2.3.483 6.645.483 6.645s1.643-6.835 2.013-4.355c.37 2.48-.138 6.737-.138 6.737s2.172-7.547 2.372-3.648c.298 5.8.457 6.33.132 11.438l-10.803-.27z"/>
        <path fill="#3F50B5" d="M89.185 273.02l3.441-61.446 13.91-50.067 5.671-.752c9.834 5.333 16.31.427 16.861-.019 8.815 2.13 14.646 4.351 20.638 7.662 3.32 1.835 6.48 3.95 9.512 6.228l18.64 14-14.762 21.31-5.822-4.215 6.086 68.167c-6.569 0-74.175-.868-74.175-.868"/>
        <path fill="#EF8473" d="M89.527 197.284s6.506 36.445 14.108 38.883c.49.156.995.289 1.514.392 8.3 1.652 56.059-5.5 56.059-5.5l-1.441-10.317-41.968.477-8.185-31.611-20.087 7.676z"/>
        <path fill="#EF8473" d="M161.207 231.06s17.696-1.265 16.556-11.87c-.046-.433-.118-1.736-.118-1.736l-15.857.621v2.411l-2.02.256 1.44 10.318z"/>
        <path fill="#3F50B5" d="M117.866 213.211l-27.32 8.911s-6.463-13.676-6.463-27.543c0-23.379 8.421-30.059 19.072-32.292l3.38-.78 11.331 51.704z"/>
        <path fill="#000" d="M177.646 217.454l-52.924 2.073c-1.623.064-2.991-1.2-3.054-2.823-.064-1.624 1.2-2.991 2.824-3.054l52.924-2.073c1.623-.063 2.99 1.2 3.054 2.823.063 1.623-1.201 2.99-2.824 3.054"/>
        <path fill="#000" d="M176.68 214.795c.298-.064.569-.252.73-.54l23.198-41.413c.298-.53.108-1.202-.422-1.499-.53-.3-1.202-.11-1.5.423l-23.198 41.413c-.298.531-.11 1.202.422 1.5.244.137.518.17.77.116"/>
        <path fill="#E2D7D0" d="M177.672 114.208c.021-.1-4.292 3.874-4.292 3.874l2.856 8.002 1.217-6.63 6.094-2.42 7.386-10.21-13.26 7.384z"/>
        <path fill="#E2D7D0" d="M190.933 106.824L176.236 126.085 177.454 119.454z"/>
        <path fill="#FFF" d="M190.933 106.824L168.419 116.316 173.38 118.082 190.933 106.824 177.454 119.454 185.933 122.679zM167.183 209.936c-.065.053-.586-.591-1.713-1.654-1.115-1.061-2.948-2.507-5.683-3.56-1.354-.554-2.939-.95-4.692-1.247-1.76-.274-3.703-.361-5.785-.284-2.082.082-4.305.349-6.63.804-2.325.457-4.772 1.094-7.346 1.75-2.577.655-5.286 1.36-8.172 1.89-2.883.508-5.955.914-9.165.693-3.186-.2-6.556-.941-9.552-2.757-2.993-1.76-5.53-4.687-6.669-8.218-1.183-3.51-1.266-7.276-1.083-10.981.191-3.724.716-7.442.764-11.201.022-1.876-.054-3.764-.384-5.606-.157-.922-.38-1.831-.685-2.71-.29-.89-.676-1.731-1.153-2.483-.968-1.512-2.412-2.785-4.091-3.413-.833-.314-1.719-.488-2.582-.42-.86.072-1.679.37-2.384.867-1.455.985-2.292 2.742-2.585 4.532-.287 1.814-.057 3.725.568 5.442.63 1.728 1.712 3.185 3.178 4.257 1.443 1.076 3.163 1.748 4.944 2.13 1.787.37 3.628.525 5.471.442 1.839.033 3.654-.19 5.445-.395 3.578-.511 7-1.514 10.257-2.697 6.514-2.426 12.286-5.786 17.512-9.145 5.223-3.386 9.896-6.851 14.164-10.014 4.268-3.17 8.104-6.051 11.307-8.776 3.216-2.711 5.791-5.261 7.758-7.468 1.97-2.206 3.339-4.057 4.252-5.323.889-1.281 1.359-1.958 1.414-1.926.047.028-.324.764-1.126 2.117-.825 1.336-2.12 3.269-4.034 5.568-1.911 2.3-4.45 4.952-7.635 7.757-3.175 2.82-6.983 5.788-11.205 9.019-4.228 3.229-8.876 6.765-14.116 10.236-5.244 3.442-11.068 6.903-17.736 9.435-6.64 2.5-14.204 4.12-22.079 2.813-1.952-.412-3.916-1.16-5.606-2.412-1.693-1.22-3.049-3.033-3.765-5.025-.725-1.99-.994-4.156-.66-6.305.346-2.117 1.347-4.33 3.29-5.665.948-.671 2.091-1.084 3.242-1.173 1.156-.09 2.288.137 3.321.528 2.077.789 3.765 2.296 4.92 4.096.577.916 1.008 1.88 1.325 2.854.336.975.577 1.97.744 2.965.351 1.992.422 3.978.395 5.924-.065 3.897-.609 7.638-.809 11.263-.199 3.616-.115 7.196.945 10.388 1.015 3.196 3.232 5.792 5.953 7.433 2.714 1.679 5.84 2.408 8.865 2.628 6.109.395 11.802-1.14 16.95-2.341 2.586-.62 5.053-1.22 7.438-1.646 2.383-.422 4.663-.652 6.803-.69 2.139-.032 4.137.105 5.947.437 1.804.354 3.43.815 4.812 1.435 2.793 1.189 4.614 2.772 5.671 3.932.576.544.886 1.075 1.144 1.383.239.325.35.499.326.517"/>
    </g>
</svg>
