<svg xmlns="http://www.w3.org/2000/svg" width="548" height="410" viewBox="0 0 548 410">
    <g fill="none" fill-rule="evenodd">
        <g>
            <path fill="#F3F4FA" d="M195.966 3.321c38.695-4.907 85.184-1.006 119.967-1.006 92.693 0 168.937 61.265 178.136 139.784C527.343 170.334 548 209.744 548 253.345c0 85.88-80.141 155.5-179 155.5-31.479 0-61.06-7.06-86.76-19.454-21.558 6.246-81.328 9.454-103.24 9.454-98.859 0-179-69.62-179-155.5 0-14.736 2.36-28.993 6.768-42.502C2.36 187.337 0 173.08 0 158.345c0-85.88 80.141-155.5 179-155.5 5.368 0 10.681.205 15.93.607z" transform="translate(0 .155)"/>
            <path fill="#E3E8FA" d="M490.474 341.345c0 19.934-96.706 36.094-216 36.094s-216-16.16-216-36.094 96.706-36.095 216-36.095 216 16.16 216 36.095" transform="translate(0 .155)"/>
            <path fill="#FFCDC5" d="M352.097 336.563c0 1.713-35.635 3.1-79.594 3.1-43.957 0-79.593-1.387-79.593-3.1 0-1.712 35.636-3.1 79.593-3.1 43.959 0 79.594 1.388 79.594 3.1M183.002 330.602c0 2.119-22.622 3.836-50.528 3.836-27.904 0-50.527-1.717-50.527-3.836 0-2.118 22.623-3.835 50.527-3.835 27.906 0 50.528 1.717 50.528 3.835M450.03 339.671c0 1.29-17.204 2.336-38.424 2.336-21.221 0-38.424-1.046-38.424-2.336 0-1.291 17.203-2.336 38.424-2.336 21.22 0 38.424 1.045 38.424 2.336" transform="translate(0 .155)"/>
        </g>
        <path fill="#FFBEB4" d="M403.038 31.413L406.575 31.413 404.807 28.35zM404.807 33.963L403.039 37.026 406.576 37.026zM408.478 30.651L406.839 33.962 410.115 33.962zM356.915 154.222L355.146 157.285 358.684 157.285zM356.915 159.835L355.146 162.898 358.684 162.898zM360.585 156.523L358.948 159.835 362.224 159.835zM90.265 172.481L88.497 175.544 92.033 175.544zM90.265 178.094L88.497 181.157 92.033 181.157zM93.935 174.782L92.297 178.094 95.573 178.094zM353.377 289.776L351.608 292.839 355.146 292.839zM353.377 295.389L351.608 298.451 355.146 298.451zM357.047 292.076L355.409 295.388 358.686 295.388z"/>
        <g>
            <path fill="#FFBEB4" d="M370.078 269.654h-80.805c-1.194 0-2.162-.968-2.162-2.162s.968-2.162 2.162-2.162h80.805c1.193 0 2.16.968 2.16 2.162s-.967 2.162-2.16 2.162" transform="translate(82 28.783)"/>
            <path fill="#FFBEB4" d="M300.425 307.935c-1.213 0-2.212-.742-2.263-1.683l-2.1-37.929h8.727l-2.1 37.929c-.052.94-1.05 1.683-2.264 1.683M359.694 307.935c-1.213 0-2.212-.742-2.264-1.683l-2.1-37.929h8.727l-2.1 37.929c-.051.94-1.05 1.683-2.263 1.683M329.675 307.935c-1.213 0-2.212-.742-2.263-1.683l-2.1-37.929h8.727l-2.1 37.929c-.052.94-1.05 1.683-2.264 1.683" transform="translate(82 28.783)"/>
            <path fill="#FFA49A" d="M328.793 255.658c0-5.315 4.31-9.624 9.625-9.624s9.625 4.31 9.625 9.624c0 5.316-4.31 9.625-9.625 9.625s-9.625-4.31-9.625-9.625" transform="translate(82 28.783)"/>
            <path fill="#FFA49A" d="M343.258 247.735h-9.923c-.553 0-1.001-.448-1.001-1.001 0-.553.448-1.001 1.001-1.001h9.923c.554 0 1.002.448 1.002 1.001 0 .553-.448 1.001-1.002 1.001M334.023 229.744c.346.166.763.784.902 1.638.14.854-.044 1.585-.33 1.84-.345-.151-.762-.783-.903-1.637-.14-.853.062-1.577.331-1.841" transform="translate(82 28.783)"/>
            <path fill="#FFA49A" d="M335.588 238.638L334.686 233.15 334.483 233.183 335.385 238.671z" transform="translate(82 28.783)"/>
            <path fill="#FFA49A" d="M336.915 232.988c-.375-.024-.99.322-1.45 1.017-.46.696-.58 1.445-.423 1.816.368.037.99-.32 1.45-1.016.46-.696.56-1.446.423-1.817" transform="translate(82 28.783)"/>
            <path fill="#FFA49A" d="M332.321 233.743c.348-.143 1.04-.012 1.7.5.658.512 1.01 1.182.982 1.586-.338.151-1.042.012-1.7-.5-.658-.512-.994-1.19-.982-1.586M332.763 236.433c.348-.143 1.041-.012 1.7.5.658.512 1.01 1.182.982 1.585-.337.152-1.042.012-1.7-.5-.658-.51-.994-1.19-.982-1.585" transform="translate(82 28.783)"/>
            <path fill="#FFA49A" d="M337.357 235.678c-.375-.025-.99.322-1.45 1.017-.46.695-.578 1.444-.422 1.816.368.037.99-.321 1.45-1.017.459-.695.56-1.445.422-1.816" transform="translate(82 28.783)"/>
            <path fill="#FFA49A" d="M336.471 244.004L335.569 238.517 335.365 238.55 336.268 244.037z" transform="translate(82 28.783)"/>
            <path fill="#FFA49A" d="M337.797 238.355c-.375-.025-.99.321-1.45 1.017-.46.695-.578 1.444-.423 1.816.37.036.992-.321 1.45-1.017.46-.695.56-1.445.423-1.816" transform="translate(82 28.783)"/>
            <path fill="#FFA49A" d="M333.204 239.11c.347-.143 1.04-.013 1.7.5.657.512 1.01 1.182.98 1.585-.336.152-1.04.012-1.699-.5-.657-.51-.994-1.19-.981-1.585M333.646 241.8c.348-.143 1.04-.013 1.7.499.658.512 1.01 1.183.982 1.585v.001c-.338.152-1.042.012-1.7-.5-.659-.512-.994-1.19-.982-1.585" transform="translate(82 28.783)"/>
            <path fill="#FFA49A" d="M338.24 241.044c-.376-.024-.99.322-1.45 1.018-.46.695-.58 1.444-.423 1.815v.001c.368.036.99-.321 1.45-1.017.46-.695.56-1.446.422-1.817" transform="translate(82 28.783)"/>
            <path fill="#FFA49A" d="M337.353 249.37L336.451 243.883 336.248 243.917 337.15 249.404zM342.63 233.713c.276.245.474.88.337 1.62-.135.74-.54 1.278-.89 1.395-.278-.233-.475-.88-.34-1.62.137-.74.557-1.266.893-1.395" transform="translate(82 28.783)"/>
            <path fill="#FFA49A" d="M341.309 241.454L342.184 236.697 341.982 236.661 341.107 241.417z" transform="translate(82 28.783)"/>
            <path fill="#FFA49A" d="M344.342 237.273c-.348-.14-1.036-.052-1.69.369-.654.421-1.003.993-.972 1.345.337.147 1.038.053 1.69-.369.653-.42.986-1 .972-1.345" transform="translate(82 28.783)"/>
            <path fill="#FFA49A" d="M339.763 236.43c.374-.005.988.321 1.448.947.461.626.583 1.284.43 1.603-.368.017-.989-.32-1.45-.945-.46-.626-.564-1.286-.428-1.605M339.334 238.763c.374-.007.987.32 1.449.945.46.626.583 1.285.429 1.603-.367.017-.988-.32-1.45-.945-.46-.626-.563-1.284-.428-1.603" transform="translate(82 28.783)"/>
            <path fill="#FFA49A" d="M343.913 239.604c-.347-.139-1.037-.051-1.69.369-.654.422-1.003.993-.972 1.346.338.146 1.038.052 1.691-.37.652-.42.985-.999.97-1.345" transform="translate(82 28.783)"/>
            <path fill="#FFA49A" d="M340.454 246.106L341.328 241.35 341.126 241.312 340.251 246.069z" transform="translate(82 28.783)"/>
            <path fill="#FFA49A" d="M343.486 241.925c-.347-.139-1.036-.052-1.69.368-.654.422-1.002.994-.972 1.346.338.146 1.038.053 1.692-.369.652-.42.984-.999.97-1.345" transform="translate(82 28.783)"/>
            <path fill="#FFA49A" d="M338.907 241.083c.374-.007.988.32 1.449.946.46.626.583 1.284.429 1.603-.367.016-.988-.32-1.449-.946-.46-.626-.564-1.284-.429-1.603M339.598 250.758L340.473 246.001 340.27 245.964 339.396 250.721z" transform="translate(82 28.783)"/>
            <path fill="#FFBEB4" d="M349.457 187.593c.423.266.868 1.127.923 2.253.053 1.123-.295 2.042-.702 2.33-.423-.249-.87-1.128-.923-2.252-.055-1.125.314-2.03.702-2.33" transform="translate(82 28.783)"/>
            <path fill="#FFBEB4" d="M350.154 199.324L349.805 192.095 349.538 192.108 349.887 199.337z" transform="translate(82 28.783)"/>
            <path fill="#FFBEB4" d="M352.712 192.218c-.482-.087-1.328.268-2.026 1.1-.698.83-.964 1.78-.817 2.284.47.102 1.329-.268 2.026-1.098.698-.83.94-1.786.817-2.286" transform="translate(82 28.783)"/>
            <path fill="#FFBEB4" d="M346.66 192.51c.47-.133 1.347.14 2.123.899.775.76 1.13 1.68 1.033 2.196-.46.146-1.348-.138-2.122-.899-.775-.758-1.108-1.686-1.034-2.197M346.832 196.053c.47-.133 1.347.14 2.122.9.775.759 1.13 1.68 1.034 2.195-.46.147-1.35-.139-2.123-.899-.774-.758-1.108-1.686-1.033-2.196" transform="translate(82 28.783)"/>
            <path fill="#FFBEB4" d="M352.883 195.76c-.481-.086-1.328.27-2.026 1.101-.698.83-.964 1.781-.817 2.284.47.103 1.329-.268 2.026-1.098.698-.83.94-1.786.817-2.286" transform="translate(82 28.783)"/>
            <path fill="#FFBEB4" d="M350.496 206.394L350.147 199.165 349.879 199.178 350.229 206.407z" transform="translate(82 28.783)"/>
            <path fill="#FFBEB4" d="M353.054 199.287c-.482-.087-1.329.268-2.027 1.1-.698.831-.963 1.781-.817 2.285.472.102 1.33-.268 2.026-1.099.698-.83.94-1.786.818-2.286" transform="translate(82 28.783)"/>
            <path fill="#FFBEB4" d="M347.002 199.58c.47-.134 1.347.14 2.122.899.775.76 1.131 1.68 1.034 2.196-.46.146-1.348-.139-2.123-.899-.774-.759-1.107-1.687-1.033-2.197M347.173 203.123c.47-.134 1.347.139 2.122.898.776.76 1.131 1.681 1.034 2.196v.001c-.46.147-1.348-.139-2.123-.9-.774-.758-1.107-1.685-1.033-2.195" transform="translate(82 28.783)"/>
            <path fill="#FFBEB4" d="M353.224 202.83c-.481-.086-1.327.269-2.026 1.1-.697.83-.963 1.78-.816 2.285.47.102 1.328-.268 2.026-1.098.698-.83.94-1.786.816-2.287" transform="translate(82 28.783)"/>
            <path fill="#FFBEB4" d="M350.838 213.463L350.488 206.235 350.221 206.248 350.57 213.476z" transform="translate(82 28.783)"/>
            <path fill="#FFBEB4" d="M355.527 265.23h-7.571c-3.024 0-5.403-2.582-5.158-5.595l3.93-48.311h10.026l3.932 48.311c.245 3.013-2.135 5.595-5.159 5.595" transform="translate(82 28.783)"/>
            <path fill="#FFBEB4" d="M357.782 211.47h-12.08c-.707 0-1.28-.573-1.28-1.279 0-.707.573-1.281 1.28-1.281h12.08c.707 0 1.28.574 1.28 1.281 0 .706-.573 1.28-1.28 1.28" transform="translate(82 28.783)"/>
            <path fill="#FFBEB4" d="M353.255 221.051c.114-4.056.315-8.106.53-12.155.214-4.048.5-8.093.746-12.14.313-4.041.59-8.086.934-12.126l.534-6.058c.208-2.018.388-4.037.62-6.054-.048 2.03-.149 4.054-.221 6.081l-.308 6.075c-.215 4.048-.5 8.092-.747 12.14-.315 4.041-.589 8.085-.936 12.126-.346 4.04-.704 8.078-1.152 12.111" transform="translate(82 28.783)"/>
            <path fill="#FFBEB4" d="M353.637 216.417c-.607-8.1-.845-16.205-.992-24.312-.11-8.107-.128-16.216.228-24.33.611 8.098.848 16.203.992 24.31.107 8.108.125 16.217-.228 24.332M352.608 224.02c.503-4.027 1.094-8.039 1.698-12.048.603-4.01 1.277-8.007 1.913-12.01.699-3.994 1.364-7.993 2.097-11.98l1.115-5.98c.4-1.988.774-3.982 1.199-5.965-.243 2.014-.538 4.02-.806 6.03l-.89 6.018c-.606 4.008-1.277 8.006-1.914 12.01-.701 3.994-1.365 7.993-2.099 11.98-.733 3.989-1.479 7.974-2.313 11.944" transform="translate(82 28.783)"/>
            <path stroke="#FFBEB4" d="M351.105 167.892c0 .473-.383.856-.856.856-.472 0-.856-.383-.856-.856 0-.472.384-.855.856-.855.473 0 .856.383.856.855zM357.736 163.753c0 1.132-.917 2.05-2.05 2.05-1.13 0-2.049-.918-2.049-2.05 0-1.132.918-2.05 2.05-2.05 1.132 0 2.05.918 2.05 2.05zM360.498 173.643c0 .374-.303.676-.676.676-.374 0-.677-.302-.677-.676 0-.374.303-.676.677-.676.373 0 .676.302.676.676zM362.13 188.23c0 .351-.286.636-.637.636-.352 0-.636-.285-.636-.636 0-.352.284-.637.636-.637.351 0 .637.285.637.637zM346.992 181.755c0 .612-.495 1.108-1.108 1.108-.61 0-1.107-.496-1.107-1.108 0-.612.496-1.107 1.107-1.107.613 0 1.108.495 1.108 1.107z" transform="translate(82 28.783)"/>
            <path fill="#FFA49A" d="M291.075 263.961L319.291 263.961 319.291 233.222 291.075 233.222z" transform="translate(82 28.783)"/>
            <path fill="#FFBEB4" d="M294.238 260.515L316.128 260.515 316.128 236.669 294.238 236.669z" transform="translate(82 28.783)"/>
            <path fill="#FFA49A" d="M30.54 293.816L35.081 293.816 35.081 92.982 30.54 92.982z" transform="translate(82 28.783)"/>
            <path fill="#FFA49A" d="M55.98 301.144H9.64c0-4.956 10.378-8.973 23.174-8.973 12.797 0 23.167 4.017 23.167 8.973M64.686 95.738L.933 95.738 2.114 91.604 2.35 90.79 4.49 83.301 4.726 82.487 16.399 41.668 50.848 41.668 61.291 82.487 61.503 83.301 63.416 90.79 63.628 91.604z" transform="translate(82 28.783)"/>
            <path fill="#FFFFFE" d="M5.116 85.133L2.946 88.892 7.286 88.892zM10.034 88.892L7.864 85.133 12.205 85.133zM14.374 85.133L12.204 88.892 16.544 88.892zM19.293 88.892L17.123 85.133 21.463 85.133zM23.633 85.133L21.463 88.892 25.803 88.892zM28.552 88.892L26.382 85.133 30.722 85.133zM32.892 85.133L30.722 88.892 35.062 88.892zM37.811 88.892L35.64 85.133 39.981 85.133zM42.151 85.133L39.981 88.892 44.321 88.892zM47.069 88.892L44.899 85.133 49.24 85.133zM51.41 85.133L49.24 88.892 53.58 88.892zM56.328 88.892L54.158 85.133 58.498 85.133zM60.669 85.133L58.498 88.892 62.839 88.892zM61.503 83.301L4.49 83.301 4.726 82.487 61.291 82.487zM63.628 91.603L2.114 91.603 2.35 90.79 63.416 90.79z" transform="translate(82 28.783)"/>
            <path fill="#006837" d="M71.885 214.875c1.66-6.428 5.236-12.175 8.902-17.71 3.258-4.92 6.665-9.806 10.964-13.848 4.3-4.043 9.595-7.228 15.428-8.126l-4.274 13.77c-1.426 4.593-2.895 9.276-5.708 13.176-2.938 4.073-7.192 7.05-11.741 9.182-4.548 2.132-9.416 3.476-14.258 4.811" transform="translate(82 28.783)"/>
            <path fill="#006837" d="M72.179 214.956c1.87-7.078 5.93-13.284 9.975-19.29 4.001-5.942 8.434-11.82 14.458-15.852 3.222-2.156 6.81-3.708 10.648-4.329l-.375-.375-3.68 11.857c-1.129 3.636-2.177 7.332-3.807 10.781-3.144 6.648-8.82 11.065-15.469 13.924-4.133 1.776-8.485 2.97-12.812 4.164-.379.104-.218.693.162.588 7.355-2.027 14.938-4.152 21.064-8.904 2.736-2.122 5.03-4.715 6.705-7.748 1.805-3.267 2.944-6.844 4.047-10.394 1.462-4.7 2.919-9.404 4.378-14.106.076-.243-.16-.41-.375-.376-6.916 1.118-12.886 5.22-17.601 10.249-2.49 2.656-4.681 5.576-6.749 8.567-2.163 3.13-4.28 6.31-6.192 9.6-2.103 3.62-3.893 7.424-4.966 11.482-.1.38.488.542.589.162" transform="translate(82 28.783)"/>
            <path fill="#39B54A" d="M62.114 236.485l19.283-41.229c.332-.707-.72-1.328-1.054-.616L61.06 235.868c-.332.708.72 1.329 1.054.617M63.043 206.917c.098-7.287 1.997-14.347 3.828-21.351l5.603-21.447c.1-.381-.489-.543-.588-.162l-5.707 21.84c-1.81 6.927-3.65 13.915-3.747 21.12-.005.394.606.394.61 0" transform="translate(82 28.783)"/>
            <path fill="#006837" d="M53.338 209.93c-6.138-5.452-12.327-10.963-17.132-17.619-4.805-6.656-8.178-14.647-7.916-22.852 3.918 6.21 12.187 8.528 16.263 14.637 1.343 2.014 2.15 4.33 2.94 6.619l6.652 19.223" transform="translate(82 28.783)"/>
            <path fill="#006837" d="M53.554 209.715c-9.456-8.402-19.45-17.375-23.418-29.805-1.079-3.381-1.632-6.899-1.54-10.45-.19.05-.38.102-.57.154 2.981 4.62 8.05 7.032 12.215 10.39 2.321 1.873 4.198 4.052 5.436 6.787 1.56 3.446 2.615 7.162 3.85 10.733l4.323 12.496c.128.369.718.21.588-.163l-3.856-11.15c-1.228-3.546-2.363-7.143-3.719-10.643-1.084-2.796-2.578-5.238-4.786-7.283-1.962-1.816-4.21-3.283-6.396-4.807-2.685-1.874-5.33-3.882-7.127-6.669-.164-.253-.56-.155-.569.155-.337 13.086 7.77 24.225 16.717 32.963 2.725 2.662 5.573 5.193 8.42 7.723.292.26.725-.17.432-.431" transform="translate(82 28.783)"/>
            <path fill="#39B54A" d="M41.403 179.997c7.824 15.825 13.583 32.655 17.085 49.96 1.004 4.956 1.821 9.95 2.452 14.967.097.77 1.32.779 1.221 0-2.234-17.75-6.756-35.187-13.5-51.76-1.9-4.67-3.97-9.266-6.204-13.784-.348-.704-1.401-.086-1.054.617" transform="translate(82 28.783)"/>
            <path fill="#006837" d="M59.52 161.681c-5.023-17.607-4.876-36.656.42-54.182 3.683 5.302 6.51 11.197 8.339 17.389 2.036 6.896 2.827 14.232 1.628 21.32-1.2 7.088-4.473 13.915-9.724 18.826" transform="translate(82 28.783)"/>
            <path fill="#006837" d="M59.814 161.6c-3.883-13.714-4.683-28.25-2.32-42.308.666-3.958 1.587-7.868 2.74-11.713l-.558.074c9.118 13.208 14.148 31.534 7.46 46.856-1.691 3.875-4.094 7.401-7.169 10.31-.286.27.147.7.432.43 12.413-11.744 12.317-30.6 6.422-45.527-1.724-4.366-3.952-8.515-6.617-12.378-.148-.213-.48-.19-.559.073-4.091 13.642-5.124 28.133-3.034 42.22.608 4.094 1.487 8.143 2.614 12.125.107.378.696.217.589-.162" transform="translate(82 28.783)"/>
            <path fill="#39B54A" d="M73.724 209.93c-1.332-8.858 1.511-17.939 6.129-25.613 4.618-7.675 10.924-14.169 17.172-20.588 1.525 12.227-1.071 24.93-7.27 35.58-1.704 2.93-3.717 5.753-6.418 7.799-2.702 2.047-6.184 3.25-9.519 2.645" transform="translate(82 28.783)"/>
            <path fill="#39B54A" d="M74.019 209.848c-2.049-14.211 6.058-27.148 15.104-37.309 2.62-2.944 5.369-5.77 8.118-8.595-.175-.07-.348-.143-.521-.214.881 7.264.362 14.657-1.538 21.725-.967 3.6-2.283 7.106-3.94 10.446-1.578 3.182-3.41 6.366-5.865 8.958-2.944 3.106-7.1 5.313-11.478 4.6-.384-.063-.55.526-.163.589 7.685 1.251 13.24-5.186 16.633-11.196 3.78-6.69 6.157-14.149 7.021-21.781.504-4.434.477-8.912-.06-13.341-.03-.247-.32-.424-.52-.217-9.787 10.055-20.16 20.894-23.021 35.15-.752 3.743-.904 7.566-.359 11.347.056.388.644.223.589-.162M64.234 194.098c-.761-10.83 1.423-21.704 4.99-31.957s8.498-19.97 13.413-29.649c3.263 11.075 4.305 22.99 1.552 34.202-2.753 11.213-9.552 21.651-19.49 27.531" transform="translate(82 28.783)"/>
            <path fill="#39B54A" d="M64.539 194.098c-1.142-17.04 4.774-33.442 11.976-48.597 2.053-4.322 4.22-8.59 6.385-12.855l-.557-.073c5.11 17.491 4.511 37.59-7.382 52.29-2.921 3.611-6.425 6.714-10.415 9.099-.337.2-.03.73.307.526 7.124-4.257 12.66-10.775 16.231-18.226 4.033-8.412 5.439-17.83 4.868-27.097-.35-5.68-1.426-11.296-3.02-16.754-.07-.24-.436-.315-.558-.074-7.67 15.106-15.5 30.592-17.883 47.569-.66 4.702-.88 9.453-.562 14.192.026.39.636.393.61 0M57.646 155.113c3.833 22.075 5.215 44.561 4.113 66.94-.313 6.333-.827 12.655-1.533 18.956-.087.78 1.134.774 1.22 0 2.515-22.45 2.535-45.17.03-67.623-.694-6.224-1.581-12.426-2.653-18.597-.134-.773-1.311-.445-1.177.324" transform="translate(82 28.783)"/>
            <path fill="#39B54A" d="M59.68 164.372c-4.676-3.907-8.757-10.535-9.854-16.53-1.098-5.996-.778-12.15-.398-18.232.379-6.083.812-12.217-.067-18.248 4.566 6.147 8.411 12.83 11.432 19.865 2.288 5.331 4.121 10.955 4.325 16.752.205 5.797-1.36 11.82-5.193 16.175" transform="translate(82 28.783)"/>
            <path fill="#39B54A" d="M59.897 164.157c-4.951-4.193-8.732-10.36-9.846-16.78-1.326-7.65-.374-15.443-.005-23.132.208-4.329.216-8.664-.39-12.964l-.559.235c4.483 6.06 8.287 12.61 11.285 19.525 3.015 6.956 5.36 14.636 4.103 22.28-.64 3.894-2.182 7.617-4.776 10.617-.255.296.175.73.432.432 10.466-12.11 3.415-29.679-3.224-41.786-2.167-3.955-4.61-7.75-7.292-11.375-.212-.287-.607-.112-.558.234 1.134 8.046.002 16.137-.252 24.2-.119 3.78-.04 7.58.553 11.322.515 3.253 1.662 6.332 3.27 9.203 1.772 3.16 4.057 6.074 6.827 8.42.298.254.732-.177.432-.431M52.802 206.169c2.362-8.292.967-19.601-2.985-27.265-3.952-7.662-10.122-13.998-16.953-19.258.37 8.843 1.054 17.8 4.004 26.145 2.95 8.343 8.029 16.397 15.934 20.378" transform="translate(82 28.783)"/>
            <path fill="#39B54A" d="M53.096 206.25c1.824-6.544 1.432-13.73-.286-20.254-1.805-6.857-5.65-12.888-10.402-18.09-2.84-3.108-6-5.903-9.329-8.475-.191-.148-.534-.076-.52.215.595 14.014 2.278 29.205 11.853 40.25 2.317 2.672 5.083 4.924 8.236 6.537.349.178.658-.349.308-.528-12.179-6.231-17.2-20.856-18.825-33.565-.54-4.211-.782-8.454-.962-12.694l-.522.217c5.717 4.417 10.98 9.542 14.875 15.664 3.715 5.84 5.698 12.475 6.067 19.378.202 3.754-.07 7.553-1.081 11.183-.106.38.483.541.588.163" transform="translate(82 28.783)"/>
            <path fill="#FFBEB4" d="M87.299 270.996c0 13.776-5.346 25.773-13.249 32.013H49.123c-7.902-6.24-13.25-18.237-13.25-32.013 0-12.87 4.67-24.19 11.733-30.717h27.96c7.064 6.528 11.733 17.846 11.733 30.717" transform="translate(82 28.783)"/>
            <path stroke="#FFF" d="M49.997 253.575L43.3 265.175 56.694 265.175z" transform="translate(82 28.783)"/>
            <path stroke="#FFF" stroke-width=".5" d="M49.997 256.402L45.748 263.761 54.246 263.761z" transform="translate(82 28.783)"/>
            <path stroke="#FFF" stroke-width=".75" d="M59.663 291.659L51.575 296.329 51.575 286.99z" transform="translate(82 28.783)"/>
            <path stroke="#FFF" stroke-width=".5" d="M56.977 291.659L52.918 294.003 52.918 289.316z" transform="translate(82 28.783)"/>
            <path stroke="#FFF" d="M71.013 243.687L64.531 254.914 77.496 254.914z" transform="translate(82 28.783)"/>
            <path stroke="#FFF" stroke-width=".5" d="M71.013 247.946L68.219 252.785 73.808 252.785z" transform="translate(82 28.783)"/>
            <path stroke="#FFF" d="M71.013 292.985L63.568 275.881 78.459 275.881z" transform="translate(82 28.783)"/>
            <path stroke="#FFF" stroke-width=".5" d="M71.013 288.817L66.289 277.965 75.738 277.965z" transform="translate(82 28.783)"/>
            <path stroke="#FFF" d="M46.337 278.525c0-1.142.926-2.069 2.07-2.069 1.141 0 2.068.927 2.068 2.069s-.927 2.068-2.069 2.068c-1.143 0-2.07-.926-2.07-2.068zM67.69 264.792c0-1.834 1.489-3.321 3.324-3.321 1.834 0 3.322 1.487 3.322 3.321 0 1.835-1.488 3.322-3.322 3.322-1.835 0-3.323-1.487-3.323-3.322zM56.336 247.38c0-.713.58-1.293 1.293-1.293.715 0 1.295.58 1.295 1.294 0 .714-.58 1.294-1.295 1.294-.714 0-1.293-.58-1.293-1.294z" transform="translate(82 28.783)"/>
            <path fill="#FFBEB4" d="M75.524 240.28H47.649c-.847 0-1.533-.688-1.533-1.534v-.315c0-.846.686-1.531 1.533-1.531h27.875c.846 0 1.532.685 1.532 1.531v.315c0 .846-.686 1.533-1.532 1.533" transform="translate(82 28.783)"/>
            <path fill="#006837" d="M77.292 203.844c.785-2.656 1.765-5.251 2.862-7.796 1.09-2.551 2.341-5.03 3.692-7.453 1.367-2.414 2.834-4.772 4.446-7.028.81-1.125 1.638-2.237 2.488-3.33.878-1.072 1.753-2.145 2.686-3.17-.393.572-.79 1.138-1.194 1.697l-1.172 1.709c-.78 1.138-1.546 2.284-2.289 3.444-1.48 2.323-2.915 4.672-4.256 7.076-1.358 2.394-2.617 4.842-3.834 7.314-1.209 2.476-2.329 4.997-3.43 7.537M57.744 157.369c-.447-2.498-.806-5.005-1.151-7.512-.354-2.508-.645-5.02-.934-7.532-.272-2.516-.541-5.032-.748-7.554l-.307-3.786c-.073-1.265-.174-2.527-.222-3.796.231 1.246.411 2.499.618 3.748l.533 3.76c.353 2.507.645 5.022.934 7.537.27 2.517.54 5.034.746 7.558.216 2.522.418 5.046.531 7.577M38.64 171.573c1.38 2.158 2.615 4.405 3.767 6.694 1.161 2.285 2.193 4.635 3.15 7.013.939 2.386 1.802 4.802 2.528 7.26.36 1.23.705 2.464 1.03 3.703.291 1.247.593 2.49.829 3.75l-1.212-3.639c-.4-1.211-.812-2.418-1.24-3.62-.865-2.398-1.741-4.79-2.691-7.153-.932-2.37-1.937-4.712-2.957-7.048-1.03-2.333-2.12-4.64-3.204-6.96M67.898 183.724c1.276-3.101 2.547-6.196 3.747-9.318 1.198-3.122 2.379-6.25 3.437-9.42 1.12-3.149 2.122-6.338 3.102-9.534.493-1.599.964-3.203 1.423-4.812l1.376-4.833c-.286 1.652-.642 3.29-.99 4.932-.381 1.632-.786 3.26-1.207 4.885-.86 3.243-1.87 6.445-2.936 9.628-1.126 3.16-2.302 6.306-3.628 9.39-1.323 3.082-2.744 6.123-4.324 9.082" transform="translate(82 28.783)"/>
            <path stroke="#FFBEB4" stroke-width="3" d="M261.714 112.004L366.51 112.004 366.51 58.391 261.714 58.391z" transform="translate(82 28.783)"/>
            <path fill="#FFBEB4" d="M273.147 103.815L355.079 103.815 355.079 66.581 273.147 66.581z" transform="translate(82 28.783)"/>
            <path fill="#FFF" d="M95.178 13.14L91.572 19.384 98.784 19.384z" transform="translate(82 28.783)"/>
            <path stroke="#FFBEB4" stroke-width="3" d="M62.074 50.096L121.6 50.096 121.6 0.251 62.074 0.251z" transform="translate(82 28.783)"/>
            <path fill="#FFBEB4" d="M74.88 39.373L108.794 39.373 108.794 10.975 74.88 10.975z" transform="translate(82 28.783)"/>
            <path fill="#222256" d="M220.424 151h-61.647c-14.93 0-27.035 12.103-27.035 27.033v66.082h115.717v-66.082c0-14.93-12.104-27.034-27.035-27.034" transform="translate(82 28.783)"/>
            <path fill="#00000C" d="M145.436 244.116L233.764 244.116 233.764 229.57 145.436 229.57z" transform="translate(82 28.783)"/>
            <path fill="#3847DC" d="M138.59 281.088L233.764 281.088 233.764 244.115 138.59 244.115z" transform="translate(82 28.783)"/>
            <path fill="#00000C" d="M241.296 286.565H137.904c-3.024 0-5.477-2.453-5.477-5.477h114.347c0 3.024-2.452 5.477-5.478 5.477M135.166 303.682L131.742 303.682 137.905 286.565 142.698 286.565zM244.036 303.682L247.458 303.682 241.296 286.565 236.504 286.565z" transform="translate(82 28.783)"/>
            <path fill="#1A1A1A" d="M121.924 161.6c-3.315-2.206-6.096-5.346-7.406-9.107-1.31-3.76-1.018-8.155 1.202-11.462 2.22-3.306 6.463-5.276 10.346-4.39.161-5.244 4.984-9.058 9.65-11.459 5.134-2.643 10.502-4.179 15.751-1.772 2.921 1.34 5.996 3.529 7.542 6.346 1.546 2.818 2.469 5.928 3.365 9.015 3.67-2.181 8.67-1.85 12.02.795 3.35 2.646 4.831 7.434 3.56 11.509 4.152-1.757 9.182-2.541 13-.141 4.012 2.522 5.398 7.71 5.673 12.444.237 4.068-.17 8.383-2.482 11.738-2.74 3.975-7.577 5.85-12.164 7.353-7.93 2.6-16.096 4.771-24.437 5.018-8.342.246-16.938-1.56-23.782-6.338-6.842-4.777-11.672-12.788-11.427-21.129" transform="translate(82 28.783)"/>
            <path fill="#000" d="M117.554 167.529c-4.153.224-8.09 2.851-9.891 6.6-1.802 3.749-1.392 8.465 1.029 11.847-3.449.048-6.797 2.098-8.405 5.148-1.608 3.049-1.411 6.971.496 9.843 1.61 2.427 4.243 4.005 6.97 5.03 7.564 2.84 16.158 1.878 23.666-1.108 4.312-1.714 8.458-4.15 11.365-7.766 2.908-3.616 4.421-8.553 3.165-13.02-.875-3.114-3-5.762-5.514-7.796-2.514-2.035-5.419-3.522-8.313-4.965-4.98-2.485-10.201-4.939-15.766-5.04" transform="translate(82 28.783)"/>
            <path fill="#3847DC" d="M142.013 222.206h-23.965c-7.563 0-13.694-6.13-13.694-13.693s6.131-13.694 13.694-13.694h18.987c2.75 0 4.978 2.229 4.978 4.977v22.41z" transform="translate(82 28.783)"/>
            <path fill="#3847DC" d="M145.437 281.088h-15.95c-5.561 0-10.07-4.508-10.07-10.07v-76.2h15.95c5.56 0 10.07 4.51 10.07 10.07v76.2z" transform="translate(82 28.783)"/>
            <path fill="#FFF" d="M148.255 126.62c2.162-.513 4.61-.12 6.524 1.197.942.663 1.775 1.515 2.305 2.532.318.477.477 1.033.685 1.553.154.542.257 1.096.347 1.64-.268-.495-.443-1.014-.716-1.486-.287-.462-.509-.953-.852-1.366-.596-.88-1.37-1.611-2.23-2.201-.854-.603-1.827-1.037-2.851-1.339-1.028-.284-2.103-.48-3.212-.53M184.486 153.42c2.28-.038 4.64.806 6.363 2.445.44.398.788.886 1.14 1.36.277.525.6 1.025.755 1.599.228.544.298 1.13.391 1.7.061.574.034 1.155.016 1.72-.257-1.116-.502-2.203-.996-3.18-.447-.992-1.08-1.882-1.87-2.612-.77-.751-1.682-1.359-2.663-1.856-.987-.48-2.032-.892-3.136-1.175M170.77 141.472c.506.07.988.251 1.447.477.462.224.886.528 1.266.882.376.359.686.794.897 1.27.223.473.298 1 .29 1.502-.16-.483-.305-.95-.568-1.36-.26-.405-.546-.791-.901-1.119-.697-.67-1.532-1.19-2.43-1.652" transform="translate(82 28.783)"/>
            <path fill="#000" d="M183.164 176.792c1.03-3.73.696-7.947-1.469-11.154-2.164-3.208-6.315-5.142-10.058-4.163 1.149-2.699-.517-5.912-2.938-7.566-2.423-1.655-5.415-2.165-8.275-2.815-8.418-1.912-16.483-5.37-23.673-10.148-3.635-2.416-4.24-1.869-5.96-5.773-1.023 1.507-3.035 3.953-3.093 5.823-3.246-2.967-9.758-3.272-11.978.035-2.22 3.307-2.512 7.7-1.202 11.462 1.31 3.76 4.09 6.901 7.407 9.108l.41-1.58c-.246 8.34 4.584 16.35 11.428 21.129 6.842 4.777 15.438 6.583 23.78 6.337 7.689-.228 15.227-2.097 22.57-4.422 1.346-1.924 2.429-4.016 3.051-6.273" transform="translate(82 28.783)"/>
            <path stroke="#3847DC" d="M138.035 204.878v66.763h-13.024v-56.308h-3.573c-3.768 0-6.822-3.054-6.822-6.821 0-3.768 3.054-6.822 6.822-6.822h13.41c1.76 0 3.187 1.428 3.187 3.188z" transform="translate(82 28.783)"/>
            <path fill="#3847DC" d="M151.68 149.636c-.548-4.262 2.153-8.123 6.035-8.624 3.883-.499 7.474 2.552 8.024 6.814.549 4.264-2.154 8.125-6.036 8.624-3.882.5-7.474-2.551-8.023-6.814" transform="translate(82 28.783)"/>
            <path fill="#3847DC" d="M151.68 149.636c.549 4.263 4.141 7.314 8.023 6.814 1.61-.207 3.013-.998 4.068-2.15-4.815-3.099-5.668-10.768-5.818-13.305-.079.008-.158.008-.238.017-3.882.501-6.583 4.362-6.035 8.624" transform="translate(82 28.783)"/>
            <path fill="#FFBDAF" d="M141.328 167.264l2.74 12.325 9.585 2.738s3.424-3.423 3.424-4.108c0-.684-4.793-13.693-4.793-13.693l-10.956 2.738z" transform="translate(82 28.783)"/>
            <path fill="#FFBDAF" d="M152.284 164.526l-10.956 2.738.935 4.208c1.963.848 4.175 1.474 6.699 1.781 1.378.168 2.796-.09 3.996-.788.618-.359 1.197-.793 1.753-1.262-1.208-3.368-2.427-6.677-2.427-6.677" transform="translate(82 28.783)"/>
            <path fill="#FFBDAF" d="M126.265 142.616s-1.37 26.702 22.595 28.072c7.532-2.74 12.325-13.01 10.955-21.225-1.369-8.216-10.27-21.91-23.28-17.801-6.847 2.738-10.27 10.954-10.27 10.954M202.268 173.426l17.416-21.283c.692-.847 1.07-1.909 1.07-3.004v-5.783c0-.442.284-.834.703-.974.666-.221 1.352.273 1.352.974v4.053l6.163-10.955 8.216-.685-10.956 19.171-16.432 28.757-7.532-10.27zM278.956 154.255l28.757 9.585 8.852-7.453c3.314-2.79 8.17-3.064 11.614-.433 1.997 1.525 3.043 3.665.76 6.518-5.477 6.846-21.226 14.378-21.226 14.378l-32.181-6.846 3.424-15.749z" transform="translate(82 28.783)"/>
            <path fill="#FF8773" d="M275.532 170.003l15.982 3.4c1.025-5.754.232-11.565-.517-15.134l-12.041-4.014-3.424 15.748z" opacity=".187" transform="translate(82 28.783)"/>
            <path fill="#739BE0" d="M190.628 203.552s36.053-40.056 52.179-53.73c2.687-2.28 6.171-3.384 9.684-3.1 11.9.964 36.735 5.48 36.735 5.48s4.793 17.801-4.108 28.07c-5.478-.683-30.127-5.476-30.127-5.476l-49.984 54.774-14.38-26.018z" transform="translate(82 28.783)"/>
            <path fill="#FFBDAF" d="M286.488 189.174l23.28 26.017 19.412 3.329c3.608.618 5.865 4.43 4.434 7.797-.925 2.175-3.15 5.101-8.098 3.937-11.64-2.739-22.595-6.162-22.595-6.162l-27.389-21.91 10.956-13.008z" transform="translate(82 28.783)"/>
            <path fill="#FF8773" d="M300.827 205.2l-14.34-16.025-10.955 13.007 19.145 15.316c3.152-3.26 5.832-7.426 6.15-12.298" opacity=".187" transform="translate(82 28.783)"/>
            <path fill="#739BE0" d="M242.647 157.744l-50.332 48.86 12.692 22.966 49.983-54.775s24.65 4.794 30.128 5.478c.567-.655 1.079-1.341 1.54-2.05-8.955-7.32-19.64-15.72-27.606-21.586-5.007-3.689-11.943-3.225-16.405 1.107" transform="translate(82 28.783)"/>
            <path fill="#97B8FF" d="M170.77 225.462s12.326 17.801 30.129 15.747c16.619-1.917 35.028-25.913 47.987-46.362 1.329-2.096 4.3-2.339 5.952-.487 10.192 11.423 28.226 28.363 28.226 28.363s17.117-8.216 17.117-21.225c-4.72-5.666-24.421-25.983-36.195-38.05-5.082-5.207-13.3-5.658-18.922-1.042l-55.121 45.254-19.172 17.802z" transform="translate(82 28.783)"/>
            <path fill="#97B8FF" d="M200.898 241.21c16.62-1.918 35.03-25.914 47.987-46.363 1.33-2.097 4.3-2.34 5.953-.487 10.192 11.423 28.226 28.363 28.226 28.363s3.99-1.92 8.118-5.364c-9.174-9.13-18.893-17.711-29.103-25.663-3.306-2.576-7.231-5.228-11.34-4.41-3.576.713-6.087 3.837-8.276 6.75l-14.204 18.901c-5.168 6.877-10.632 14.003-18.376 17.749-6.601 3.194-14.52 3.552-21.383.965-5.322-2.006-9.944-5.766-13.084-10.502l-4.645 4.313s12.324 17.8 30.127 15.747" transform="translate(82 28.783)"/>
            <path fill="#3847DC" d="M237.188 222.206h23.965c7.563 0 13.695-6.13 13.695-13.693s-6.132-13.694-13.695-13.694h-18.987c-2.75 0-4.978 2.229-4.978 4.977v22.41z" transform="translate(82 28.783)"/>
            <path fill="#3847DC" d="M233.764 281.088h15.95c5.562 0 10.07-4.508 10.07-10.07v-76.2h-15.95c-5.56 0-10.07 4.51-10.07 10.07v76.2z" transform="translate(82 28.783)"/>
            <path stroke="#3847DC" d="M240.571 204.878v66.763h13.024v-56.308h3.574c3.768 0 6.822-3.054 6.822-6.821 0-3.768-3.054-6.822-6.822-6.822h-13.41c-1.76 0-3.188 1.428-3.188 3.188z" transform="translate(82 28.783)"/>
            <path fill="#FFFFFE" d="M132.427 154.94l-11.64 3.423s3.423 11.64 20.541 19.172l2.055-.685s9.58 5.36 11.978-3.824c3.878-1.349 8.75-2.472 12.568-3.246 3.944-.798 8.04-.173 11.57 1.762l13.694 7.51c1.296.71 2.912.408 3.864-.723l9.32-11.064 9.504 7.155-13.18 20.977c-.859 1.367-2.62 1.846-4.054 1.104l-12.813-6.643 7.532 11.64s-.684 21.224-22.596 23.964c-7.53-7.531-17.117-17.117-22.595-21.225-5.477-4.108-23.28-15.748-28.073-20.54-4.793-4.794-17.117-21.91-17.802-30.81 0-4.794 27.388-8.217 27.388-8.217l2.739 10.27z" transform="translate(82 28.783)"/>
            <path fill="#F2F2F2" d="M128.05 181.654c-14.312-9.812-20.375-22.623-22.942-31.437-1.723.826-2.808 1.72-2.808 2.67.685 8.9 13.01 26.017 17.802 30.81 4.793 4.792 22.596 16.431 28.073 20.54.977.733 2.09 1.645 3.292 2.683-2.926-6.2-9.358-15.626-23.417-25.266" transform="translate(82 28.783)"/>
            <path fill="#97B8FF" d="M172.767 181.015c.568-.163 1.157-.253 1.749-.297.593-.059 1.192-.052 1.79.005 1.19.114 2.394.41 3.472.997 1.091.556 2.05 1.396 2.754 2.4.392.48.64 1.042.926 1.58.268.547.415 1.14.623 1.708l-.058-.117c.666.905 1.285 1.846 1.93 2.767.638.926 1.248 1.874 1.843 2.832-.759-.836-1.503-1.681-2.217-2.55-.71-.871-1.446-1.724-2.133-2.613l-.022-.028-.036-.088c-.22-.525-.392-1.07-.641-1.575-.274-.492-.506-1.01-.871-1.437-.302-.477-.71-.857-1.098-1.26-.437-.341-.858-.714-1.356-.978-.97-.557-2.048-.964-3.18-1.163-1.132-.19-2.301-.282-3.475-.183" transform="translate(82 28.783)"/>
            <path fill="#000" d="M145.85 151.384c.449.646.621 1.459 1.181 2.031.506.516 1.26.76 1.91.36.258-.157.466-.378.674-.592.198-.204.421-.454.712-.517.325-.072.644.126.824.388.203.296.204.66.074.987-.366.92-1.432 1.184-2.32 1.265-.387.036-.39.646 0 .61.884-.08 1.83-.285 2.453-.97.534-.59.788-1.495.32-2.2-.426-.642-1.241-.913-1.92-.492-.502.314-.947 1.204-1.621 1.115-1.02-.134-1.274-1.593-1.76-2.293-.223-.32-.752-.016-.528.308M142.615 160.36c1.461 1.324 3.455 1.963 5.413 1.67 1.873-.281 3.541-1.424 4.55-3.014.211-.334-.317-.64-.527-.308-.901 1.42-2.38 2.427-4.043 2.71-1.776.302-3.635-.287-4.962-1.489-.29-.263-.723.167-.43.432M135.234 149.571c.674-1.883 2.67-3.001 4.629-2.599.383.077.547-.51.162-.59-1.16-.236-2.387-.051-3.402.567-.924.565-1.614 1.444-1.979 2.46-.132.37.458.53.59.162M137.183 154.987L135.564 154.052 137.426 154.209z" transform="translate(82 28.783)"/>
            <path fill="#000" d="M137.568 155.212c.347-1.026 1.078-1.897 2.031-2.412 1.093-.59 2.4-.635 3.555-.205.368.138.527-.452.162-.588-1.305-.487-2.797-.396-4.025.266-1.094.59-1.915 1.604-2.311 2.777-.127.373.463.533.588.162" transform="translate(82 28.783)"/>
            <path fill="#000" d="M138.631 152.749L137.903 150.622 139.341 152.351zM141.978 152.092L142.476 150.622 142.79 152.142zM154.303 147.089L155.435 145.603 155.042 147.43z" transform="translate(82 28.783)"/>
            <path fill="#000" d="M155.242 147.331c-1.302-.562-2.774-.575-4.068.025-1.143.53-2.017 1.518-2.477 2.68-.145.365.445.525.589.163.872-2.206 3.466-3.283 5.649-2.341.356.154.667-.371.307-.527" transform="translate(82 28.783)"/>
            <path fill="#000" d="M151.639 147.263L151.322 145.037 152.411 147.004zM149.171 149.681L148.255 148.428 149.679 149.045zM221.747 154.258l8.096-25.399c.21-.662.818-1.118 1.512-1.135l14.529-.38c1.114-.029 1.928 1.043 1.602 2.108l-8.075 26.377c-.216.71-.885 1.183-1.626 1.152l-14.551-.597c-1.075-.044-1.814-1.1-1.487-2.126" transform="translate(82 28.783)"/>
            <path fill="#2E3192" d="M220.377 154.258l8.096-25.399c.212-.662.818-1.118 1.513-1.135l14.528-.38c1.114-.029 1.928 1.043 1.603 2.108l-8.074 26.377c-.217.71-.886 1.183-1.628 1.152l-14.55-.597c-1.076-.044-1.814-1.1-1.488-2.126" transform="translate(82 28.783)"/>
            <path fill="#97B8FF" d="M243.489 131.487l-5.413 17.671-.774 2.54-.366 1.196c-.13.423-.455.74-.847.871-.153.049-.309.073-.472.065l-3.035-.122-8.776-.358c-.879-.04-1.472-.895-1.213-1.726l4.192-13.153 1.588-4.973.797-2.491c.033-.106.083-.212.148-.301.227-.366.626-.603 1.073-.619l.424-.008 11.371-.301c.905-.025 1.563.846 1.303 1.71" transform="translate(82 28.783)"/>
            <path fill="#FFF" d="M238.076 149.159l-.773 2.538-7.986-20.99c.228-.368.627-.604 1.075-.62l.423-.008 7.261 19.08zM236.09 153.765c-.154.05-.31.074-.473.065l-3.036-.121-5.795-15.238 1.588-4.973 7.716 20.267z" transform="translate(82 28.783)"/>
            <path fill="#1A1A1A" d="M129.442 158.875c2.82-6.417 3.574-13.725 2.12-20.583 1.015 3.268 4.578 5.107 7.972 5.541 3.394.433 6.837-.174 10.255 0 3.417.174 7.11 1.378 8.839 4.331.316.54.665 1.203 1.289 1.256.774.066 1.227-.845 1.396-1.604 1.264-5.675-1.066-11.898-5.501-15.659-4.433-3.761-10.722-5.07-16.394-3.792-5.672 1.278-10.67 5.004-13.882 9.85-2.01 3.033-3.37 6.546-3.575 10.18-.205 3.632.803 7.38 3.077 10.22.563.703 1.253 1.378 2.133 1.57.88.192 1.955-.305 2.092-1.194" transform="translate(82 28.783)"/>
            <path fill="#3847DC" d="M120.075 160.416c-.924-4.53 1.74-8.898 5.95-9.757 4.21-.858 8.374 2.118 9.298 6.648.923 4.529-1.742 8.897-5.952 9.756s-8.372-2.118-9.296-6.647" transform="translate(82 28.783)"/>
            <path fill="#3847DC" d="M124.613 155.5c-4.625-14.098 1.168-19.411 1.425-19.755l.171-.018.042-.003.169-.01c-.199.272-2.522 6.66 1.279 18.244l-3.086 1.543zM134.374 163.376c-11.97 3.175-13.936-3.236-13.913-7.856-.57 1.488-.737 3.18-.386 4.896.923 4.53 5.086 7.506 9.296 6.647 2.177-.444 3.935-1.83 5.003-3.687" transform="translate(82 28.783)"/>
        </g>
    </g>
</svg>
