<svg width="1031" height="1095" viewBox="0 0 1031 1095" fill="none" xmlns="http://www.w3.org/2000/svg">
<path opacity="0.906" fill-rule="evenodd" clip-rule="evenodd" d="M1004.09 381.747C1095.18 539.505 936.247 762.689 795.778 858.484C780.449 942.288 733.948 1015.65 660.228 1058.21C514.826 1142.16 318.605 1074.51 221.956 907.102C191.023 853.526 174.039 796.225 170.009 740.32C138.279 709.681 74.6504 611.962 53.2764 574.94C-43.3736 407.538 -3.85359 203.78 141.548 119.832C166.468 105.444 192.883 95.5092 220.033 89.7672C238.577 69.1272 260.387 51.2202 285.308 36.8322C422.846 -42.5758 605.855 13.6642 707.05 161.665L707.039 161.667C812.645 207.231 958.903 303.475 1004.09 381.747V381.747Z" fill="#F3F4FA"/>
<path fill-rule="evenodd" clip-rule="evenodd" d="M622.475 648.501C622.475 668.435 525.769 684.595 406.475 684.595C287.181 684.595 190.475 668.435 190.475 648.501C190.475 628.567 287.181 612.406 406.475 612.406C525.769 612.406 622.475 628.566 622.475 648.501Z" fill="#E3E8FA"/>
<path fill-rule="evenodd" clip-rule="evenodd" d="M484.097 643.718C484.097 645.431 448.462 646.818 404.503 646.818C360.546 646.818 324.91 645.431 324.91 643.718C324.91 642.006 360.546 640.618 404.503 640.618C448.462 640.618 484.097 642.006 484.097 643.718ZM315.002 637.757C315.002 639.876 292.38 641.593 264.474 641.593C236.57 641.593 213.947 639.876 213.947 637.757C213.947 635.639 236.57 633.922 264.474 633.922C292.38 633.922 315.002 635.639 315.002 637.757ZM582.03 646.826C582.03 648.116 564.826 649.162 543.606 649.162C522.385 649.162 505.182 648.116 505.182 646.826C505.182 645.535 522.385 644.49 543.606 644.49C564.826 644.49 582.03 645.535 582.03 646.826Z" fill="#FFCDC5"/>
<path fill-rule="evenodd" clip-rule="evenodd" d="M535.038 338.415H538.575L536.807 335.352L535.038 338.415ZM536.807 340.965L535.039 344.028H538.576L536.807 340.965ZM540.478 337.652L538.839 340.964H542.115L540.478 337.652ZM488.915 461.224L487.146 464.287H490.684L488.915 461.224ZM488.915 466.837L487.146 469.9H490.684L488.915 466.837ZM492.585 463.525L490.948 466.837H494.224L492.585 463.525ZM222.265 479.483L220.497 482.546H224.033L222.265 479.483ZM222.265 485.096L220.497 488.159H224.033L222.265 485.096ZM225.935 481.784L224.297 485.096H227.573L225.935 481.784ZM485.377 596.778L483.608 599.841H487.146L485.377 596.778ZM485.377 602.391L483.608 605.453H487.146L485.377 602.391ZM489.047 599.078L487.409 602.39H490.686L489.047 599.078Z" fill="#FFBEB4"/>
<path fill-rule="evenodd" clip-rule="evenodd" d="M584.078 605.437H503.273C502.079 605.437 501.111 604.469 501.111 603.275C501.111 602.081 502.079 601.113 503.273 601.113H584.078C585.271 601.113 586.238 602.081 586.238 603.275C586.238 604.469 585.271 605.437 584.078 605.437Z" fill="#FFBEB4"/>
<path fill-rule="evenodd" clip-rule="evenodd" d="M514.425 643.717C513.212 643.717 512.213 642.975 512.162 642.034L510.062 604.105H518.789L516.689 642.034C516.637 642.974 515.639 643.717 514.425 643.717V643.717ZM573.694 643.717C572.481 643.717 571.482 642.975 571.43 642.034L569.33 604.105H578.057L575.957 642.034C575.906 642.974 574.907 643.717 573.694 643.717V643.717ZM543.675 643.717C542.462 643.717 541.463 642.975 541.412 642.034L539.312 604.105H548.039L545.939 642.034C545.887 642.974 544.889 643.717 543.675 643.717" fill="#FFBEB4"/>
<path fill-rule="evenodd" clip-rule="evenodd" d="M542.794 591.44C542.794 586.125 547.104 581.816 552.419 581.816C557.734 581.816 562.044 586.126 562.044 591.44C562.044 596.756 557.734 601.065 552.419 601.065C547.104 601.065 542.794 596.755 542.794 591.44" fill="#FFA49A"/>
<path fill-rule="evenodd" clip-rule="evenodd" d="M557.259 583.518H547.336C546.783 583.518 546.335 583.07 546.335 582.517C546.335 581.964 546.783 581.516 547.336 581.516H557.259C557.813 581.516 558.261 581.964 558.261 582.517C558.261 583.07 557.813 583.518 557.259 583.518ZM548.024 565.527C548.37 565.693 548.787 566.311 548.926 567.165C549.066 568.019 548.882 568.75 548.596 569.005C548.251 568.854 547.834 568.222 547.693 567.368C547.553 566.515 547.755 565.791 548.024 565.527Z" fill="#FFA49A"/>
<path fill-rule="evenodd" clip-rule="evenodd" d="M549.588 574.422L548.686 568.934L548.483 568.967L549.385 574.455L549.588 574.422Z" fill="#FFA49A"/>
<path fill-rule="evenodd" clip-rule="evenodd" d="M550.916 568.771C550.541 568.747 549.926 569.093 549.466 569.788C549.006 570.484 548.886 571.233 549.043 571.604C549.411 571.641 550.033 571.284 550.493 570.588C550.953 569.892 551.053 569.142 550.916 568.771Z" fill="#FFA49A"/>
<path fill-rule="evenodd" clip-rule="evenodd" d="M546.322 569.527C546.67 569.384 547.362 569.515 548.022 570.027C548.68 570.539 549.032 571.209 549.004 571.613C548.666 571.764 547.962 571.625 547.304 571.113C546.646 570.601 546.31 569.923 546.322 569.527ZM546.764 572.217C547.112 572.074 547.805 572.205 548.464 572.717C549.122 573.229 549.474 573.899 549.446 574.302C549.109 574.454 548.404 574.314 547.746 573.802C547.088 573.292 546.752 572.612 546.764 572.217Z" fill="#FFA49A"/>
<path fill-rule="evenodd" clip-rule="evenodd" d="M551.358 571.462C550.983 571.437 550.368 571.784 549.908 572.479C549.448 573.174 549.33 573.923 549.486 574.295C549.854 574.332 550.476 573.974 550.936 573.278C551.395 572.583 551.496 571.833 551.358 571.462Z" fill="#FFA49A"/>
<path fill-rule="evenodd" clip-rule="evenodd" d="M550.471 579.788L549.569 574.301L549.365 574.334L550.268 579.821L550.471 579.788Z" fill="#FFA49A"/>
<path fill-rule="evenodd" clip-rule="evenodd" d="M551.798 574.138C551.423 574.113 550.808 574.459 550.348 575.155C549.888 575.85 549.77 576.599 549.925 576.971C550.295 577.007 550.917 576.65 551.375 575.954C551.835 575.259 551.935 574.509 551.798 574.138Z" fill="#FFA49A"/>
<path fill-rule="evenodd" clip-rule="evenodd" d="M547.204 574.894C547.551 574.751 548.244 574.881 548.904 575.394C549.561 575.906 549.914 576.576 549.884 576.979C549.548 577.131 548.844 576.991 548.185 576.479C547.528 575.969 547.191 575.289 547.204 574.894ZM547.646 577.584C547.994 577.441 548.686 577.571 549.346 578.083C550.004 578.595 550.356 579.266 550.328 579.668V579.669C549.99 579.821 549.286 579.681 548.628 579.169C547.969 578.657 547.634 577.979 547.646 577.584Z" fill="#FFA49A"/>
<path fill-rule="evenodd" clip-rule="evenodd" d="M552.24 576.829C551.864 576.805 551.25 577.151 550.79 577.847C550.33 578.542 550.21 579.291 550.367 579.662V579.663C550.735 579.699 551.357 579.342 551.817 578.646C552.277 577.951 552.377 577.2 552.239 576.829" fill="#FFA49A"/>
<path fill-rule="evenodd" clip-rule="evenodd" d="M551.354 585.153L550.452 579.666L550.249 579.7L551.151 585.187L551.354 585.153ZM556.631 569.496C556.907 569.741 557.105 570.376 556.968 571.116C556.833 571.856 556.428 572.394 556.078 572.511C555.8 572.278 555.603 571.631 555.738 570.891C555.875 570.151 556.295 569.625 556.631 569.496Z" fill="#FFA49A"/>
<path fill-rule="evenodd" clip-rule="evenodd" d="M555.309 577.238L556.184 572.481L555.982 572.445L555.107 577.201L555.309 577.238Z" fill="#FFA49A"/>
<path fill-rule="evenodd" clip-rule="evenodd" d="M558.343 573.058C557.995 572.918 557.307 573.006 556.653 573.427C555.999 573.848 555.65 574.42 555.681 574.772C556.018 574.919 556.719 574.825 557.371 574.403C558.024 573.983 558.357 573.403 558.343 573.058Z" fill="#FFA49A"/>
<path fill-rule="evenodd" clip-rule="evenodd" d="M553.763 572.215C554.137 572.21 554.751 572.536 555.211 573.162C555.672 573.788 555.794 574.446 555.641 574.765C555.273 574.782 554.652 574.445 554.191 573.82C553.731 573.194 553.627 572.534 553.763 572.215V572.215ZM553.334 574.548C553.708 574.541 554.321 574.868 554.783 575.493C555.243 576.119 555.366 576.778 555.212 577.096C554.845 577.113 554.224 576.776 553.762 576.151C553.302 575.525 553.199 574.867 553.334 574.548Z" fill="#FFA49A"/>
<path fill-rule="evenodd" clip-rule="evenodd" d="M557.914 575.389C557.567 575.25 556.877 575.338 556.224 575.758C555.57 576.18 555.221 576.751 555.252 577.104C555.59 577.25 556.29 577.156 556.943 576.734C557.595 576.314 557.928 575.735 557.913 575.389" fill="#FFA49A"/>
<path fill-rule="evenodd" clip-rule="evenodd" d="M554.455 581.892L555.329 577.136L555.127 577.098L554.252 581.855L554.455 581.892Z" fill="#FFA49A"/>
<path fill-rule="evenodd" clip-rule="evenodd" d="M557.487 577.71C557.14 577.571 556.451 577.658 555.797 578.078C555.143 578.5 554.795 579.072 554.825 579.424C555.163 579.57 555.863 579.477 556.517 579.055C557.169 578.635 557.501 578.056 557.487 577.71" fill="#FFA49A"/>
<path fill-rule="evenodd" clip-rule="evenodd" d="M552.907 576.867C553.281 576.86 553.895 577.187 554.356 577.813C554.816 578.439 554.939 579.097 554.785 579.416C554.418 579.432 553.797 579.096 553.336 578.47C552.876 577.844 552.772 577.186 552.907 576.867ZM553.598 586.542L554.473 581.785L554.27 581.748L553.396 586.505L553.598 586.542Z" fill="#FFA49A"/>
<path fill-rule="evenodd" clip-rule="evenodd" d="M563.457 523.379C563.88 523.645 564.325 524.506 564.38 525.632C564.433 526.755 564.085 527.674 563.678 527.962C563.255 527.713 562.808 526.834 562.755 525.71C562.7 524.585 563.069 523.68 563.457 523.38" fill="#FFBEB4"/>
<path fill-rule="evenodd" clip-rule="evenodd" d="M564.154 535.108L563.805 527.879L563.538 527.892L563.887 535.121L564.154 535.108Z" fill="#FFBEB4"/>
<path fill-rule="evenodd" clip-rule="evenodd" d="M566.712 528.001C566.23 527.914 565.384 528.269 564.686 529.101C563.988 529.931 563.722 530.881 563.869 531.385C564.339 531.487 565.198 531.117 565.895 530.287C566.593 529.457 566.835 528.501 566.712 528.001" fill="#FFBEB4"/>
<path fill-rule="evenodd" clip-rule="evenodd" d="M560.66 528.294C561.13 528.161 562.007 528.434 562.783 529.193C563.558 529.953 563.913 530.873 563.816 531.389C563.356 531.535 562.468 531.251 561.694 530.49C560.919 529.732 560.586 528.804 560.66 528.293V528.294ZM560.832 531.837C561.302 531.704 562.179 531.977 562.954 532.737C563.729 533.496 564.084 534.417 563.988 534.932C563.528 535.079 562.638 534.793 561.865 534.033C561.091 533.275 560.757 532.347 560.832 531.837Z" fill="#FFBEB4"/>
<path fill-rule="evenodd" clip-rule="evenodd" d="M566.883 531.544C566.402 531.458 565.555 531.814 564.857 532.645C564.159 533.475 563.893 534.426 564.04 534.929C564.51 535.032 565.369 534.661 566.066 533.831C566.764 533.001 567.006 532.045 566.883 531.545" fill="#FFBEB4"/>
<path fill-rule="evenodd" clip-rule="evenodd" d="M564.497 542.178L564.148 534.949L563.88 534.962L564.23 542.191L564.497 542.178Z" fill="#FFBEB4"/>
<path fill-rule="evenodd" clip-rule="evenodd" d="M567.055 535.071C566.573 534.984 565.726 535.339 565.028 536.171C564.33 537.002 564.065 537.952 564.211 538.456C564.683 538.558 565.541 538.188 566.237 537.357C566.935 536.527 567.177 535.571 567.055 535.071Z" fill="#FFBEB4"/>
<path fill-rule="evenodd" clip-rule="evenodd" d="M561.002 535.365C561.472 535.231 562.349 535.505 563.124 536.264C563.899 537.024 564.255 537.944 564.158 538.46C563.698 538.606 562.81 538.321 562.035 537.561C561.261 536.802 560.928 535.874 561.002 535.364V535.365ZM561.173 538.908C561.643 538.774 562.52 539.047 563.295 539.806C564.071 540.566 564.426 541.487 564.329 542.002V542.003C563.869 542.15 562.981 541.864 562.206 541.103C561.432 540.345 561.099 539.418 561.173 538.908Z" fill="#FFBEB4"/>
<path fill-rule="evenodd" clip-rule="evenodd" d="M567.225 538.614C566.744 538.528 565.898 538.883 565.199 539.714C564.502 540.544 564.236 541.494 564.383 541.999C564.853 542.101 565.711 541.731 566.409 540.901C567.107 540.071 567.349 539.115 567.225 538.614" fill="#FFBEB4"/>
<path fill-rule="evenodd" clip-rule="evenodd" d="M564.839 549.248L564.489 542.02L564.222 542.033L564.571 549.261L564.839 549.248Z" fill="#FFBEB4"/>
<path fill-rule="evenodd" clip-rule="evenodd" d="M569.528 601.015H561.957C558.933 601.015 556.554 598.433 556.799 595.42L560.729 547.109H570.755L574.687 595.42C574.932 598.433 572.552 601.015 569.528 601.015Z" fill="#FFBEB4"/>
<path fill-rule="evenodd" clip-rule="evenodd" d="M571.783 547.255H559.703C558.996 547.255 558.423 546.682 558.423 545.976C558.423 545.269 558.996 544.695 559.703 544.695H571.783C572.49 544.695 573.063 545.269 573.063 545.976C573.063 546.682 572.49 547.256 571.783 547.256" fill="#FFBEB4"/>
<path fill-rule="evenodd" clip-rule="evenodd" d="M567.256 556.834C567.37 552.778 567.571 548.728 567.786 544.679C568 540.631 568.286 536.586 568.532 532.539C568.845 528.498 569.122 524.453 569.466 520.413L570 514.355C570.208 512.337 570.388 510.318 570.62 508.301C570.572 510.331 570.471 512.355 570.399 514.382L570.091 520.457C569.876 524.505 569.591 528.549 569.344 532.597C569.029 536.638 568.755 540.682 568.408 544.723C568.062 548.763 567.704 552.801 567.256 556.834" fill="#FFBEB4"/>
<path fill-rule="evenodd" clip-rule="evenodd" d="M567.637 552.201C567.03 544.101 566.792 535.996 566.645 527.889C566.535 519.782 566.517 511.673 566.873 503.559C567.484 511.657 567.721 519.762 567.865 527.869C567.972 535.977 567.99 544.086 567.637 552.201V552.201ZM566.608 559.804C567.111 555.777 567.702 551.765 568.306 547.756C568.909 543.746 569.583 539.749 570.219 535.746C570.918 531.752 571.583 527.753 572.316 523.766L573.431 517.786C573.831 515.798 574.205 513.804 574.63 511.821C574.387 513.835 574.092 515.841 573.824 517.851L572.934 523.869C572.328 527.877 571.657 531.875 571.02 535.879C570.319 539.873 569.655 543.872 568.921 547.859C568.188 551.848 567.442 555.833 566.608 559.803" fill="#FFBEB4"/>
<path fill-rule="evenodd" clip-rule="evenodd" d="M565.105 503.677C565.105 504.15 564.722 504.533 564.249 504.533C563.777 504.533 563.393 504.15 563.393 503.677C563.393 503.205 563.777 502.822 564.249 502.822C564.722 502.822 565.105 503.205 565.105 503.677ZM571.736 499.538C571.736 500.67 570.819 501.588 569.686 501.588C568.556 501.588 567.637 500.67 567.637 499.538C567.637 498.406 568.555 497.488 569.687 497.488C570.819 497.488 571.737 498.406 571.737 499.538H571.736ZM574.498 509.428C574.498 509.802 574.195 510.104 573.822 510.104C573.448 510.104 573.145 509.802 573.145 509.428C573.145 509.054 573.448 508.752 573.822 508.752C574.195 508.752 574.498 509.054 574.498 509.428ZM576.13 524.015C576.13 524.366 575.844 524.651 575.493 524.651C575.141 524.651 574.857 524.366 574.857 524.015C574.857 523.663 575.141 523.378 575.493 523.378C575.844 523.378 576.13 523.663 576.13 524.015ZM560.992 517.54C560.992 518.152 560.497 518.648 559.884 518.648C559.274 518.648 558.777 518.152 558.777 517.54C558.777 516.928 559.273 516.433 559.884 516.433C560.497 516.433 560.992 516.928 560.992 517.54Z" stroke="#FFBEB4"/>
<path fill-rule="evenodd" clip-rule="evenodd" d="M505.075 599.747H533.291V569.008H505.075V599.747Z" fill="#FFA49A"/>
<path fill-rule="evenodd" clip-rule="evenodd" d="M508.238 596.299H530.128V572.453H508.238V596.299Z" fill="#FFBEB4"/>
<path fill-rule="evenodd" clip-rule="evenodd" d="M244.541 629.6H249.082V428.766H244.541V629.6Z" fill="#FFA49A"/>
<path fill-rule="evenodd" clip-rule="evenodd" d="M269.981 636.929H223.641C223.641 631.973 234.019 627.956 246.815 627.956C259.612 627.956 269.982 631.973 269.982 636.929H269.981ZM278.687 431.523H214.934L216.115 427.389L216.351 426.575L218.491 419.086L218.727 418.272L230.4 377.453H264.849L275.292 418.272L275.504 419.086L277.417 426.575L277.629 427.389L278.687 431.523Z" fill="#FFA49A"/>
<path fill-rule="evenodd" clip-rule="evenodd" d="M219.116 420.916L216.946 424.675H221.286L219.116 420.916ZM224.034 424.675L221.864 420.916H226.205L224.034 424.675ZM228.374 420.916L226.204 424.675H230.544L228.374 420.916ZM233.293 424.675L231.123 420.916H235.463L233.293 424.675ZM237.633 420.916L235.463 424.675H239.803L237.633 420.916ZM242.552 424.675L240.382 420.916H244.722L242.552 424.675ZM246.892 420.916L244.722 424.675H249.062L246.892 420.916ZM251.811 424.675L249.64 420.916H253.981L251.811 424.675ZM256.151 420.916L253.981 424.675H258.321L256.151 420.916ZM261.069 424.675L258.899 420.916H263.24L261.069 424.675ZM265.41 420.916L263.24 424.675H267.58L265.41 420.916ZM270.328 424.675L268.158 420.916H272.498L270.328 424.675ZM274.669 420.916L272.498 424.675H276.839L274.669 420.916ZM275.503 419.084H218.49L218.726 418.27H275.291L275.503 419.084ZM277.628 427.386H216.114L216.35 426.573H277.416L277.628 427.386Z" fill="#FFFFFE"/>
<path fill-rule="evenodd" clip-rule="evenodd" d="M285.885 550.661C287.545 544.233 291.121 538.486 294.787 532.951C298.045 528.031 301.452 523.145 305.751 519.103C310.051 515.06 315.346 511.875 321.179 510.977L316.905 524.747C315.479 529.34 314.01 534.023 311.197 537.923C308.259 541.996 304.005 544.973 299.456 547.105C294.908 549.237 290.04 550.581 285.198 551.916" fill="#006837"/>
<path fill-rule="evenodd" clip-rule="evenodd" d="M286.18 550.74C288.05 543.662 292.11 537.456 296.155 531.45C300.156 525.508 304.589 519.63 310.613 515.598C313.835 513.442 317.423 511.89 321.261 511.269L320.886 510.894L317.206 522.751C316.077 526.387 315.029 530.083 313.399 533.532C310.255 540.18 304.579 544.597 297.93 547.456C293.797 549.232 289.445 550.426 285.118 551.62C284.739 551.724 284.9 552.313 285.28 552.208C292.635 550.181 300.218 548.056 306.344 543.304C309.08 541.182 311.374 538.589 313.049 535.556C314.854 532.289 315.993 528.712 317.096 525.162C318.558 520.462 320.015 515.758 321.474 511.056C321.55 510.813 321.314 510.646 321.099 510.68C314.183 511.798 308.213 515.9 303.498 520.929C301.008 523.585 298.817 526.505 296.749 529.496C294.586 532.626 292.469 535.806 290.557 539.096C288.454 542.716 286.664 546.52 285.591 550.578C285.491 550.958 286.079 551.12 286.18 550.74" fill="#006837"/>
<path fill-rule="evenodd" clip-rule="evenodd" d="M276.115 572.269L295.398 531.04C295.73 530.333 294.678 529.712 294.344 530.424L275.061 571.652C274.729 572.36 275.781 572.981 276.115 572.269V572.269ZM277.044 542.701C277.142 535.414 279.041 528.354 280.872 521.35L286.475 499.903C286.575 499.522 285.986 499.36 285.887 499.741L280.18 521.581C278.37 528.508 276.53 535.496 276.433 542.701C276.428 543.095 277.039 543.095 277.043 542.701" fill="#39B54A"/>
<path fill-rule="evenodd" clip-rule="evenodd" d="M267.339 545.713C261.201 540.261 255.012 534.75 250.207 528.094C245.402 521.438 242.029 513.447 242.291 505.242C246.209 511.452 254.478 513.77 258.554 519.879C259.897 521.893 260.704 524.209 261.494 526.498L268.146 545.721" fill="#006837"/>
<path fill-rule="evenodd" clip-rule="evenodd" d="M267.555 545.499C258.099 537.097 248.105 528.124 244.137 515.694C243.058 512.313 242.505 508.795 242.597 505.244C242.407 505.294 242.217 505.346 242.027 505.398C245.008 510.018 250.077 512.43 254.242 515.788C256.563 517.661 258.44 519.84 259.678 522.575C261.238 526.021 262.293 529.737 263.528 533.308L267.851 545.804C267.979 546.173 268.569 546.014 268.439 545.641L264.583 534.491C263.355 530.945 262.22 527.348 260.864 523.848C259.78 521.052 258.286 518.61 256.078 516.565C254.116 514.749 251.868 513.282 249.682 511.758C246.997 509.884 244.352 507.876 242.555 505.089C242.391 504.836 241.995 504.934 241.986 505.244C241.649 518.33 249.756 529.469 258.703 538.207C261.428 540.869 264.276 543.4 267.123 545.93C267.415 546.19 267.848 545.76 267.555 545.499" fill="#006837"/>
<path fill-rule="evenodd" clip-rule="evenodd" d="M255.403 515.783C263.227 531.608 268.986 548.438 272.488 565.743C273.492 570.699 274.309 575.693 274.94 580.71C275.037 581.48 276.26 581.489 276.161 580.71C273.927 562.96 269.405 545.523 262.661 528.95C260.761 524.28 258.691 519.684 256.457 515.166C256.109 514.462 255.056 515.08 255.403 515.783" fill="#39B54A"/>
<path fill-rule="evenodd" clip-rule="evenodd" d="M273.521 497.463C268.498 479.856 268.645 460.807 273.941 443.281C277.624 448.583 280.451 454.478 282.28 460.67C284.316 467.566 285.107 474.902 283.908 481.99C282.708 489.078 279.435 495.905 274.184 500.816" fill="#006837"/>
<path fill-rule="evenodd" clip-rule="evenodd" d="M273.815 497.384C269.932 483.67 269.132 469.134 271.495 455.076C272.161 451.118 273.082 447.208 274.235 443.363L273.677 443.437C282.795 456.645 287.825 474.971 281.137 490.293C279.446 494.168 277.043 497.694 273.968 500.603C273.682 500.873 274.115 501.303 274.4 501.033C286.813 489.289 286.717 470.433 280.822 455.506C279.098 451.14 276.87 446.991 274.205 443.128C274.057 442.915 273.725 442.938 273.646 443.201C269.555 456.843 268.522 471.334 270.612 485.421C271.22 489.515 272.099 493.564 273.226 497.546C273.333 497.924 273.922 497.763 273.815 497.384Z" fill="#006837"/>
<path fill-rule="evenodd" clip-rule="evenodd" d="M287.725 545.713C286.393 536.855 289.236 527.774 293.854 520.1C298.472 512.425 304.778 505.931 311.026 499.512C312.551 511.739 309.955 524.442 303.756 535.092C302.052 538.022 300.039 540.845 297.338 542.891C294.636 544.938 291.154 546.141 287.819 545.536" fill="#39B54A"/>
<path fill-rule="evenodd" clip-rule="evenodd" d="M288.02 545.633C285.971 531.422 294.078 518.485 303.124 508.324C305.744 505.38 308.493 502.554 311.242 499.729C311.067 499.659 310.894 499.586 310.721 499.515C311.602 506.779 311.083 514.172 309.183 521.24C308.216 524.84 306.9 528.346 305.243 531.686C303.665 534.868 301.833 538.052 299.378 540.644C296.434 543.75 292.278 545.957 287.9 545.244C287.516 545.181 287.35 545.77 287.737 545.833C295.422 547.084 300.977 540.647 304.37 534.637C308.15 527.947 310.527 520.488 311.391 512.856C311.895 508.422 311.868 503.944 311.331 499.515C311.301 499.268 311.011 499.091 310.811 499.298C301.024 509.353 290.651 520.192 287.79 534.448C287.038 538.191 286.886 542.014 287.431 545.795C287.487 546.183 288.075 546.018 288.02 545.633V545.633ZM278.235 529.883C277.474 519.053 279.658 508.179 283.225 497.926C286.792 487.673 291.723 477.956 296.638 468.277C299.901 479.352 300.943 491.267 298.19 502.479C295.437 513.692 288.638 524.13 278.7 530.01" fill="#39B54A"/>
<path fill-rule="evenodd" clip-rule="evenodd" d="M278.539 529.881C277.397 512.841 283.313 496.439 290.515 481.284C292.568 476.962 294.735 472.694 296.9 468.429L296.343 468.356C301.453 485.847 300.854 505.946 288.961 520.646C286.04 524.257 282.536 527.36 278.546 529.745C278.209 529.945 278.516 530.475 278.853 530.271C285.977 526.014 291.513 519.496 295.084 512.045C299.117 503.633 300.523 494.215 299.952 484.948C299.602 479.268 298.526 473.652 296.932 468.194C296.862 467.954 296.496 467.879 296.374 468.12C288.704 483.226 280.874 498.712 278.491 515.689C277.831 520.391 277.611 525.142 277.929 529.881C277.955 530.271 278.565 530.274 278.539 529.881ZM271.646 490.896C275.479 512.971 276.861 535.457 275.759 557.836C275.446 564.169 274.932 570.491 274.226 576.792C274.139 577.572 275.36 577.566 275.446 576.792C277.961 554.342 277.981 531.622 275.476 509.169C274.782 502.945 273.895 496.743 272.823 490.572C272.689 489.799 271.512 490.127 271.646 490.896" fill="#39B54A"/>
<path fill-rule="evenodd" clip-rule="evenodd" d="M273.681 500.155C269.005 496.248 264.924 489.62 263.827 483.625C262.729 477.629 263.049 471.475 263.429 465.393C263.808 459.31 264.241 453.176 263.362 447.145C267.928 453.292 271.773 459.975 274.794 467.01C277.082 472.341 278.915 477.965 279.119 483.762C279.324 489.559 277.759 495.582 273.926 499.937" fill="#39B54A"/>
<path fill-rule="evenodd" clip-rule="evenodd" d="M273.897 499.94C268.946 495.747 265.165 489.58 264.051 483.16C262.725 475.51 263.677 467.717 264.046 460.028C264.254 455.699 264.262 451.364 263.656 447.064L263.097 447.299C267.58 453.359 271.384 459.909 274.382 466.824C277.397 473.78 279.742 481.46 278.485 489.104C277.845 492.998 276.303 496.721 273.709 499.721C273.454 500.017 273.884 500.451 274.141 500.153C284.607 488.043 277.556 470.474 270.917 458.367C268.75 454.412 266.307 450.617 263.625 446.992C263.413 446.705 263.018 446.88 263.067 447.226C264.201 455.272 263.069 463.363 262.815 471.426C262.696 475.206 262.775 479.006 263.368 482.748C263.883 486.001 265.03 489.08 266.638 491.951C268.41 495.111 270.695 498.025 273.465 500.371C273.763 500.625 274.197 500.194 273.897 499.94V499.94ZM266.802 541.952C269.164 533.66 267.769 522.351 263.817 514.687C259.865 507.025 253.695 500.689 246.864 495.429C247.234 504.272 247.918 513.229 250.868 521.574C253.818 529.917 258.897 537.971 266.802 541.952" fill="#39B54A"/>
<path fill-rule="evenodd" clip-rule="evenodd" d="M267.097 542.034C268.921 535.49 268.529 528.304 266.811 521.78C265.006 514.923 261.161 508.892 256.409 503.69C253.569 500.582 250.409 497.787 247.08 495.215C246.889 495.067 246.546 495.139 246.56 495.43C247.155 509.444 248.838 524.635 258.413 535.68C260.73 538.352 263.496 540.604 266.649 542.217C266.998 542.395 267.307 541.868 266.957 541.689C254.778 535.458 249.757 520.833 248.132 508.124C247.592 503.913 247.35 499.67 247.17 495.43L246.648 495.647C252.365 500.064 257.628 505.189 261.523 511.311C265.238 517.151 267.221 523.786 267.59 530.689C267.792 534.443 267.52 538.242 266.509 541.872C266.403 542.252 266.992 542.413 267.097 542.035" fill="#39B54A"/>
<path fill-rule="evenodd" clip-rule="evenodd" d="M301.3 606.779C301.3 620.555 295.954 632.552 288.051 638.792H263.124C255.222 632.552 249.874 620.555 249.874 606.779C249.874 593.909 254.544 582.589 261.607 576.062H289.567C296.631 582.59 301.3 593.908 301.3 606.779Z" fill="#FFBEB4"/>
<path fill-rule="evenodd" clip-rule="evenodd" d="M263.998 589.359L257.301 600.959H270.695L263.998 589.359Z" stroke="white"/>
<path fill-rule="evenodd" clip-rule="evenodd" d="M263.998 592.188L259.749 599.546H268.247L263.998 592.188Z" stroke="white" stroke-width="0.5"/>
<path fill-rule="evenodd" clip-rule="evenodd" d="M273.663 627.442L265.575 632.112V622.773L273.663 627.442Z" stroke="white" stroke-width="0.75"/>
<path fill-rule="evenodd" clip-rule="evenodd" d="M270.978 627.445L266.919 629.789V625.102L270.978 627.445Z" stroke="white" stroke-width="0.5"/>
<path fill-rule="evenodd" clip-rule="evenodd" d="M285.013 579.473L278.531 590.7H291.496L285.013 579.473Z" stroke="white"/>
<path fill-rule="evenodd" clip-rule="evenodd" d="M285.014 583.73L282.22 588.569H287.809L285.014 583.73Z" stroke="white" stroke-width="0.5"/>
<path fill-rule="evenodd" clip-rule="evenodd" d="M285.013 628.768L277.568 611.664H292.459L285.013 628.768Z" stroke="white"/>
<path fill-rule="evenodd" clip-rule="evenodd" d="M285.014 624.602L280.29 613.75H289.739L285.014 624.602Z" stroke="white" stroke-width="0.5"/>
<path fill-rule="evenodd" clip-rule="evenodd" d="M260.338 614.309C260.338 613.167 261.264 612.24 262.408 612.24C263.549 612.24 264.476 613.167 264.476 614.309C264.476 615.451 263.549 616.377 262.407 616.377C261.264 616.377 260.337 615.451 260.337 614.309H260.338ZM281.691 600.576C281.691 598.742 283.18 597.255 285.015 597.255C286.849 597.255 288.337 598.742 288.337 600.576C288.337 602.411 286.849 603.898 285.015 603.898C283.18 603.898 281.692 602.411 281.692 600.576H281.691ZM270.337 583.164C270.337 582.451 270.917 581.871 271.63 581.871C272.345 581.871 272.925 582.451 272.925 583.165C272.925 583.879 272.345 584.459 271.63 584.459C270.916 584.459 270.337 583.879 270.337 583.165V583.164Z" stroke="white"/>
<path fill-rule="evenodd" clip-rule="evenodd" d="M289.524 576.064H261.649C260.802 576.064 260.116 575.376 260.116 574.53V574.215C260.116 573.369 260.802 572.684 261.649 572.684H289.524C290.37 572.684 291.056 573.369 291.056 574.215V574.53C291.056 575.376 290.37 576.063 289.524 576.063" fill="#FFBEB4"/>
<path fill-rule="evenodd" clip-rule="evenodd" d="M291.293 539.628C292.078 536.972 293.058 534.377 294.155 531.832C295.245 529.281 296.496 526.802 297.847 524.379C299.214 521.965 300.681 519.607 302.293 517.351C303.103 516.226 303.931 515.114 304.781 514.021C305.659 512.949 306.534 511.876 307.467 510.851C307.074 511.423 306.677 511.989 306.273 512.548L305.101 514.257C304.321 515.395 303.555 516.541 302.812 517.701C301.332 520.024 299.897 522.373 298.556 524.777C297.198 527.171 295.939 529.619 294.722 532.091C293.513 534.567 292.393 537.088 291.292 539.628H291.293ZM271.745 493.153C271.298 490.655 270.939 488.148 270.594 485.641C270.24 483.133 269.949 480.621 269.66 478.109C269.388 475.593 269.119 473.077 268.912 470.555L268.605 466.769C268.532 465.504 268.431 464.242 268.383 462.973C268.614 464.219 268.794 465.472 269.001 466.721L269.534 470.481C269.887 472.988 270.179 475.503 270.468 478.018C270.738 480.535 271.008 483.052 271.214 485.576C271.43 488.098 271.632 490.622 271.745 493.153V493.153ZM252.641 507.357C254.021 509.515 255.256 511.762 256.408 514.051C257.569 516.336 258.601 518.686 259.558 521.064C260.497 523.45 261.36 525.866 262.086 528.324C262.446 529.554 262.791 530.788 263.116 532.027C263.407 533.274 263.709 534.517 263.945 535.777L262.733 532.138C262.333 530.927 261.921 529.72 261.493 528.518C260.628 526.12 259.752 523.728 258.802 521.365C257.87 518.995 256.865 516.653 255.845 514.317C254.815 511.984 253.725 509.677 252.641 507.357V507.357ZM281.899 519.508C283.175 516.407 284.446 513.312 285.646 510.19C286.844 507.068 288.025 503.94 289.083 500.77C290.203 497.621 291.205 494.432 292.185 491.236C292.678 489.637 293.149 488.033 293.608 486.424L294.984 481.591C294.698 483.243 294.342 484.881 293.994 486.523C293.613 488.155 293.208 489.783 292.787 491.408C291.927 494.651 290.917 497.853 289.851 501.036C288.725 504.196 287.549 507.342 286.223 510.426C284.9 513.508 283.479 516.549 281.899 519.508" fill="#006837"/>
<path fill-rule="evenodd" clip-rule="evenodd" d="M475.715 447.789H580.511V394.176H475.715V447.789Z" stroke="#FFBEB4" stroke-width="3"/>
<path fill-rule="evenodd" clip-rule="evenodd" d="M487.147 439.597H569.079V402.363H487.147V439.597Z" fill="#FFBEB4"/>
<path fill-rule="evenodd" clip-rule="evenodd" d="M309.178 348.926L305.572 355.17H312.784L309.178 348.926Z" fill="white"/>
<path fill-rule="evenodd" clip-rule="evenodd" d="M276.074 385.88H335.6V336.035H276.074V385.88Z" stroke="#FFBEB4" stroke-width="3"/>
<path fill-rule="evenodd" clip-rule="evenodd" d="M288.881 375.156H322.795V346.758H288.881V375.156Z" fill="#FFBEB4"/>
<path fill-rule="evenodd" clip-rule="evenodd" d="M434.424 486.782H372.777C357.847 486.782 345.742 498.885 345.742 513.815V579.897H461.459V513.815C461.459 498.885 449.355 486.781 434.424 486.781" fill="#222256"/>
<path fill-rule="evenodd" clip-rule="evenodd" d="M359.437 579.901H447.765V565.355H359.437V579.901Z" fill="#00000C"/>
<path fill-rule="evenodd" clip-rule="evenodd" d="M352.591 616.871H447.765V579.898H352.591V616.871Z" fill="#3847DC"/>
<path fill-rule="evenodd" clip-rule="evenodd" d="M455.296 622.348H351.904C348.88 622.348 346.427 619.895 346.427 616.871H460.774C460.774 619.895 458.322 622.348 455.296 622.348ZM349.166 639.465H345.742L351.905 622.348H356.698L349.166 639.465ZM458.036 639.465H461.458L455.296 622.348H450.504L458.036 639.465Z" fill="#00000C"/>
<path fill-rule="evenodd" clip-rule="evenodd" d="M335.925 497.386C332.61 495.18 329.829 492.04 328.519 488.279C327.209 484.519 327.501 480.124 329.721 476.817C331.941 473.511 336.184 471.541 340.067 472.427C340.228 467.183 345.051 463.369 349.717 460.968C354.851 458.325 360.219 456.789 365.468 459.196C368.389 460.536 371.464 462.725 373.01 465.542C374.556 468.36 375.479 471.47 376.375 474.557C380.045 472.376 385.045 472.707 388.395 475.352C391.745 477.998 393.226 482.786 391.955 486.861C396.107 485.104 401.137 484.32 404.955 486.72C408.967 489.242 410.353 494.43 410.628 499.164C410.865 503.232 410.458 507.547 408.146 510.902C405.406 514.877 400.569 516.752 395.982 518.255C388.052 520.855 379.886 523.026 371.545 523.273C363.203 523.519 354.607 521.713 347.763 516.935C340.921 512.158 336.091 504.147 336.336 495.806" fill="#1A1A1A"/>
<path fill-rule="evenodd" clip-rule="evenodd" d="M331.555 503.313C327.402 503.537 323.465 506.164 321.664 509.913C319.862 513.662 320.272 518.378 322.693 521.76C319.244 521.808 315.896 523.858 314.288 526.908C312.68 529.957 312.877 533.879 314.784 536.751C316.394 539.178 319.027 540.756 321.754 541.781C329.318 544.621 337.912 543.659 345.42 540.673C349.732 538.959 353.878 536.523 356.785 532.907C359.693 529.291 361.206 524.354 359.95 519.887C359.075 516.773 356.95 514.125 354.436 512.091C351.922 510.056 349.017 508.569 346.123 507.126C341.143 504.641 335.922 502.187 330.357 502.086" fill="black"/>
<path fill-rule="evenodd" clip-rule="evenodd" d="M356.013 557.989H332.048C324.485 557.989 318.354 551.859 318.354 544.296C318.354 536.733 324.485 530.602 332.048 530.602H351.035C353.785 530.602 356.013 532.831 356.013 535.579V557.989Z" fill="#3847DC"/>
<path fill-rule="evenodd" clip-rule="evenodd" d="M359.438 616.872H343.488C337.927 616.872 333.418 612.364 333.418 606.802V530.602H349.368C354.928 530.602 359.438 535.112 359.438 540.672V616.872Z" fill="#3847DC"/>
<path fill-rule="evenodd" clip-rule="evenodd" d="M362.256 462.405C364.418 461.892 366.866 462.285 368.78 463.602C369.722 464.265 370.555 465.117 371.085 466.134C371.403 466.611 371.562 467.167 371.77 467.687C371.924 468.229 372.027 468.783 372.117 469.327C371.849 468.832 371.674 468.313 371.401 467.841C371.114 467.379 370.892 466.888 370.549 466.475C369.953 465.595 369.179 464.864 368.319 464.274C367.465 463.671 366.492 463.237 365.468 462.935C364.44 462.651 363.365 462.455 362.256 462.405V462.405ZM398.487 489.205C400.767 489.167 403.127 490.011 404.85 491.65C405.29 492.048 405.638 492.536 405.99 493.01C406.267 493.535 406.59 494.035 406.745 494.609C406.973 495.153 407.043 495.739 407.136 496.309C407.197 496.883 407.17 497.464 407.152 498.029C406.895 496.913 406.65 495.826 406.156 494.849C405.709 493.857 405.076 492.967 404.286 492.237C403.516 491.486 402.604 490.878 401.623 490.381C400.636 489.901 399.591 489.489 398.487 489.206V489.205ZM384.771 477.257C385.277 477.327 385.759 477.508 386.218 477.734C386.68 477.958 387.104 478.262 387.484 478.616C387.86 478.975 388.17 479.41 388.381 479.886C388.604 480.359 388.679 480.886 388.671 481.388C388.511 480.905 388.366 480.438 388.103 480.028C387.843 479.623 387.557 479.237 387.202 478.909C386.505 478.239 385.67 477.719 384.772 477.257" fill="white"/>
<path fill-rule="evenodd" clip-rule="evenodd" d="M397.165 512.576C398.195 508.846 397.861 504.629 395.696 501.422C393.532 498.214 389.381 496.28 385.638 497.259C386.787 494.56 385.121 491.347 382.7 489.693C380.277 488.038 377.285 487.528 374.425 486.878C366.007 484.966 357.942 481.508 350.752 476.73C347.117 474.314 346.512 474.861 344.792 470.957C343.769 472.464 341.757 474.91 341.699 476.78C338.453 473.813 331.941 473.508 329.721 476.815C327.501 480.122 327.209 484.515 328.519 488.277C329.829 492.037 332.609 495.178 335.926 497.385L336.336 495.805C336.09 504.145 340.92 512.155 347.764 516.934C354.606 521.711 363.202 523.517 371.544 523.271C379.233 523.043 386.771 521.174 394.114 518.849C395.46 516.925 396.543 514.833 397.165 512.576" fill="black"/>
<path fill-rule="evenodd" clip-rule="evenodd" d="M352.035 540.661V607.424H339.011V551.116H335.438C331.67 551.116 328.616 548.062 328.616 544.295C328.616 540.527 331.67 537.473 335.438 537.473H348.848C350.608 537.473 352.035 538.901 352.035 540.661V540.661Z" stroke="#3847DC"/>
<path fill-rule="evenodd" clip-rule="evenodd" d="M365.681 485.42C365.133 481.158 367.834 477.297 371.716 476.796C375.599 476.297 379.19 479.348 379.74 483.61C380.289 487.874 377.586 491.735 373.704 492.234C369.822 492.734 366.23 489.683 365.681 485.42Z" fill="#3847DC"/>
<path fill-rule="evenodd" clip-rule="evenodd" d="M365.681 485.418C366.23 489.681 369.822 492.732 373.704 492.232C375.314 492.025 376.717 491.234 377.772 490.082C372.957 486.983 372.104 479.314 371.954 476.777C371.875 476.785 371.796 476.785 371.716 476.794C367.834 477.295 365.133 481.156 365.681 485.418" fill="#3847DC"/>
<path fill-rule="evenodd" clip-rule="evenodd" d="M355.328 503.047L358.068 515.372L367.653 518.11C367.653 518.11 371.077 514.687 371.077 514.002C371.077 513.318 366.284 500.309 366.284 500.309L355.328 503.047V503.047Z" fill="#FFBDAF"/>
<path fill-rule="evenodd" clip-rule="evenodd" d="M366.284 500.309L355.328 503.047L356.263 507.255C358.226 508.103 360.438 508.729 362.962 509.036C364.34 509.204 365.758 508.946 366.958 508.248C367.576 507.889 368.155 507.455 368.711 506.986C367.503 503.618 366.284 500.309 366.284 500.309" fill="#FFBDAF"/>
<path fill-rule="evenodd" clip-rule="evenodd" d="M340.265 478.401C340.265 478.401 338.895 505.103 362.86 506.473C370.392 503.733 375.185 493.463 373.815 485.248C372.446 477.032 363.545 463.338 350.535 467.447C343.688 470.185 340.265 478.401 340.265 478.401V478.401ZM416.268 509.211L433.684 487.928C434.376 487.081 434.754 486.019 434.754 484.924V479.141C434.754 478.699 435.038 478.307 435.457 478.167C436.123 477.946 436.809 478.44 436.809 479.141V483.194L442.972 472.239L451.188 471.554L440.232 490.725L423.8 519.482L416.268 509.212V509.211ZM492.956 490.04L521.713 499.625L530.565 492.172C533.879 489.382 538.735 489.108 542.179 491.739C544.176 493.264 545.222 495.404 542.939 498.257C537.462 505.103 521.713 512.635 521.713 512.635L489.532 505.789L492.956 490.04V490.04Z" fill="#FFBDAF"/>
<path opacity="0.187" fill-rule="evenodd" clip-rule="evenodd" d="M489.532 505.787L505.514 509.187C506.539 503.433 505.746 497.622 504.997 494.053L492.956 490.039L489.532 505.787V505.787Z" fill="#FF8773"/>
<path fill-rule="evenodd" clip-rule="evenodd" d="M404.629 539.335C404.629 539.335 440.682 499.279 456.808 485.605C459.495 483.325 462.979 482.221 466.492 482.505C478.392 483.469 503.227 487.985 503.227 487.985C503.227 487.985 508.02 505.786 499.119 516.055C493.641 515.372 468.992 510.579 468.992 510.579L419.008 565.353L404.628 539.335H404.629Z" fill="#739BE0"/>
<path fill-rule="evenodd" clip-rule="evenodd" d="M500.488 524.957L523.768 550.974L543.18 554.303C546.788 554.921 549.045 558.733 547.614 562.1C546.689 564.275 544.464 567.201 539.516 566.037C527.876 563.298 516.921 559.875 516.921 559.875L489.532 537.965L500.488 524.957V524.957Z" fill="#FFBDAF"/>
<path opacity="0.187" fill-rule="evenodd" clip-rule="evenodd" d="M514.827 540.986L500.487 524.961L489.532 537.968L508.677 553.284C511.829 550.024 514.509 545.858 514.827 540.986Z" fill="#FF8773"/>
<path fill-rule="evenodd" clip-rule="evenodd" d="M456.647 493.528L406.315 542.388L419.007 565.354L468.99 510.579C468.99 510.579 493.64 515.373 499.118 516.057C499.685 515.402 500.197 514.716 500.658 514.007C491.703 506.687 481.018 498.287 473.052 492.421C468.045 488.732 461.109 489.196 456.647 493.528" fill="#739BE0"/>
<path fill-rule="evenodd" clip-rule="evenodd" d="M384.771 561.248C384.771 561.248 397.097 579.049 414.9 576.995C431.519 575.078 449.928 551.082 462.887 530.633C464.216 528.537 467.187 528.294 468.839 530.146C479.031 541.569 497.064 558.509 497.064 558.509C497.064 558.509 514.182 550.293 514.182 537.284C509.462 531.618 489.76 511.301 477.986 499.234C472.904 494.027 464.686 493.576 459.064 498.192L403.943 543.446L384.771 561.248H384.771Z" fill="#97B8FF"/>
<path fill-rule="evenodd" clip-rule="evenodd" d="M414.898 576.993C431.518 575.075 449.928 551.079 462.885 530.63C464.215 528.533 467.185 528.29 468.838 530.143C479.03 541.566 497.064 558.506 497.064 558.506C497.064 558.506 501.054 556.586 505.182 553.142C496.008 544.012 486.289 535.431 476.079 527.479C472.773 524.903 468.848 522.251 464.739 523.069C461.163 523.782 458.652 526.906 456.463 529.819L442.259 548.72C437.091 555.597 431.627 562.723 423.883 566.469C417.282 569.663 409.363 570.021 402.5 567.434C397.178 565.428 392.556 561.668 389.416 556.932L384.771 561.245C384.771 561.245 397.095 579.045 414.898 576.992" fill="#97B8FF"/>
<path fill-rule="evenodd" clip-rule="evenodd" d="M451.188 557.989H475.153C482.716 557.989 488.848 551.859 488.848 544.296C488.848 536.733 482.716 530.602 475.153 530.602H456.166C453.416 530.602 451.188 532.831 451.188 535.579V557.989V557.989Z" fill="#3847DC"/>
<path fill-rule="evenodd" clip-rule="evenodd" d="M447.765 616.872H463.715C469.277 616.872 473.785 612.364 473.785 606.802V530.602H457.835C452.275 530.602 447.765 535.112 447.765 540.672V616.872Z" fill="#3847DC"/>
<path fill-rule="evenodd" clip-rule="evenodd" d="M454.571 540.661V607.424H467.595V551.116H471.169C474.937 551.116 477.991 548.062 477.991 544.295C477.991 540.527 474.937 537.473 471.169 537.473H457.759C455.999 537.473 454.571 538.901 454.571 540.661V540.661Z" stroke="#3847DC"/>
<path fill-rule="evenodd" clip-rule="evenodd" d="M346.428 490.723L334.788 494.146C334.788 494.146 338.211 505.786 355.329 513.318L357.384 512.633C357.384 512.633 366.964 517.993 369.362 508.809C373.24 507.46 378.112 506.337 381.93 505.563C385.874 504.765 389.97 505.39 393.5 507.325L407.194 514.835C408.49 515.545 410.106 515.243 411.058 514.112L420.378 503.048L429.882 510.203L416.702 531.18C415.843 532.547 414.082 533.026 412.648 532.284L399.835 525.641L407.367 537.281C407.367 537.281 406.683 558.505 384.771 561.245C377.241 553.714 367.654 544.128 362.176 540.02C356.699 535.912 338.896 524.272 334.103 519.48C329.31 514.686 316.986 497.57 316.301 488.67C316.301 483.876 343.689 480.453 343.689 480.453L346.428 490.723V490.723Z" fill="#FFFFFE"/>
<path fill-rule="evenodd" clip-rule="evenodd" d="M342.051 517.437C327.739 507.625 321.676 494.814 319.109 486C317.386 486.826 316.301 487.72 316.301 488.67C316.986 497.57 329.311 514.687 334.103 519.48C338.896 524.272 356.699 535.911 362.176 540.02C363.153 540.753 364.266 541.665 365.468 542.703C362.542 536.503 356.11 527.077 342.051 517.437" fill="#F2F2F2"/>
<path fill-rule="evenodd" clip-rule="evenodd" d="M386.768 516.799C387.336 516.636 387.925 516.546 388.517 516.502C389.11 516.443 389.709 516.45 390.307 516.507C391.497 516.621 392.701 516.917 393.779 517.504C394.87 518.06 395.829 518.9 396.533 519.904C396.925 520.384 397.173 520.946 397.459 521.484C397.727 522.031 397.874 522.624 398.082 523.192L398.024 523.075C398.69 523.98 399.309 524.921 399.954 525.842C400.592 526.768 401.202 527.716 401.797 528.674C401.038 527.838 400.294 526.993 399.58 526.124C398.87 525.253 398.134 524.4 397.447 523.511L397.425 523.483L397.389 523.395C397.169 522.87 396.997 522.325 396.748 521.82C396.474 521.328 396.242 520.81 395.877 520.383C395.575 519.906 395.167 519.526 394.779 519.123C394.342 518.782 393.921 518.409 393.423 518.145C392.453 517.588 391.375 517.181 390.243 516.982C389.111 516.792 387.942 516.7 386.768 516.799" fill="#97B8FF"/>
<path fill-rule="evenodd" clip-rule="evenodd" d="M359.85 487.167C360.299 487.813 360.471 488.626 361.031 489.198C361.537 489.714 362.291 489.958 362.941 489.558C363.199 489.401 363.407 489.18 363.615 488.966C363.813 488.762 364.036 488.512 364.327 488.449C364.652 488.377 364.971 488.575 365.151 488.837C365.354 489.133 365.355 489.497 365.225 489.824C364.859 490.744 363.793 491.008 362.905 491.089C362.518 491.125 362.515 491.735 362.905 491.699C363.789 491.619 364.735 491.414 365.358 490.729C365.892 490.139 366.146 489.234 365.678 488.529C365.252 487.887 364.437 487.616 363.758 488.037C363.256 488.351 362.811 489.241 362.137 489.152C361.117 489.018 360.863 487.559 360.377 486.859C360.154 486.539 359.625 486.843 359.849 487.167H359.85ZM356.615 496.143C358.076 497.467 360.07 498.106 362.028 497.813C363.901 497.532 365.569 496.389 366.578 494.799C366.789 494.465 366.261 494.159 366.051 494.491C365.15 495.911 363.671 496.918 362.008 497.201C360.232 497.503 358.373 496.914 357.046 495.712C356.756 495.449 356.323 495.879 356.616 496.144L356.615 496.143ZM349.234 485.354C349.908 483.471 351.904 482.353 353.863 482.755C354.246 482.832 354.41 482.245 354.025 482.165C352.865 481.929 351.638 482.114 350.623 482.732C349.699 483.297 349.009 484.176 348.644 485.192C348.512 485.562 349.102 485.722 349.234 485.354V485.354ZM351.183 490.77L349.564 489.835L351.426 489.992L351.183 490.77Z" fill="black"/>
<path fill-rule="evenodd" clip-rule="evenodd" d="M351.569 490.998C351.916 489.972 352.647 489.101 353.6 488.586C354.693 487.996 356 487.951 357.155 488.381C357.523 488.519 357.682 487.929 357.317 487.793C356.012 487.306 354.52 487.397 353.292 488.059C352.198 488.649 351.377 489.663 350.981 490.836C350.854 491.209 351.444 491.369 351.569 490.998" fill="black"/>
<path fill-rule="evenodd" clip-rule="evenodd" d="M352.631 488.533L351.903 486.406L353.341 488.135L352.631 488.533ZM355.978 487.876L356.476 486.406L356.79 487.926L355.978 487.876ZM368.303 482.873L369.435 481.387L369.042 483.214L368.303 482.873Z" fill="black"/>
<path fill-rule="evenodd" clip-rule="evenodd" d="M369.243 483.115C367.941 482.553 366.469 482.54 365.175 483.14C364.032 483.67 363.158 484.658 362.698 485.82C362.553 486.185 363.143 486.345 363.287 485.983C364.159 483.777 366.753 482.7 368.936 483.642C369.292 483.796 369.603 483.271 369.243 483.115" fill="black"/>
<path fill-rule="evenodd" clip-rule="evenodd" d="M365.64 483.048L365.323 480.822L366.412 482.789L365.64 483.048ZM363.172 485.466L362.256 484.213L363.68 484.83L363.172 485.466ZM435.748 490.043L443.844 464.644C444.054 463.982 444.662 463.526 445.356 463.509L459.885 463.129C460.999 463.1 461.813 464.172 461.487 465.237L453.412 491.614C453.196 492.324 452.527 492.797 451.786 492.766L437.235 492.169C436.16 492.125 435.421 491.069 435.748 490.043" fill="black"/>
<path fill-rule="evenodd" clip-rule="evenodd" d="M434.378 490.043L442.474 464.644C442.686 463.982 443.292 463.526 443.987 463.509L458.515 463.129C459.629 463.1 460.443 464.172 460.118 465.237L452.044 491.614C451.827 492.324 451.158 492.797 450.416 492.766L435.866 492.169C434.79 492.125 434.052 491.069 434.378 490.043" fill="#2E3192"/>
<path fill-rule="evenodd" clip-rule="evenodd" d="M457.489 467.272L452.076 484.943L451.302 487.483L450.936 488.679C450.806 489.102 450.481 489.419 450.089 489.55C449.936 489.599 449.78 489.623 449.617 489.615L446.582 489.493L437.806 489.135C436.927 489.095 436.334 488.24 436.593 487.409L440.785 474.256L442.373 469.283L443.17 466.792C443.203 466.686 443.253 466.58 443.318 466.491C443.545 466.125 443.944 465.888 444.391 465.872L444.815 465.864L456.186 465.563C457.091 465.538 457.749 466.409 457.489 467.273" fill="#97B8FF"/>
<path fill-rule="evenodd" clip-rule="evenodd" d="M452.076 484.943L451.303 487.481L443.317 466.491C443.545 466.123 443.944 465.887 444.392 465.871L444.815 465.863L452.076 484.943ZM450.09 489.549C449.936 489.599 449.78 489.623 449.617 489.614L446.581 489.493L440.786 474.255L442.374 469.282L450.09 489.549V489.549Z" fill="white"/>
<path fill-rule="evenodd" clip-rule="evenodd" d="M343.443 494.657C346.263 488.24 347.016 480.932 345.562 474.074C346.577 477.342 350.14 479.181 353.534 479.615C356.928 480.048 360.372 479.441 363.79 479.615C367.207 479.789 370.9 480.993 372.629 483.946C372.945 484.486 373.294 485.149 373.918 485.202C374.692 485.268 375.145 484.357 375.314 483.598C376.578 477.923 374.247 471.7 369.812 467.939C365.379 464.178 359.09 462.869 353.418 464.147C347.746 465.425 342.749 469.151 339.537 473.997C337.527 477.03 336.166 480.543 335.961 484.177C335.756 487.809 336.765 491.557 339.039 494.397C339.602 495.1 340.291 495.775 341.171 495.967C342.051 496.159 343.127 495.662 343.264 494.773" fill="#1A1A1A"/>
<path fill-rule="evenodd" clip-rule="evenodd" d="M334.076 496.201C333.152 491.671 335.816 487.303 340.026 486.444C344.236 485.586 348.4 488.562 349.324 493.092C350.247 497.621 347.582 501.989 343.372 502.848C339.162 503.707 335 500.73 334.076 496.201" fill="#3847DC"/>
<path fill-rule="evenodd" clip-rule="evenodd" d="M338.614 491.286C333.989 477.188 339.782 471.875 340.039 471.531L340.21 471.513L340.252 471.51L340.421 471.5C340.222 471.772 337.899 478.16 341.7 489.744L338.614 491.287V491.286ZM348.375 499.162C336.405 502.337 334.439 495.926 334.462 491.306C333.892 492.794 333.725 494.486 334.076 496.202C334.999 500.732 339.162 503.708 343.372 502.849C345.549 502.405 347.307 501.019 348.375 499.162" fill="#3847DC"/>
</svg>
