<svg width="1366" height="1349" viewBox="0 0 1366 1349" fill="none" xmlns="http://www.w3.org/2000/svg">
<g filter="url(#filter0_d)">
<path d="M686.447 1203.94C978.208 1203.94 1214.73 967.424 1214.73 675.664C1214.73 383.903 978.208 147.385 686.447 147.385C394.687 147.385 158.168 383.903 158.168 675.664C158.168 967.424 394.687 1203.94 686.447 1203.94Z" fill="white"/>
</g>
<g filter="url(#filter1_d)">
<path d="M688.536 880.999C800.786 880.999 891.782 790.002 891.782 677.752C891.782 565.502 800.786 474.506 688.536 474.506C576.286 474.506 485.289 565.502 485.289 677.752C485.289 790.002 576.286 880.999 688.536 880.999Z" fill="#F8F8F8"/>
<path d="M688.533 873.483C796.56 873.483 884.132 785.911 884.132 677.884C884.132 569.858 796.56 482.285 688.533 482.285C580.507 482.285 492.934 569.858 492.934 677.884C492.934 785.911 580.507 873.483 688.533 873.483Z" stroke="white" stroke-width="2.33577"/>
<g clip-path="url(#clip0)">
<path d="M680.072 698.072L719.74 764.092C722.84 769.25 721.171 775.944 716.012 779.044L695.3 791.489L642.055 702.875" fill="#CCF5FC"/>
<path d="M754.777 629.718L744.801 635.713L727.032 606.141L737.008 600.146C745.168 595.244 755.756 597.884 760.659 606.043L760.674 606.067C765.576 614.227 762.936 624.816 754.777 629.718V629.718Z" fill="#FFF2A0"/>
<path d="M590.224 708.468C599.624 724.112 620.011 729.122 635.76 719.659L647.796 712.427L613.757 655.776L601.721 663.008C585.971 672.471 580.824 692.824 590.224 708.468V708.468Z" fill="#D1AEE5"/>
<path d="M739.743 686.247C747.698 686.442 755.665 687.223 763.578 688.622L778.14 691.196L693.694 550.654L689.13 564.72C686.651 572.364 683.6 579.766 680.037 586.88" fill="#FF9EB1"/>
<path d="M680.037 586.88C666.519 613.876 645.518 636.691 619.305 652.441L613.758 655.774L647.797 712.425L653.344 709.091C679.557 693.341 709.56 685.509 739.743 686.247" fill="#FAF7F5"/>
<path d="M717.558 739.892L708.477 745.349L697.22 726.613L706.301 721.157C711.47 718.051 718.179 719.723 721.285 724.893L721.295 724.908C724.4 730.077 722.728 736.786 717.558 739.892V739.892Z" fill="#FFF2A0"/>
<path d="M734.838 596.534L728.472 600.359L697.303 548.485C696.453 547.069 694.854 546.281 693.214 546.469C691.574 546.656 690.194 547.784 689.685 549.354L685.121 563.42C682.739 570.761 679.76 578.02 676.268 584.994C663.006 611.48 642.557 633.554 617.133 648.83L599.55 659.395C581.834 670.04 576.03 693.026 586.611 710.636C597.192 728.245 620.212 733.912 637.928 723.268L646.353 718.205L691.687 793.654C692.885 795.648 695.474 796.294 697.467 795.095L718.18 782.65C725.321 778.36 727.64 769.058 723.349 761.917L714.258 746.786L719.727 743.5C726.88 739.202 729.202 729.887 724.895 722.719C720.598 715.567 711.283 713.244 704.13 717.542L698.661 720.829L685.417 698.787C702.772 692.85 721.103 690.006 739.637 690.459C747.436 690.65 755.243 691.428 762.843 692.77L777.405 695.344C778.425 695.525 779.453 695.321 780.308 694.807C780.815 694.502 781.261 694.089 781.609 693.583C782.544 692.223 782.599 690.442 781.749 689.027L750.579 637.153L756.945 633.328C767.082 627.237 770.374 614.034 764.268 603.872C758.177 593.734 744.975 590.443 734.838 596.534V596.534ZM593.833 706.297C585.645 692.669 590.156 674.869 603.889 666.617L612.314 661.555L642.014 710.984L633.589 716.047C619.855 724.298 602.021 719.924 593.833 706.297V706.297ZM708.47 724.764C711.64 722.859 715.769 723.888 717.683 727.074C719.588 730.244 718.558 734.373 715.388 736.278L709.919 739.564L703 728.05L708.47 724.764ZM716.128 766.256C718.026 769.415 717 773.53 713.841 775.428L696.739 785.704L653.575 713.866L655.512 712.703C662.546 708.476 669.86 704.831 677.388 701.783L716.128 766.256ZM769.764 685.438L764.309 684.474C757.05 683.191 749.614 682.397 742.169 682.109L724.405 652.546C723.207 650.552 720.619 649.907 718.625 651.105C716.631 652.303 715.985 654.891 717.183 656.885L732.289 682.025C703.7 682.636 675.804 690.682 651.173 705.481L649.236 706.645L619.536 657.216L621.473 656.052C646.104 641.252 666.304 620.398 680.265 595.443L697.567 624.239C698.766 626.233 701.354 626.878 703.348 625.68C705.342 624.482 705.987 621.894 704.789 619.899L684.829 586.679C688.07 579.971 690.86 573.033 693.135 566.02L694.845 560.752L769.764 685.438ZM752.606 626.106L746.241 629.931L732.811 607.581L739.177 603.756C745.332 600.057 753.349 602.056 757.062 608.236C760.76 614.391 758.761 622.407 752.606 626.106V626.106Z" fill="black"/>
<path d="M713.528 635.073C712.107 634.027 710.133 633.974 708.667 634.967C707.21 635.953 706.518 637.779 706.941 639.483C707.365 641.19 708.869 642.479 710.617 642.648C712.319 642.813 713.991 641.9 714.772 640.378C715.701 638.569 715.165 636.28 713.528 635.073V635.073Z" fill="black"/>
</g>
</g>
<g filter="url(#filter2_d)">
<path d="M1146.87 568.263C1208.49 568.263 1258.45 518.306 1258.45 456.68C1258.45 395.054 1208.49 345.096 1146.87 345.096C1085.24 345.096 1035.28 395.054 1035.28 456.68C1035.28 518.306 1085.24 568.263 1146.87 568.263Z" fill="#F8F8F8"/>
<path d="M1146.87 564.066C1206.18 564.066 1254.25 515.988 1254.25 456.68C1254.25 397.373 1206.18 349.295 1146.87 349.295C1087.56 349.295 1039.48 397.373 1039.48 456.68C1039.48 515.988 1087.56 564.066 1146.87 564.066Z" stroke="white" stroke-width="2.33577"/>
<path d="M1124.78 452.238C1123.16 450.504 1120.63 450.603 1119.53 452.808L1092.92 506.029C1092.68 506.514 1092.56 507.053 1092.59 507.594C1092.61 508.136 1092.77 508.663 1093.06 509.124C1093.34 509.586 1093.74 509.966 1094.22 510.23C1094.69 510.494 1095.22 510.633 1095.76 510.633H1132.82C1134.04 510.661 1135.15 509.972 1135.67 508.874C1143.66 492.353 1138.82 467.233 1124.78 452.238V452.238Z" fill="url(#paint0_linear)"/>
<path d="M1144.31 403.831C1129.42 427.412 1130.41 453.528 1140.21 473.135L1158.08 508.873C1158.34 509.401 1158.75 509.845 1159.25 510.156C1159.75 510.467 1160.33 510.631 1160.92 510.631H1197.98C1198.52 510.631 1199.06 510.493 1199.53 510.228C1200 509.964 1200.4 509.584 1200.69 509.122C1200.97 508.661 1201.13 508.134 1201.16 507.593C1201.18 507.051 1201.07 506.512 1200.83 506.027C1200.83 506.027 1150.97 406.306 1149.72 403.811C1148.6 401.577 1145.75 401.547 1144.31 403.831H1144.31Z" fill="#2681FF"/>
</g>
<g filter="url(#filter3_d)">
<path d="M679.552 1283.61C741.178 1283.61 791.136 1233.66 791.136 1172.03C791.136 1110.41 741.178 1060.45 679.552 1060.45C617.926 1060.45 567.969 1110.41 567.969 1172.03C567.969 1233.66 617.926 1283.61 679.552 1283.61Z" fill="#F8F8F8"/>
<path d="M679.552 1280.58C739.501 1280.58 788.098 1231.98 788.098 1172.03C788.098 1112.08 739.501 1063.49 679.552 1063.49C619.604 1063.49 571.007 1112.08 571.007 1172.03C571.007 1231.98 619.604 1280.58 679.552 1280.58Z" stroke="white" stroke-width="1.69035"/>
<path d="M731.376 1226.16C730.956 1226.58 730.43 1226.79 729.8 1226.79C729.17 1226.79 728.645 1226.58 728.225 1226.16C727.805 1225.73 727.595 1225.21 727.595 1224.58C727.595 1223.95 727.805 1223.37 728.277 1222.95C728.697 1222.53 729.222 1222.37 729.8 1222.37C730.43 1222.37 730.955 1222.58 731.376 1223C731.796 1223.42 732.006 1223.95 732.006 1224.58C732.058 1225.21 731.848 1225.73 731.376 1226.16V1226.16ZM728.54 1223.27C728.172 1223.63 728.015 1224.05 728.015 1224.53C728.015 1225.05 728.172 1225.47 728.54 1225.84C728.907 1226.21 729.327 1226.37 729.853 1226.37C730.378 1226.37 730.798 1226.21 731.166 1225.84C731.533 1225.47 731.691 1225.05 731.691 1224.53C731.691 1224.05 731.533 1223.58 731.165 1223.27C730.798 1222.9 730.378 1222.69 729.853 1222.69C729.327 1222.74 728.907 1222.9 728.54 1223.27ZM730.535 1225.68C730.325 1225.84 730.115 1225.89 729.905 1225.89C729.59 1225.89 729.275 1225.79 729.012 1225.52C728.75 1225.26 728.645 1224.95 728.645 1224.58C728.645 1224.21 728.75 1223.9 728.96 1223.63C729.17 1223.37 729.485 1223.27 729.853 1223.27C730.063 1223.27 730.273 1223.32 730.483 1223.42C730.745 1223.58 730.956 1223.84 731.008 1224.26H730.43C730.378 1224.11 730.325 1223.95 730.22 1223.9C730.115 1223.84 730.01 1223.79 729.905 1223.79C729.748 1223.79 729.59 1223.84 729.485 1224C729.38 1224.16 729.327 1224.37 729.327 1224.63C729.327 1224.89 729.38 1225.1 729.485 1225.21C729.59 1225.31 729.748 1225.42 729.905 1225.42C730.063 1225.42 730.168 1225.37 730.273 1225.31L730.43 1225H730.955C730.903 1225.31 730.745 1225.52 730.535 1225.68L730.535 1225.68ZM736.102 1202.35C736.102 1202.14 736.049 1201.93 736.049 1201.72C736.049 1201.57 735.996 1201.46 735.996 1201.36C735.944 1201.04 735.891 1200.78 735.786 1200.46C735.576 1199.88 735.261 1199.31 734.841 1198.83C734.421 1198.36 733.948 1197.99 733.476 1197.73C732.951 1197.47 732.426 1197.31 732.006 1197.21C731.848 1197.21 731.743 1197.15 731.638 1197.15C732.216 1194.63 731.48 1192.69 731.008 1191.79L731.113 1191.69C731.743 1191.06 732.268 1190.48 732.741 1189.9L732.846 1189.8C733.213 1189.27 733.423 1188.75 733.581 1188.27C733.686 1187.85 733.791 1187.49 733.791 1187.12V1186.12C733.739 1185.33 733.633 1184.33 733.108 1183.23C732.846 1182.7 732.478 1182.13 732.005 1181.6C731.511 1181.05 730.924 1180.59 730.272 1180.23C730.22 1180.18 730.167 1180.18 730.115 1180.13C728.697 1178.08 727.122 1176.45 725.704 1175.24C725.06 1174.69 724.394 1174.17 723.708 1173.67C723.131 1173.25 722.658 1172.93 722.395 1172.72C721.765 1172.25 721.293 1171.99 721.083 1171.88C720.558 1171.57 720.19 1171.3 719.98 1171.14C719.822 1170.99 719.717 1170.93 719.665 1170.88C719.665 1170.88 719.665 1170.83 719.612 1170.72C719.56 1170.57 719.56 1170.36 719.56 1169.99C719.56 1169.46 719.56 1168.68 719.612 1167.62C719.717 1165.94 719.875 1163.68 720.085 1160.58C720.137 1159.59 720.137 1158.64 720.137 1157.8C720.085 1156.38 719.875 1155.12 719.612 1153.96C719.56 1153.7 719.455 1153.44 719.402 1153.18C719.35 1152.97 719.297 1152.86 719.245 1152.76C719.192 1152.6 719.14 1152.44 719.035 1152.23C718.982 1152.12 718.982 1152.02 718.877 1151.91C718.772 1151.65 718.667 1151.39 718.51 1151.13L718.457 1151.07L718.404 1150.92L718.352 1150.81C718.089 1150.34 717.774 1149.92 717.459 1149.55C717.302 1148.81 717.039 1147.76 716.566 1146.56C716.146 1145.5 715.621 1144.35 714.833 1143.19C714.571 1142.77 714.256 1142.4 713.941 1142.04L714.046 1141.93C714.203 1141.77 717.879 1137.89 720.82 1132.84C726.229 1123.44 724.444 1117.71 721.975 1114.56L721.923 1114.45L721.87 1114.35C719.507 1111.72 716.251 1110.14 712.313 1109.62C704.068 1108.57 694.721 1112.67 692.253 1113.82L687.736 1108.88C687.316 1108.46 686.896 1108.04 686.424 1107.73C685.951 1107.41 685.426 1107.1 684.901 1106.83C683.851 1106.36 682.695 1106.05 681.435 1105.89C678.967 1105.57 676.131 1105.89 673.085 1106.68C668.516 1107.83 663.423 1110.14 658.066 1113.35C652.71 1116.55 647.143 1120.71 641.734 1125.64C635.118 1131.63 629.656 1137.99 625.665 1144.09C623.67 1147.08 622.042 1150.02 620.834 1152.86C619.626 1155.64 618.838 1158.32 618.523 1160.74C618.313 1162.53 618.313 1164.21 618.681 1165.73C618.838 1166.42 619.049 1167.05 619.364 1167.68C619.731 1168.47 620.204 1169.2 620.782 1169.83L625.455 1174.72L625.98 1175.24L625.928 1175.3L625.77 1175.61C625.665 1175.77 625.613 1175.93 625.508 1176.03L625.35 1176.35C625.298 1176.5 625.193 1176.66 625.14 1176.82L624.983 1177.13C624.93 1177.29 624.825 1177.45 624.773 1177.61C624.72 1177.71 624.668 1177.82 624.668 1177.92L624.51 1178.4C624.458 1178.5 624.458 1178.61 624.405 1178.71C624.353 1178.87 624.3 1179.03 624.248 1179.24C624.248 1179.29 624.195 1179.34 624.195 1179.39C624.195 1179.45 624.142 1179.5 624.142 1179.55C624.09 1179.71 624.037 1179.92 623.985 1180.08C623.985 1180.18 623.932 1180.29 623.932 1180.39C623.932 1180.44 623.88 1180.55 623.88 1180.6C623.88 1180.71 623.827 1180.81 623.827 1180.92C623.827 1181.02 623.775 1181.13 623.775 1181.23C623.722 1181.44 623.722 1181.65 623.67 1181.92C623.67 1181.97 623.67 1182.02 623.617 1182.13V1182.18C623.617 1182.34 623.565 1182.49 623.565 1182.6C623.565 1182.81 623.512 1183.07 623.512 1183.28V1185.91C623.512 1186.01 623.512 1186.12 623.565 1186.22C623.565 1186.33 623.565 1186.49 623.617 1186.64V1186.8C623.617 1186.91 623.67 1187.06 623.67 1187.17C623.67 1187.27 623.722 1187.38 623.722 1187.54C623.722 1187.59 623.722 1187.64 623.775 1187.7C623.775 1187.75 623.827 1187.85 623.827 1187.91V1188.01C623.827 1188.12 623.88 1188.22 623.932 1188.43C623.932 1188.48 623.932 1188.48 623.985 1188.54C624.037 1188.64 624.037 1188.75 624.037 1188.8L624.09 1188.9C624.09 1188.96 624.09 1188.96 624.142 1189.01L624.195 1189.11V1189.27C624.195 1189.32 624.195 1189.32 624.248 1189.38L624.3 1189.48C624.3 1189.59 624.353 1189.64 624.353 1189.74C624.405 1189.85 624.405 1189.95 624.458 1190.16V1190.11V1190.16C624.458 1190.22 624.458 1190.22 624.51 1190.27C624.563 1190.43 624.615 1190.53 624.615 1190.59C624.668 1190.69 624.72 1190.8 624.773 1191.01L624.825 1191.06C624.878 1191.16 624.878 1191.27 624.93 1191.32L624.983 1191.43C624.983 1191.48 625.035 1191.53 625.035 1191.58C625.035 1191.64 625.088 1191.74 625.14 1191.79L625.193 1191.9C625.245 1191.95 625.245 1192.06 625.298 1192.11C625.35 1192.16 625.35 1192.21 625.35 1192.27C625.403 1192.37 625.455 1192.48 625.508 1192.63L625.56 1192.69C625.613 1192.74 625.613 1192.79 625.665 1192.84C625.718 1192.9 625.718 1193 625.77 1193.05C625.823 1193.11 625.875 1193.21 625.928 1193.37L625.98 1193.42C626.033 1193.47 626.033 1193.53 626.085 1193.58C626.138 1193.68 626.19 1193.74 626.19 1193.79C626.243 1193.84 626.295 1193.95 626.348 1194.05V1194.11C626.4 1194.16 626.4 1194.21 626.453 1194.26C626.505 1194.37 626.558 1194.42 626.611 1194.47C626.663 1194.53 626.716 1194.63 626.821 1194.79C626.873 1194.84 626.926 1194.89 626.926 1194.95C626.978 1195.05 627.031 1195.1 627.083 1195.16C627.136 1195.21 627.188 1195.31 627.241 1195.42C627.293 1195.47 627.346 1195.58 627.398 1195.63C627.451 1195.73 627.503 1195.79 627.608 1195.84L627.766 1196L627.818 1196.05C627.923 1196.15 627.976 1196.26 628.081 1196.36L628.186 1196.47L628.344 1196.63L628.659 1196.94L628.764 1197.05L628.921 1197.21L628.974 1197.26C629.079 1197.36 629.236 1197.47 629.341 1197.63L629.394 1197.68C629.446 1197.73 629.499 1197.73 629.551 1197.84C629.709 1197.99 629.866 1198.1 630.024 1198.26L630.129 1198.31L630.182 1198.36L630.287 1198.41C630.444 1198.52 630.549 1198.62 630.707 1198.73L630.759 1198.78C630.812 1198.83 630.864 1198.83 630.864 1198.83L630.969 1198.94C631.074 1199.04 631.179 1199.1 631.284 1199.2L631.389 1199.25L631.494 1199.36L631.547 1199.41C631.652 1199.46 631.809 1199.57 631.914 1199.62C631.967 1199.67 632.019 1199.73 632.124 1199.73L632.229 1199.78L632.282 1199.83H632.334C632.544 1199.94 632.702 1200.04 632.86 1200.15L632.965 1200.2L633.595 1200.52H633.647L633.752 1200.57L634.067 1200.73C634.12 1200.73 634.172 1200.78 634.225 1200.78C634.278 1200.83 634.33 1200.83 634.435 1200.88H634.488C634.593 1200.94 634.698 1200.99 634.803 1200.99H634.855C634.96 1201.04 635.065 1201.09 635.223 1201.15H635.275L635.38 1201.2C635.433 1201.2 635.485 1201.25 635.538 1201.25H635.59C635.748 1201.3 635.905 1201.36 636.116 1201.41H636.168C636.431 1201.51 636.693 1201.57 636.956 1201.62H637.008C637.218 1201.67 637.481 1201.72 637.691 1201.78H637.901C638.111 1201.83 638.321 1201.88 638.531 1201.88H638.741C638.899 1201.88 639.004 1201.93 639.161 1201.93C639.161 1201.99 639.214 1202.04 639.214 1202.09C639.581 1203.09 639.949 1204.09 640.369 1205.03C646.566 1222.21 663.738 1235.56 683.325 1238.03C702.913 1240.45 723.866 1227.42 732.373 1209.81C732.727 1209.16 733.059 1208.49 733.371 1207.82C734.211 1206.93 734.894 1206.03 735.314 1205.09C735.996 1204.51 736.154 1203.35 736.102 1202.35V1202.35ZM627.346 1195.52H627.398H627.346Z" fill="#664F44"/>
<path d="M719.48 1116.41C718.534 1115.36 717.431 1114.57 716.223 1113.99C716.013 1113.88 715.802 1113.83 715.54 1113.78C715.435 1113.72 715.33 1113.62 715.225 1113.57C714.174 1113.15 713.07 1112.88 711.914 1112.72C706.24 1111.99 699.725 1114.09 696.047 1115.57C695.837 1115.67 695.627 1115.73 695.416 1115.83C695.101 1115.99 694.786 1116.09 694.471 1116.25C693.945 1116.46 693.42 1116.73 692.842 1116.99C692.737 1117.04 692.684 1117.04 692.579 1117.09L691.581 1115.94L691.108 1115.41L690.688 1114.94L690.53 1114.73L686.695 1110.3L686.379 1109.93L685.959 1109.46H685.906L684.803 1109.72L683.542 1109.99C682.859 1109.67 682.018 1109.46 681.073 1109.3C679.181 1109.04 676.764 1109.3 674.032 1109.99C671.3 1110.67 668.2 1111.88 664.942 1113.51C658.375 1116.78 651.124 1121.78 644.084 1128.2C641.614 1130.42 639.355 1132.73 637.253 1135C635.204 1137.21 633.365 1139.47 631.684 1141.63C628.269 1146.11 625.694 1150.43 624.013 1154.32C622.91 1156.9 622.227 1159.27 621.964 1161.33C621.754 1162.8 621.806 1164.12 622.069 1165.17C622.174 1165.54 622.279 1165.8 622.384 1166.12C622.647 1166.75 622.962 1167.28 623.382 1167.75L627.638 1172.22L628.111 1172.7L628.164 1172.65C628.276 1172.48 628.419 1172.34 628.584 1172.22L628.637 1172.17L628.794 1172.01C628.899 1171.86 629.057 1171.75 629.162 1171.59C629.267 1171.49 629.32 1171.43 629.425 1171.38C629.53 1171.33 629.582 1171.22 629.687 1171.17L629.793 1171.07C629.898 1171.01 629.95 1170.91 630.055 1170.86C630.16 1170.75 630.318 1170.65 630.423 1170.54C630.475 1170.49 630.581 1170.43 630.633 1170.38H630.686C630.843 1170.28 630.949 1170.17 631.106 1170.07C631.211 1170.01 631.264 1169.96 631.369 1169.86C631.526 1169.75 631.631 1169.64 631.789 1169.54C631.894 1169.49 631.947 1169.43 632.052 1169.38C632.209 1169.28 632.367 1169.17 632.525 1169.12C632.63 1169.07 632.682 1169.01 632.787 1168.96C632.945 1168.85 633.103 1168.8 633.26 1168.7C633.365 1168.64 633.418 1168.59 633.523 1168.54L633.628 1168.49C633.786 1168.43 633.891 1168.33 634.048 1168.28C634.101 1168.22 634.206 1168.22 634.258 1168.17C634.364 1168.12 634.469 1168.06 634.626 1168.01L634.942 1167.85L635.047 1167.8L635.835 1167.49C635.94 1167.43 635.992 1167.43 636.097 1167.38C636.202 1167.33 636.255 1167.33 636.36 1167.28L636.465 1167.22C636.518 1167.22 636.57 1167.17 636.623 1167.17C636.728 1167.12 636.833 1167.12 636.991 1167.06H637.096C637.253 1167.01 637.358 1167.01 637.516 1166.96C637.621 1166.91 637.779 1166.91 637.884 1166.85C638.041 1166.8 638.199 1166.8 638.357 1166.75C638.409 1166.75 638.462 1166.7 638.567 1166.7C638.619 1166.7 638.724 1166.7 638.777 1166.64C638.935 1166.59 639.092 1166.59 639.25 1166.59C639.408 1166.59 639.513 1166.54 639.67 1166.54C639.775 1166.54 639.88 1166.49 639.986 1166.49H640.406C640.931 1166.49 641.562 1166.49 642.192 1166.54H642.297C642.928 1166.59 643.663 1166.7 644.399 1166.85C644.557 1166.91 644.767 1166.91 644.924 1166.96C644.977 1166.91 644.977 1166.8 645.029 1166.75C645.45 1166.06 645.818 1165.33 646.238 1164.64C648.602 1160.69 651.124 1157.22 653.699 1154.16C654.592 1153.11 655.485 1152.16 656.378 1151.22C659.663 1147.78 663.289 1144.7 667.202 1142C667.937 1141.47 668.726 1141 669.408 1140.53C670.407 1139.89 671.353 1139.37 672.246 1138.84C672.981 1138.42 673.664 1138.05 674.348 1137.74C675.451 1137.16 676.449 1136.68 677.342 1136.31L678.13 1136C678.498 1135.84 678.866 1135.68 679.181 1135.58C678.919 1135.52 678.603 1135.52 678.341 1135.52H677.29C677.027 1135.52 676.712 1135.52 676.449 1135.58C675.924 1135.63 675.346 1135.68 674.768 1135.73C674.558 1135.79 674.4 1135.79 674.19 1135.84C675.608 1135.1 677.027 1134.58 678.341 1134.15C679.205 1133.9 680.082 1133.69 680.968 1133.52C682.123 1133.31 683.227 1133.15 684.225 1133.1C684.908 1133.05 685.539 1133.05 686.117 1133.05C686.695 1133.05 687.272 1133.1 687.745 1133.1C689.479 1133.21 690.53 1133.47 690.53 1133.47C690.267 1133.1 689.952 1132.84 689.637 1132.58C689.006 1132.1 688.323 1131.79 687.693 1131.52C687.43 1131.42 687.22 1131.36 687.01 1131.26C686.852 1131.21 686.695 1131.15 686.589 1131.15C686.905 1131.1 687.167 1131.05 687.43 1131.05C687.745 1131 688.008 1131 688.323 1130.94C690.793 1130.73 693 1130.94 694.628 1131.21C696.572 1131.57 697.781 1132.05 697.781 1132.05C697.518 1131.52 697.098 1131.05 696.625 1130.63C696.31 1130.36 695.942 1130.1 695.627 1129.89C696.31 1130.05 696.888 1130.21 697.518 1130.42C699.094 1130.89 700.408 1131.47 701.459 1131.94L702.404 1132.42C702.509 1132.47 702.562 1132.52 702.614 1132.52C703.56 1133.05 704.086 1133.42 704.086 1133.42C703.928 1132.84 703.613 1132.31 703.193 1131.84C703.087 1131.73 702.982 1131.57 702.877 1131.47H702.93C702.982 1131.47 703.035 1131.52 703.14 1131.52C703.193 1131.52 703.298 1131.57 703.403 1131.63C703.823 1131.79 704.453 1132.05 705.189 1132.42C705.242 1132.42 705.242 1132.47 705.294 1132.47L705.609 1132.63C705.872 1132.79 706.135 1132.89 706.398 1133.1L707.186 1133.58C707.343 1133.68 707.448 1133.73 707.606 1133.84C707.869 1134.05 708.184 1134.26 708.447 1134.52C708.762 1134.79 709.025 1135.05 709.287 1135.31L709.445 1135.47C709.655 1135.68 709.865 1135.89 710.023 1136.1C710.391 1136.52 710.706 1137 711.021 1137.47C711.389 1138.05 711.652 1138.74 711.914 1139.42C711.914 1139.47 711.914 1139.53 711.967 1139.53C712.125 1139.37 712.44 1139.05 712.807 1138.63C715.855 1135.05 724.997 1123.47 719.48 1116.41" fill="#132134"/>
<path d="M732.96 1202.84C732.96 1202.84 733.065 1202.05 732.645 1201.32C732.645 1201.26 732.592 1201.21 732.592 1201.21L732.54 1201.16L732.382 1201C732.277 1200.9 732.172 1200.79 732.014 1200.69C731.962 1200.63 731.857 1200.58 731.752 1200.53C731.489 1200.42 731.227 1200.32 730.859 1200.27C730.597 1200.21 730.334 1200.21 730.019 1200.21H729.599V1200.32C729.599 1200.37 729.652 1200.42 729.652 1200.53C729.652 1200.58 729.652 1200.63 729.704 1200.63C729.757 1200.79 729.809 1201.05 729.862 1201.26C729.862 1201.26 729.862 1201.32 729.809 1201.42V1201.47C729.652 1201.84 729.232 1202.68 728.287 1203.73C728.129 1203.94 727.971 1204.1 727.761 1204.31C725.136 1207.04 719.465 1210.88 707.493 1213.03C703.45 1213.61 699.67 1213.66 696.519 1213.24C691.794 1212.66 688.276 1211.14 686.596 1209.09C686.438 1208.93 686.333 1208.72 686.176 1208.56C686.07 1208.41 686.018 1208.3 685.913 1208.14C685.86 1208.09 685.86 1208.04 685.808 1207.99C685.154 1206.78 684.811 1205.42 684.81 1204.05C684.81 1202.42 685.335 1200.9 686.176 1199.74C686.858 1198.8 687.751 1198.06 688.853 1197.75C689.378 1197.59 689.956 1197.48 690.534 1197.54C690.639 1197.54 690.796 1197.54 691.006 1197.59C691.374 1197.64 691.951 1197.69 692.634 1197.8C692.686 1197.8 692.791 1197.8 692.844 1197.85C695.102 1198.11 698.672 1198.48 702.978 1198.22C710.854 1197.75 721.198 1195.28 730.597 1186.77V1186.72C730.649 1185.98 730.544 1184.72 729.652 1183.72C729.494 1183.56 729.337 1183.41 729.127 1183.25C729.022 1183.14 728.864 1183.09 728.759 1182.99C728.601 1182.93 728.497 1182.83 728.392 1182.78L727.919 1182.46V1182.41C727.866 1182.3 727.814 1182.2 727.709 1182.09C725.294 1178.42 721.933 1176.26 720.568 1175.27C719.938 1174.79 719.518 1174.58 719.518 1174.58C716.63 1172.8 716.21 1172.22 716.472 1167.44C716.577 1165.71 716.735 1163.45 716.945 1160.35C716.945 1159.93 716.997 1159.56 716.997 1159.2V1157.67C716.997 1157.41 716.945 1157.15 716.945 1156.94C716.945 1156.83 716.945 1156.73 716.892 1156.62C716.84 1156.36 716.84 1156.1 716.787 1155.83C716.787 1155.73 716.735 1155.57 716.735 1155.47C716.735 1155.31 716.682 1155.2 716.63 1155.05C716.577 1154.94 716.577 1154.78 716.525 1154.68C716.472 1154.52 716.42 1154.36 716.42 1154.21C716.42 1154.15 716.367 1154.1 716.367 1154.05C716.367 1154 716.315 1153.94 716.315 1153.89V1153.84L716.262 1153.68C716.21 1153.58 716.157 1153.47 716.157 1153.37V1153.31L716.105 1153.21L716.052 1153.1C715.947 1152.89 715.895 1152.68 715.79 1152.53L715.737 1152.37C715.632 1152.21 715.527 1152 715.422 1151.84L715.37 1151.79L715.317 1151.74C715.212 1151.63 715.16 1151.53 715.055 1151.42L714.95 1151.26C714.845 1151.11 714.74 1151 714.635 1150.9V1150.48C714.582 1150.27 714.53 1150 714.477 1149.74C714.477 1149.69 714.425 1149.58 714.425 1149.53V1149.48C714.425 1149.37 714.372 1149.32 714.372 1149.22C714.32 1149.01 714.267 1148.8 714.162 1148.59C714.162 1148.53 714.11 1148.43 714.11 1148.38L713.952 1147.9C713.899 1147.8 713.899 1147.69 713.847 1147.64C713.794 1147.48 713.742 1147.33 713.637 1147.17L713.479 1146.85C713.427 1146.7 713.322 1146.54 713.269 1146.38L713.112 1146.07C713.007 1145.91 712.954 1145.75 712.849 1145.59L712.692 1145.28C712.587 1145.12 712.482 1144.96 712.377 1144.75C712.324 1144.65 712.272 1144.59 712.219 1144.49C712.167 1144.44 712.114 1144.33 712.062 1144.28C711.904 1144.12 711.799 1143.96 711.642 1143.81L711.537 1143.75C711.327 1143.54 711.169 1143.33 710.959 1143.18L710.907 1143.12C710.802 1143.07 710.697 1142.97 710.644 1142.91H710.592C710.487 1142.86 710.434 1142.81 710.329 1142.76L710.276 1142.7C710.171 1142.65 710.014 1142.55 709.804 1142.44C709.751 1142.39 709.646 1142.39 709.541 1142.34C709.069 1142.18 708.491 1141.97 707.756 1141.76C707.704 1141.76 707.651 1141.76 707.599 1141.71C707.021 1141.55 706.339 1141.39 705.603 1141.29C705.341 1141.23 705.131 1141.23 704.868 1141.18C704.763 1141.18 704.658 1141.18 704.501 1141.13H704.343C703.766 1141.08 703.24 1141.02 702.663 1141.02H702.61C701.875 1141.02 701.14 1141.08 700.457 1141.23C700.615 1140.97 701.088 1140.66 701.508 1140.39C702.085 1140.08 702.61 1139.87 702.61 1139.87C702.295 1139.87 701.98 1139.92 701.665 1139.97C701.56 1139.97 701.455 1140.03 701.35 1140.03C701.298 1140.03 701.193 1140.03 701.14 1140.08H701.088C701.035 1140.08 700.983 1140.08 700.93 1140.13C699.302 1140.5 697.727 1141.08 696.835 1141.44L696.519 1141.6H696.467C696.362 1141.6 696.309 1141.6 696.204 1141.65C696.834 1140.45 697.78 1139.82 698.515 1139.5C698.62 1139.45 698.777 1139.4 698.882 1139.34C698.935 1139.34 698.935 1139.34 698.987 1139.29C699.092 1139.24 699.197 1139.24 699.25 1139.19C699.407 1139.13 699.512 1139.13 699.512 1139.13H698.672C696.887 1139.34 695.259 1139.92 693.894 1140.71C692.949 1141.23 692.109 1141.81 691.374 1142.39C691.164 1142.44 691.006 1142.49 690.796 1142.49C688.801 1142.91 686.543 1143.44 684.18 1144.17C683.288 1144.44 682.395 1144.75 681.502 1145.07C680.82 1145.33 680.085 1145.59 679.402 1145.86C678.877 1146.07 678.404 1146.28 677.879 1146.49C674.256 1148.11 670.633 1150.27 667.64 1153.16L667.325 1153.47L666.538 1154.26L666.223 1154.57C666.118 1154.73 665.96 1154.89 665.855 1154.99C665.278 1155.62 664.752 1156.31 664.227 1157.04C663.86 1157.57 663.492 1158.15 663.177 1158.72L663.125 1158.78C662.442 1159.98 661.812 1161.24 661.34 1162.66C661.077 1163.34 660.867 1164.08 660.657 1164.82C660.604 1165.03 660.552 1165.18 660.499 1165.39L660.447 1165.5C660.237 1166.29 660.079 1167.13 659.974 1167.97C659.974 1168.12 659.922 1168.28 659.922 1168.49C659.869 1168.91 659.817 1169.33 659.817 1169.8C659.764 1170.22 659.764 1170.59 659.764 1171.01V1172.64C659.764 1173.11 659.764 1173.59 659.817 1174.06V1174.11C659.817 1174.58 659.869 1175.06 659.922 1175.58C659.922 1175.79 659.974 1176 659.974 1176.21V1176.37C659.974 1176.47 659.974 1176.58 660.027 1176.74C660.079 1177.26 660.184 1177.84 660.237 1178.42C660.237 1178.58 660.289 1178.73 660.289 1178.89C660.394 1179.36 660.447 1179.89 660.552 1180.36C660.552 1180.36 660.447 1179.73 660.499 1178.79C660.499 1178.58 660.552 1178.31 660.552 1178.1C660.604 1177.58 660.709 1176.95 660.92 1176.37L661.077 1175.9C661.077 1175.84 661.13 1175.79 661.182 1175.69C661.287 1175.42 661.445 1175.11 661.602 1174.85C661.655 1175.06 661.655 1175.27 661.707 1175.42V1178.21C661.76 1179.99 661.917 1182.15 662.285 1183.98C662.285 1183.98 662.337 1180.68 662.915 1180.26C662.915 1180.26 663.912 1186.45 664.805 1188.76C664.91 1189.08 665.068 1189.29 665.173 1189.45V1188.82L665.068 1185.4V1185.04C665.75 1186.45 666.538 1187.87 667.43 1189.39C667.693 1189.81 667.903 1190.23 668.165 1190.65C666.485 1192.13 664.91 1194.28 663.755 1196.8C663.597 1197.22 663.387 1197.64 663.23 1198.06C663.125 1198.32 663.072 1198.53 662.967 1198.8C662.967 1198.85 662.915 1198.95 662.915 1199.01C662.862 1199.16 662.81 1199.37 662.757 1199.53C662.757 1199.64 662.705 1199.69 662.705 1199.79C662.652 1199.95 662.6 1200.16 662.547 1200.32C662.547 1200.42 662.495 1200.48 662.495 1200.58L662.337 1201.37C662.285 1201.63 662.232 1201.89 662.232 1202.16C662.232 1202.26 662.232 1202.31 662.18 1202.42C662.18 1202.63 662.127 1202.79 662.127 1203C662.127 1203.1 662.127 1203.21 662.075 1203.31C662.075 1203.52 662.022 1203.68 662.022 1203.89V1205.73C662.022 1205.94 662.022 1206.15 662.075 1206.41V1206.57C662.075 1206.83 662.127 1207.09 662.18 1207.41C662.18 1207.51 662.18 1207.57 662.232 1207.67C662.232 1207.88 662.285 1208.04 662.337 1208.25C662.337 1208.35 662.39 1208.46 662.39 1208.56C662.442 1208.72 662.442 1208.93 662.495 1209.09C662.495 1209.19 662.547 1209.3 662.547 1209.4C662.6 1209.56 662.652 1209.72 662.652 1209.93C662.705 1210.03 662.705 1210.14 662.757 1210.3C662.81 1210.45 662.862 1210.66 662.915 1210.82C662.967 1210.93 662.967 1211.03 663.02 1211.14C663.072 1211.3 663.125 1211.51 663.177 1211.66C663.23 1211.77 663.23 1211.87 663.282 1211.98C663.335 1212.19 663.44 1212.4 663.492 1212.56C663.545 1212.66 663.545 1212.71 663.597 1212.82L664.385 1214.55C664.437 1214.66 664.49 1214.71 664.542 1214.81L664.858 1215.44C664.91 1215.55 664.963 1215.65 665.068 1215.76C665.173 1215.92 665.278 1216.13 665.383 1216.28C665.435 1216.39 665.54 1216.49 665.593 1216.6C665.698 1216.76 665.803 1216.97 665.96 1217.13C666.065 1217.23 666.118 1217.34 666.223 1217.49C666.328 1217.65 666.485 1217.86 666.59 1218.02C666.695 1218.12 666.748 1218.23 666.853 1218.39C667.01 1218.54 667.115 1218.75 667.273 1218.91C667.378 1219.02 667.43 1219.12 667.535 1219.23C667.693 1219.44 667.85 1219.59 668.06 1219.8L668.323 1220.07C668.585 1220.33 668.848 1220.64 669.111 1220.91C669.111 1220.91 668.953 1220.7 668.743 1220.28C668.691 1220.22 668.638 1220.12 668.638 1220.01L668.48 1219.7C668.428 1219.59 668.375 1219.49 668.323 1219.33C667.903 1218.39 667.535 1217.02 667.588 1215.55L668.06 1216.18C668.218 1216.55 668.48 1217.02 668.743 1217.55C668.848 1217.7 668.953 1217.91 669.006 1218.07C669.426 1218.81 669.846 1219.65 670.371 1220.43C671.001 1221.43 671.631 1222.38 672.314 1223.27C672.314 1223.27 671.526 1221.59 671.263 1220.49C671.211 1220.17 671.158 1219.91 671.211 1219.75C671.263 1219.8 671.316 1219.91 671.421 1219.96C671.473 1220.01 671.526 1220.12 671.631 1220.17C671.736 1220.33 671.893 1220.54 672.103 1220.8L672.208 1220.91C672.314 1221.01 672.366 1221.17 672.471 1221.27C672.576 1221.43 672.681 1221.59 672.839 1221.75C673.941 1223.16 675.464 1225.06 676.514 1226.05C676.882 1226.37 677.197 1226.63 677.407 1226.74L675.884 1224.01C679.35 1226.84 693.737 1230.47 707.861 1226.42C709.594 1225.95 711.274 1225.32 712.954 1224.58C713.952 1224.16 714.95 1223.64 715.947 1223.11L716.105 1223.01C716.787 1222.64 717.47 1222.22 718.153 1221.8C718.678 1221.48 719.203 1221.12 719.675 1220.8C720.54 1220.21 721.381 1219.57 722.196 1218.91C722.248 1218.86 722.301 1218.81 722.353 1218.81C723.141 1218.12 723.928 1217.39 724.611 1216.65C725.556 1215.65 726.396 1214.66 727.131 1213.66L727.184 1213.61C727.394 1213.34 727.551 1213.13 727.709 1212.87L727.761 1212.82C727.814 1212.71 727.866 1212.66 727.919 1212.56C728.181 1212.19 728.391 1211.87 728.654 1211.51C728.706 1211.4 728.759 1211.35 728.812 1211.24C728.917 1211.03 729.022 1210.88 729.179 1210.66C729.284 1210.51 729.337 1210.4 729.442 1210.24C729.547 1210.09 729.652 1209.93 729.704 1209.77C729.862 1209.51 730.019 1209.19 730.177 1208.93L730.334 1208.62L730.649 1207.99L730.807 1207.67L730.859 1207.57C730.964 1207.3 731.122 1207.04 731.227 1206.78V1206.73C731.699 1206.31 732.014 1205.89 732.329 1205.52C732.382 1205.47 732.435 1205.41 732.435 1205.36C732.75 1204.36 732.96 1203.57 732.96 1202.84H732.96ZM648.475 1192.65C648.475 1192.6 648.475 1192.55 648.423 1192.44C648.265 1191.55 648.108 1190.6 648.055 1189.66V1189.45C647.898 1189.5 647.74 1189.71 647.53 1189.97C647.478 1190.08 647.373 1190.18 647.32 1190.34C646.848 1191.23 646.427 1192.49 646.427 1192.49C646.48 1192.07 646.532 1191.65 646.532 1191.23V1191.08C646.585 1190.66 646.638 1190.18 646.69 1189.76V1189.6C646.743 1189.08 646.848 1188.61 646.953 1188.13C646.953 1188.08 646.953 1188.03 647.005 1187.92V1187.87C647.005 1187.82 647.005 1187.77 647.058 1187.71C647.058 1187.61 647.11 1187.56 647.11 1187.45C647.163 1187.08 647.268 1186.72 647.32 1186.35C647.373 1186.03 647.425 1185.72 647.478 1185.46V1185.35C647.478 1185.3 647.478 1185.25 647.53 1185.25V1185.14C647.53 1185.09 647.583 1184.98 647.583 1184.93C647.583 1184.88 647.583 1184.83 647.635 1184.77C647.635 1184.67 647.688 1184.56 647.688 1184.51C647.688 1184.46 647.74 1184.35 647.74 1184.3C647.74 1184.19 647.793 1184.09 647.793 1184.04C647.793 1183.98 647.793 1183.93 647.845 1183.88C647.845 1183.83 647.845 1183.77 647.898 1183.77C647.898 1183.67 647.95 1183.62 647.95 1183.56V1183.41L647.845 1183.51C647.74 1183.56 647.688 1183.67 647.583 1183.72L647.478 1183.83C647.373 1183.93 647.268 1184.04 647.215 1184.14L647.163 1184.19L646.848 1184.67L646.795 1184.72C646.795 1184.77 646.743 1184.77 646.743 1184.83L646.585 1185.14V1185.25C646.532 1185.4 646.427 1185.56 646.375 1185.72C646.217 1186.14 646.06 1186.56 645.955 1186.93C645.902 1187.03 645.902 1187.19 645.85 1187.24C645.797 1187.45 645.745 1187.66 645.745 1187.71V1187.77V1187.71C645.745 1187.56 645.745 1187.45 645.797 1187.29C645.797 1187.03 645.85 1186.72 645.85 1186.45C645.85 1186.24 645.902 1185.98 645.955 1185.77C645.955 1185.72 645.955 1185.61 646.007 1185.56C646.007 1185.46 646.06 1185.35 646.06 1185.25C646.06 1185.14 646.112 1185.04 646.112 1184.93V1184.77C646.112 1184.67 646.165 1184.51 646.165 1184.4V1184.04C646.165 1183.98 646.165 1183.93 646.217 1183.88C646.27 1183.72 646.322 1183.51 646.322 1183.35V1183.3C646.375 1183.2 646.375 1183.04 646.427 1182.93V1182.88C646.48 1182.62 646.585 1182.36 646.637 1182.09V1181.99C646.637 1181.94 646.637 1181.88 646.69 1181.83C646.795 1181.41 646.953 1180.99 647.058 1180.62V1180.57C647.163 1180.26 647.32 1179.89 647.425 1179.57V1179.52C647.478 1179.36 647.53 1179.26 647.583 1179.1C647.688 1178.89 647.74 1178.68 647.845 1178.47C647.845 1178.42 647.898 1178.31 648.003 1178.1C648.055 1178.05 648.055 1177.95 648.108 1177.89C648.16 1177.79 648.213 1177.68 648.265 1177.52L648.318 1177.42L649.21 1175.79C649.263 1175.74 649.263 1175.63 649.315 1175.58V1175.53L649.368 1175.42C649.473 1175.27 649.578 1175.06 649.683 1174.9C649.84 1174.64 649.945 1174.37 650.103 1174.16C650.366 1173.69 650.576 1173.27 650.733 1173.06C650.786 1172.9 650.838 1172.85 650.891 1172.8C650.838 1172.8 650.576 1172.59 650.156 1172.33C649.63 1172.01 648.895 1171.59 648.003 1171.17C647.688 1171.01 647.425 1170.91 647.11 1170.75C646.743 1170.59 646.322 1170.43 645.902 1170.28C645.797 1170.22 645.692 1170.22 645.587 1170.17C645.22 1170.07 644.905 1169.96 644.537 1169.86C644.275 1169.8 644.012 1169.75 643.802 1169.7C643.592 1169.65 643.382 1169.65 643.172 1169.59C643.067 1169.59 642.962 1169.59 642.857 1169.54C642.752 1169.54 642.647 1169.54 642.542 1169.49C642.279 1169.49 641.964 1169.44 641.702 1169.44H641.282C640.652 1169.44 640.074 1169.49 639.496 1169.59H639.391C638.341 1169.75 637.344 1170.01 636.346 1170.38C636.031 1170.49 635.716 1170.64 635.348 1170.8C635.243 1170.85 635.191 1170.91 635.086 1170.91L634.771 1171.06C633.826 1171.54 632.933 1172.17 632.093 1172.85H632.04C631.305 1173.43 630.675 1174.11 630.098 1174.79L629.625 1175.42C629.415 1175.69 629.258 1175.95 629.1 1176.21C628.785 1176.68 628.47 1177.21 628.207 1177.73C628.102 1177.94 627.997 1178.1 627.945 1178.31C627.945 1178.37 627.892 1178.37 627.892 1178.42C627.367 1179.68 626.947 1180.99 626.79 1182.41C626.737 1182.67 626.737 1182.93 626.685 1183.25V1183.35C626.685 1183.56 626.632 1183.77 626.632 1184.04V1184.98C626.632 1185.19 626.632 1185.4 626.685 1185.61V1185.88C626.685 1186.03 626.737 1186.19 626.737 1186.35V1186.4C626.737 1186.51 626.737 1186.56 626.79 1186.66C626.79 1186.82 626.842 1186.98 626.842 1187.08C626.842 1187.19 626.895 1187.29 626.895 1187.4C626.947 1187.56 626.947 1187.66 627 1187.82C627 1187.92 627.052 1188.03 627.105 1188.13V1188.19L627.157 1188.29V1188.4L627.21 1188.5C627.262 1188.61 627.262 1188.71 627.315 1188.82C627.367 1188.92 627.367 1189.08 627.42 1189.18C627.472 1189.29 627.525 1189.39 627.525 1189.55L627.577 1189.66C627.63 1189.76 627.63 1189.81 627.682 1189.92C627.735 1190.02 627.787 1190.13 627.84 1190.29L627.997 1190.6C628.05 1190.65 628.05 1190.71 628.102 1190.76C628.155 1190.81 628.155 1190.87 628.207 1190.92L628.365 1191.23C628.417 1191.34 628.47 1191.5 628.575 1191.6C628.627 1191.71 628.68 1191.81 628.732 1191.86C628.785 1191.97 628.89 1192.13 628.942 1192.23C628.995 1192.34 629.047 1192.39 629.1 1192.49C629.152 1192.6 629.258 1192.76 629.363 1192.86C629.415 1192.97 629.468 1193.02 629.52 1193.07C629.625 1193.18 629.678 1193.33 629.783 1193.44C629.835 1193.49 629.888 1193.6 629.94 1193.65C630.045 1193.75 630.15 1193.91 630.255 1194.02C630.308 1194.07 630.36 1194.12 630.413 1194.23C630.518 1194.33 630.623 1194.49 630.728 1194.59L630.885 1194.75C630.99 1194.86 631.095 1195.01 631.253 1195.12L631.41 1195.28L631.778 1195.64C631.83 1195.7 631.883 1195.75 631.935 1195.75C632.04 1195.85 632.198 1195.96 632.355 1196.12C632.408 1196.17 632.46 1196.17 632.513 1196.22C632.671 1196.33 632.776 1196.43 632.933 1196.54C632.986 1196.59 633.038 1196.59 633.038 1196.64L633.511 1196.96L633.616 1197.01L634.088 1197.32L634.193 1197.38C634.351 1197.48 634.561 1197.59 634.718 1197.69L634.823 1197.75C634.981 1197.85 635.191 1197.96 635.348 1198.01L635.453 1198.06C635.663 1198.17 635.821 1198.22 636.031 1198.32L636.083 1198.38C636.293 1198.48 636.503 1198.53 636.661 1198.64H636.714C636.924 1198.69 637.134 1198.8 637.344 1198.85H637.396C637.501 1198.9 637.606 1198.9 637.711 1198.95C637.816 1199.01 637.921 1199.01 638.079 1199.06H638.131C638.341 1199.11 638.604 1199.16 638.814 1199.22C639.024 1199.27 639.286 1199.32 639.496 1199.32C640.232 1199.43 640.967 1199.48 641.702 1199.53H642.227C642.489 1199.53 642.699 1199.53 642.962 1199.48C643.277 1199.43 643.645 1199.43 644.012 1199.37C644.327 1199.32 644.642 1199.27 644.905 1199.22C645.377 1199.11 645.85 1199.01 646.27 1198.85C647.635 1198.48 648.79 1197.96 649.525 1197.38C649.525 1197.38 649.053 1195.28 648.685 1193.18C648.58 1193.07 648.528 1192.86 648.475 1192.65" fill="#90694C"/>
<path d="M682.2 1114.51L682.042 1112.41L683.092 1110.09L683.513 1109.99C682.83 1109.67 681.99 1109.46 681.044 1109.3C679.154 1109.04 676.738 1109.3 674.007 1109.99C671.276 1110.67 668.178 1111.88 664.922 1113.51C658.357 1116.78 651.11 1121.78 644.073 1128.2C641.605 1130.42 639.347 1132.73 637.246 1135C635.198 1137.21 633.36 1139.47 631.679 1141.63C628.266 1146.11 625.692 1150.43 624.012 1154.32C622.909 1156.9 622.226 1159.27 621.964 1161.33C621.754 1162.8 621.806 1164.12 622.069 1165.17C622.174 1165.54 622.279 1165.8 622.384 1166.12C622.647 1166.75 622.962 1167.28 623.382 1167.75L627.636 1172.22L628.108 1172.7L628.161 1172.65C628.273 1172.48 628.416 1172.34 628.581 1172.22L628.633 1172.17L628.791 1172.01C628.896 1171.86 629.054 1171.75 629.159 1171.59C629.264 1171.49 629.316 1171.43 629.421 1171.38C629.526 1171.33 629.579 1171.22 629.684 1171.17L629.789 1171.07C629.894 1171.01 629.946 1170.91 630.051 1170.86C630.156 1170.75 630.314 1170.65 630.419 1170.54C630.471 1170.49 630.576 1170.43 630.629 1170.38H630.681C630.839 1170.28 630.944 1170.17 631.102 1170.07C631.207 1170.01 631.259 1169.96 631.364 1169.86C631.522 1169.75 631.627 1169.64 631.784 1169.54C631.889 1169.49 631.942 1169.43 632.047 1169.38C632.204 1169.28 632.362 1169.17 632.52 1169.12C632.625 1169.07 632.677 1169.01 632.782 1168.96C632.94 1168.85 633.097 1168.8 633.255 1168.7C633.36 1168.64 633.412 1168.59 633.517 1168.54L633.622 1168.49C634.62 1165.7 636.143 1162.59 638.139 1159.43C640.555 1155.53 643.653 1151.43 647.329 1147.32C649.64 1144.74 652.16 1142.16 654.891 1139.68C658.41 1136.47 662.033 1133.58 665.605 1131.05C668.02 1129.36 670.384 1127.84 672.694 1126.52C672.904 1126.41 673.114 1126.26 673.377 1126.15C673.978 1125.8 674.592 1125.46 675.215 1125.15C676.528 1124.47 677.841 1123.83 679.101 1123.31L678.471 1122.57L678.366 1122.47L677.578 1121.57L673.219 1116.3L673.272 1112.51L673.219 1112.46L676.318 1111.51L682.2 1114.51" fill="#2F83C1"/>
<path d="M732.96 1202.7C732.96 1202.7 733.065 1201.91 732.645 1201.18C732.645 1201.13 732.592 1201.07 732.592 1201.07L732.54 1201.02L732.382 1200.86C732.277 1200.76 732.172 1200.65 732.015 1200.55C731.962 1200.5 731.857 1200.45 731.752 1200.39C731.49 1200.29 731.227 1200.18 730.86 1200.13C730.597 1200.08 730.335 1200.08 730.02 1200.08H729.6V1200.18C729.6 1200.24 729.652 1200.29 729.652 1200.39C729.652 1200.45 729.652 1200.5 729.705 1200.5C729.757 1200.65 729.81 1200.92 729.862 1201.13C729.862 1201.13 729.862 1201.18 729.81 1201.28V1201.34C729.652 1201.7 729.232 1202.54 728.287 1203.59C728.13 1203.8 727.972 1203.96 727.762 1204.17C725.137 1206.9 719.467 1210.73 707.497 1212.88C703.454 1213.46 699.674 1213.51 696.524 1213.09C691.799 1212.51 688.282 1210.99 686.602 1208.94C686.444 1208.79 686.339 1208.58 686.182 1208.42C686.077 1208.26 686.024 1208.16 685.919 1208C685.867 1207.95 685.867 1207.9 685.814 1207.84C685.16 1206.63 684.817 1205.28 684.817 1203.91C684.817 1202.28 685.342 1200.76 686.182 1199.61C686.864 1198.66 687.757 1197.93 688.859 1197.61C689.384 1197.45 689.962 1197.35 690.539 1197.4C690.644 1197.4 690.802 1197.4 691.012 1197.45C691.379 1197.51 691.957 1197.56 692.639 1197.66C692.692 1197.66 692.797 1197.66 692.849 1197.72C695.107 1197.98 698.677 1198.35 702.982 1198.08C710.857 1197.61 721.2 1195.15 730.597 1186.65V1186.59C730.65 1185.86 730.545 1184.6 729.652 1183.6C729.495 1183.45 729.337 1183.29 729.127 1183.13C729.022 1183.03 728.865 1182.97 728.76 1182.87C728.602 1182.82 728.497 1182.71 728.392 1182.66L727.92 1182.34V1182.29C727.867 1182.19 727.815 1182.08 727.71 1181.98C725.295 1178.3 721.935 1176.15 720.57 1175.16C719.94 1174.68 719.52 1174.47 719.52 1174.47C716.632 1172.69 716.212 1172.11 716.474 1167.34C716.579 1165.61 716.737 1163.35 716.947 1160.25C716.947 1159.84 717 1159.47 717 1159.1V1157.58C717 1157.32 716.947 1157.05 716.947 1156.84C716.947 1156.74 716.947 1156.63 716.894 1156.53C716.842 1156.27 716.842 1156 716.79 1155.74C716.79 1155.64 716.737 1155.48 716.737 1155.38C716.737 1155.22 716.684 1155.11 716.632 1154.96C716.579 1154.85 716.579 1154.69 716.527 1154.59C716.474 1154.43 716.422 1154.27 716.422 1154.12C716.422 1154.06 716.369 1154.01 716.369 1153.96C716.369 1153.91 716.317 1153.85 716.317 1153.8V1153.75L716.264 1153.59C716.212 1153.49 716.159 1153.38 716.159 1153.28V1153.22L716.107 1153.12L716.054 1153.01C715.949 1152.8 715.897 1152.59 715.792 1152.44L715.739 1152.28C715.634 1152.12 715.529 1151.91 715.424 1151.75L715.372 1151.7L715.319 1151.65C715.214 1151.55 715.162 1151.44 715.057 1151.34L714.952 1151.18C714.847 1151.02 714.742 1150.92 714.637 1150.81L714.217 1150.39C714.059 1150.29 713.902 1150.18 713.744 1150.13C713.692 1150.08 713.639 1150.08 713.587 1150.08L713.272 1149.92C713.219 1149.92 713.167 1149.87 713.114 1149.87C713.009 1149.81 712.904 1149.81 712.852 1149.76C712.799 1149.76 712.747 1149.71 712.642 1149.71C712.537 1149.71 712.484 1149.66 712.379 1149.66H711.225C711.172 1149.66 711.12 1149.66 711.067 1149.71C711.015 1149.71 710.962 1149.71 710.91 1149.76C710.805 1149.76 710.7 1149.81 710.542 1149.87H710.437C710.122 1149.97 709.86 1150.08 709.545 1150.18L709.44 1150.23C709.335 1150.29 709.229 1150.34 709.072 1150.39L708.914 1150.44L708.599 1150.6L708.442 1150.71L708.127 1150.86L707.969 1150.97C707.864 1151.02 707.759 1151.13 707.654 1151.18L707.549 1151.23C707.444 1151.34 707.287 1151.39 707.182 1151.49L707.129 1151.55C706.972 1151.65 706.867 1151.75 706.709 1151.81C706.447 1151.96 706.184 1152.17 705.922 1152.33C705.712 1152.49 705.502 1152.65 705.239 1152.8L705.134 1152.86C704.919 1153.02 704.691 1153.16 704.452 1153.28L704.347 1153.33C704.137 1153.49 703.874 1153.59 703.664 1153.75L703.559 1153.8C703.349 1153.96 703.087 1154.06 702.824 1154.17L702.719 1154.22C702.457 1154.33 702.247 1154.43 701.984 1154.54L701.879 1154.59C701.617 1154.69 701.354 1154.75 701.092 1154.85H701.039C700.777 1154.9 700.462 1154.96 700.199 1155.01C699.727 1155.06 699.202 1155.11 698.729 1155.11C697.942 1155.11 697.154 1155.06 696.314 1154.96L695.527 1154.8C695.422 1154.8 695.317 1154.75 695.264 1154.75C694.582 1154.59 693.847 1154.43 693.164 1154.27C692.849 1154.22 692.587 1154.12 692.272 1154.06C691.799 1153.96 691.327 1153.85 690.802 1153.75C690.697 1153.75 690.592 1153.7 690.539 1153.7C690.487 1153.7 690.382 1153.64 690.329 1153.64C690.224 1153.64 690.119 1153.59 690.014 1153.59C689.909 1153.59 689.804 1153.54 689.699 1153.54H689.594C689.489 1153.54 689.384 1153.49 689.332 1153.49C689.122 1153.43 688.912 1153.38 688.649 1153.38C688.597 1153.38 688.492 1153.38 688.439 1153.33C688.282 1153.33 688.124 1153.28 687.967 1153.28C687.862 1153.28 687.809 1153.28 687.704 1153.22C687.547 1153.22 687.442 1153.17 687.284 1153.17H684.869C684.607 1153.17 684.397 1153.22 684.134 1153.22H683.924C683.767 1153.22 683.609 1153.28 683.452 1153.28H683.399C683.294 1153.28 683.242 1153.33 683.137 1153.33C682.979 1153.38 682.822 1153.38 682.664 1153.43C682.559 1153.43 682.454 1153.49 682.402 1153.49C682.244 1153.54 682.087 1153.59 681.929 1153.59C681.824 1153.59 681.772 1153.64 681.667 1153.7C681.509 1153.75 681.299 1153.8 681.142 1153.85C681.037 1153.91 680.984 1153.91 680.932 1153.96C680.669 1154.06 680.407 1154.17 680.197 1154.27C678.202 1155.43 676.469 1157 675.157 1158.79C674.684 1159.42 674.264 1160.04 673.896 1160.67C673.476 1161.36 673.161 1162.09 672.846 1162.83C672.741 1163.04 672.689 1163.25 672.584 1163.46C672.479 1163.82 672.321 1164.19 672.216 1164.56C672.216 1164.61 672.216 1164.66 672.164 1164.66C672.059 1165.08 671.954 1165.5 671.849 1165.97C671.744 1166.45 671.691 1166.87 671.639 1167.34C671.586 1167.6 671.586 1167.81 671.586 1168.07C671.534 1168.74 671.534 1169.4 671.586 1170.07V1170.22C671.586 1170.38 671.586 1170.54 671.639 1170.75C671.691 1171.22 671.744 1171.69 671.849 1172.16C671.901 1172.32 671.954 1172.48 671.954 1172.69C672.006 1172.85 672.006 1173 672.059 1173.16C672.374 1174.37 672.846 1175.47 673.424 1176.41C675.577 1180.14 679.147 1182.4 681.772 1183.6C682.769 1184.02 683.819 1184.44 684.922 1184.81L684.817 1184.91C684.607 1184.97 684.397 1185.02 684.134 1185.07C683.767 1185.18 683.294 1185.33 682.822 1185.49C682.297 1185.65 681.667 1185.91 681.037 1186.17C679.357 1186.86 677.467 1187.85 675.787 1189.22C675.577 1189.37 675.367 1189.58 675.157 1189.74C674.798 1190.05 674.465 1190.38 674.159 1190.74L674.054 1190.84L673.896 1191C673.791 1191.16 673.634 1191.26 673.529 1191.42L673.371 1191.58C673.214 1191.79 673.056 1192 672.951 1192.21C672.794 1192.42 672.689 1192.63 672.531 1192.84C671.534 1194.57 670.956 1196.67 671.114 1199.19V1199.08C671.114 1199.03 671.114 1198.98 671.166 1198.92V1198.87C671.166 1198.82 671.219 1198.77 671.219 1198.66V1198.61C671.219 1198.56 671.271 1198.45 671.271 1198.35C671.271 1198.24 671.324 1198.19 671.376 1198.08V1198.03C671.429 1197.93 671.429 1197.82 671.481 1197.72V1197.66C671.534 1197.56 671.534 1197.45 671.586 1197.35V1197.3C671.639 1197.19 671.691 1197.09 671.744 1196.93L671.796 1196.88C671.849 1196.77 671.901 1196.61 672.006 1196.51C672.111 1196.3 672.216 1196.14 672.321 1195.93C672.374 1195.88 672.426 1195.78 672.479 1195.72L672.531 1195.67L672.846 1195.2C672.951 1195.09 673.056 1194.94 673.161 1194.83L673.266 1194.73C673.371 1194.62 673.424 1194.52 673.529 1194.46L673.634 1194.36C673.739 1194.25 673.896 1194.15 674.001 1193.99C674.001 1193.99 671.744 1199.13 672.741 1203.17V1202.39C672.741 1202.28 672.741 1202.18 672.794 1202.07C672.794 1201.97 672.794 1201.86 672.846 1201.76V1201.7C672.846 1201.6 672.899 1201.44 672.899 1201.34V1201.23C672.951 1201.07 672.951 1200.97 673.004 1200.81V1200.76C673.056 1200.6 673.109 1200.45 673.109 1200.34C673.109 1200.29 673.161 1200.24 673.161 1200.18L673.214 1200.08C673.266 1199.97 673.319 1199.82 673.371 1199.71C673.424 1199.55 673.529 1199.4 673.634 1199.24C673.634 1199.19 673.686 1199.13 673.686 1199.13L674.001 1198.66C674.001 1198.66 673.896 1199.92 673.896 1201.44C673.896 1201.7 673.896 1201.91 673.949 1202.18C673.949 1202.33 673.949 1202.49 674.001 1202.65C674.106 1201.02 674.421 1199.5 674.842 1198.08C674.421 1199.5 674.106 1201.02 674.001 1202.65C673.949 1203.7 673.949 1204.75 674.054 1205.85C674.211 1207.69 674.684 1209.68 675.472 1211.73C675.472 1211.73 674.737 1209.36 675.787 1207L676.102 1207.63C676.207 1208.32 676.312 1209.31 676.522 1210.41C676.732 1212.25 677.572 1217.76 681.352 1221.59C681.352 1221.59 679.934 1219.75 680.144 1217.39C680.302 1217.71 680.459 1217.97 680.564 1218.23C681.194 1219.44 682.454 1221.64 683.872 1223.22C683.872 1223.22 682.769 1221.06 683.032 1220.59C683.032 1220.59 686.707 1225.16 687.862 1225.58L686.339 1223.06L686.287 1223.01C691.589 1226.89 698.939 1228.31 707.969 1225.79C709.545 1225.37 711.12 1224.79 712.8 1224.11C713.797 1223.69 714.794 1223.16 715.792 1222.64L715.949 1222.53C716.632 1222.17 717.315 1221.75 717.997 1221.33C718.522 1221.01 719.047 1220.65 719.52 1220.33C720.36 1219.75 721.2 1219.12 722.04 1218.44C722.092 1218.39 722.145 1218.34 722.197 1218.34C722.985 1217.65 723.772 1216.92 724.455 1216.19C725.4 1215.19 726.24 1214.19 726.975 1213.19L727.027 1213.14C727.237 1212.88 727.395 1212.67 727.552 1212.41L727.605 1212.36C727.657 1212.25 727.71 1212.2 727.762 1212.09C728.025 1211.73 728.235 1211.41 728.497 1211.04C728.55 1210.94 728.602 1210.89 728.655 1210.78C728.76 1210.57 728.865 1210.41 729.022 1210.2C729.127 1210.05 729.18 1209.94 729.285 1209.78C729.39 1209.63 729.495 1209.47 729.547 1209.31C729.705 1209.05 729.862 1208.73 730.02 1208.47L730.177 1208.16L730.492 1207.53L730.65 1207.21L730.702 1207.11C730.807 1206.85 730.965 1206.58 731.07 1206.32V1206.27C731.542 1205.85 731.857 1205.43 732.172 1205.06C732.225 1205.01 732.277 1204.96 732.277 1204.9C732.75 1204.22 732.96 1203.44 732.96 1202.7V1202.7ZM648.066 1189.32C647.909 1189.37 647.751 1189.58 647.541 1189.85C647.489 1189.95 647.384 1190.06 647.331 1190.21C646.859 1191.11 646.439 1192.37 646.439 1192.37C646.491 1191.95 646.544 1191.53 646.544 1191.11V1190.95C646.596 1190.53 646.649 1190.06 646.701 1189.64V1189.48C646.754 1188.95 646.859 1188.48 646.964 1188.01C646.964 1187.96 646.964 1187.91 647.016 1187.8V1187.75C647.016 1187.7 647.016 1187.64 647.069 1187.59C647.069 1187.49 647.121 1187.43 647.121 1187.33C647.174 1186.96 647.279 1186.59 647.331 1186.23C647.384 1185.91 647.436 1185.6 647.489 1185.33V1185.23C647.489 1185.18 647.489 1185.12 647.541 1185.12V1185.02C647.541 1184.97 647.594 1184.86 647.594 1184.81C647.594 1184.76 647.594 1184.7 647.646 1184.65C647.646 1184.55 647.699 1184.44 647.699 1184.39C647.699 1184.34 647.751 1184.23 647.751 1184.18C647.751 1184.08 647.804 1183.97 647.804 1183.92C647.804 1183.87 647.804 1183.81 647.856 1183.76C647.856 1183.71 647.856 1183.66 647.909 1183.66C647.909 1183.55 647.961 1183.5 647.961 1183.45V1183.29L647.856 1183.39C647.751 1183.45 647.699 1183.55 647.594 1183.6L647.489 1183.71C647.384 1183.81 647.279 1183.92 647.226 1184.02L647.174 1184.08L646.859 1184.55L646.806 1184.6C646.806 1184.65 646.754 1184.65 646.754 1184.7L646.596 1185.02V1185.12C646.544 1185.28 646.439 1185.44 646.386 1185.6C646.229 1186.02 646.071 1186.44 645.966 1186.8C645.914 1186.91 645.914 1187.07 645.861 1187.12C645.809 1187.33 645.756 1187.54 645.756 1187.59V1187.64V1187.59C645.756 1187.43 645.756 1187.33 645.809 1187.17C645.809 1186.91 645.861 1186.59 645.861 1186.33C645.861 1186.12 645.914 1185.86 645.966 1185.65C645.966 1185.6 645.966 1185.49 646.019 1185.44C646.019 1185.33 646.071 1185.23 646.071 1185.12C646.071 1185.02 646.124 1184.91 646.124 1184.81V1184.65C646.124 1184.55 646.176 1184.39 646.176 1184.28V1183.92C646.176 1183.87 646.176 1183.81 646.229 1183.76C646.281 1183.6 646.334 1183.39 646.334 1183.24V1183.18C646.386 1183.08 646.386 1182.92 646.439 1182.82V1182.76C646.491 1182.5 646.596 1182.24 646.649 1181.98V1181.87C646.649 1181.82 646.649 1181.77 646.701 1181.71C646.806 1181.29 646.964 1180.87 647.069 1180.51V1180.45C647.174 1180.14 647.331 1179.77 647.436 1179.46V1179.41C647.489 1179.25 647.541 1179.14 647.594 1178.99C647.699 1178.78 647.751 1178.57 647.856 1178.36C647.856 1178.3 647.909 1178.2 648.014 1177.99C648.066 1177.94 648.066 1177.83 648.119 1177.78C648.171 1177.67 648.224 1177.57 648.276 1177.41L648.329 1177.31C648.276 1177.25 648.171 1177.25 648.119 1177.2H648.066L647.961 1177.15C647.489 1176.94 646.964 1176.73 646.439 1176.57H646.334C645.966 1176.47 645.651 1176.41 645.284 1176.36C645.074 1176.36 644.864 1176.31 644.654 1176.31H644.129C643.866 1176.31 643.604 1176.36 643.341 1176.36C643.236 1176.36 643.184 1176.36 643.079 1176.41C642.974 1176.41 642.816 1176.47 642.711 1176.47C642.659 1176.47 642.606 1176.47 642.554 1176.52C642.449 1176.52 642.396 1176.57 642.291 1176.57C642.134 1176.62 641.924 1176.68 641.766 1176.73C641.714 1176.73 641.609 1176.78 641.556 1176.78C641.346 1176.89 641.084 1176.94 640.874 1177.04C640.769 1177.1 640.716 1177.15 640.611 1177.15L640.296 1177.31L640.191 1177.36C640.086 1177.41 639.981 1177.46 639.876 1177.57C639.771 1177.62 639.666 1177.67 639.561 1177.78C639.456 1177.83 639.351 1177.94 639.246 1177.99C639.194 1178.04 639.089 1178.09 639.036 1178.15C638.879 1178.3 638.669 1178.46 638.511 1178.62L638.249 1178.88C638.091 1179.04 637.986 1179.2 637.829 1179.35L637.776 1179.41C637.724 1179.51 637.619 1179.56 637.566 1179.67L637.409 1179.83C637.146 1180.19 636.884 1180.61 636.674 1181.03C636.621 1181.08 636.621 1181.14 636.569 1181.19C636.464 1181.4 636.411 1181.61 636.306 1181.82C636.254 1181.92 636.254 1181.98 636.201 1182.08C636.149 1182.29 636.044 1182.5 635.991 1182.76V1182.97C635.939 1183.13 635.939 1183.29 635.886 1183.45C635.886 1183.55 635.886 1183.6 635.834 1183.71C635.834 1183.81 635.834 1183.87 635.781 1183.97V1184.18C635.781 1184.44 635.729 1184.7 635.781 1184.97C635.781 1185.18 635.781 1185.39 635.834 1185.6V1185.7C635.834 1185.81 635.886 1185.91 635.886 1186.02C635.939 1186.44 636.044 1186.8 636.149 1187.22C636.254 1187.54 636.359 1187.8 636.464 1188.06C636.674 1188.59 636.936 1189.06 637.251 1189.53C637.881 1190.48 638.721 1191.32 639.719 1191.95C640.244 1192.31 640.874 1192.57 641.504 1192.78C642.081 1192.99 642.711 1193.15 643.394 1193.2C643.551 1193.2 643.709 1193.26 643.814 1193.26H644.496C644.706 1193.26 644.916 1193.2 645.126 1193.2C645.231 1193.2 645.389 1193.2 645.494 1193.15C645.809 1193.1 646.071 1193.05 646.386 1192.99H646.439C646.544 1192.94 646.649 1192.94 646.806 1192.89C647.174 1192.78 647.541 1192.63 647.856 1192.47L647.909 1192.42C648.014 1192.37 648.119 1192.31 648.171 1192.31C648.014 1191.42 647.856 1190.48 647.804 1189.53C648.066 1189.43 648.066 1189.37 648.066 1189.32" fill="#FCE9CD"/>
<path d="M683.521 1115.19L683.688 1115.3L683.521 1115.19Z" fill="#4D9ED7"/>
<path d="M729.595 1200.7C729.595 1200.65 729.595 1200.6 729.543 1200.6C729.49 1200.49 729.49 1200.44 729.49 1200.39C729.228 1199.55 728.914 1198.92 728.6 1198.44C728.233 1197.86 727.919 1197.55 727.919 1197.55L728.076 1196.92C728.129 1196.65 728.181 1196.39 728.181 1196.13C728.39 1194.23 727.919 1192.76 727.5 1191.92C727.448 1191.76 727.395 1191.66 727.343 1191.55C727.029 1191.76 726.767 1191.97 726.453 1192.18C720.796 1196.02 714.459 1198.49 707.598 1199.55C702.884 1200.28 697.909 1200.34 692.724 1199.7L692.829 1199.76C692.829 1199.76 689.686 1200.18 688.848 1203.18L688.901 1203.23L688.639 1205.23C688.743 1207.96 689.948 1209.65 691.362 1210.54C692.829 1211.12 694.609 1211.54 696.599 1211.8C700.004 1212.22 703.984 1212.12 707.965 1211.49C713.307 1210.75 720.849 1207.91 726.243 1204.23C727.448 1203.39 728.6 1202.49 729.543 1201.6L729.595 1201.55L729.647 1201.49C729.647 1201.12 729.595 1200.91 729.595 1200.7Z" fill="white"/>
<path d="M719.473 1174.74C716.586 1172.95 716.166 1172.37 716.429 1167.58C716.534 1165.84 716.691 1163.58 716.901 1160.48C716.901 1160.06 716.954 1159.69 716.954 1159.32V1157.79C716.954 1157.53 716.901 1157.27 716.901 1157.06C716.901 1156.95 716.901 1156.85 716.849 1156.74C716.796 1156.48 716.796 1156.22 716.744 1155.95C716.744 1155.85 716.691 1155.69 716.691 1155.58C716.691 1155.43 716.639 1155.32 716.586 1155.16C716.534 1155.06 716.534 1154.9 716.481 1154.8C716.061 1154.16 715.589 1153.64 715.011 1153.16L714.906 1153.06L714.801 1153.01H714.749C714.644 1152.95 714.592 1152.9 714.487 1152.85C714.382 1152.8 714.277 1152.74 714.224 1152.69C713.384 1152.16 712.387 1151.85 711.39 1151.69C710.812 1151.59 710.235 1151.59 709.657 1151.59C709.395 1151.59 709.08 1151.64 708.818 1151.64C708.083 1151.74 707.348 1151.9 706.561 1152.11C706.298 1152.27 706.036 1152.48 705.773 1152.64C705.563 1152.8 705.353 1152.95 705.091 1153.11L704.986 1153.16C704.771 1153.32 704.542 1153.46 704.304 1153.59L704.199 1153.64C703.989 1153.8 703.726 1153.9 703.516 1154.06L703.411 1154.11C703.201 1154.27 702.939 1154.37 702.676 1154.48L702.571 1154.53C702.309 1154.64 702.099 1154.74 701.837 1154.85L701.732 1154.9C701.469 1155.01 701.207 1155.06 700.944 1155.16H700.892C700.629 1155.22 700.314 1155.27 700.052 1155.32C699.58 1155.37 699.055 1155.43 698.582 1155.43C697.795 1155.43 697.008 1155.37 696.168 1155.27L695.38 1155.11C695.275 1155.11 695.17 1155.06 695.118 1155.06C694.436 1154.9 693.701 1154.74 693.018 1154.58C692.703 1154.53 692.441 1154.43 692.126 1154.37C691.654 1154.27 691.181 1154.16 690.656 1154.06C690.551 1154.06 690.446 1154.01 690.394 1154.01C689.974 1154.01 689.554 1154.06 689.187 1154.11H689.082C687.874 1154.27 686.72 1154.53 685.512 1154.95C685.46 1154.95 685.407 1155.01 685.302 1155.01C685.092 1155.06 684.935 1155.16 684.725 1155.22C684.463 1155.32 684.253 1155.43 683.99 1155.53C682.258 1156.27 680.631 1157.32 679.056 1158.64C678.426 1159.16 677.849 1159.74 677.272 1160.32C676.432 1161.21 675.697 1162.16 675.014 1163.16C674.962 1163.21 674.962 1163.27 674.91 1163.32C674.542 1163.84 674.227 1164.42 673.965 1164.95C673.86 1165.16 673.755 1165.37 673.65 1165.53V1165.58C673.335 1166.26 673.072 1166.9 672.862 1167.58C672.862 1167.63 672.862 1167.69 672.81 1167.69C672.757 1167.79 672.757 1167.9 672.705 1168C672.6 1168.32 672.495 1168.63 672.443 1168.95C672.338 1169.26 672.285 1169.58 672.233 1169.95C672.233 1170 672.18 1170.11 672.18 1170.16C672.128 1170.37 672.128 1170.58 672.075 1170.74C671.97 1171.47 671.918 1172.21 671.865 1172.95V1173.47C672.18 1174.68 672.652 1175.79 673.23 1176.73C675.382 1180.47 678.951 1182.73 681.576 1183.94C682.573 1184.36 683.623 1184.78 684.725 1185.15L684.777 1185.2L684.83 1185.15C684.987 1185.05 685.092 1184.94 685.25 1184.84C685.302 1184.78 685.355 1184.78 685.407 1184.73L685.88 1184.42C685.932 1184.36 685.985 1184.36 686.037 1184.31L686.51 1183.99C686.562 1183.94 686.615 1183.94 686.667 1183.89C686.825 1183.78 686.982 1183.68 687.192 1183.57C687.244 1183.52 687.297 1183.52 687.349 1183.47C687.507 1183.36 687.717 1183.26 687.874 1183.15C687.927 1183.1 687.979 1183.1 688.032 1183.05C688.189 1182.94 688.399 1182.84 688.557 1182.73C688.609 1182.68 688.714 1182.68 688.767 1182.63C688.924 1182.52 689.134 1182.42 689.292 1182.31C689.344 1182.26 689.449 1182.21 689.502 1182.21C689.659 1182.1 689.869 1182 690.079 1181.89C690.184 1181.84 690.236 1181.79 690.341 1181.79C690.551 1181.68 690.709 1181.57 690.919 1181.52C691.024 1181.47 691.076 1181.42 691.181 1181.42C691.391 1181.31 691.549 1181.26 691.759 1181.15L692.074 1181C692.284 1180.89 692.441 1180.84 692.651 1180.73C692.756 1180.68 692.861 1180.63 693.018 1180.57C693.228 1180.52 693.386 1180.42 693.596 1180.36C693.701 1180.31 693.858 1180.26 693.963 1180.21C694.173 1180.15 694.331 1180.05 694.541 1180C694.698 1179.94 694.803 1179.89 694.961 1179.84C695.171 1179.79 695.328 1179.68 695.538 1179.63L696.01 1179.47C696.168 1179.42 696.378 1179.36 696.535 1179.26C696.693 1179.21 696.903 1179.15 697.06 1179.1C697.218 1179.05 697.428 1179 697.585 1178.94C697.795 1178.89 698.005 1178.84 698.162 1178.79C698.32 1178.73 698.477 1178.68 698.687 1178.63C698.897 1178.58 699.107 1178.52 699.37 1178.42C699.475 1178.37 699.58 1178.37 699.685 1178.31C700.524 1176.16 703.096 1170.79 707.453 1170.21C707.925 1170.16 708.345 1170.11 708.765 1170.11H709.08C709.028 1169.79 708.975 1169.47 708.975 1169.11C708.818 1166.79 709.553 1164.84 710.55 1164.79C711.337 1164.74 711.967 1165.9 712.072 1166.26C712.387 1166.95 712.597 1167.84 712.649 1168.84C712.702 1169.74 712.597 1170.58 712.439 1171.32C712.544 1171.42 712.597 1171.53 712.702 1171.58C713.699 1172.84 713.857 1174.52 713.804 1175.79C714.172 1175.73 714.592 1175.73 715.011 1175.68C715.116 1175.68 715.221 1175.68 715.326 1175.63H715.536C716.009 1175.58 716.533 1175.52 717.059 1175.52C718.213 1175.42 719.368 1175.37 720.575 1175.31C719.893 1174.95 719.473 1174.74 719.473 1174.74V1174.74ZM730.443 1207.14C728.554 1208.83 726.559 1210.2 724.564 1211.3C723.567 1211.83 722.57 1212.3 721.625 1212.72C719.473 1213.67 717.426 1214.3 715.589 1214.77C711.547 1215.77 708.765 1215.77 708.765 1215.77C710.97 1216.98 713.752 1216.98 715.641 1216.82C716.954 1216.72 717.846 1216.46 717.846 1216.46C717.793 1217.25 717.688 1217.98 717.583 1218.72C717.426 1219.51 717.216 1220.19 716.954 1220.82V1220.88C716.638 1221.66 716.219 1222.35 715.799 1222.98C715.746 1223.03 715.694 1223.14 715.641 1223.19L715.799 1223.09C716.481 1222.72 717.164 1222.3 717.846 1221.88C718.371 1221.56 718.896 1221.19 719.368 1220.88C720.233 1220.28 721.073 1219.65 721.887 1218.98C721.94 1218.93 721.992 1218.88 722.045 1218.88C722.832 1218.19 723.62 1217.46 724.302 1216.72C725.247 1215.72 726.087 1214.72 726.822 1213.72L726.874 1213.67C727.084 1213.4 727.241 1213.19 727.399 1212.93L727.451 1212.88C727.504 1212.77 727.556 1212.72 727.609 1212.62C727.871 1212.25 728.081 1211.93 728.344 1211.56C728.396 1211.46 728.449 1211.41 728.501 1211.3C728.606 1211.09 728.711 1210.93 728.869 1210.72C728.974 1210.56 729.026 1210.46 729.131 1210.3C729.236 1210.14 729.341 1209.98 729.394 1209.83C729.551 1209.56 729.708 1209.25 729.866 1208.99L730.023 1208.67L730.338 1208.04L730.496 1207.72L730.548 1207.62C730.653 1207.35 730.811 1207.09 730.916 1206.83C730.706 1206.88 730.601 1206.99 730.443 1207.14V1207.14ZM682.573 1185.94C682.048 1186.1 681.418 1186.36 680.788 1186.63C679.109 1187.31 677.219 1188.31 675.539 1189.68C675.329 1189.83 675.119 1190.04 674.909 1190.2C674.551 1190.51 674.218 1190.84 673.912 1191.2L673.807 1191.31L673.65 1191.47C673.545 1191.62 673.387 1191.73 673.282 1191.89L673.125 1192.04C672.967 1192.25 672.81 1192.47 672.705 1192.68C672.547 1192.89 672.443 1193.1 672.285 1193.31C671.288 1195.04 670.71 1197.15 670.868 1199.67V1199.57C670.868 1199.52 670.868 1199.46 670.92 1199.41V1199.36C670.92 1199.3 670.973 1199.25 670.973 1199.15V1199.09C670.973 1199.04 671.025 1198.94 671.025 1198.83C671.025 1198.73 671.078 1198.67 671.13 1198.57V1198.52C671.183 1198.41 671.183 1198.3 671.235 1198.2V1198.15C671.288 1198.04 671.288 1197.94 671.34 1197.83V1197.78C671.393 1197.67 671.445 1197.57 671.498 1197.41L671.55 1197.36C671.603 1197.25 671.655 1197.1 671.76 1196.99C671.865 1196.78 671.97 1196.62 672.075 1196.41C672.128 1196.36 672.18 1196.25 672.233 1196.2L672.285 1196.15L672.6 1195.67C672.705 1195.57 672.81 1195.41 672.915 1195.31L673.02 1195.2C673.125 1195.1 673.177 1194.99 673.282 1194.94L673.387 1194.83C673.492 1194.73 673.65 1194.62 673.755 1194.46C673.755 1194.46 671.498 1199.62 672.495 1203.67V1202.88C672.495 1202.78 672.495 1202.67 672.547 1202.57C672.547 1202.46 672.547 1202.36 672.6 1202.25V1202.2C672.6 1202.09 672.652 1201.94 672.652 1201.83V1201.72C672.705 1201.57 672.705 1201.46 672.757 1201.3V1201.25C672.81 1201.09 672.862 1200.94 672.862 1200.83C672.862 1200.78 672.915 1200.73 672.915 1200.67L672.967 1200.57C673.02 1200.46 673.072 1200.3 673.125 1200.2C673.177 1200.04 673.282 1199.88 673.387 1199.73C673.387 1199.67 673.44 1199.62 673.44 1199.62L673.755 1199.15C673.755 1199.15 673.65 1200.41 673.65 1201.94C673.65 1202.2 673.65 1202.41 673.702 1202.67C673.702 1202.83 673.702 1202.99 673.755 1203.15C673.86 1201.51 674.175 1199.99 674.595 1198.57C674.7 1198.2 674.857 1197.78 674.962 1197.41C674.962 1197.36 675.015 1197.31 675.015 1197.25C675.172 1196.88 675.277 1196.57 675.434 1196.2C675.487 1196.15 675.487 1196.1 675.539 1195.99C675.697 1195.67 675.854 1195.31 676.012 1194.99C676.064 1194.94 676.064 1194.89 676.064 1194.83C676.432 1194.15 676.799 1193.52 677.167 1192.94C677.219 1192.89 677.219 1192.83 677.272 1192.78C677.429 1192.57 677.587 1192.36 677.744 1192.1C677.796 1192.04 677.796 1191.99 677.849 1191.94C677.901 1191.89 677.901 1191.83 677.954 1191.78C678.164 1191.52 678.321 1191.25 678.531 1190.99C678.584 1190.94 678.584 1190.89 678.636 1190.89C678.846 1190.62 679.056 1190.36 679.266 1190.15C679.529 1189.83 679.791 1189.57 680.053 1189.26C680.263 1189.05 680.421 1188.83 680.631 1188.68L680.841 1188.47C681.261 1188.05 681.681 1187.62 682.1 1187.26C683.255 1186.2 684.2 1185.52 684.515 1185.31C684.305 1185.36 684.095 1185.42 683.833 1185.47C683.518 1185.63 683.098 1185.78 682.573 1185.94" fill="#F2D2AC"/>
<path d="M712.806 1174.52C712.806 1174.52 712.806 1174.42 712.754 1174.21C712.544 1173.47 711.809 1171.68 708.922 1171.94C705.878 1172.26 704.828 1174.73 704.566 1175.57C704.513 1175.73 704.513 1175.84 704.513 1175.84L704.618 1175.89C704.985 1175.57 705.72 1175.57 706.403 1176.05C706.718 1176.26 706.928 1176.47 707.138 1176.73C707.4 1177.15 707.452 1177.57 707.295 1177.89L707.138 1178.05C707.138 1178.05 707.243 1178.1 707.452 1178.15C708.292 1178.42 710.654 1178.89 711.914 1177.26C711.967 1177.15 712.019 1177.1 712.072 1176.99C711.809 1176.89 711.704 1176.52 711.704 1176.05C711.704 1175.84 711.757 1175.63 711.809 1175.36C711.967 1174.73 712.439 1174.36 712.806 1174.52V1174.52ZM697.637 1197.04C695.642 1197.46 693.91 1197.78 692.598 1197.99C692.651 1197.99 692.755 1197.99 692.808 1198.04C695.065 1198.3 698.634 1198.67 702.938 1198.41C710.812 1197.93 721.152 1195.46 730.548 1186.94V1186.89C730.6 1186.15 730.495 1184.89 729.603 1183.89C729.445 1183.73 729.288 1183.57 729.078 1183.41C729.026 1183.41 729.026 1183.36 728.973 1183.36C728.711 1183.2 728.501 1183.1 728.291 1182.94L727.818 1182.62V1182.57C727.241 1183.41 726.559 1184.2 725.824 1184.94C725.561 1185.2 725.299 1185.47 724.984 1185.73C722.412 1188.04 719.053 1190.04 715.431 1191.62C709.447 1194.25 702.728 1195.99 697.637 1197.04V1197.04ZM647.877 1183.31C647.772 1183.36 647.72 1183.47 647.615 1183.52L647.51 1183.62C647.405 1183.73 647.3 1183.83 647.247 1183.94L647.195 1183.99L646.88 1184.47L646.827 1184.52C646.827 1184.57 646.775 1184.57 646.775 1184.62L646.617 1184.94V1185.04C646.565 1185.2 646.46 1185.36 646.407 1185.52C646.25 1185.94 646.092 1186.36 645.987 1186.73C645.935 1186.83 645.935 1186.99 645.883 1187.04C645.83 1187.25 645.778 1187.46 645.778 1187.52V1187.57V1187.52C645.778 1187.36 645.778 1187.25 645.83 1187.1C645.83 1186.83 645.883 1186.52 645.883 1186.25C645.883 1186.04 645.935 1185.78 645.988 1185.57C645.988 1185.52 645.988 1185.41 646.04 1185.36C646.04 1185.25 646.092 1185.15 646.092 1185.04C646.092 1184.94 646.145 1184.83 646.145 1184.73V1184.57C646.145 1184.47 646.197 1184.31 646.197 1184.2V1183.83C646.197 1183.78 646.197 1183.73 646.25 1183.68C646.302 1183.52 646.355 1183.31 646.355 1183.15V1183.1C646.407 1182.99 646.407 1182.83 646.46 1182.73V1182.68C646.512 1182.41 646.617 1182.15 646.67 1181.89V1181.78C646.67 1181.73 646.67 1181.68 646.722 1181.62C646.827 1181.2 646.985 1180.78 647.09 1180.41V1180.36C647.195 1180.05 647.352 1179.68 647.457 1179.36V1179.31C647.51 1179.15 647.562 1179.05 647.615 1178.89C647.72 1178.68 647.772 1178.47 647.877 1178.26C647.877 1178.2 647.93 1178.1 648.035 1177.89C648.087 1177.84 648.087 1177.73 648.14 1177.68C648.192 1177.57 648.245 1177.47 648.297 1177.31L648.35 1177.21C648.297 1177.15 648.192 1177.15 648.14 1177.1H648.087L647.982 1177.05C647.51 1176.84 646.985 1176.63 646.46 1176.47H646.355C645.988 1176.36 645.673 1176.31 645.305 1176.26C645.095 1176.26 644.885 1176.21 644.675 1176.21H644.15C643.888 1176.21 643.625 1176.26 643.363 1176.26C643.258 1176.26 643.206 1176.26 643.101 1176.31C642.996 1176.31 642.838 1176.36 642.733 1176.36C642.681 1176.36 642.628 1176.36 642.576 1176.42C642.471 1176.42 642.418 1176.47 642.313 1176.47C642.156 1176.52 641.946 1176.57 641.788 1176.63C641.736 1176.63 641.631 1176.68 641.578 1176.68C641.368 1176.78 641.106 1176.84 640.896 1176.94C640.791 1176.99 640.739 1177.05 640.634 1177.05L640.319 1177.21L640.214 1177.26C640.109 1177.31 640.004 1177.36 639.899 1177.47C639.794 1177.52 639.689 1177.57 639.584 1177.68C639.479 1177.73 639.374 1177.84 639.269 1177.89C639.216 1177.94 639.111 1177.99 639.059 1178.05C638.901 1178.2 638.691 1178.36 638.534 1178.52L638.272 1178.78C638.114 1178.94 638.009 1179.1 637.852 1179.26L637.799 1179.31C637.747 1179.41 637.642 1179.47 637.589 1179.57L637.432 1179.73C637.169 1180.1 636.907 1180.52 636.697 1180.94C636.644 1180.99 636.644 1181.05 636.592 1181.1C636.487 1181.31 636.434 1181.52 636.329 1181.73C636.277 1181.84 636.277 1181.89 636.224 1181.99C636.224 1182.05 636.277 1182.1 636.277 1182.15C636.329 1182.36 636.382 1182.52 636.434 1182.73V1182.83C636.487 1182.99 636.592 1183.2 636.644 1183.36C636.854 1183.89 637.064 1184.36 637.327 1184.78C637.379 1184.83 637.379 1184.89 637.432 1184.94V1184.99L637.484 1185.04C637.642 1185.36 637.799 1185.62 637.957 1185.83C638.219 1186.2 638.429 1186.46 638.587 1186.68L638.691 1186.78C638.691 1186.83 638.744 1186.83 638.744 1186.83L638.849 1186.94C638.849 1186.83 638.796 1186.73 638.796 1186.68C638.639 1185.99 638.586 1185.36 638.586 1184.68V1184.57C638.586 1184.15 638.586 1183.73 638.639 1183.36L638.796 1183.83C638.849 1184.04 638.954 1184.26 639.006 1184.47V1184.57C639.321 1185.47 639.689 1186.2 640.056 1186.78C640.476 1187.52 640.844 1187.99 641.106 1188.31C641.158 1188.36 641.211 1188.41 641.211 1188.46L641.316 1188.57C641.158 1187.83 641.053 1187.15 641.053 1186.46V1185.78C641.053 1185.47 641.053 1185.2 641.106 1184.94C641.211 1185.41 641.368 1185.89 641.526 1186.31V1186.36C642.103 1187.89 642.786 1188.99 643.258 1189.67L643.311 1189.73C643.416 1189.83 643.468 1189.94 643.521 1190.04C643.573 1190.1 643.625 1190.15 643.625 1190.2L643.73 1190.31L643.783 1190.36V1190.25C643.783 1190.15 643.73 1190.04 643.73 1189.94C643.678 1189.57 643.625 1189.2 643.573 1188.89C643.573 1188.67 643.52 1188.41 643.52 1188.2V1187.04C643.52 1186.78 643.573 1186.46 643.573 1186.2C643.625 1186.36 643.678 1186.57 643.73 1186.73C643.783 1186.83 643.835 1186.99 643.888 1187.1V1187.15L643.94 1187.2C643.993 1187.36 644.045 1187.52 644.098 1187.62C644.203 1187.89 644.308 1188.15 644.465 1188.36C644.623 1188.67 644.728 1188.94 644.885 1189.15C644.99 1189.31 645.043 1189.41 645.095 1189.52C645.2 1189.67 645.305 1189.83 645.358 1189.94C645.463 1190.04 645.515 1190.15 645.568 1190.25L645.62 1190.31C645.673 1190.41 645.778 1190.46 645.83 1190.57C645.883 1190.62 645.935 1190.67 645.935 1190.73C646.04 1190.83 646.092 1190.94 646.145 1190.94L646.197 1190.99V1190.83C646.25 1190.41 646.302 1189.94 646.355 1189.52V1189.36C646.407 1188.83 646.512 1188.36 646.617 1187.89C646.617 1187.83 646.617 1187.78 646.67 1187.67V1187.62C646.67 1187.57 646.67 1187.52 646.722 1187.46C646.722 1187.36 646.775 1187.31 646.775 1187.2C646.827 1186.83 646.932 1186.46 646.985 1186.1C647.037 1185.78 647.09 1185.47 647.142 1185.2V1185.1C647.142 1185.04 647.142 1184.99 647.195 1184.99V1184.89C647.195 1184.83 647.247 1184.73 647.247 1184.68C647.247 1184.62 647.247 1184.57 647.3 1184.52C647.3 1184.41 647.352 1184.31 647.352 1184.26C647.352 1184.2 647.405 1184.1 647.405 1184.04C647.405 1183.94 647.457 1183.83 647.457 1183.78C647.457 1183.73 647.457 1183.68 647.51 1183.62C647.51 1183.57 647.51 1183.52 647.562 1183.52C647.562 1183.41 647.615 1183.36 647.615 1183.31V1183.15L647.877 1183.31V1183.31ZM711.494 1205.3C712.229 1205.04 712.859 1204.83 713.384 1204.62C714.381 1204.2 714.906 1203.88 714.906 1203.77C714.853 1203.67 714.276 1203.72 713.226 1203.98C712.701 1204.09 712.072 1204.2 711.284 1204.41C710.917 1204.51 710.497 1204.56 710.077 1204.62C709.657 1204.67 709.185 1204.77 708.712 1204.83C707.767 1204.98 706.718 1205.09 705.563 1205.19L703.831 1205.35C703.253 1205.41 702.623 1205.41 701.994 1205.46C699.474 1205.51 696.692 1205.41 693.858 1204.88C692.388 1204.62 690.341 1203.93 688.924 1203.14L688.871 1203.09C689.711 1200.09 692.86 1199.67 692.86 1199.67L692.755 1199.62H692.598C692.126 1199.57 691.758 1199.51 691.391 1199.46C691.128 1199.41 690.918 1199.41 690.761 1199.35C690.603 1199.35 690.446 1199.3 690.393 1199.3C688.504 1199.2 687.454 1200.78 687.139 1201.46L686.982 1201.78C686.719 1202.41 686.509 1203.09 686.457 1203.88C686.352 1205.3 686.719 1206.83 687.821 1208.14C688.556 1209.04 689.816 1209.82 691.443 1210.46C690.026 1209.56 688.766 1207.83 688.714 1205.14C690.341 1205.83 692.178 1206.25 693.595 1206.51C696.587 1207.09 699.527 1207.14 702.099 1206.98C702.728 1206.93 703.411 1206.88 703.988 1206.83C704.618 1206.72 705.195 1206.67 705.773 1206.62C706.928 1206.4 707.925 1206.25 708.922 1206.04C709.395 1205.93 709.867 1205.83 710.287 1205.67C710.759 1205.56 711.127 1205.46 711.494 1205.3" fill="#F2D2AC"/>
<path d="M709.023 1170.07C710.6 1170.13 711.652 1170.6 712.389 1171.33C712.574 1170.53 712.645 1169.69 712.599 1168.86C712.546 1167.87 712.336 1166.97 712.02 1166.29C711.915 1165.87 711.284 1164.76 710.495 1164.82C709.496 1164.87 708.76 1166.81 708.917 1169.13C708.917 1169.44 708.97 1169.76 709.023 1170.07V1170.07ZM711.652 1176.01C711.652 1176.43 711.81 1176.8 712.02 1176.96C712.389 1177.17 712.862 1176.75 713.072 1176.07C713.072 1176.01 713.125 1175.96 713.125 1175.91C713.283 1175.28 713.125 1174.65 712.757 1174.49C712.389 1174.28 711.915 1174.7 711.705 1175.38C711.705 1175.59 711.652 1175.8 711.652 1176.01V1176.01ZM704.5 1177.17C704.657 1177.43 704.92 1177.7 705.236 1177.91C705.92 1178.33 706.656 1178.38 707.077 1178.01L707.234 1177.85C707.392 1177.54 707.34 1177.12 707.077 1176.7C706.919 1176.43 706.656 1176.17 706.34 1176.01C705.657 1175.59 704.92 1175.54 704.552 1175.86C704.5 1175.91 704.447 1175.96 704.394 1176.07C704.237 1176.33 704.289 1176.75 704.5 1177.17V1177.17ZM729.797 1201.35C728.754 1202.34 727.628 1203.24 726.431 1204.03C721.014 1207.71 713.441 1210.6 708.076 1211.29C704.026 1211.92 700.082 1212.02 696.663 1211.6C694.665 1211.34 692.929 1210.92 691.404 1210.34C689.773 1209.71 688.511 1208.92 687.775 1208.03C686.67 1206.71 686.355 1205.14 686.407 1203.77C686.46 1203.03 686.618 1202.3 686.933 1201.67L687.091 1201.35C687.459 1200.67 688.459 1199.04 690.352 1199.2C690.405 1199.2 690.562 1199.2 690.72 1199.25C690.878 1199.25 691.141 1199.3 691.351 1199.35C691.719 1199.41 692.088 1199.46 692.561 1199.51H692.719C697.925 1200.14 702.922 1200.09 707.655 1199.35C714.545 1198.3 720.909 1195.83 726.589 1191.99C726.904 1191.78 727.167 1191.57 727.483 1191.36L730.586 1186.74C721.172 1195.31 710.811 1197.78 702.922 1198.25C698.609 1198.51 695.033 1198.2 692.771 1197.88C692.666 1197.88 692.613 1197.88 692.561 1197.83C691.877 1197.72 691.351 1197.67 690.93 1197.62C690.72 1197.62 690.562 1197.57 690.457 1197.57C689.879 1197.51 689.3 1197.62 688.774 1197.78C687.722 1198.09 686.776 1198.83 686.092 1199.77C685.25 1200.93 684.724 1202.51 684.724 1204.09C684.725 1205.46 685.068 1206.82 685.724 1208.03C685.776 1208.08 685.776 1208.13 685.829 1208.19C685.934 1208.34 685.987 1208.45 686.092 1208.61C686.197 1208.76 686.355 1208.97 686.513 1209.13C688.143 1211.18 691.719 1212.65 696.453 1213.29C699.661 1213.71 703.395 1213.65 707.445 1213.07C719.436 1210.92 725.116 1207.03 727.746 1204.35C727.956 1204.14 728.114 1203.98 728.272 1203.77C729.218 1202.67 729.639 1201.82 729.797 1201.51V1201.46C729.85 1201.35 729.85 1201.3 729.85 1201.3L729.797 1201.35" fill="#664F44"/>
<path d="M691.618 1159.83C691.251 1159.62 690.832 1159.46 690.412 1159.35C690.134 1159.3 689.854 1159.24 689.573 1159.2C689.468 1159.2 689.363 1159.2 689.259 1159.14C687.843 1159.04 686.636 1159.25 686.636 1159.25C686.374 1159.3 686.112 1159.35 685.902 1159.46C684.014 1160.04 682.703 1161.04 681.759 1162.2C681.025 1163.14 680.501 1164.14 680.238 1165.14C680.186 1165.25 680.186 1165.3 680.186 1165.41C680.134 1165.67 680.029 1165.93 679.976 1166.14C679.819 1166.99 679.714 1167.72 679.714 1168.35C679.714 1169.2 679.767 1169.72 679.767 1169.72C680.081 1168.99 680.448 1168.35 680.815 1167.72C681.707 1166.2 682.651 1164.93 683.647 1163.93C685.535 1161.99 687.476 1160.93 688.944 1160.41C690.517 1159.88 691.618 1159.83 691.618 1159.83V1159.83ZM714.326 1157.14L714.274 1157.04C714.064 1156.77 713.802 1156.51 713.487 1156.3C712.753 1155.83 711.756 1155.56 710.393 1155.83C710.393 1155.83 708.767 1156.2 707.823 1157.3C707.823 1157.3 710.655 1156.09 713.697 1158.25C713.959 1158.46 714.274 1158.67 714.536 1158.93C714.798 1159.2 715.113 1159.46 715.375 1159.83C715.375 1159.83 715.27 1158.51 714.483 1157.35C714.431 1157.25 714.378 1157.2 714.326 1157.14" fill="#E9B784"/>
<path d="M692.06 1178.16C693.14 1177.84 694.271 1177.53 695.557 1177.21C695.763 1176.21 695.814 1175 695.66 1173.68C695.3 1170.62 693.963 1168.25 692.626 1168.41C691.288 1168.57 690.517 1171.2 690.877 1174.26C691.083 1175.84 691.494 1177.21 692.06 1178.16" fill="#664F44"/>
<path d="M685.981 1109.37L683.141 1109.99L683.719 1115.1L676.198 1111.3L673.095 1112.23L673.148 1112.29L682.299 1122.6L682.404 1122.55L682.51 1122.49C682.772 1122.34 683.088 1122.13 683.351 1121.97C683.456 1121.92 683.561 1121.87 683.667 1121.76C684.087 1121.5 684.508 1121.24 684.929 1121.04L681.037 1116.61L687.295 1119.63C687.506 1119.52 687.664 1119.42 687.874 1119.32L687.295 1114.89L690.135 1118.17H690.188C690.451 1118.07 690.661 1117.91 690.924 1117.81L691.03 1117.75L691.135 1117.7C691.187 1117.7 691.24 1117.65 691.24 1117.65L691.556 1117.49C691.556 1117.49 691.608 1117.49 691.608 1117.44C691.924 1117.29 692.292 1117.13 692.607 1116.97L685.981 1109.37Z" fill="#FFD250"/>
<path d="M683.042 1110.14V1109.98V1110.14V1110.14ZM683.042 1109.98L683.46 1109.88C682.78 1109.56 681.942 1109.35 680.999 1109.2C679.113 1108.93 676.704 1109.2 673.981 1109.88C671.258 1110.56 668.167 1111.76 664.921 1113.39C658.374 1116.64 651.146 1121.61 644.128 1128.01C641.667 1130.21 639.415 1132.51 637.32 1134.77L645.804 1145.25C648.109 1142.73 650.57 1140.22 653.294 1137.75C656.907 1134.45 660.573 1131.52 664.187 1129C667.696 1126.54 671.205 1124.44 674.505 1122.77L673.038 1116.06L673.091 1112.29L673.038 1112.24L676.128 1111.29L682.151 1114.38L681.994 1112.29L683.041 1109.98" fill="#4D9ED7"/>
<path d="M683.048 1110.08L681.984 1112.4L682.144 1114.55L683.633 1115.28L683.048 1110.08ZM680.867 1116.76L687.25 1119.85L684.803 1121.22L680.867 1116.76V1116.76ZM687.25 1115.02L687.835 1119.49L690.122 1118.33L687.25 1115.02H687.25Z" fill="#132134"/>
<path d="M710.859 1113.41H712.014C713.064 1113.41 714.062 1113.56 715.007 1113.77C715.059 1113.77 715.112 1113.77 715.164 1113.83H715.217L715.322 1113.88H715.427C715.322 1113.83 715.217 1113.72 715.112 1113.67C714.062 1113.25 712.959 1112.99 711.804 1112.83C706.134 1112.09 699.624 1114.19 695.949 1115.66C695.739 1115.77 695.529 1115.82 695.319 1115.93C695.004 1116.08 694.689 1116.19 694.374 1116.35C693.849 1116.56 693.324 1116.82 692.747 1117.08C692.642 1117.14 692.589 1117.14 692.484 1117.19C692.169 1117.35 691.802 1117.5 691.487 1117.66C691.487 1117.66 691.434 1117.66 691.434 1117.71L691.119 1117.87C691.067 1117.87 691.014 1117.92 691.014 1117.92H690.804L690.752 1117.98C690.489 1118.08 690.279 1118.19 690.017 1118.34H689.964C689.912 1118.4 689.859 1118.4 689.807 1118.45H689.754C689.702 1118.45 689.649 1118.5 689.649 1118.5C689.281 1118.71 688.914 1118.87 688.546 1119.08C688.284 1119.24 688.021 1119.34 687.759 1119.5H687.706C687.496 1119.6 687.339 1119.71 687.129 1119.81C686.499 1120.13 685.921 1120.5 685.291 1120.86C685.239 1120.92 685.186 1120.92 685.081 1120.97C685.029 1121.02 684.976 1121.02 684.924 1121.08C684.871 1121.13 684.819 1121.13 684.766 1121.18L684.714 1121.23C684.294 1121.5 683.874 1121.71 683.454 1121.97C683.349 1122.02 683.244 1122.07 683.139 1122.18C682.876 1122.34 682.561 1122.55 682.299 1122.7L682.194 1122.76L682.089 1122.81L679.726 1124.38C678.414 1125.28 677.154 1126.17 675.894 1127.12C675.736 1127.22 675.579 1127.38 675.421 1127.48C672.114 1129.95 668.964 1132.63 665.919 1135.36C662.716 1138.31 659.618 1141.3 656.731 1144.35C655.156 1145.92 653.791 1147.34 652.741 1148.5C650.536 1150.86 649.328 1152.33 649.381 1152.39C649.381 1152.39 649.591 1152.23 649.958 1151.86C649.696 1152.17 649.381 1152.54 649.118 1152.86C653.949 1147.71 659.251 1142.46 664.974 1137.52C668.439 1134.52 672.061 1131.63 675.789 1128.96C677.416 1127.8 679.096 1126.64 680.776 1125.54C681.301 1125.17 681.879 1124.86 682.404 1124.49C682.666 1124.33 682.929 1124.17 683.244 1124.02C683.401 1123.91 683.559 1123.81 683.716 1123.75C684.031 1123.6 684.294 1123.39 684.609 1123.23C684.871 1123.07 685.186 1122.91 685.449 1122.7C685.606 1122.6 685.764 1122.55 685.921 1122.44L687.024 1121.81C687.234 1121.71 687.444 1121.55 687.654 1121.44C688.336 1121.08 689.019 1120.71 689.754 1120.34C689.807 1120.29 689.859 1120.29 689.912 1120.23L690.227 1120.08C690.384 1120.02 690.489 1119.92 690.647 1119.87C690.699 1119.81 690.752 1119.81 690.804 1119.76L691.119 1119.6C691.119 1119.6 691.172 1119.6 691.172 1119.55H691.224C691.539 1119.39 691.854 1119.24 692.117 1119.13C692.169 1119.13 692.222 1119.08 692.274 1119.03L692.589 1118.87C692.957 1118.71 693.272 1118.55 693.639 1118.4C693.744 1118.34 693.849 1118.29 693.902 1118.24C693.954 1118.24 694.007 1118.19 694.059 1118.19C694.164 1118.13 694.269 1118.08 694.374 1118.08C694.794 1117.92 695.162 1117.71 695.582 1117.56C695.949 1117.4 696.264 1117.24 696.632 1117.08C698.627 1116.24 700.464 1115.56 702.197 1114.98C705.452 1114.09 708.339 1113.51 710.859 1113.41" fill="white"/>
</g>
<g filter="url(#filter4_d)">
<path d="M219.426 1060.74C281.052 1060.74 331.01 1010.78 331.01 949.158C331.01 887.532 281.052 837.574 219.426 837.574C157.8 837.574 107.842 887.532 107.842 949.158C107.842 1010.78 157.8 1060.74 219.426 1060.74Z" fill="#F8F8F8"/>
<path d="M219.426 1057.74C279.396 1057.74 328.011 1009.13 328.011 949.158C328.011 889.188 279.396 840.572 219.426 840.572C159.456 840.572 110.841 889.188 110.841 949.158C110.841 1009.13 159.456 1057.74 219.426 1057.74Z" stroke="white" stroke-width="1.66841"/>
<path d="M281.882 965.664L227.792 1019.76C222.857 1024.69 214.853 1024.69 209.918 1019.76C204.978 1014.82 204.984 1006.82 209.918 1001.88L264.014 947.785C268.948 942.85 276.953 942.85 281.887 947.785C286.822 952.725 286.822 960.724 281.882 965.664V965.664Z" fill="#FBBC04"/>
<path d="M227.787 1019.77C232.722 1014.83 232.722 1006.83 227.787 1001.9C222.851 996.963 214.85 996.963 209.915 1001.9C204.98 1006.83 204.98 1014.83 209.915 1019.77C214.85 1024.71 222.851 1024.71 227.787 1019.77Z" fill="#34A853"/>
<path d="M237.395 921.165L210.35 948.206L228.22 966.076L255.265 939.036C260.198 934.102 260.198 926.099 255.265 921.165C250.326 916.226 242.329 916.226 237.395 921.165V921.165Z" fill="#FBBC04"/>
<path d="M201.165 993.135L228.208 966.093L210.336 948.221L183.293 975.264C178.359 980.198 178.359 988.201 183.293 993.135C188.228 998.07 196.231 998.07 201.165 993.135L201.165 993.135Z" fill="#3B80EF"/>
<path d="M228.256 966.024C233.191 961.089 233.191 953.087 228.256 948.152C223.321 943.217 215.319 943.217 210.384 948.152C205.449 953.087 205.449 961.089 210.384 966.024C215.319 970.959 223.321 970.959 228.256 966.024Z" fill="#34A853"/>
<path d="M228.641 912.413L174.545 966.509C169.61 971.443 161.606 971.443 156.671 966.509C151.737 961.574 151.737 953.57 156.671 948.635L210.768 894.539C215.702 889.604 223.707 889.604 228.641 894.539C233.576 899.473 233.576 907.478 228.641 912.412V912.413Z" fill="#3B80EF"/>
<path d="M219.692 916.138C226.678 916.138 232.342 910.474 232.342 903.488C232.342 896.501 226.678 890.838 219.692 890.838C212.706 890.838 207.042 896.501 207.042 903.488C207.042 910.474 212.706 916.138 219.692 916.138Z" fill="#34A853"/>
</g>
<g filter="url(#filter5_d)">
<path d="M1146.87 1060.74C1208.49 1060.74 1258.45 1010.78 1258.45 949.158C1258.45 887.532 1208.49 837.574 1146.87 837.574C1085.24 837.574 1035.28 887.532 1035.28 949.158C1035.28 1010.78 1085.24 1060.74 1146.87 1060.74Z" fill="#F8F8F8"/>
<path d="M1146.87 1057.24C1206.56 1057.24 1254.95 1008.85 1254.95 949.155C1254.95 889.462 1206.56 841.07 1146.87 841.07C1087.17 841.07 1038.78 889.462 1038.78 949.155C1038.78 1008.85 1087.17 1057.24 1146.87 1057.24Z" stroke="white" stroke-width="1.94648"/>
<path d="M1112.12 900.764L1077.44 923.003L1112.12 944.916L1146.8 923.003L1112.12 900.764ZM1181.49 900.764L1146.8 923.003L1181.49 944.916L1216.17 923.003L1181.49 900.764ZM1077.44 967.155L1112.12 989.395L1146.8 967.155L1112.12 944.916L1077.44 967.155ZM1181.49 944.916L1146.8 967.155L1181.49 989.395L1216.17 967.155L1181.49 944.916ZM1112.12 996.59L1146.8 1018.83L1181.49 996.59L1146.8 974.677L1112.12 996.59V996.59Z" fill="#0062FF"/>
</g>
<g filter="url(#filter6_d)">
<path d="M208.642 568.263C270.268 568.263 320.226 518.306 320.226 456.68C320.226 395.053 270.268 345.096 208.642 345.096C147.016 345.096 97.0579 395.053 97.0579 456.68C97.0579 518.306 147.016 568.263 208.642 568.263Z" fill="#F8F8F8"/>
<path d="M165.814 513.18L143.013 473.67L185.694 399.648L208.495 439.158L165.814 513.18Z" fill="#0DA960"/>
<path d="M165.814 513.18L188.615 473.67H273.977L251.176 513.18H165.814Z" fill="url(#paint1_radial)"/>
<path d="M273.976 473.67H228.374L185.693 399.648H231.295L273.976 473.67Z" fill="url(#paint2_radial)"/>
<path d="M208.495 473.67H188.615L198.508 456.414L165.814 513.18L208.495 473.67Z" fill="#2D6FDD"/>
<path d="M228.374 473.67H273.976L218.481 456.414L228.374 473.67Z" fill="#E5B93C"/>
<path d="M198.507 456.414L208.494 439.158L185.693 399.648L198.507 456.414Z" fill="#0C9B57"/>
<path d="M208.642 563.265C267.507 563.265 315.227 515.545 315.227 456.68C315.227 397.814 267.507 350.094 208.642 350.094C149.776 350.094 102.056 397.814 102.056 456.68C102.056 515.545 149.776 563.265 208.642 563.265Z" stroke="white" stroke-width="2.78068"/>
</g>
<g filter="url(#filter7_d)">
<path d="M679.552 284.279C741.178 284.279 791.136 234.321 791.136 172.695C791.136 111.069 741.178 61.1113 679.552 61.1113C617.926 61.1113 567.969 111.069 567.969 172.695C567.969 234.321 617.926 284.279 679.552 284.279Z" fill="#F8F8F8"/>
<path d="M679.552 279.029C738.28 279.029 785.888 231.421 785.888 172.693C785.888 113.966 738.28 66.3574 679.552 66.3574C620.825 66.3574 573.217 113.966 573.217 172.693C573.217 231.421 620.825 279.029 679.552 279.029Z" stroke="white" stroke-width="2.91972"/>
<path d="M663.099 109.113C656.283 109.118 650.767 114.655 650.772 121.477C650.767 128.299 656.289 133.836 663.104 133.841H675.436V121.482C675.441 114.66 669.92 109.123 663.099 109.113C663.104 109.113 663.104 109.113 663.099 109.113V109.113ZM663.099 142.09H630.224C623.408 142.095 617.887 147.632 617.892 154.454C617.882 161.277 623.403 166.813 630.219 166.823H663.099C669.915 166.818 675.436 161.282 675.431 154.459C675.436 147.632 669.915 142.096 663.099 142.09V142.09Z" fill="#36C5F0"/>
<path d="M741.084 154.454C741.088 147.632 735.567 142.095 728.75 142.09C721.934 142.095 716.412 147.632 716.417 154.454V166.823H728.75C735.567 166.818 741.088 161.282 741.084 154.454ZM708.2 154.454V121.477C708.205 114.66 702.688 109.123 695.872 109.113C689.056 109.118 683.534 114.655 683.539 121.477V154.454C683.529 161.277 689.051 166.813 695.867 166.823C702.684 166.818 708.205 161.282 708.2 154.454V154.454Z" fill="#2EB67D"/>
<path d="M695.872 232.8C702.688 232.795 708.209 227.259 708.204 220.437C708.209 213.615 702.687 208.079 695.872 208.074H683.54V220.437C683.535 227.254 689.056 232.79 695.872 232.8ZM695.872 199.82H728.752C735.568 199.815 741.089 194.279 741.084 187.458C741.094 180.636 735.573 175.1 728.757 175.09H695.877C689.061 175.095 683.54 180.631 683.545 187.453C683.54 194.279 689.056 199.815 695.872 199.82Z" fill="#ECB22E"/>
<path d="M617.892 187.454C617.887 194.276 623.409 199.813 630.225 199.817C637.041 199.813 642.563 194.276 642.558 187.454V175.09H630.225C623.409 175.095 617.887 180.631 617.892 187.454ZM650.775 187.454V220.431C650.765 227.253 656.287 232.79 663.103 232.8C669.92 232.795 675.441 227.258 675.436 220.436V187.464C675.446 180.641 669.925 175.105 663.108 175.095C656.287 175.095 650.77 180.631 650.775 187.454C650.775 187.454 650.775 187.459 650.775 187.454V187.454Z" fill="#E01E5A"/>
</g>
<defs>
<filter id="filter0_d" x="148.929" y="141.064" width="1075.04" height="1075.04" filterUnits="userSpaceOnUse" color-interpolation-filters="sRGB">
<feFlood flood-opacity="0" result="BackgroundImageFix"/>
<feColorMatrix in="SourceAlpha" type="matrix" values="0 0 0 0 0 0 0 0 0 0 0 0 0 0 0 0 0 0 127 0"/>
<feOffset dy="2.91892"/>
<feGaussianBlur stdDeviation="4.61975"/>
<feColorMatrix type="matrix" values="0 0 0 0 0.0280315 0 0 0 0 0.273587 0 0 0 0 0.641921 0 0 0 0.12 0"/>
<feBlend mode="normal" in2="BackgroundImageFix" result="effect1_dropShadow"/>
<feBlend mode="normal" in="SourceGraphic" in2="effect1_dropShadow" result="shape"/>
</filter>
<filter id="filter1_d" x="475.946" y="467.499" width="425.179" height="425.179" filterUnits="userSpaceOnUse" color-interpolation-filters="sRGB">
<feFlood flood-opacity="0" result="BackgroundImageFix"/>
<feColorMatrix in="SourceAlpha" type="matrix" values="0 0 0 0 0 0 0 0 0 0 0 0 0 0 0 0 0 0 127 0"/>
<feOffset dy="2.33577"/>
<feGaussianBlur stdDeviation="4.67155"/>
<feColorMatrix type="matrix" values="0 0 0 0 0.0337141 0 0 0 0 0.325004 0 0 0 0 0.593886 0 0 0 0.12 0"/>
<feBlend mode="normal" in2="BackgroundImageFix" result="effect1_dropShadow"/>
<feBlend mode="normal" in="SourceGraphic" in2="effect1_dropShadow" result="shape"/>
</filter>
<filter id="filter2_d" x="1025.94" y="338.088" width="241.854" height="241.854" filterUnits="userSpaceOnUse" color-interpolation-filters="sRGB">
<feFlood flood-opacity="0" result="BackgroundImageFix"/>
<feColorMatrix in="SourceAlpha" type="matrix" values="0 0 0 0 0 0 0 0 0 0 0 0 0 0 0 0 0 0 127 0"/>
<feOffset dy="2.33577"/>
<feGaussianBlur stdDeviation="4.67155"/>
<feColorMatrix type="matrix" values="0 0 0 0 0.0337141 0 0 0 0 0.325004 0 0 0 0 0.593886 0 0 0 0.12 0"/>
<feBlend mode="normal" in2="BackgroundImageFix" result="effect1_dropShadow"/>
<feBlend mode="normal" in="SourceGraphic" in2="effect1_dropShadow" result="shape"/>
</filter>
<filter id="filter3_d" x="561.207" y="1055.38" width="236.69" height="236.69" filterUnits="userSpaceOnUse" color-interpolation-filters="sRGB">
<feFlood flood-opacity="0" result="BackgroundImageFix"/>
<feColorMatrix in="SourceAlpha" type="matrix" values="0 0 0 0 0 0 0 0 0 0 0 0 0 0 0 0 0 0 127 0"/>
<feOffset dy="1.69035"/>
<feGaussianBlur stdDeviation="3.38069"/>
<feColorMatrix type="matrix" values="0 0 0 0 0.0352941 0 0 0 0 0.356863 0 0 0 0 0.65098 0 0 0 0.12 0"/>
<feBlend mode="normal" in2="BackgroundImageFix" result="effect1_dropShadow"/>
<feBlend mode="normal" in="SourceGraphic" in2="effect1_dropShadow" result="shape"/>
</filter>
<filter id="filter4_d" x="101.168" y="832.569" width="236.515" height="236.515" filterUnits="userSpaceOnUse" color-interpolation-filters="sRGB">
<feFlood flood-opacity="0" result="BackgroundImageFix"/>
<feColorMatrix in="SourceAlpha" type="matrix" values="0 0 0 0 0 0 0 0 0 0 0 0 0 0 0 0 0 0 127 0"/>
<feOffset dy="1.66841"/>
<feGaussianBlur stdDeviation="3.33682"/>
<feColorMatrix type="matrix" values="0 0 0 0 0.0352941 0 0 0 0 0.32549 0 0 0 0 0.592157 0 0 0 0.12 0"/>
<feBlend mode="normal" in2="BackgroundImageFix" result="effect1_dropShadow"/>
<feBlend mode="normal" in="SourceGraphic" in2="effect1_dropShadow" result="shape"/>
</filter>
<filter id="filter5_d" x="1027.5" y="831.735" width="238.74" height="238.74" filterUnits="userSpaceOnUse" color-interpolation-filters="sRGB">
<feFlood flood-opacity="0" result="BackgroundImageFix"/>
<feColorMatrix in="SourceAlpha" type="matrix" values="0 0 0 0 0 0 0 0 0 0 0 0 0 0 0 0 0 0 127 0"/>
<feOffset dy="1.94648"/>
<feGaussianBlur stdDeviation="3.89296"/>
<feColorMatrix type="matrix" values="0 0 0 0 0.0352941 0 0 0 0 0.32549 0 0 0 0 0.592157 0 0 0 0.12 0"/>
<feBlend mode="normal" in2="BackgroundImageFix" result="effect1_dropShadow"/>
<feBlend mode="normal" in="SourceGraphic" in2="effect1_dropShadow" result="shape"/>
</filter>
<filter id="filter6_d" x="85.9351" y="336.754" width="245.413" height="245.413" filterUnits="userSpaceOnUse" color-interpolation-filters="sRGB">
<feFlood flood-opacity="0" result="BackgroundImageFix"/>
<feColorMatrix in="SourceAlpha" type="matrix" values="0 0 0 0 0 0 0 0 0 0 0 0 0 0 0 0 0 0 127 0"/>
<feOffset dy="2.78068"/>
<feGaussianBlur stdDeviation="5.56137"/>
<feColorMatrix type="matrix" values="0 0 0 0 0.0352941 0 0 0 0 0.32549 0 0 0 0 0.592157 0 0 0 0.12 0"/>
<feBlend mode="normal" in2="BackgroundImageFix" result="effect1_dropShadow"/>
<feBlend mode="normal" in="SourceGraphic" in2="effect1_dropShadow" result="shape"/>
</filter>
<filter id="filter7_d" x="556.29" y="52.3522" width="246.525" height="246.525" filterUnits="userSpaceOnUse" color-interpolation-filters="sRGB">
<feFlood flood-opacity="0" result="BackgroundImageFix"/>
<feColorMatrix in="SourceAlpha" type="matrix" values="0 0 0 0 0 0 0 0 0 0 0 0 0 0 0 0 0 0 127 0"/>
<feOffset dy="2.91972"/>
<feGaussianBlur stdDeviation="5.83944"/>
<feColorMatrix type="matrix" values="0 0 0 0 0.0352941 0 0 0 0 0.32549 0 0 0 0 0.592157 0 0 0 0.12 0"/>
<feBlend mode="normal" in2="BackgroundImageFix" result="effect1_dropShadow"/>
<feBlend mode="normal" in="SourceGraphic" in2="effect1_dropShadow" result="shape"/>
</filter>
<linearGradient id="paint0_linear" x1="1130.51" y1="460.452" x2="1105.09" y2="504.487" gradientUnits="userSpaceOnUse">
<stop stop-color="#0052CC"/>
<stop offset="0.923" stop-color="#2684FF"/>
</linearGradient>
<radialGradient id="paint1_radial" cx="0" cy="0" r="1" gradientUnits="userSpaceOnUse" gradientTransform="translate(194.043 572.383) rotate(57.7002) scale(413.626 157.532)">
<stop stop-color="#4387FD"/>
<stop offset="0.65" stop-color="#3078F0"/>
<stop offset="0.9099" stop-color="#2B72EA"/>
<stop offset="1" stop-color="#286EE6"/>
</radialGradient>
<radialGradient id="paint2_radial" cx="0" cy="0" r="1" gradientUnits="userSpaceOnUse" gradientTransform="translate(259.849 572.4) rotate(34.5733) scale(268.402 242.734)">
<stop stop-color="#FFD24D"/>
<stop offset="1" stop-color="#F6C338"/>
</radialGradient>
<clipPath id="clip0">
<rect width="215.684" height="215.684" fill="white" transform="translate(538.614 638.924) rotate(-31)"/>
</clipPath>
</defs>
</svg>
