<svg xmlns="http://www.w3.org/2000/svg" width="563" height="339" viewBox="0 0 563 339">
    <g fill="none" fill-rule="evenodd">
        <path fill="#F5F7FF" d="M187.241 15.216c-42.981-.887-82.943 17.649-95.48 52.484-7.409 20.59-6.297 45.254-20.358 61.763-13.91 16.332-38.092 18.934-53.886 33.335C5.064 174.15-.722 192.01.072 209.116c.794 17.107 7.593 33.47 16.924 47.645 29.442 44.732 86.273 68.357 137.62 57.206 34.206-7.428 66.15-28.736 101.032-26.332 29.522 2.034 55.107 20.721 82.634 31.897 51.763 21.018 113.375 14.13 159.552-17.835 18.331-12.69 34.65-29.656 42.566-50.89 7.916-21.234 6.136-47.123-8.137-64.48-14.497-17.631-40.794-33.972-74.636-28.534-22.165 3.562-66.143 28.629-105.995 22.05-22.152-3.657-75.186-9.914-79.096-92.173-1.61-33.876-27-71.251-85.295-72.454" transform="translate(0 .31)"/>
        <path fill="#FFFCF0" d="M41.804 100.893c2.581 5.05 8.611 7.811 14.273 7.37 5.66-.441 10.848-3.692 14.53-8.008 3.218-3.769 5.478-8.966 3.88-13.655-1.876-5.506-8.524-8.178-14.304-7.455-9.48 1.187-24.259 10.242-18.379 21.748M411.334 22.41c2.581 5.05 8.611 7.81 14.272 7.37 5.66-.442 10.848-3.693 14.532-8.008 3.217-3.77 5.477-8.967 3.88-13.655-1.877-5.506-8.526-8.178-14.305-7.455-9.481 1.186-24.259 10.24-18.379 21.747" transform="translate(0 .31)"/>
        <path fill="#FFF4E5" d="M536.794 235.367c-5.86 2.953-9.084 9.899-8.601 16.434.483 6.535 4.22 12.538 9.198 16.81 4.347 3.73 10.352 6.365 15.788 4.544 6.382-2.139 9.509-9.798 8.7-16.471-1.326-10.947-11.736-28.046-25.085-21.317" transform="translate(0 .31)"/>
        <path fill="#FFFCF0" d="M80.824 1.149c-3.9 1.121-6.476 4.713-6.701 8.412-.225 3.698 1.627 7.392 4.394 10.232 2.417 2.479 5.958 4.495 9.502 3.968 4.162-.618 6.733-4.619 6.766-8.424.053-6.242-5.074-16.744-13.96-14.188M13.494 135.152c-2.727.641-4.49 2.823-4.6 5.1-.11 2.28 1.24 4.582 3.224 6.37 1.731 1.56 4.247 2.85 6.731 2.572 2.917-.328 4.673-2.762 4.645-5.108-.044-3.849-3.787-10.394-10-8.934M30.11 43.323c2.044-1.914 2.483-4.683 1.441-6.712-1.043-2.03-3.364-3.353-5.975-3.915-2.28-.491-5.105-.357-7.119 1.121-2.366 1.736-2.672 4.72-1.476 6.74 1.96 3.315 8.473 7.124 13.129 2.766" transform="translate(0 .31)"/>
        <path fill="#FFF4E5" d="M194.584 38.287c-3.9 1.122-6.476 4.714-6.701 8.412-.226 3.699 1.626 7.393 4.394 10.232 2.416 2.48 5.958 4.496 9.501 3.97 4.162-.619 6.734-4.62 6.766-8.425.054-6.242-5.074-16.745-13.96-14.189M27.174 260.441c-.485-2.494-2.59-4.299-4.89-4.644-2.302-.344-4.716.606-6.644 2.175-1.685 1.37-3.142 3.467-3.007 5.706.156 2.629 2.517 4.453 4.894 4.685 3.902.378 10.755-2.24 9.647-7.922M356.634 158.389c-1.807 3.628-.896 7.952 1.684 10.616 2.579 2.665 6.558 3.797 10.523 3.679 3.464-.104 7.345-1.348 9.35-4.313 2.356-3.481 1.14-8.077-1.648-10.671-4.572-4.257-15.792-7.579-19.909.689" transform="translate(0 .31)"/>
        <path fill="#F9B800" d="M479.621 60.418h49.384V25.795h-49.384v34.623zm0 41.43h49.384V67.225h-49.384v34.623zm0 41.432h49.384v-34.624h-49.384v34.624zm0 41.429h49.384v-34.623h-49.384v34.623zm0 41.431h49.384v-34.623h-49.384v34.623zm-49.384 0h42.567v-34.623h-42.567v34.623zm-56.203 0h49.385v-34.623h-49.385v34.623zm0-41.43h49.385v-34.623h-49.385v34.623zm0-41.43h49.385v-34.624h-49.385v34.624zm0-41.43h49.385V67.225h-49.385v34.623zm0-41.431h49.385V25.796h-49.385v34.623zm56.203 124.29h42.567v-34.623h-42.567v34.623zm0-41.43h42.567v-34.623h-42.567v34.624zm0-41.43h42.567V67.224h-42.567v34.623zm0-41.431h42.567V25.795h-42.567v34.623zm98.768-41.43H367.217V232.947H535.823V18.988h-6.818z" transform="translate(0 .31)"/>
        <path fill="#F6F1DF" d="M553.86 314.453c0 6.896-27.54 12.486-61.514 12.486-33.974 0-61.515-5.59-61.515-12.486 0-6.895 27.541-12.486 61.515-12.486 33.974 0 61.514 5.59 61.514 12.486" transform="translate(0 .31)"/>
        <path fill="#96B6B2" d="M528.545 52.408s-9.833 13.37-7.568 24.94c2.447 12.49 11.124 27.491-5.613 38.772-16.736 11.28-21.177 17.04-21.177 17.04s-13.97-27.484-6.857-41.271c7.113-13.787 11.317-9.602 20.921-17.547 7.323-6.058 11.088-21.516 20.294-21.934" transform="translate(0 .31)"/>
        <path fill="#96B6B2" d="M519.3 75.256c-2.992 2.06-4.626 6.08-6.271 9.16-2.75 5.149-5.536 10.26-7.811 15.64-2.285 5.401-4.48 11.269-5.34 17.097-.345 2.337-.337 4.733-.462 7.095.98-1.103 4.699-4.926 14.274-11.38 11.508-7.755 5.541-18.07 3.86-26.657-.732-3.74.374-7.752 1.75-10.955M545.072 105.675s-6.475 13.84-7.113 24.65c-.749 12.704 3.975 24.23-12.761 35.51-16.738 11.28-19.876 14.414-19.876 14.414s-5.858-22.77-1.256-34.675c5.595-14.469 9.684-13.138 19.288-21.083 7.323-6.058 12.513-18.398 21.718-18.816" transform="translate(0 .31)"/>
        <path fill="#96B6B2" d="M531.895 140.03c.492-5.178 4.868-17.532 6.353-20.842-4.713 5.44-13.602 19.572-18.16 29.357-3.628 7.79-7.363 16.546-9.043 23.142 2.126-1.482 5.568-3.773 11.05-7.186 11.966-7.456 8.958-15.62 9.8-24.47M425.444 103.55s5.764 13.095 18.295 19.337c12.99 6.469 25.52 17.647 28.657 34.907-10.92-6.466-20.394-1.273-36.287-7.33-15.636-5.96-23.78-33.209-10.665-46.914" transform="translate(0 .31)"/>
        <path fill="#96B6B2" d="M446.462 137.337c5.736 2.707 12.238 4.887 17.675 8.35-4.537-9.054-12.498-15.377-20.685-19.454-5.518-2.75-9.461-7.09-11.957-10.577-.203 10.163 5.93 17.415 14.967 21.68" transform="translate(0 .31)"/>
        <path fill="#6B9A84" d="M489.212 212.296c-.3 0-.552-.23-.575-.531-3.867-51.117-22.226-59.676-31.05-63.79-18.392-8.574-23.943-11.163-30.265-24.719-.135-.287-.01-.63.28-.764.288-.135.63-.01.765.279 6.145 13.176 11.137 15.503 29.71 24.16 13.742 6.409 28.257 19.111 31.71 64.746.024.317-.213.594-.53.62h-.045M494.186 212.296c-.294 0-.545-.224-.573-.522-1.306-14.105-2.033-49.286-.001-78.653 2.032-29.363 18.395-52.955 18.561-53.19.183-.261.546-.325.802-.142.26.183.323.542.14.802-.162.233-16.343 23.575-18.353 52.608-2.028 29.308-1.304 64.402 0 78.469.029.316-.204.597-.523.626-.017.002-.035.002-.053.002M500.648 212.296c-.303 0-.557-.236-.574-.544-.011-.206-.227-5.384 4.682-31.608 4.918-26.286 26.178-55.371 26.394-55.661.189-.257.551-.311.805-.123.256.188.311.549.122.804-.211.29-21.318 29.167-26.188 55.191-4.854 25.938-4.667 31.285-4.664 31.337.015.315-.229.586-.547.602-.01.002-.02.002-.03.002" transform="translate(0 .31)"/>
        <path fill="#AB7349" d="M506.831 304.329L481.636 304.329 470.385 209.075 518.084 209.075z" transform="translate(0 .31)"/>
        <path fill="#FFCAD0" d="M468.014 241.383L521.013 241.383 521.013 237.484 468.014 237.484z" transform="translate(0 .31)"/>
        <path fill="#FFCAD0" d="M474.953 314.453L472.666 314.167 481.853 240.569 484.14 240.855zM514.073 314.453L504.885 240.855 507.172 240.569 516.361 314.167z" transform="translate(0 .31)"/>
        <path fill="#F6F1DF" d="M321.114 321.863c0 8.75-67.958 15.845-151.79 15.845-83.83 0-151.788-7.095-151.788-15.845s67.958-15.844 151.788-15.844c83.832 0 151.79 7.094 151.79 15.844" transform="translate(0 .31)"/>
        <path fill="#3F50B5" d="M90.58 121.124c-23.531 9.308-41.333 32.952-47.096 59.556-5.762 26.604-1.821 60.15 17.454 88.655 35.788 52.929 103.294 58.163 128.327 58.36 35.012.275 61.183-6.6 89.985-20.578 40.079-19.452 47.227-73.866 25.32-100.43-16.512-20.023-37.576-23.936-67.393-11.936-11.879 4.78-25.065 5.137-34.787-3.847-8.303-7.67-12.63-19.126-17.827-29.56-4.38-8.794-10.104-17.622-18.618-22.016-7.563-3.903-13.545-9.054-20.9-13.5-16.398-9.911-36.845-11.673-54.466-4.704" transform="translate(0 .31)"/>
        <path fill="#3042AD" d="M225.828 278.13c-2.507-4.385-9.175-6.185-15.033-5.713-5.857.473-11.26 2.684-16.805 4.307-5.676 1.661-11.42 3.084-18.557 3.333-5.829.202-8.588 15.138-.378 15.79 9.385.745 18.491 1.147 27.793.209 6.149-.621 12.531-1.524 17.528-4.542 4.995-3.017 8.09-8.768 5.452-13.383m-67.193 15.175c-6.073.541-14.83-2.416-20.16-5.099-14.238-7.168-6.128-19.87 7.867-12.783 3.37 1.706 7.269 2.29 11.001 3.688 3.71 1.388 5.745 13.796 1.292 14.194M80.465 223.29c.546 1.333 1.253 2.782 2.604 3.288 1.895.712 3.997-.977 4.522-2.93.525-1.955-.043-4.013-.546-5.973-8.156-31.796.682-65.53 24.407-88.25.607-.582 1.23-7.206-6.198-4.03-2.534 1.085-7.526 3.623-9.52 5.518-5.451 5.178-9.554 12.834-12.733 19.552-6.829 14.427-9.83 30.655-8.643 46.567.671 8.997 2.69 17.9 6.107 26.258M101.78 254.93c-3.075 2.527-5.137 6.249-5.65 10.192 1.232-4.047 5.131-6.83 9.226-7.911 4.094-1.08 8.412-.747 12.633-.407-4.768 3.227-7.235 9.51-5.934 15.113.922-4.583 4.388-8.571 8.803-10.128 1.836-.647 4.256-1.425 4.27-3.368.007-1.04-.763-1.907-1.537-2.602-6.304-5.648-15.09-6.411-21.81-.888M106.904 241.9c-4.73-5.575-12.862-8.934-20.404-7.715-3.451.557-6.205 2.189-7.543 4.467 2.04-2.106 6.325-2.552 10.425-1.878 2.104.346 4.183.944 6.236 1.658-7.248-.53-14.84 1.455-20.594 6.069-3.755 3.01-5.965 6.896-6.053 10.642 1.041-4 5.867-7.43 11.215-9.337 4.66-1.66 11.228-4.612 18.18-4.526-3.54 1.159-5.854 3.73-5.84 6.82.946-1.293 2.484-2.269 4.358-2.857-4.187 3.996-7.365 9.006-5.434 12.617.543-4.427 4.601-8.87 10.31-11.286 1.155-.489 2.49-1.039 3.527-1.68 1.197.031 2.237-.132 2.505-.874.232-.642-.307-1.434-.888-2.12" transform="translate(0 .31)"/>
        <path fill="#3042AD" d="M304.04 252.092c-7.302-7.18-14.604-14.358-21.907-21.536-3.238-3.185-6.683-6.49-11.07-7.677-7.747-2.096-15.457 2.98-21.758 7.943-3.568 2.81-7.17 2.151-10.71 2.428 4.79-14.273 3.404-30.915-3.717-41.094-8.854-12.66-20.151-15.133-36.142-7.547-6.37 3.023-13.441 3.248-18.655-2.431-4.452-4.85-6.772-12.093-9.56-18.69-2.349-5.56-5.419-11.141-9.984-13.919-4.056-2.467-7.264-5.724-11.209-8.535-8.794-6.267-19.76-7.38-29.208-2.973-12.619 5.884-22.166 20.832-25.257 37.653-3.09 16.82-.977 38.029 9.361 56.051 19.192 33.463 55.394 36.772 68.82 36.897 18.775.173 32.81-4.174 48.256-13.01 1.59-.911 3.074-1.956 4.473-3.092 1.265.983 4.092 1.933 4.98 2.843 1.836 1.882 2.966 4.327 3.966 6.757 3.077 7.478 5.253 15.327 6.466 23.322.796 5.252 1.211 10.683 3.481 15.487 2.271 4.805 6.984 8.939 12.296 8.638 5.038-.286 9.014-4.316 11.953-8.41 2.94-4.095 5.572-8.702 9.937-11.229 3.415-1.976 7.889-2.712 9.95-6.073 1.577-2.574 1.208-5.98 2.756-8.573 3.634-6.089 14.9-3.906 17.819-10.369 2.042-4.52-1.798-9.382-5.338-12.861" transform="translate(0 .31)"/>
        <path fill="#FC9576" d="M310.877 243.147s6.515 5.643 9.235 3.972c2.72-1.672 10.879-8.982 14.437-9.4 3.556-.419 10.25 4.178 7.32 7.31-2.928 3.134-26.777 21.307-29.288 21.725-2.51.419-12.947-10.943-12.947-10.943l11.243-12.664zM277.055 294.648s-.611 3.122 2.578 3.27c3.19.147 14.056-1.309 17.231.345 3.175 1.653 6.117 9.214 1.93 10.157-4.187.944-34.145 2.56-36.456 1.493-2.31-1.066-.093-13.964-.093-13.964l14.81-1.301z" transform="translate(0 .31)"/>
        <path fill="#C0A791" d="M265.299 216.342s22.595 70.187 23.71 76.871c1.117 6.684-30.404 16.155-33.752 10.862-3.348-5.29-18.69-64.894-19.805-66.008-1.116-1.115 14.784-31.194 29.847-21.725" transform="translate(0 .31)"/>
        <path fill="#C0A791" d="M289.01 293.213c-1.116-6.684-23.71-76.87-23.71-76.87-15.063-9.47-30.964 20.61-29.849 21.724.318.316 1.783 5.355 3.795 12.523.004-.01.006-.023.01-.036 1.073-3.889 10.468-10.543 12.912-11.436 10.955-4.005 19.218 22.258 26.963 62.1 5.835-2.405 10.312-5.412 9.879-8.005" transform="translate(0 .31)"/>
        <path fill="#FC9576" d="M204 168.576s12.146 17.011 17.086 14.483c4.941-2.528 12.274-17.546 15.621-17.268 3.347.279 3.208 11.279-4.742 19.148s-20.678 13.021-33.143 4.735c-12.464-8.286-5.91-15.667-5.91-15.667l11.088-5.43z" transform="translate(0 .31)"/>
        <path fill="#FC9576" d="M204 168.576s12.146 17.011 17.086 14.483c4.941-2.528 12.274-17.546 15.621-17.268 3.347.279 3.208 11.279-4.742 19.148s-20.678 13.021-33.143 4.735c-12.464-8.286-5.91-15.667-5.91-15.667l11.088-5.43z" transform="translate(0 .31)"/>
        <path fill="#F9B800" d="M101.857 193.158c-4.345-23.746 4.442-40.457 14.693-48.812 12.048-9.82 34.914-15.825 59.208-7.312C191.189 142.442 204 168.577 204 168.577l-11.088 5.43 12.135 32.17-1.883 40.315s-19.348 20.729-48.339 11.488c-39.32-12.532-47.716-36.114-52.968-64.822" transform="translate(0 .31)"/>
        <path fill="#F2E5C0" d="M135.589 168.158s22.105 17.756 22.036 21.516c0 0-13.25-24.022-18.06-25.694-4.814-1.67-14.437 0-14.437 0s7.704 1.924 10.46 4.178M106.3 184.452s16.736 50.342 86.612 27.156c0 0-11.925 22.142-47.7 19.217-22.413-1.832-41.842-23.604-38.913-46.373" opacity=".203" transform="translate(0 .31)"/>
        <path fill="#FC9576" d="M153.371 126.38l4.254 12.116s-7.6 8.878-15.028 0l-3.033-11.07s10.356-3.76 13.807-1.045" transform="translate(0 .31)"/>
        <path fill="#FC9576" d="M153.195 132.046c.566-.45 1.148-.853 1.743-1.205l-1.567-4.46c-3.451-2.715-13.808 1.045-13.808 1.045l3.034 11.07c1.668 1.994 3.344 3.088 4.942 3.592.77-3.863 2.39-7.441 5.656-10.042" transform="translate(0 .31)"/>
        <path fill="#FC9576" d="M156.942 109.708s2.357 9.988-1.688 16.986c-1.935 3.35-5.3 3.03-12.323 2.115-5.549-.721-9.733-3.416-10.899-9.74-1.465-7.937 2.13-13.24 6.206-14.274 9.345-2.367 9.205 6.824 18.704 4.913" transform="translate(0 .31)"/>
        <path fill="#698C99" d="M235.033 125.384c.268.075 14.506 3.503 14.506 4.757 0 1.253-20.023 45.398-21.48 46.315-1.455.918-10.74-8.576-11.157-9.133-.419-.557 15.182-42.766 18.131-41.94" transform="translate(0 .31)"/>
        <path fill="#698C99" d="M234.997 126.855c.22.063 11.31 2.819 11.31 3.876 0 1.056-18.508 42.98-19.897 42.7-.827-.165-7.723-6.373-8.064-6.843-.341-.469 14.247-40.43 16.651-39.733" transform="translate(0 .31)"/>
        <path fill="#C0A791" d="M167.609 260.308c.339.937 38.33 5.61 57.577-12.493 19.247-18.104 30.126-29.244 34.031-28.687 3.906.556 29.29 42.613 33.195 46.233 3.906 3.621 20.363-17.825 23.71-27.573 0 0-33.472-48.113-50.488-55.146-11.137-4.603-44.912 1.53-68.9 22.282-23.99 20.748-33.106 44.39-29.125 55.384" transform="translate(0 .31)"/>
        <path fill="#C0A791" d="M214.15 249.555c-7.7 2.275-16.15 4.108-23.786.68-7.453-3.345-11.365-11.195-9.519-19.193 1.992-8.625 8.894-14.748 15.626-19.925 7.115-5.471 14.181-10.453 20.337-17.058 1.266-1.36 2.496-2.752 3.71-4.156-8.226 3.72-16.462 8.686-23.785 15.02-23.989 20.75-33.106 44.39-29.125 55.384.34.937 38.33 5.612 57.579-12.492 1.56-1.469 3.062-2.887 4.515-4.263-5.021 2.416-10.248 4.436-15.552 6.003M274.82 239.6c7.643 11.48 15.55 23.87 17.592 25.761 1.538 1.426 5.025-1.043 8.889-5.147-8.468-7.282-18.189-13.142-26.481-20.613" transform="translate(0 .31)"/>
        <path fill="#F2E5DB" d="M329.447 235.264c-2.363 3.295.811 12.791 4.881 16.404 0 0-21.01 22.63-21.913 23.188-.903.558 1.642 3.415 4.09.935s31.055-28.88 33.445-39.237c0 0-12.809-12.02-20.503-1.29M299.649 293.706c-3.998.707-8.375 9.712-7.995 15.138 0 0-30.867 1.515-31.904 1.283-1.036-.23-1.217 3.587 2.27 3.523 3.486-.064 42.426 1.027 51.386-4.71 0 0-.743-17.536-13.757-15.234" transform="translate(0 .31)"/>
        <path fill="#551610" d="M139.878 77.849c3.312-1.792 11.61-.975 16.423 2.159 4.811 3.133 4.393-4.597 10.879-3.342 6.485 1.253 11.715 3.76 9.832 7.102-1.882 3.342 2.093 1.044 1.883 5.848-.21 4.804-2.301 8.356-4.812 9.191-2.51.836-3.556 2-5.021 5.596-1.464 3.596-13.111 10.907-20.468 4.222-7.357-6.684-11.332-2.298-12.168-.835-.837 1.461-.629 3.76-3.138 6.476-2.512 2.715-4.394 3.759-2.93 7.102 1.465 3.342-8.159 1.812-11.716-3.76-5.962-1.814-7.566-11.445-1.569-14.31-1.534-4.481-2.92-6.759-1.847-11.732 1.051-4.874 6.004-10.386 10.878-8.495 8.44 3.273 10.23-3.305 13.774-5.222" transform="translate(0 .31)"/>
        <path fill="#ACBAB8" d="M139.878 77.849c-.418-1.56-9.93-.29-12.525 3.546-1.937 2.865-8.082 14.174-3.061 28.745 0 0 6.17-1.41 8.054-1.933-2.178-13.577 1.541-24.892 7.532-30.358" transform="translate(0 .31)"/>
        <path fill="#ACBAB8" d="M142.812 116.513c.97 6.578-2.875 12.592-8.588 13.43-5.711.84-11.128-3.812-12.097-10.39-.97-6.58 2.874-12.593 8.587-13.432 5.712-.84 11.128 3.814 12.098 10.392" transform="translate(0 .31)"/>
        <path fill="#ACBAB8" d="M142.812 116.513c.97 6.578-2.875 12.592-8.588 13.43-5.711.84-11.128-3.812-12.097-10.39-.97-6.58 2.874-12.593 8.587-13.432 5.712-.84 11.128 3.814 12.098 10.392" transform="translate(0 .31)"/>
        <path fill="#ACBAB8" d="M140.817 116.806c.97 6.579-2.875 12.593-8.587 13.431-5.712.84-11.128-3.813-12.098-10.392-.97-6.578 2.875-12.591 8.587-13.43 5.712-.84 11.128 3.813 12.098 10.391" transform="translate(0 .31)"/>
        <path fill="#FC9576" d="M157.625 189.674s-9.412 23.06-13.946 26.36c0 0 36.89 7.48 58.857-11.11 21.968-18.592 26.779-30.707 29.708-31.752 2.929-1.045 14.645-8.147 12.971-17.756-1.674-9.609-10.042 6.685-12.134 4.387-2.092-2.297-3.347-7.312-5.23-2.297-1.884 5.012-1.884 8.773-5.231 11.489-3.347 2.715-26.222 31.124-64.995 20.68" transform="translate(0 .31)"/>
    </g>
</svg>
