<svg xmlns="http://www.w3.org/2000/svg" xmlns:xlink="http://www.w3.org/1999/xlink" width="427" height="390" viewBox="0 0 427 390">
    <defs>
        <path id="prefix__a" d="M0.847 0.819L33.334 0.819 33.334 38.727 0.847 38.727z"/>
        <path id="prefix__c" d="M0.847 0.819L33.334 0.819 33.334 38.727 0.847 38.727z"/>
        <path id="prefix__e" d="M0.848 0.903L29.274 0.903 29.274 24.496 0.848 24.496z"/>
        <path id="prefix__g" d="M0.847 95.037L66.838 95.037 66.838 0.819 0.847 0.819z"/>
        <path id="prefix__i" d="M28.45 5c-3.644.911-6.928 2.846-9.461 5.574-5 5.389-13.522 14.864-18.133 21.652C5.95 43.06 19.538 46.394 19.538 46.394l-.85 38.336 67.081.834s0-24.169.849-40.837c16.134-2.501 21.228-13.335 21.228-13.335L92.493 11.528c-2.328-3.012-5.52-5.267-9.17-6.478-4.705-1.56-11.473-3.31-16.386-2.829C62.69 7.222 50 5.557 47.453.556 46.294.556 35.35 3.274 28.45 5"/>
        <path id="prefix__k" d="M28.45 5c-3.644.911-6.928 2.846-9.461 5.574-5 5.389-13.522 14.864-18.133 21.652C5.95 43.06 19.538 46.394 19.538 46.394l-.85 38.336 67.081.834s0-24.169.849-40.837c16.134-2.501 21.228-13.335 21.228-13.335L92.493 11.528c-2.328-3.012-5.52-5.267-9.17-6.478-4.705-1.56-11.473-3.31-16.386-2.829C62.69 7.222 50 5.557 47.453.556 46.294.556 35.35 3.274 28.45 5"/>
        <path id="prefix__m" d="M28.45 5c-3.644.911-6.928 2.846-9.461 5.574-5 5.389-13.522 14.864-18.133 21.652C5.95 43.06 19.538 46.394 19.538 46.394l-.85 38.336 67.081.834s0-24.169.849-40.837c16.134-2.501 21.228-13.335 21.228-13.335L92.493 11.528c-2.328-3.012-5.52-5.267-9.17-6.478-4.705-1.56-11.473-3.31-16.386-2.829C62.69 7.222 50 5.557 47.453.556 46.294.556 35.35 3.274 28.45 5"/>
        <path id="prefix__o" d="M28.45 5c-3.644.911-6.928 2.846-9.461 5.574-5 5.389-13.522 14.864-18.133 21.652C5.95 43.06 19.538 46.394 19.538 46.394l-.85 38.336 67.081.834s0-24.169.849-40.837c16.134-2.501 21.228-13.335 21.228-13.335L92.493 11.528c-2.328-3.012-5.52-5.267-9.17-6.478-4.705-1.56-11.473-3.31-16.386-2.829C62.69 7.222 50 5.557 47.453.556 46.294.556 35.35 3.274 28.45 5"/>
    </defs>
    <g fill="none" fill-rule="evenodd">
        <path stroke="#3F50B5" stroke-linecap="round" stroke-width="3" d="M7 114.968L87 114.968 87 0.968 7 0.968z" transform="translate(0 1)"/>
        <path fill="#FBB03B" d="M15 105.968L81 105.968 81 11.968 15 11.968z" transform="translate(0 1)"/>
        <g transform="translate(0 1) translate(14 10.968)">
            <mask id="prefix__b" fill="#fff">
                <use xlink:href="#prefix__a"/>
            </mask>
            <path fill="#006837" d="M33.334 15.722c0 12.705-10.226 23.005-22.843 23.005-12.615 0-22.843-10.3-22.843-23.005 0-12.705 10.228-23.004 22.843-23.004 12.617 0 22.843 10.299 22.843 23.004" mask="url(#prefix__b)"/>
            <mask id="prefix__d" fill="#fff">
                <use xlink:href="#prefix__c"/>
            </mask>
            <path stroke="#006837" stroke-linecap="round" stroke-width=".5" d="M33.334 15.722c0 12.705-10.226 23.005-22.843 23.005-12.615 0-22.843-10.3-22.843-23.005 0-12.705 10.228-23.004 22.843-23.004 12.617 0 22.843 10.299 22.843 23.004z" mask="url(#prefix__d)"/>
            <path fill="#FE5700" d="M21.151 85.758c0-2.258 1.819-4.09 4.061-4.09 2.243 0 4.06 1.832 4.06 4.09s-1.817 4.09-4.06 4.09c-2.242 0-4.06-1.832-4.06-4.09"/>
            <path stroke="#FE5700" stroke-linecap="round" stroke-width=".5" d="M21.151 85.758c0-2.258 1.819-4.09 4.061-4.09 2.243 0 4.06 1.832 4.06 4.09s-1.817 4.09-4.06 4.09c-2.242 0-4.06-1.832-4.06-4.09z"/>
            <path stroke="#FE5700" stroke-linecap="round" stroke-width=".5" d="M16.075 85.758c0-5.082 4.091-9.202 9.138-9.202 5.046 0 9.136 4.12 9.136 9.202s-4.09 9.201-9.136 9.201c-5.047 0-9.138-4.119-9.138-9.2z"/>
            <g transform="translate(10.152 70.54)">
                <mask id="prefix__f" fill="#fff">
                    <use xlink:href="#prefix__e"/>
                </mask>
                <path stroke="#FE5700" stroke-linecap="round" d="M.848 15.217C.848 7.311 7.212.903 15.06.903c7.85 0 14.213 6.408 14.213 14.314 0 7.905-6.363 14.314-14.213 14.314C7.21 29.53.848 23.12.848 15.217z" mask="url(#prefix__f)"/>
            </g>
            <mask id="prefix__h" fill="#fff">
                <use xlink:href="#prefix__g"/>
            </mask>
            <use fill="#3F50B5" xlink:href="#prefix__g"/>
            <path fill="#006837" d="M51.609 79.623L65.822 79.623 65.822 65.31 51.609 65.31z" mask="url(#prefix__h)"/>
            <path stroke="#006837" stroke-linecap="round" stroke-width=".5" d="M51.609 79.623L65.822 79.623 65.822 65.31 51.609 65.31z" mask="url(#prefix__h)"/>
            <path stroke="#006837" stroke-linecap="round" d="M44.502 86.781L72.928 86.781 72.928 58.153 44.502 58.153z" mask="url(#prefix__h)"/>
            <path fill="#FE5700" d="M25.213 20.256L18.057 39.174 32.368 39.174z" mask="url(#prefix__h)"/>
            <path stroke="#FE5700" d="M25.213 14.209L14.626 42.197 35.8 42.197z" mask="url(#prefix__h)"/>
            <path fill="#006837" d="M51.051 26.37L48.464 21.857 53.639 21.857zM57.143 30.46L54.555 25.946 59.73 25.946zM52.574 35.061L49.987 30.547 55.162 30.547zM7.306 76.41L5.312 80.925 9.3 80.925zM11.999 72.321L10.005 76.836 13.992 76.836zM8.479 67.72L6.486 72.235 10.472 72.235z" mask="url(#prefix__h)"/>
        </g>
        <path stroke="#006837" stroke-linecap="round" stroke-width="3" d="M313.5 130.968L313.5 308.968" transform="translate(0 1)"/>
        <g>
            <path fill="#006837" d="M310.683 114.81c.268-.242.54-.479.82-.708.138-.114.28-.225.423-.337.089-.07-.094.071-.002.003l.1-.076c.076-.058.154-.115.231-.171.583-.427 1.187-.821 1.81-1.186.343-.2.496-.694.273-1.039-.223-.345-.674-.487-1.04-.272-1.32.772-2.559 1.686-3.692 2.712-.295.268-.292.806 0 1.074.317.29.761.285 1.077 0" transform="translate(0 1) translate(0 22.968)"/>
            <path fill="#006837" d="M311.197 111.876l-1.873 1.015c-.35.19-.491.701-.273 1.038.23.355.667.476 1.041.273l1.873-1.015c.351-.19.491-.7.273-1.039-.228-.354-.667-.474-1.041-.272M313.868 122.82c4.313 3.332 7.57 7.885 9.261 13.064.304.924 1.773.528 1.469-.404-1.77-5.415-5.136-10.244-9.653-13.733-.765-.591-1.851.475-1.077 1.073" transform="translate(0 1) translate(0 22.968)"/>
            <path fill="#006837" d="M319.134 130.113l.025-.236c-.008.067-.018.134-.028.201.054-.393.158-.776.312-1.142l-.077.18c.14-.328.317-.637.531-.924.11-.148.123-.415.077-.585-.05-.176-.185-.366-.35-.453-.176-.094-.39-.14-.587-.077-.199.064-.33.182-.454.349-.58.78-.894 1.724-.97 2.687-.016.185.096.41.223.536.132.133.348.23.538.223.439-.02.727-.334.76-.76M310.94 113.014c-8.195 2.346-15.133 8.033-20.279 14.811-5.148 6.779-8.664 14.636-11.778 22.551-3.113 7.917-5.878 15.993-9.724 23.582-1.628 3.211-3.478 6.37-6.059 8.885 6.476-1.573 12.41-4.984 17.49-9.287 5.081-4.302 9.354-9.48 13.204-14.906 1.455-2.05 2.859-4.147 4.027-6.373 6.408-12.198 5.504-27.624 13.605-38.776" transform="translate(0 1) translate(0 22.968)"/>
            <path fill="#006837" d="M310.737 112.281c-23.215 6.817-30.151 32.71-38.231 52.438-2.501 6.108-5.184 12.848-9.943 17.587-.548.544.01 1.45.74 1.269 11.755-2.93 21.012-11.262 28.243-20.616 3.722-4.815 7.138-9.82 9.239-15.564 1.93-5.278 2.99-10.81 4.309-16.258 1.47-6.073 3.309-12.113 6.99-17.253.57-.795-.75-1.554-1.314-.765-6.409 8.947-7.255 20.218-10.327 30.471-1.7 5.668-4.37 10.605-7.822 15.4-3.586 4.98-7.564 9.73-12.23 13.74-5.069 4.358-10.976 7.757-17.493 9.381l.74 1.268c4.002-3.984 6.45-9.28 8.692-14.378 2.375-5.398 4.392-10.942 6.515-16.44 4.121-10.672 8.857-21.568 17.191-29.689 4.266-4.157 9.36-7.44 15.105-9.126.937-.276.54-1.741-.404-1.465M321.84 130.327c-1.085 11.576.94 23.428 5.81 33.992 3.621 7.86 8.734 14.924 13.411 22.21 4.679 7.284 9.007 14.99 10.781 23.457.473-9.409.73-18.83.774-28.253.012-2.549.007-5.107-.324-7.635-.32-2.43-.938-4.811-1.691-7.143-2.42-7.475-6.269-14.488-11.279-20.55-5.147-6.227-11.444-11.394-17.757-16.442" transform="translate(0 1) translate(0 22.968)"/>
            <path fill="#006837" d="M321.078 130.327c-1.01 11.202.798 22.575 5.26 32.908 4.553 10.544 11.87 19.527 17.587 29.418 3.18 5.5 5.843 11.302 7.184 17.535.187.869 1.453.622 1.494-.202.327-6.553.554-13.112.675-19.673.112-6.016.585-12.285-.546-18.23-2.074-10.909-8.062-21.24-15.587-29.3-4.585-4.91-9.804-9.167-15.04-13.358-.758-.605-1.842.463-1.077 1.074 8.904 7.126 17.56 14.565 23.385 24.515 2.781 4.749 4.996 9.895 6.352 15.232 1.534 6.039 1.116 12.379 1.018 18.553-.114 7.066-.35 14.13-.702 21.187l1.495-.202c-2.346-10.907-8.623-20.286-14.673-29.464-3.103-4.708-6.182-9.45-8.696-14.505-2.531-5.089-4.389-10.494-5.536-16.06-1.318-6.386-1.656-12.937-1.07-19.428.088-.972-1.435-.967-1.523 0M316.981 201.338c3.21 4.852 7.718 8.84 12.933 11.44 3.877 1.934 8.089 3.092 12.2 4.473 4.107 1.379 8.213 3.033 11.563 5.78-2.77-3.817-5.624-7.57-8.564-11.257-.796-.998-1.6-1.994-2.523-2.877-.887-.847-1.874-1.583-2.9-2.256-3.289-2.16-6.991-3.692-10.847-4.492-3.96-.821-8.037-.871-12.083-.868" transform="translate(0 1) translate(0 22.968)"/>
            <path fill="#006837" d="M316.324 201.721c3.814 5.689 9.173 10.097 15.494 12.756 7.103 2.99 15.173 4.15 21.32 9.09.611.491 1.748-.16 1.197-.918-2.38-3.276-4.82-6.508-7.322-9.69-2.38-3.03-4.707-5.674-8.05-7.67-3.057-1.824-6.43-3.148-9.917-3.872-4.038-.838-8.178-.895-12.285-.895-.98 0-.981 1.518 0 1.518 3.889 0 7.814.03 11.642.793 3.454.69 6.769 1.963 9.791 3.766 3.163 1.89 5.344 4.384 7.593 7.241 2.474 3.143 4.882 6.338 7.233 9.575l1.195-.921c-5.771-4.637-13.048-6.102-19.837-8.628-6.825-2.538-12.67-6.842-16.74-12.912-.54-.808-1.86-.049-1.314.767M321.746 164.326c-1.398 3.693-1.803 7.755-1.16 11.65.477 2.898 1.515 5.669 2.39 8.473.876 2.804 1.599 5.715 1.416 8.647 1.004-3.04 1.937-6.1 2.799-9.181.234-.834.462-1.672.581-2.53.116-.823.127-1.658.09-2.49-.118-2.664-.746-5.305-1.84-7.738-1.125-2.5-2.721-4.756-4.334-6.975" transform="translate(0 1) translate(0 22.968)"/>
            <path fill="#006837" d="M321.012 164.124c-1.666 4.54-1.89 9.402-.736 14.093 1.22 4.952 3.595 9.666 3.356 14.878-.04.885 1.237.989 1.495.202.874-2.66 1.7-5.335 2.47-8.026.745-2.595 1.216-4.99.924-7.705-.566-5.261-3.126-9.562-6.175-13.767-.568-.784-1.89-.027-1.314.766 2.963 4.086 5.56 8.3 6.01 13.444.235 2.664-.377 5.016-1.11 7.55-.713 2.459-1.474 4.903-2.274 7.334l1.496.202c.225-4.875-1.74-9.343-3.051-13.939-1.395-4.89-1.384-9.828.376-14.628.337-.92-1.132-1.315-1.467-.404M302.535 212.157c-6.03 3.672-8.669 9.903-10.903 16.59-2.233 6.685-3.012 13.75-4.214 20.695-1.855 10.718-4.744 21.259-8.617 31.426 8.09-4.72 14.836-11.704 19.263-19.944 4.425-8.24 6.519-17.71 5.976-27.043-.416-7.172-2.348-14.359-1.214-21.453" transform="translate(0 1) translate(0 22.968)"/>
            <path fill="#006837" d="M302.15 211.5c-7.27 4.533-10.457 13.267-12.455 21.19-1.295 5.133-1.974 10.39-2.85 15.602-.873 5.207-1.984 10.372-3.338 15.477-1.517 5.724-3.34 11.36-5.438 16.897-.244.639.58 1.173 1.117.857 17.354-10.218 27.324-29.782 25.448-49.794-.593-6.342-2.034-12.719-1.073-19.1.143-.956-1.323-1.368-1.468-.404-.802 5.33-.047 10.618.617 15.917.654 5.235.908 10.446.16 15.687-1.403 9.825-5.71 19.121-12.353 26.512-3.501 3.893-7.584 7.214-12.1 9.871l1.119.857c3.603-9.502 6.374-19.31 8.234-29.3 1.79-9.61 2.72-19.355 6.689-28.408 1.859-4.24 4.47-8.062 8.46-10.55.829-.516.066-1.83-.768-1.31M313.94 202.186c-6.406 10.75-6.694 24.136-4.457 36.442 2.239 12.305 6.774 24.083 9.466 36.297 3.135-12.312 6.291-24.774 6.354-37.478.064-12.705-3.283-25.878-11.744-35.373" transform="translate(0 1) translate(0 22.968)"/>
            <path fill="#006837" d="M313.284 201.802c-10.197 17.346-4.957 38.135.298 56.135 1.664 5.698 3.344 11.394 4.632 17.19.164.737 1.287.71 1.468 0 4.999-19.63 10.184-40.997 2.312-60.625-1.9-4.738-4.515-9.128-7.897-12.965-.648-.734-1.721.343-1.076 1.075 13.118 14.877 12.948 36.138 9.337 54.48-1.166 5.924-2.654 11.78-4.144 17.632h1.468c-4.213-18.951-13.16-37.818-10.11-57.655.783-5.104 2.402-10.038 5.026-14.5.496-.845-.82-1.61-1.314-.767M317.667 130.004c-8.038 6.298-13.355 15.503-16.798 25.102-3.441 9.599-5.175 19.704-7.28 29.68-2.104 9.977-4.638 19.998-9.508 28.961 3.974-1.575 6.896-4.963 9.59-8.274 4.589-5.643 9.003-11.43 13.232-17.347 3.833-5.364 7.566-10.934 9.547-17.216 1.618-5.132 2.008-10.563 2.22-15.939.318-8.103.251-16.222-.2-24.32" transform="translate(0 1) translate(0 22.968)"/>
            <path fill="#006837" d="M317.129 129.467c-19.383 15.35-20.676 41.935-26.323 64.035-1.754 6.862-4.014 13.607-7.382 19.861-.28.52.203 1.388.86 1.116 5.36-2.22 8.86-7.098 12.356-11.493 3.948-4.967 7.77-10.035 11.442-15.21 3.497-4.928 6.845-10.062 8.82-15.812 2.035-5.929 2.374-12.269 2.582-18.48.256-7.61.162-15.23-.254-22.833-.053-.971-1.574-.977-1.522 0 .353 6.446.475 12.903.347 19.357-.121 6.141-.229 12.423-1.702 18.418-1.435 5.835-4.424 11.062-7.782 15.996-3.449 5.069-7.14 9.987-10.91 14.824-2.082 2.674-4.165 5.37-6.397 7.924-2.081 2.38-4.421 4.617-7.385 5.844l.86 1.116c11.679-21.691 9.566-47.964 21.67-69.454 3.04-5.395 6.923-10.276 11.796-14.135.767-.608-.317-1.676-1.076-1.074M313.553 109.358c1.163 4.46 5.16 7.632 9.324 9.626 4.165 1.995 8.716 3.16 12.723 5.454 5.205 2.982 9.29 7.862 11.301 13.504 1.272-6.187.764-12.799-1.883-18.536-2.649-5.736-7.512-10.517-13.476-12.638-5.963-2.121-12.97-1.409-18.134 2.248" transform="translate(0 1) translate(0 22.968)"/>
            <path fill="#006837" d="M312.82 109.56c2.093 7.482 9.954 10.333 16.484 12.851 3.826 1.474 7.442 3.222 10.46 6.047 2.864 2.68 5.06 6.007 6.404 9.686.234.64 1.309.798 1.467 0 1.557-7.842.472-16.32-4.177-22.979-4.184-5.992-10.843-10.123-18.255-10.333-4.315-.121-8.624 1.073-12.18 3.528-.799.553-.039 1.87.77 1.31 5.868-4.053 13.718-4.349 20.022-1.091 6.232 3.221 10.562 9.264 12.194 16.009 1.042 4.31 1.02 8.815.159 13.153h1.467c-2.59-7.09-7.945-12.534-14.846-15.542-6.705-2.925-16.237-4.947-18.502-13.042-.263-.94-1.732-.542-1.467.403M312.733 107.173c-.826-4.276-3.623-7.97-7.008-10.722-3.385-2.75-7.353-4.674-11.282-6.574-3.927-1.898-7.896-3.823-11.281-6.573 1.452 4.685 2.922 9.413 5.358 13.673 2.436 4.26 5.95 8.072 10.485 9.967 4.693 1.963 10.092 1.704 14.96.223" transform="translate(0 1) translate(0 22.968)"/>
            <path fill="#006837" d="M313.466 106.97c-2.947-14.176-20.05-16.434-29.766-24.203-.546-.436-1.518-.053-1.272.74 2.273 7.33 4.751 15.074 10.587 20.424 5.854 5.366 13.73 6.166 21.15 3.968.938-.278.54-1.744-.403-1.465-7.204 2.135-14.741 1.295-20.247-4.125-5.249-5.164-7.497-12.362-9.62-19.207-.423.246-.847.492-1.27.74 5.213 4.168 11.5 6.436 17.279 9.659 5.496 3.065 10.755 7.431 12.095 13.873.199.957 1.666.552 1.467-.403" transform="translate(0 1) translate(0 22.968)"/>
            <path fill="#006837" d="M312.742 105.294c-1.847-5.691-1.53-11.904-.107-17.715 1.42-5.81 3.897-11.3 6.362-16.755-.563 4.29.255 8.625 1.011 12.884.757 4.26 1.456 8.636.66 12.888-.795 4.253-3.38 8.423-7.436 9.953" transform="translate(0 1) translate(0 22.968)"/>
            <path fill="#006837" d="M313.476 105.092c-3.66-11.651 1.428-23.372 6.178-33.884l-1.419-.383c-.81 6.792 1.585 13.323 1.975 20.05.327 5.683-1.299 12.593-7.18 14.942-.899.359-.506 1.827.404 1.464 5.659-2.261 8.175-8.265 8.338-14.014.216-7.565-2.92-14.85-2.015-22.442.088-.737-1.115-1.052-1.417-.384-4.921 10.89-10.122 22.99-6.331 35.055.29.929 1.76.532 1.467-.404M303.491 212.372c2.808-3.492 6.035-6.65 9.62-9.344.327-.246.5-.657.274-1.04-.191-.32-.71-.52-1.041-.27-3.695 2.775-7.035 5.978-9.93 9.58-.257.323-.308.758 0 1.074.265.268.822.319 1.077 0M317.569 200.657c-.415-.084-.831-.168-1.238-.288-.093-.028-.186-.057-.277-.089-.062-.021-.122-.043-.183-.066-.07-.026-.061-.024.003.003-.192-.081-.38-.177-.556-.289l-.093-.06c-.004-.004-.151-.106-.057-.038.093.066-.034-.03-.052-.045-.035-.03-.07-.061-.104-.093-.067-.062-.13-.128-.193-.197-.01-.013-.082-.106-.089-.105.018-.003.087.122.021.022-.05-.077-.101-.152-.145-.23-.021-.04-.04-.083-.06-.121-.048-.088.058.17.002.007-.025-.077-.05-.153-.07-.232-.006-.025-.038-.106-.026-.132.005.032.01.063.012.095l-.007-.109c-.023-.395-.334-.778-.76-.759-.393.018-.787.334-.762.76.06 1.03.652 1.869 1.477 2.456.802.57 1.805.783 2.752.973.389.079.841-.111.936-.53.086-.378-.114-.85-.531-.933" transform="translate(0 1) translate(0 22.968)"/>
            <path fill="#006837" d="M313.945 100.746c5.202-6.605-.168-15.688 4.139-22.559.26-.415-.398-.796-.656-.383-4.278 6.822 1.052 15.965-4.02 22.404-.3.381.235.921.537.538M287.288 88.292c3.183 9.608 13.506 13.166 22.31 15.783.47.139.671-.593.202-.732-8.516-2.53-18.69-5.93-21.778-15.253-.153-.462-.888-.264-.734.202M319.831 110.037c11.278 1.413 21.235 9.555 24.862 20.295.155.46.89.262.735-.203-3.748-11.09-13.962-19.394-25.597-20.851-.485-.06-.48.698 0 .759M305.297 116.713c-6.19 5.329-9.85 12.773-12.715 20.27-3.245 8.499-5.832 17.218-10.82 24.927-2.684 4.146-5.872 7.94-9.462 11.334-.356.337.183.874.54.538 6.18-5.849 11.082-12.872 14.474-20.665 3.536-8.115 5.709-16.794 9.87-24.641 2.23-4.21 5.023-8.103 8.65-11.226.372-.32-.168-.855-.537-.537M315.235 138.928c-8.454 14.76-10.27 31.996-16.524 47.618-1.805 4.51-4.011 8.853-6.772 12.86-.277.403.382.784.658.383 9.614-13.957 11.829-31.096 17.23-46.796 1.627-4.727 3.576-9.338 6.064-13.682.243-.425-.414-.807-.656-.383M325.685 137.027c9.727 11.484 16.589 25.287 19.901 39.953.946 4.181 1.591 8.423 1.95 12.693.04.484.8.488.76 0-1.274-15.182-6.26-29.984-14.448-42.85-2.3-3.615-4.855-7.062-7.625-10.332-.316-.374-.853.165-.538.536M322.909 169.946c.89 4.778 1.578 9.59 2.06 14.426.049.48.81.485.761 0-.489-4.904-1.185-9.783-2.087-14.627-.09-.48-.824-.276-.734.201M324.021 204.616c7.052 2.005 13.669 5.276 19.547 9.65.391.292.77-.366.383-.655-5.926-4.41-12.617-7.706-19.728-9.728-.472-.133-.673.598-.202.733M298.368 220.316c-2.161 2.978-2.981 6.548-3.4 10.143-.467 4.04-.624 8.104-1.144 12.14-1.067 8.298-3.142 16.565-7.568 23.755-.255.417.402.799.658.383 4.245-6.897 6.36-14.783 7.483-22.74.547-3.877.81-7.771 1.148-11.67.354-4.084 1.016-8.23 3.48-11.628.287-.396-.373-.776-.657-.383M314.847 210.752c2.686 14.071 3.885 28.391 3.585 42.712-.01.49.75.49.76 0 .303-14.389-.911-28.775-3.611-42.913-.092-.48-.825-.278-.734.201" transform="translate(0 1) translate(0 22.968)"/>
            <path fill="#DBBA8F" d="M312.34 358.928c-14.944 0-27.058-12.083-27.058-26.989V285.55h54.117v46.389c0 14.906-12.114 26.99-27.059 26.99" transform="translate(0 1) translate(0 22.968)"/>
            <path fill="#DBBA8F" d="M339.399 331.939V285.55h-6.985c-7.8 23.74-23.378 44.904-43.79 59.386 4.604 8.34 13.497 13.992 23.716 13.992 14.944 0 27.059-12.083 27.059-26.989" transform="translate(0 1) translate(0 22.968)"/>
            <g fill="#491B0B">
                <path d="M2.301 4.003C1.22 9.768 2.83 16.283 8.07 19.537c2.897 1.799 6.326 2.406 9.592 3.194 3.624.876 7.254 2.022 10.343 4.169 2.981 2.071 5.167 5.02 5.878 8.606.755 3.805-.02 7.762-.866 11.483-1.512 6.65-3.265 13.847.766 19.99 3.635 5.534 10.242 8.817 12.87 15.054.374.886 1.847.497 1.467-.404-2.275-5.397-7.211-8.661-11.024-12.875-2.251-2.489-3.87-5.346-4.235-8.728-.396-3.67.402-7.35 1.224-10.908 1.529-6.623 3.106-14.07-1.435-19.916-4.292-5.524-11.202-7.068-17.644-8.656-3.796-.937-7.522-2.336-9.637-5.834-1.851-3.061-2.251-6.834-1.6-10.306.18-.955-1.286-1.363-1.467-.403" transform="translate(0 1) translate(0 22.968) translate(283.076 280.42)"/>
                <path d="M1.482 34.454c3.771-2.45 8.301-5.334 13-3.893 4.414 1.355 5.562 6.268 4.392 10.284C16.371 49.436 5.94 53.71 5.548 63.278c-.175 4.28 1.787 8.55 5.16 11.192.763.598 1.846-.47 1.076-1.073-3.433-2.691-5.344-7.2-4.566-11.541.898-5 4.824-8.65 8.012-12.322 2.83-3.26 5.488-6.988 5.607-11.462.106-3.932-1.888-7.654-5.769-8.916C9.893 27.473 4.902 30.423.713 33.144c-.817.53-.055 1.846.769 1.31M16.403 2.977c.432 6.17 4.586 11.634 10.197 14.15 3.032 1.36 6.757 2.121 9.873.596 2.787-1.363 4.392-4.231 5.629-6.934 1.515-3.312 2.964-7.505 6.727-8.846.916-.328.522-1.794-.403-1.465-3.433 1.224-5.315 4.367-6.742 7.525-1.535 3.39-3.12 7.824-7.178 8.828-4.012.992-8.613-1.23-11.529-3.875-2.854-2.588-4.782-6.112-5.053-9.979-.066-.97-1.59-.977-1.521 0M56.446 14.483c-8.467 3.258-14.022 11.783-13.104 20.883.86 8.521 6.78 15.191 9.746 22.966.931 2.443 1.539 4.977 1.61 7.598.088 3.199-.487 6.364-1.058 9.498-.175.956 1.292 1.365 1.468.403.861-4.733 1.641-9.524.56-14.29-.876-3.86-2.726-7.429-4.61-10.882-1.953-3.583-4.056-7.147-5.284-11.063-1.362-4.346-1.35-8.948.358-13.204 1.925-4.799 5.901-8.592 10.718-10.445.905-.348.511-1.816-.404-1.464M21.613 82.174c-1.725-3.933-2.874-8.12-3.376-12.384-.246-2.087-.336-4.193-.278-6.291.057-2.065.122-4.308.711-6.3.284-.96.855-2.046 1.893-2.364 1.08-.332 2.014.417 2.63 1.232 1.203 1.597 1.81 3.721 2.272 5.638.943 3.91 1.082 7.948 1.767 11.9.691 3.992 1.975 7.9 4.718 10.97.654.73 1.727-.346 1.077-1.073-6.343-7.096-3.811-17.732-7.342-25.997-.67-1.57-1.604-3.295-3.263-4-1.599-.68-3.282.03-4.29 1.352-1.211 1.588-1.333 3.807-1.517 5.72-.228 2.39-.255 4.8-.089 7.196.367 5.246 1.661 10.353 3.772 15.167.393.893 1.705.12 1.315-.766" transform="translate(0 1) translate(0 22.968) translate(283.076 280.42)"/>
            </g>
            <path fill="#E7CEA7" d="M264.54 56.31c0-4.658 3.784-8.434 8.456-8.434 4.67 0 8.455 3.776 8.455 8.435 0 4.658-3.785 8.434-8.455 8.434-4.672 0-8.456-3.776-8.456-8.434" transform="translate(0 1) translate(0 22.968)"/>
            <path fill="#F7931E" d="M275.857 18.357c-15.82 0-28.643 12.791-28.643 28.57v8.54H304.5v-8.54c0-15.779-12.823-28.57-28.643-28.57" transform="translate(0 1) translate(0 22.968)"/>
            <path stroke="#F7931E" stroke-linecap="round" stroke-width="4" d="M275.697 19.26c.698-1.087 2.534-3.84 5.285-6.637C291.094 2.343 304.736.457 310.579.016c23.116 0 41.856 19.272 41.856 43.044v311.652" transform="translate(0 1) translate(0 22.968)"/>
            <path fill="#F7931E" d="M385.412 358.084h-69.337c0-6.987 5.678-12.65 12.683-12.65h43.97c7.005 0 12.684 5.663 12.684 12.65" transform="translate(0 1) translate(0 22.968)"/>
            <path fill="#FBB03B" d="M385.412 358.084c0-6.987-5.679-12.65-12.684-12.65h-9.578c-4.86 5.17-11.769 9.547-17.527 12.65h39.789z" opacity=".249" transform="translate(0 1) translate(0 22.968)"/>
            <path fill="#FBB03B" d="M250.616 55.467H304.5v-8.54c0-7.798-3.135-14.863-8.214-20.019-12.061 13.615-28.126 23.668-45.67 28.56" transform="translate(0 1) translate(0 22.968)"/>
            <path fill="#009245" d="M383.417 221.224c-.02.15-.03.304-.03.455v-.232c0-.081.01-.153.03-.223" transform="translate(0 1) translate(0 22.968)"/>
            <path fill="#009245" d="M399.295 225.616c-1.197 1.366-2.891 2.065-4.586 2.065-1.43 0-2.86-.496-4.016-1.508-1.025-.89-1.635-2.137-1.726-3.483-.081-1.355.366-2.661 1.259-3.673 1.551-1.76 4.261-1.942 6.026-.384.731.628 1.157 1.508 1.217 2.48.072.961-.254 1.882-.893 2.61-.537.618-1.298.991-2.12 1.043-.832.05-1.624-.224-2.242-.759-1.117-.971-1.227-2.672-.244-3.775.366-.425 1.005-.465 1.43-.09.418.363.458 1.001.092 1.426-.122.132-.173.294-.162.466.01.172.09.334.223.444.214.193.497.284.772.264.283-.011.548-.142.73-.354.579-.658.517-1.66-.142-2.237-.933-.81-2.344-.728-3.165.203-.539.606-.802 1.396-.752 2.205.05.81.416 1.56 1.035 2.096.813.708 1.868 1.052 2.942 1.002 1.087-.071 2.08-.557 2.8-1.377.945-1.062 1.412-2.439 1.32-3.855-.092-1.427-.731-2.723-1.805-3.664-2.873-2.52-7.266-2.237-9.782.627-1.41 1.6-2.09 3.006-2.09 4.29v95.08c0 .556-.457 1.012-1.015 1.012-.567 0-1.015-.456-1.015-1.012v-52.351c-.537-3.917-3.225-7.206-7-8.521-2.09-.73-4.333-.598-6.321.354-1.979.961-3.48 2.63-4.2 4.716-1.168 3.32.608 6.973 3.937 8.136 2.566.89 5.376-.465 6.269-3.026.335-.94.274-1.953-.162-2.843-.436-.901-1.187-1.57-2.13-1.903-1.452-.506-3.044.263-3.551 1.71-.184.527-.761.81-1.29.628-.526-.182-.811-.76-.629-1.296.873-2.5 3.633-3.825 6.129-2.955 3.003 1.043 4.596 4.332 3.55 7.327-.993 2.854-3.693 4.655-6.573 4.655-.752 0-1.522-.13-2.274-.394-4.393-1.518-6.727-6.325-5.195-10.707.904-2.591 2.771-4.676 5.236-5.87 2.487-1.194 5.277-1.346 7.873-.445 2.648.92 4.84 2.651 6.331 4.868v-37.163c0-.15.01-.302.032-.454.122-1.66.964-3.35 2.566-5.171 3.257-3.695 8.93-4.069 12.642-.81 3.055 2.672 3.358 7.327.67 10.373" transform="translate(0 1) translate(0 22.968)"/>
            <path fill="#009245" d="M382.706 241.693c-10.274 0-18.603-8.308-18.603-18.556 10.274 0 18.603 8.308 18.603 18.556" transform="translate(0 1) translate(0 22.968)"/>
            <path stroke="#009245" stroke-linecap="round" d="M382.706 241.693h0c-10.274 0-18.603-8.308-18.603-18.556 10.274 0 18.603 8.308 18.603 18.556z" transform="translate(0 1) translate(0 22.968)"/>
            <path fill="#009245" d="M389.408 312.024c-3.415-23.04 12.54-44.48 35.64-47.886 3.415 23.039-12.54 44.48-35.64 47.886" transform="translate(0 1) translate(0 22.968)"/>
            <path stroke="#009245" stroke-linecap="round" d="M389.408 312.024h0c-3.415-23.04 12.54-44.48 35.64-47.886 3.415 23.039-12.54 44.48-35.64 47.886z" transform="translate(0 1) translate(0 22.968)"/>
            <path fill="#009245" d="M380.617 309.775c-11.792-2.885-19.007-14.758-16.116-26.52 11.793 2.885 19.009 14.758 16.116 26.52" transform="translate(0 1) translate(0 22.968)"/>
            <path stroke="#009245" stroke-linecap="round" d="M380.617 309.775h0c-11.792-2.885-19.007-14.758-16.116-26.52 11.793 2.885 19.009 14.758 16.116 26.52z" transform="translate(0 1) translate(0 22.968)"/>
            <path fill="#009245" d="M393.982 268.85c2.087 5.187-.439 11.079-5.64 13.16-2.086-5.187.439-11.08 5.64-13.16" transform="translate(0 1) translate(0 22.968)"/>
            <path stroke="#009245" stroke-linecap="round" d="M393.982 268.85h0c2.087 5.187-.439 11.079-5.64 13.16-2.086-5.187.439-11.08 5.64-13.16z" transform="translate(0 1) translate(0 22.968)"/>
            <path fill="#009245" d="M420.174 307.045l-.077.176c-2.693 6.145-9.871 8.95-16.033 6.263l-.176-.077.077-.176c2.694-6.145 9.87-8.949 16.033-6.263l.176.077z" transform="translate(0 1) translate(0 22.968)"/>
            <path stroke="#009245" stroke-linecap="round" d="M420.174 307.045l-.077.176c-2.693 6.145-9.871 8.95-16.033 6.263l-.176-.077.077-.176c2.694-6.145 9.87-8.949 16.033-6.263l.176.077z" transform="translate(0 1) translate(0 22.968)"/>
            <path fill="#009245" d="M376.015 312.895c-3.631 1.328-7.655-.529-8.987-4.152 3.63-1.328 7.654.53 8.987 4.152" transform="translate(0 1) translate(0 22.968)"/>
            <path stroke="#009245" stroke-linecap="round" d="M376.015 312.895h0c-3.631 1.328-7.655-.529-8.987-4.152 3.63-1.328 7.654.53 8.987 4.152z" transform="translate(0 1) translate(0 22.968)"/>
            <path fill="#009245" d="M400.035 243.82c.46 7.905-5.593 14.686-13.518 15.144-.46-7.905 5.591-14.686 13.518-15.144" transform="translate(0 1) translate(0 22.968)"/>
            <path stroke="#009245" stroke-linecap="round" d="M400.035 243.82h0c.46 7.905-5.593 14.686-13.518 15.144-.46-7.905 5.591-14.686 13.518-15.144z" transform="translate(0 1) translate(0 22.968)"/>
            <path fill="#009245" d="M393.04 306.547c7.135-12.242 15.538-23.712 25.068-34.208.329-.36-.208-.9-.537-.537-9.572 10.543-18.02 22.066-25.188 34.362-.248.423.41.806.656.383M366.635 286.54c4.266 5.785 7.752 12.105 10.347 18.804.175.45.91.255.734-.201-2.62-6.763-6.117-13.146-10.425-18.986-.287-.39-.947-.011-.656.384M408.074 311.795c2.346-1.395 4.867-2.452 7.507-3.147.474-.124.273-.857-.202-.732-2.7.71-5.29 1.797-7.69 3.224-.42.25-.037.906.385.655M389.538 278.672c1.108-2.454 2.338-4.852 3.686-7.183.245-.424-.412-.807-.658-.384-1.347 2.333-2.578 4.73-3.685 7.183-.2.443.456.828.657.384M388.61 256.695l9.14-10.02c.329-.362-.208-.9-.538-.538l-9.14 10.02c-.328.36.209.9.538.538M367.142 225.763c4.76 3.704 9.075 7.947 12.857 12.64.308.38.842-.16.538-.537-3.781-4.694-8.097-8.935-12.857-12.639-.383-.296-.924.237-.538.536" transform="translate(0 1) translate(0 22.968)"/>
            <path fill="#E7CEA7" d="M390.85 358.084h-7.832c-9.98 0-18.068-8.07-18.068-18.023v-23.304h43.97v23.304c0 9.954-8.09 18.023-18.07 18.023" transform="translate(0 1) translate(0 22.968)"/>
            <g>
                <path fill="#491B0B" d="M2.834 19.738c7.77-2.93 12.743-10.694 11.953-18.985-.092-.964-1.614-.974-1.522 0C13.987 8.332 9.6 15.57 2.43 18.275c-.908.342-.514 1.81.405 1.463" transform="translate(0 1) translate(0 22.968) translate(361.2 311.7)"/>
                <path fill="#491B0B" d="M2.824 14.572c5.01-2.448 7.6-8.123 6.282-13.513-.232-.948-1.7-.547-1.467.404 1.165 4.768-1.189 9.65-5.584 11.799-.878.43-.108 1.74.77 1.31M4.16 27.456c5.395.248 10.597 2.594 14.288 6.541 3.778 4.041 5.708 9.55 5.48 15.05-.041.976 1.48.974 1.521 0 .245-5.897-1.882-11.798-5.925-16.123-3.965-4.24-9.578-6.72-15.363-6.986-.98-.045-.976 1.473 0 1.518" transform="translate(0 1) translate(0 22.968) translate(361.2 311.7)"/>
                <path fill="#491B0B" d="M3.642 31.859c7.815 1.694 13.383 8.655 13.267 16.645-.013.977 1.508.978 1.522 0 .125-8.63-5.926-16.276-14.385-18.109-.955-.207-1.362 1.256-.404 1.464M18.056 4.749c-2.862 8.43 3.369 15.834 8.45 21.823 2.836 3.344 5.679 6.888 6.905 11.172 1.26 4.397.828 9.163-1.144 13.283-.42.878.892 1.649 1.315.766 1.78-3.717 2.443-7.84 1.838-11.924-.628-4.242-2.725-7.936-5.318-11.287-5.1-6.596-13.747-14.096-10.579-23.43.316-.928-1.153-1.325-1.467-.403M37.984 4.08c.387 7.226 5.266 13.467 12.21 15.57.94.284 1.34-1.18.405-1.464-6.274-1.9-10.742-7.567-11.093-14.105-.053-.972-1.575-.978-1.522 0" transform="translate(0 1) translate(0 22.968) translate(361.2 311.7)"/>
                <path fill="#491B0B" d="M32.2 2.709c.987 11.046 7.46 21.225 17.107 26.762.85.488 1.618-.823.768-1.311-9.156-5.255-15.414-14.944-16.353-25.451-.086-.966-1.609-.975-1.522 0" transform="translate(0 1) translate(0 22.968) translate(361.2 311.7)"/>
                <path stroke="#42210B" stroke-linecap="round" stroke-width="2" d="M0.166 15.152L52.011 15.152" transform="translate(0 1) translate(0 22.968) translate(361.2 311.7)"/>
            </g>
            <path fill="#DBBA8F" d="M370.026 349.08l-1.292.306c-.185.337-.34.684-.49 1.031 3.27 4.632 8.662 7.667 14.774 7.667h7.831c9.98 0 18.07-8.069 18.07-18.022v-23.305h-5.207c-7.112 14.166-19.156 25.88-33.686 32.322" opacity=".249" transform="translate(0 1) translate(0 22.968)"/>
            <path fill="#DBBA8F" d="M230.844 258.561H17.757V236.79c0-28.036 22.786-50.763 50.892-50.763h111.302c28.107 0 50.893 22.727 50.893 50.763v21.771z" transform="translate(0 1) translate(0 22.968)"/>
            <path fill="#E7CEA7" d="M244.542 323.505h-36.36v-88.648c0-8.336 6.776-15.094 15.133-15.094h6.094c8.357 0 15.133 6.758 15.133 15.094v88.648z" transform="translate(0 1) translate(0 22.968)"/>
            <path fill="#E7CEA7" d="M248.6 323.505h-36.36v-88.648c0-8.336 6.776-15.094 15.134-15.094h6.093c8.358 0 15.133 6.758 15.133 15.094v88.648zM40.418 323.505H4.058v-88.648c0-8.336 6.775-15.094 15.134-15.094h6.093c8.358 0 15.133 6.758 15.133 15.094v88.648z" transform="translate(0 1) translate(0 22.968)"/>
            <path fill="#E7CEA7" d="M36.36 323.505H0v-88.648c0-8.336 6.775-15.094 15.133-15.094h6.094c8.357 0 15.133 6.758 15.133 15.094v88.648z" transform="translate(0 1) translate(0 22.968)"/>
            <path fill="#DBBA8F" d="M36.36 323.505L212.241 323.505 212.241 299.889 36.36 299.889z" transform="translate(0 1) translate(0 22.968)"/>
            <path fill="#E7CEA7" d="M205.055 305.96H44.39c-4.435 0-8.03-3.586-8.03-8.01v-33.317h176.726v33.318c0 4.423-3.595 8.01-8.03 8.01" transform="translate(0 1) translate(0 22.968)"/>
            <path fill="#E7CEA7" d="M36.36 299.889L213.086 299.889 213.086 258.561 36.36 258.561z" transform="translate(0 1) translate(0 22.968)"/>
            <path fill="#F7931E" d="M240.99 361.459L235.706 361.459 227.884 323.505 238.453 323.505zM15.643 361.459L20.928 361.459 28.75 323.505 18.18 323.505z" transform="translate(0 1) translate(0 22.968)"/>
            <path fill="#1A1A1A" d="M142.677 40.235c-9.176.325-16.36 7.753-16.046 16.59.007.209.038.41.055.617-3.094-2.41-7.038-3.173-10.444-1.62-5.183 2.363-7.145 9.168-4.38 15.201 2.764 6.032 9.207 9.006 14.39 6.643 3.634-1.657 5.675-5.496 5.624-9.722 3.113 2.804 7.34 4.457 11.94 4.295 9.176-.325 16.36-7.753 16.045-16.59-.314-8.837-8.008-15.738-17.184-15.414" transform="translate(0 1) translate(0 22.968)"/>
            <path fill="#000" d="M159.835 57.21c-4.258-2.843-9.726-3.858-14.88-3.33-6.317.646-12.243 3.354-17.722 6.558-2.12 1.24-4.213 2.569-6.52 3.413-2.31.843-4.9 1.17-7.22.36-.953-.33-1.832-.893-2.557-1.598-.613 2.62-.364 5.597.926 8.41 2.764 6.032 9.207 9.006 14.39 6.643 3.633-1.657 5.675-5.496 5.625-9.722 3.112 2.804 7.339 4.457 11.939 4.295 8.63-.306 15.494-6.894 16.02-15.029" transform="translate(0 1) translate(0 22.968)"/>
            <path fill="#1A1A1A" d="M174.118 92.167c.62 17.457-12.59 32.094-29.508 32.694-16.919.598-31.136-13.068-31.758-30.524-.622-17.457 12.589-32.094 29.507-32.693 16.919-.6 31.138 13.066 31.759 30.523" transform="translate(0 1) translate(0 22.968)"/>
            <path fill="#F1B596" d="M129.265 115.698s-1 19.446-.85 23.661c1.78 2.469 8.72 7.287 8.72 7.287l10.776-6.29-.48-13.485-18.166-11.173z" transform="translate(0 1) translate(0 22.968)"/>
            <path fill="#F1B596" d="M128.986 121.432c3.986 5.747 10.051 11.62 18.724 13.266l-.279-7.827-18.166-11.173s-.124 2.421-.279 5.734" transform="translate(0 1) translate(0 22.968)"/>
            <path fill="#F1B596" d="M119.326 104.478c1.36 3.997 9.374 24.877 28.514 25.716.365.016.734-.043 1.078-.168 13.146-4.782 24.313-15.217 23.84-28.527-.48-13.486-9.502-29.202-19.701-30.529-10.201-1.326-26.017 5.985-30.607 19.652-2.221 7.527-2.981 11.122-3.228 12.497-.082.457-.046.919.104 1.36M77.793 243.38l59.059 11.297c1.659.318 3.036 1.468 3.639 3.043l8.53 22.25c1.025 2.675.104 5.69-2.22 7.369-3.495 2.523-8.72 4.29-12.354-3.476-3.038-6.493-4.74-10.987-5.676-13.823-.734-2.224-2.943-3.613-5.27-3.304-10.412 1.377-37.43 4.473-48.244 1.103-13.529-4.217 2.536-24.46 2.536-24.46M162.351 294.829l-14.222 38.616c-.637 1.73-.53 3.645.297 5.294l11.07 22.084c1.318 2.63 3.94 4.355 6.882 4.53 5.587.334 13.49-.176 9.502-6.424-3.774-5.918-7.893-11.834-10.382-15.344-1.414-1.995-1.619-4.6-.541-6.794l19.38-39.432-21.14-2.53" transform="translate(0 1) translate(0 22.968)"/>
            <path fill="#F1B596" d="M179.108 306.407c-.125-.169-.33-.254-.528-.33-3.731-1.437-7.632-2.434-11.598-2.965-2.416-.324-4.929-.506-7.227-1.236l-1.343 3.65c1.287 2.186 2.918 4.17 4.83 5.84 3.132 2.736 6.997 4.625 11.083 5.419.14.027.285.05.431.065l3.917-7.968c.15-.5.31-.995.456-1.496.095-.325.179-.704-.021-.979" transform="translate(0 1) translate(0 22.968)"/>
            <path fill="#491B0B" d="M99.778 279.646s-4.228-21.085 3.382-31.206c15.221 2.53 35.515 6.748 35.515 6.748s13.21 3.514 21.518 5.787c3.389.927 5.278 4.524 4.106 7.829-4.416 12.468-10.403 32.772-10.403 32.772s18.602 16.025 38.05 5.06c6.765-19.399 21.14-55.665 14.375-64.1-5.073-6.747-43.125-17.712-43.125-17.712l-63.418-2.53s-58.345.843-60.881 29.52c-1.692 14.338 21.14 27.832 60.881 27.832" transform="translate(0 1) translate(0 22.968)"/>
            <path fill="#491B0B" d="M99.836 255.792c-2.175.15-4.38.453-6.462.64-10.167.906-20.895-2.437-27.89-9.853-4.146-4.395-6.743-10.26-7.315-16.24-10.125 4.366-18.354 11.096-19.272 21.475-1.692 14.338 21.14 27.832 60.881 27.832 0 0-2.663-13.308.058-23.854" transform="translate(0 1) translate(0 22.968)"/>
            <path fill="#E9937F" d="M102.315 180.123s-14.375 16.87-.845 29.52c0 10.12-.846 16.869-.846 16.869S65.11 213.86 89.632 171.69c4.228-8.435 12.683 8.433 12.683 8.433" transform="translate(0 1) translate(0 22.968)"/>
            <path fill="#F1B596" d="M166.16 180.123s14.375 16.87.846 29.52c0 10.12.846 16.869.846 16.869s35.514-12.652 10.992-54.822c-4.228-8.435-12.684 8.433-12.684 8.433" transform="translate(0 1) translate(0 22.968)"/>
            <path fill="#491B0B" d="M170.05 254.405c-1.328-.778-2.905-.986-4.434-1.178-19.156-2.405-38.312-6.835-57.467-9.24-1.584-.199-3.37-.344-4.6.672-.914.755-1.256 3.136-1.15 4.902.241-.386.492-.761.762-1.122 15.22 2.531 35.514 6.749 35.514 6.749s13.21 3.513 21.518 5.786c3.39.927 5.278 4.525 4.107 7.83-4.418 12.468-10.405 32.771-10.405 32.771s5.432 4.67 13.487 7.243c.37-.246.726-.51 1.048-.829 2.268-2.231 2.617-5.701 2.835-8.87l2.286-33.311c.143-2.095.285-4.222-.151-6.277-.436-2.054-1.533-4.062-3.35-5.126" transform="translate(0 1) translate(0 22.968)"/>
            <path fill="#F1B596" d="M101.344 268.96c-.084-6.97.938-13.955 3.475-20.41l-8.316-1.591c-.542.63-1.027 1.312-1.465 2.019-3.678 5.933-4.622 13.122-5.108 20.083-.007.096-.01.195-.017.294 3.676.004 7.578-.15 11.43-.395" transform="translate(0 1) translate(0 22.968)"/>
            <path fill="#FBB03B" d="M100.624 182.654s-13.529-3.374-18.603-14.338c4.591-6.87 13.078-16.46 18.057-21.912 2.522-2.762 5.793-4.719 9.423-5.642 6.87-1.746 17.769-4.496 18.922-4.496 2.537 5.06 15.175 6.745 19.403 1.685 4.891-.488 11.632 1.283 16.318 2.862 3.634 1.225 6.813 3.508 9.131 6.556l15.29 20.104s-5.074 10.964-21.14 13.494c-.846 16.868-.846 41.328-.846 41.328l-66.8-.845.845-38.796z" transform="translate(0 1) translate(0 22.968)"/>
            <path fill="#FBB03B" d="M166.579 222.295s0-8.477.173-18.89c-3.668-4.394-8.107-8.223-12.582-11.837-6.946-5.609-14.233-11.015-19.567-18.167-7.669-10.283-10.58-23.327-10.57-36.241-4.087.956-10.131 2.484-14.532 3.602-3.63.923-6.9 2.88-9.422 5.642-4.98 5.452-13.466 15.042-18.057 21.912 5.073 10.964 18.602 14.338 18.602 14.338l-.846 38.796 66.801.845z" transform="translate(0 1) translate(0 22.968)"/>
            <path fill="#1A1A1A" d="M121.03 98.267c.845-.03 14.97-7.281 18.626-23.446 1.115 7.556 8.99 14.872 20.096 17.855 11.105 2.982 13.036 9.666 13.096 11.352.485-10.145.034-22.789-4.31-26.01-4.346-3.222-10.59-12.284-29.092-9.097-10.926 2.074-20.496 18.448-19.262 29.376" transform="translate(0 1) translate(0 22.968)"/>
            <path fill="#1A1A1A" d="M172.796 95.651c.992 2.547 1.688 5.168 2.212 7.841.496 2.677.791 5.422.526 8.251-.122 1.397-.46 2.904-1.034 4.172-.54 1.295-1.218 2.457-1.822 3.616-1.213 2.259-2.25 4.72-1.72 7.307l-.29.096c-.55-1.256-.657-2.696-.493-4.067.153-1.376.544-2.724.999-3.989.454-1.268.927-2.496 1.284-3.693.364-1.211.502-2.338.513-3.581.001-2.466-.45-5.007-.957-7.517-.535-2.512-1.216-5.017-1.975-7.466l2.757-.97z" transform="translate(0 1) translate(0 22.968)"/>
            <path fill="#F1B596" d="M124.061 101.583c1.082 3.81-.226 7.515-2.922 8.277-2.696.762-5.759-1.708-6.84-5.517-1.082-3.81.226-7.515 2.922-8.277 2.695-.763 5.758 1.708 6.84 5.517" transform="translate(0 1) translate(0 22.968)"/>
        </g>
        <g transform="translate(0 1) translate(81 158.968)">
            <mask id="prefix__j" fill="#fff">
                <use xlink:href="#prefix__i"/>
            </mask>
            <path fill="#FFF" d="M6.478 20.382l73.044-.666 20.615-.188c.983-.01.985-1.51 0-1.5l-73.044.666-20.615.188c-.983.009-.985 1.509 0 1.5" mask="url(#prefix__j)"/>
            <mask id="prefix__l" fill="#fff">
                <use xlink:href="#prefix__k"/>
            </mask>
            <path fill="#FFF" d="M6.478 10.046l73.044-.667 20.615-.187c.983-.009.985-1.509 0-1.5l-73.044.666-20.615.188c-.983.01-.985 1.51 0 1.5" mask="url(#prefix__l)"/>
            <g>
                <mask id="prefix__n" fill="#fff">
                    <use xlink:href="#prefix__m"/>
                </mask>
                <path fill="#FFF" d="M1.03 30.92c28.162.57 56.335.658 84.501.256 7.975-.113 15.948-.267 23.922-.458.981-.024.985-1.524 0-1.5-28.161.675-56.333.868-84.5.571-7.975-.083-15.95-.207-23.924-.369-.984-.02-.984 1.48 0 1.5" mask="url(#prefix__n)"/>
            </g>
            <g>
                <use fill="#3F50B5" xlink:href="#prefix__o"/>
            </g>
        </g>
        <g>
            <path stroke="#FBB03B" stroke-linecap="round" stroke-width=".75" d="M71.84 121.288c4.808 5.222 7.056 12.713 5.918 19.73-.57 3.521-1.94 7.072-1.155 10.55M12.993 136.378L12.993 147.092" transform="translate(0 1) translate(90 62.968)"/>
            <path fill="#1A1A1A" d="M48.613 60.245c.058 1.635-.65 2.987-1.58 3.021-.93.032-1.732-1.265-1.79-2.9-.058-1.636.65-2.987 1.58-3.02.931-.033 1.733 1.264 1.79 2.9M70.96 59.872c.057 1.635-.65 2.988-1.581 3.021-.93.033-1.732-1.265-1.79-2.9-.059-1.635.65-2.987 1.58-3.02.931-.033 1.733 1.265 1.79 2.9" transform="translate(0 1) translate(90 62.968)"/>
            <path stroke="#FFF" stroke-width="2" d="M38.516 61.029c-.182-5.138 3.822-9.45 8.94-9.633 5.12-.183 9.418 3.835 9.6 8.973.18 5.136-3.822 9.45-8.941 9.632-5.12.182-9.417-3.835-9.599-8.972zM62.111 60.188c-.182-5.138 3.82-9.45 8.94-9.633 5.12-.183 9.418 3.835 9.599 8.973.182 5.138-3.82 9.45-8.94 9.632-5.12.182-9.417-3.834-9.599-8.972z" transform="translate(0 1) translate(90 62.968)"/>
            <path stroke="#1A1A1A" stroke-linecap="round" d="M66.372 49.452s4.907-4.409 10.112-.36M41.092 50.352s4.907-4.409 10.112-.36M53.772 73.693s3.828 7.54 11.485 2.864M51.605 73.264s1.715.785 3.341-.966" transform="translate(0 1) translate(90 62.968)"/>
            <path stroke="#FFF" stroke-width="2" d="M57.061 58.631L62.157 58.631" transform="translate(0 1) translate(90 62.968)"/>
            <path fill="#BDCCD4" d="M76.937 197.558H9.48c-2.096 0-3.795-1.705-3.795-3.808 0-2.102 1.699-3.808 3.795-3.808h67.457c2.095 0 3.794 1.706 3.794 3.808 0 2.103-1.7 3.808-3.794 3.808" opacity=".201" transform="translate(0 1) translate(90 62.968)"/>
            <path fill="#F2F2F2" d="M76.937 189.942h-68.3L.926 145.45c-.378-2.175 1.29-4.166 3.49-4.166h77.51c2.223 0 3.898 2.032 3.48 4.224l-8.47 44.434z" transform="translate(0 1) translate(90 62.968)"/>
            <path fill="#BDCCD4" d="M38.15 166.248c0-2.805 2.264-5.077 5.058-5.077s5.059 2.272 5.059 5.077c0 2.804-2.265 5.077-5.06 5.077-2.793 0-5.058-2.273-5.058-5.077" transform="translate(0 1) translate(90 62.968)"/>
            <path fill="#BDCCD4" d="M76.66 189.942C49.91 181.429 26 164.103 9.55 141.284H4.416c-2.2 0-3.867 1.99-3.49 4.166l7.71 44.492H76.66z" opacity=".201" transform="translate(0 1) translate(90 62.968)"/>
            <path fill="#BDCCD4" d="M80.278 195.52c-.491-.452-1.075-.818-1.693-1.035-1.772-.624-3.71-.401-5.581-.249-10.114.828-20.393-.688-29.88-4.294H9.479c-2.095 0-3.794 1.706-3.794 3.809 0 2.102 1.699 3.807 3.794 3.807h67.458c1.455 0 2.704-.832 3.34-2.039" transform="translate(0 1) translate(90 62.968)"/>
            <path fill="#1A1A1A" d="M67.01 25.966c2.4-.903 4.236-2.8 5.366-5.083 1.337-2.702 1.687-5.735 1.932-8.703.08-.977-1.437-.971-1.517 0-.376 4.531-1.303 10.48-6.184 12.316-.907.342-.514 1.815.403 1.47M38.672 16.311c-2.467-4.88-1.59-10.809 2.158-14.773.672-.712-.4-1.79-1.074-1.077-4.233 4.48-5.175 11.116-2.394 16.619.44.875 1.75.104 1.31-.769M36.066 53.902c-1.97 2.266-2.39 4.972-2.181 7.553.255 2.607.804 5.415 1.549 8.346.358 1.465.691 2.978.837 4.54.155 1.562.071 3.172-.227 4.688-.644 3.043-1.93 5.775-3.263 8.43l-.281-.115c.89-2.834 1.844-5.67 2.042-8.529.3-2.85-.43-5.558-1.434-8.315-.497-1.378-1.054-2.775-1.542-4.254-.472-1.479-.781-3.083-.715-4.744.07-1.655.487-3.364 1.351-4.796.84-1.434 2.168-2.648 3.707-3.064l.157.26z" transform="translate(0 1) translate(90 62.968)"/>
            <path fill="#FFF" d="M60.158 4.736c2.337 1.353 4.05 3.786 4.748 6.463.688 2.68.367 5.644-1.024 7.964.63-2.609.69-5.231.046-7.71-.635-2.48-1.957-4.746-3.77-6.717M56.256 33.19c1.242 2.473 2.655 4.759 4.393 6.806 1.72 2.062 3.726 3.843 5.945 5.49-2.61-.94-4.911-2.702-6.718-4.836-1.791-2.149-3.134-4.72-3.62-7.46M61.435 17.278c-.057-1.147-.042-2.147-.124-3.17-.058-1.025-.203-2.013-.296-3.157.828.811 1.219 1.957 1.305 3.09.062 1.134-.173 2.32-.885 3.237" transform="translate(0 1) translate(90 62.968)"/>
        </g>
    </g>
</svg>
